<svg xmlns="http://www.w3.org/2000/svg" viewBox="0 0 117.79 154.21"><defs><style>.cls-1{fill:#00a4ff;}.cls-2{fill:#fff;}.cls-3{fill:#0283bc;}.cls-4{fill:#e29713;}.cls-5{fill:#f9c33e;}.cls-6{fill:#f4b129;opacity:0.52;}.cls-7{fill:#f9d748;}.cls-8{fill:#ffe05a;}.cls-10,.cls-9{fill:#ffd44c;}.cls-9{opacity:0.57;}.cls-11{fill:#ffed6f;}.cls-12{fill:#d87c17;}.cls-13{fill:#ffc638;}.cls-14{fill:#fcb81e;}</style></defs><title>Zasób 44</title><g id="Warstwa_2" data-name="Warstwa 2"><g id="Layer_1" data-name="Layer 1"><rect class="cls-1" width="117.79" height="154.21" rx="12.95"/><rect class="cls-2" x="5.37" y="5.63" width="107.05" height="142.95" rx="10.36"/><path class="cls-3" d="M14.17,135.37a43.83,43.83,0,0,0,.52,7.53,4.62,4.62,0,0,1-1.67.3,2.23,2.23,0,0,1-1.52-.57,1.91,1.91,0,0,1-.65-1.55q0-1,.24-3.75c.16-1.85.25-3.27.25-4.29a48.17,48.17,0,0,0-.52-7.21c1.21.09,2.83.14,4.87.14a36.74,36.74,0,0,0,5.85-.44,2.73,2.73,0,0,1,.29,1.29,1.81,1.81,0,0,1-.57,1.32,2,2,0,0,1-1.42.57,23.32,23.32,0,0,1-2.69-.24,24,24,0,0,0-2.73-.25c-.13,1.78-.21,3.41-.25,4.9.95.09,2,.14,3.15.14a8.05,8.05,0,0,0,3-.51,2.72,2.72,0,0,1,.29,1.28,1.88,1.88,0,0,1-.58,1.35,1.8,1.8,0,0,1-1.35.6,11.55,11.55,0,0,1-2.26-.31A12,12,0,0,0,14.17,135.37Z"/><path class="cls-3" d="M27.53,142.9a4.57,4.57,0,0,1-1.66.3,2.23,2.23,0,0,1-1.53-.57,1.92,1.92,0,0,1-.65-1.54c0-.65.08-1.9.25-3.75s.24-3.33.24-4.44a35.4,35.4,0,0,0-.51-6.78,4.57,4.57,0,0,1,1.66-.29,2.23,2.23,0,0,1,1.53.56,2,2,0,0,1,.65,1.54c0,.65-.08,1.91-.25,3.76S27,135,27,136.13A35.35,35.35,0,0,0,27.53,142.9Z"/><path class="cls-3" d="M38.69,143a5.93,5.93,0,0,1-1.86.34,2.32,2.32,0,0,1-1.95-.91,7.42,7.42,0,0,1-1.13-2.61c-.07-.24-.3-1.14-.69-2.69q-1.16-4.55-1.86-6.59a6.34,6.34,0,0,0-2.08-3.1,2.47,2.47,0,0,1,1-1.17,2.76,2.76,0,0,1,1.58-.44,1.87,1.87,0,0,1,1.49.69,5.46,5.46,0,0,1,.94,1.7c.24.67.44,1.32.63,1.94s.36,1.38.57,2.3.37,1.65.49,2.21.32,1.53.59,2.89.47,2.35.6,3q4.11-10.71,4.11-14.31a2.67,2.67,0,0,0,0-.47,3.84,3.84,0,0,1,.76-.07,2.54,2.54,0,0,1,1.6.48,1.61,1.61,0,0,1,.63,1.36c0,.81-.81,3.22-2.41,7.22A72.72,72.72,0,0,0,38.69,143Z"/><path class="cls-3" d="M56.67,139.82a3.57,3.57,0,0,1,.29,1.49,2,2,0,0,1-.57,1.43,1.87,1.87,0,0,1-1.41.6c-1.73,0-4.43-.09-8.12-.29a1.45,1.45,0,0,1-.78-.28.79.79,0,0,1-.35-.65q0-1.29.21-4.38t.21-5.76a42.77,42.77,0,0,0-.51-6.15c1.2.09,2.83.14,4.86.14a36.74,36.74,0,0,0,5.85-.44,2.62,2.62,0,0,1,.29,1.29,1.81,1.81,0,0,1-.57,1.32,1.94,1.94,0,0,1-1.42.57,23.5,23.5,0,0,1-2.69-.24,24,24,0,0,0-2.73-.25c-.13,1.65-.2,3.2-.22,4.65,1,.1,2.13.15,3.32.15a8.13,8.13,0,0,0,3-.51,2.55,2.55,0,0,1,.3,1.28,1.88,1.88,0,0,1-.58,1.35,1.82,1.82,0,0,1-1.37.59,13.7,13.7,0,0,1-2.36-.3,13.91,13.91,0,0,0-2.37-.31c0,2.58,0,4.47.17,5.68.78.06,1.39.1,1.84.1A13.92,13.92,0,0,0,56.67,139.82Z"/><path class="cls-3" d="M15.49,29.72a3.74,3.74,0,0,0,2.28.61,3.1,3.1,0,0,0,2.39-1,3.89,3.89,0,0,0,.94-2.73C21.1,24.2,20,23,17.88,23a12.23,12.23,0,0,0-2.14.33,12.86,12.86,0,0,1-2.57.33,4.73,4.73,0,0,1-1.89-.38A46.25,46.25,0,0,0,12,15.41c0-1.69.92-2.54,2.78-2.54a34.43,34.43,0,0,0,9.14-.94,8,8,0,0,1,.37,2.26,1.83,1.83,0,0,1-.73,1.54,3,3,0,0,1-1.85.55c-.74,0-1.84-.08-3.3-.23s-2.35-.25-2.66-.27a24.69,24.69,0,0,0-.38,4.94,18.67,18.67,0,0,1,3.45-.47,7.4,7.4,0,0,1,4.66,1.38,4.75,4.75,0,0,1,1.78,4,6.83,6.83,0,0,1-2.55,5.52,9.32,9.32,0,0,1-6.15,2.11,8.34,8.34,0,0,1-4.14-1,3.14,3.14,0,0,1-1.74-2.91,2.53,2.53,0,0,1,.85-2,3.07,3.07,0,0,1,2.12-.75,4.48,4.48,0,0,1,1.22.15A3.78,3.78,0,0,0,14.66,28,2,2,0,0,0,15.49,29.72Z"/><path class="cls-4" d="M96.37,16.67a4.26,4.26,0,0,1-1.72,1.23,3.47,3.47,0,0,1-1.88-.18,3.09,3.09,0,0,1-1.33-1.37,12.44,12.44,0,0,1-.55-1.88,4.83,4.83,0,0,0-.16,3.9,4.83,4.83,0,0,0,3.6,2.22c1.13.21,1.89-.8,2.33-1.75A8.76,8.76,0,0,0,96.37,16.67Z"/><path class="cls-5" d="M90.89,14.47c-.14,1.39-.17,2.8,1,3.78a2.75,2.75,0,0,0,3.36,0,4.35,4.35,0,0,0,1-1.4c0-.12.08-.17.09-.21,1.09.48,2.18,1,3.26,1.47,1.25,2.73,2.37,5,3.22,6.82a11.35,11.35,0,0,1,1.36,4.34,11.49,11.49,0,0,1-2,5.51,12.62,12.62,0,0,1-4.73,4.13,1.32,1.32,0,0,0,.57-.44c.44-1-1.15-3.46-1.52-4.39-.28-.7-.53-2-.78-2.45a1.79,1.79,0,0,1-1.71-1.27c-.56-1.34.38-1.61.38-1.61a6.56,6.56,0,0,0-1-2.53s-.56.13-1.21-.64a1.43,1.43,0,0,1,0-2s-1-1.9-1.35-2.68a37.29,37.29,0,0,1-1.22-4.28c0-.16-.51-1.74-.77-2.6C89.61,14.18,90.25,14.32,90.89,14.47Z"/><path class="cls-6" d="M90.89,14.46c-.14,1.39-.17,2.81,1,3.79a2.29,2.29,0,0,0,.5.3c.08.27.16.54.25.81A31.11,31.11,0,0,0,94,22.76a17,17,0,0,0,1.54,3.35c.84,1.36,2.83,4.8,4.92,4.12,2.83-.92,1.31-6,1-7.94l-.06-.36c.53,1.12,1,2.13,1.44,3a11.35,11.35,0,0,1,1.36,4.34,11.49,11.49,0,0,1-2,5.51,12.62,12.62,0,0,1-4.73,4.13,1.32,1.32,0,0,0,.57-.44c.44-1-1.15-3.46-1.52-4.39-.28-.7-.53-2-.78-2.45a1.79,1.79,0,0,1-1.71-1.27c-.56-1.34.38-1.61.38-1.61a6.56,6.56,0,0,0-1-2.53s-.56.13-1.21-.64a1.43,1.43,0,0,1,0-2s-1-1.9-1.35-2.68a37.29,37.29,0,0,1-1.22-4.28c0-.16-.51-1.74-.77-2.6C89.61,14.18,90.25,14.31,90.89,14.46Z"/><path class="cls-6" d="M98.08,38.5a1.46,1.46,0,0,0,0-.79,4.06,4.06,0,0,0,1.41-.48A8.12,8.12,0,0,0,103,31.56c.52-2.94-.37-5.19-2-7.63a45.83,45.83,0,0,1-3.71-6.85l2.34,1.06c1.25,2.73,2.37,5,3.22,6.82a11.35,11.35,0,0,1,1.36,4.34,11.49,11.49,0,0,1-2,5.51,12.62,12.62,0,0,1-4.73,4.13A1.32,1.32,0,0,0,98.08,38.5Z"/><path class="cls-7" d="M95.29,24.43a1,1,0,0,1,0,.48c-.25,1.18-1.77,1.36-2.69,1-.69-.29-1.13-1.64-.52-2.18a2.86,2.86,0,0,1,.66-.31,1.83,1.83,0,0,1,.81-.1,1.75,1.75,0,0,1,1.33.45A1.67,1.67,0,0,1,95.29,24.43Z"/><path class="cls-7" d="M97.16,28.82a3.63,3.63,0,0,1,1.43.65c.26.2.84.61.92,1a.66.66,0,0,1-.48.78,4.4,4.4,0,0,1-.89,0,8.09,8.09,0,0,1-2.41-.07,3.65,3.65,0,0,1-1.23-.69c-.25-.2-.74-.51-.79-.85-.14-.86,1.2-1.1,1.78-1.08a7.18,7.18,0,0,1,1.05.16Z"/><path class="cls-8" d="M63.54,13.81a5.36,5.36,0,0,1,1.31-1.87.81.81,0,0,1,.28-.14c3.3.49,6.59,1.07,9.9,1.49l.4.05a1.7,1.7,0,0,0,.19.35,1.38,1.38,0,0,0,1.38.44,1.83,1.83,0,0,0,.88-.51l1.34.14a4.9,4.9,0,0,0,2.57,1.42,2.43,2.43,0,0,0,2.09-.4,2.11,2.11,0,0,0,.59-.87,24.94,24.94,0,0,1,3.87.08l.62.09c.26.86.73,2.44.77,2.6A37.29,37.29,0,0,0,91,21c.3.78,1.35,2.68,1.35,2.68a1.43,1.43,0,0,0,0,2c.65.77,1.21.64,1.21.64a6.56,6.56,0,0,1,1,2.53s-.94.27-.38,1.61a1.79,1.79,0,0,0,1.71,1.27c.25.47.5,1.75.78,2.45.37.93,2,3.41,1.52,4.39s-10,3.87-21.86,2.62c-13.3-1.4-21.77-6.2-22.89-7.86C52.66,32.26,58.84,23.86,63.54,13.81Z"/><path class="cls-9" d="M63.54,13.81a5.36,5.36,0,0,1,1.31-1.87.81.81,0,0,1,.28-.14c3.2.48,6.39,1,9.61,1.45,0,1.49.09,3,.23,4.45.59,6.63,2.29,14.4,7.19,19.29a15,15,0,0,0,7.14,4,56.71,56.71,0,0,1-13.08.14c-13.3-1.4-21.77-6.2-22.89-7.86C52.66,32.26,58.84,23.86,63.54,13.81Z"/><path class="cls-10" d="M63.54,13.81a5.36,5.36,0,0,1,1.31-1.87.81.81,0,0,1,.28-.14l2,.31c-.06.47-.12,1-.18,1.46-.28,2.32-2,3.09-3.56,4.55-2.4,2.27-4.57,6.23-4.7,9.57-.13,3.79,2,6.54,5.31,8.25a49.42,49.42,0,0,0,11.16,4.13,57,57,0,0,0,8.2,1.35,55.59,55.59,0,0,1-7.16-.3c-13.3-1.4-21.77-6.2-22.89-7.86C52.66,32.26,58.84,23.86,63.54,13.81Z"/><path class="cls-11" d="M88.34,14l.62.09c.26.86.73,2.44.77,2.6A37.29,37.29,0,0,0,91,21c.3.78,1.35,2.68,1.35,2.68a1.43,1.43,0,0,0,0,2c.65.77,1.21.64,1.21.64a6.56,6.56,0,0,1,1,2.53s-.94.27-.38,1.61a1.79,1.79,0,0,0,1.71,1.27c.25.47.5,1.75.78,2.45.2.51.76,1.47,1.16,2.4a14.53,14.53,0,0,1-1-1.55c-.55-1-.77-2.32-1.44-2.86a3.12,3.12,0,0,0-.62-.4c-.33-.37-.72-.67-1-1.08a1.17,1.17,0,0,1-.32-1.1c.1-.4.5-.66.54-1.05a2.63,2.63,0,0,0-.33-1,1.31,1.31,0,0,0-.92-.86,1.76,1.76,0,0,1-1.17-2.12,2.39,2.39,0,0,0,.11-1.32c-.16-.45-.62-.77-.83-1.2a13.46,13.46,0,0,1-.8-2.42,41.41,41.41,0,0,0-1.25-5.11c-.51-.13-1.28,0-1.68-.4l-.11-.16C87.4,13.91,87.87,13.93,88.34,14Z"/><path class="cls-6" d="M53.37,32.61a15.78,15.78,0,0,0,5.89,3.77A70.47,70.47,0,0,0,81.11,40.8c6.57.05,14.46-.37,17-2.7a1,1,0,0,1-.07.4c-.45,1-10,3.87-21.86,2.62-13.3-1.4-21.77-6.2-22.89-7.86C53.25,33.15,53.27,32.92,53.37,32.61Z"/><path class="cls-7" d="M100.32,23.24a2,2,0,0,1-.15.49c-.32.7-1,1.28-1.72.63-.87-.81-1.38-3.07.17-3.41C99.87,20.68,100.49,22.13,100.32,23.24Z"/><path class="cls-7" d="M102.34,26.13c.34.74-1.2.66-1.57.62-.82-.09-1.16-1.19-.23-1.45a1.37,1.37,0,0,1,1.26.32A1.57,1.57,0,0,1,102.34,26.13Z"/><path class="cls-7" d="M101.53,33.52a1.77,1.77,0,0,1-.53,1,1.57,1.57,0,0,1-1.31.44.49.49,0,0,1-.36-.54,3.05,3.05,0,0,1,.21-1.08c.28-.67.93-1.21,1.64-.71A.89.89,0,0,1,101.53,33.52Z"/><path class="cls-4" d="M94.85,25.63c-.52.78-1.9.83-2.72.61-1.91-.51-.42-2.56.82-2.81S95.68,24.37,94.85,25.63Z"/><path class="cls-12" d="M94.46,25.13a1.21,1.21,0,0,0-1.59-1,3.05,3.05,0,0,0-1.65,1.14A2.36,2.36,0,0,1,93,23.43c1.24-.25,2.73.94,1.9,2.2a1.48,1.48,0,0,1-.73.54A1.23,1.23,0,0,0,94.46,25.13Z"/><path class="cls-4" d="M96.18,28.8a7.88,7.88,0,0,1,1.67.51c.71.31,2.21,1.14,1.15,2a4,4,0,0,1-2.48.39c-.91,0-2.72-.2-3.15-1.12a1.32,1.32,0,0,1,1.13-1.86A5,5,0,0,1,96.18,28.8Z"/><path class="cls-12" d="M94.5,28.74a5,5,0,0,1,1.68.06,7.88,7.88,0,0,1,1.67.51c.71.31,2.21,1.14,1.15,2a2.41,2.41,0,0,1-1.45.4,2.41,2.41,0,0,0-1.65-2.26,2,2,0,0,0-2.48,1.23.47.47,0,0,1,0-.1A1.32,1.32,0,0,1,94.5,28.74Z"/><path class="cls-4" d="M95.25,18.28a3.61,3.61,0,0,0,.56-.62,2.52,2.52,0,0,1-3.44.88A2.68,2.68,0,0,0,95.25,18.28Z"/><path class="cls-4" d="M98.06,23.89c-.54-.86-.57-2.87.9-2.61C101.39,21.71,99.73,26.55,98.06,23.89Z"/><path class="cls-12" d="M99.63,22.85a1.71,1.71,0,0,0-1.34-.6,1.25,1.25,0,0,0-.56.14c0-.68.4-1.26,1.23-1.11,1.29.22,1.43,1.7,1,2.63A1.69,1.69,0,0,0,99.63,22.85Z"/><path class="cls-4" d="M99.17,34.51c0-.53.91-2.26,1.7-1.81C102.48,33.61,99.14,37,99.17,34.51Z"/><path class="cls-12" d="M100.87,32.7a.9.9,0,0,1,.38,1.13.93.93,0,0,0-1.5.32,6.91,6.91,0,0,0-.35,1.15,1,1,0,0,1-.23-.79C99.17,34,100.08,32.25,100.87,32.7Z"/><path class="cls-4" d="M100.1,25.82c.7-.73,2.48,0,2,.72S99.25,26.69,100.1,25.82Z"/><path class="cls-12" d="M102,26.7a1.31,1.31,0,0,0-.21-.36,1.29,1.29,0,0,0-1.23-.41.93.93,0,0,0-.6.37.45.45,0,0,1,.16-.48c.7-.73,2.48,0,2,.72A.61.61,0,0,1,102,26.7Z"/><path class="cls-11" d="M80.06,18.07A1.6,1.6,0,0,1,78.3,18c-.38-.34-.94-1.25-.35-1.62.77-.49,3.27.64,2.27,1.58Z"/><path class="cls-11" d="M68.82,15.77c.81.19.93,1,.73,1.64s-1.14.94-1.86.79-2-.87-1.17-1.74A2.63,2.63,0,0,1,68.82,15.77Z"/><path class="cls-11" d="M64.47,18.75c.77.71.2,1.59-.74,1.15-.35-.17-.81-.35-.86-.78a.75.75,0,0,1,.39-.75A1.17,1.17,0,0,1,64.47,18.75Z"/><path class="cls-11" d="M71.6,25.07a3.77,3.77,0,0,1-2.35-1,10.43,10.43,0,0,1-1.49-1.48,2.48,2.48,0,0,1,.13-3.2,4.74,4.74,0,0,1,4.46-.88A3.63,3.63,0,0,1,74.41,23,2.64,2.64,0,0,1,71.6,25.07Z"/><path class="cls-11" d="M89.13,20.91c.24,1.62-2.65,1.24-1.94-.06C87.56,20.16,89,20,89.13,20.91Z"/><path class="cls-11" d="M83.35,31.75c-2.19-.87-3.18-3.86-1.16-5.45a3.85,3.85,0,0,1,2.39-.69,2.79,2.79,0,0,1,2.14,1.27,4.07,4.07,0,0,1-.27,3C85.88,31,84.73,32.3,83.35,31.75Z"/><path class="cls-11" d="M89.36,37.94a3.19,3.19,0,0,1-2.08-2.41c-.18-1.21-.64-2.62-.1-3.82a2,2,0,0,1,2.41-1.38c2.08.62,3.2,3,3,5.05C92.4,37,91.15,38.58,89.36,37.94Z"/><path class="cls-11" d="M84.12,34.88a1.62,1.62,0,0,1-2-.92,1.14,1.14,0,0,1,.58-1.23c.69-.46,2.11-.66,2.49.31C85.41,33.7,84.72,34.66,84.12,34.88Z"/><path class="cls-11" d="M76,38.61c.33-.85,2.91.44,1.85,1.11C77.25,40.09,75.68,39.42,76,38.61Z"/><path class="cls-11" d="M61.79,27.34a2.21,2.21,0,0,1,.27,2.12,1.28,1.28,0,0,1-1.42.42c-1-.38-1.29-2.42-.7-3.2S61.3,26.49,61.79,27.34Z"/><path class="cls-11" d="M68.18,35.62c1.58,1.89-3,3.34-3,1.34C65.15,35.6,67.24,34.5,68.18,35.62Z"/><path class="cls-11" d="M75.65,37.89c-.87,1.27-3.45.83-4.4-.16s-1.43-2.95-.14-3.68a2.49,2.49,0,0,1,2.34-.12C74.8,34.55,76.74,36.3,75.65,37.89Z"/><path class="cls-13" d="M91.92,36.32a2.49,2.49,0,0,1-4,1.13c-1.37-1.29-1.41-3.9-.58-5.49C89.32,28.23,92.65,34,91.92,36.32Z"/><path class="cls-13" d="M68.27,24.55c-1.44-1.12-2.21-2.9-.77-4.35s5.23-1.76,6.22.22c.7,1.41.26,4.32-1.34,5A4.35,4.35,0,0,1,68.27,24.55Z"/><path class="cls-13" d="M59.73,29.43c-.53-.86-.57-2.87.91-2.61C63.07,27.25,61.4,32.09,59.73,29.43Z"/><path class="cls-13" d="M82.31,26.82c1.43-1.37,4.58-1.56,3.93,2.08C85.16,34.89,77.88,31.07,82.31,26.82Z"/><path class="cls-13" d="M78.92,16.56c.44.14,1.24.62,1.15,1.17-.15.91-1.68.86-2.12.27C77.25,17.09,77.79,16.2,78.92,16.56Z"/><path class="cls-13" d="M73.38,34.57c.91.48,2.51,1.86,2.09,3.06-.69,1.95-4.07,1.23-4.83-.24C69.47,35.1,71,33.32,73.38,34.57Z"/><path class="cls-13" d="M82.68,33c.51-.26,1.65-.54,2.06,0,.68.94-.73,2.24-1.64,2.11C81.67,34.92,81.35,33.65,82.68,33Z"/><path class="cls-13" d="M67.07,16.34c.51-.26,1.65-.54,2.06,0,.68.94-.73,2.24-1.64,2.11C66.06,18.28,65.75,17,67.07,16.34Z"/><path class="cls-13" d="M65.72,36c.51-.26,1.65-.54,2.07,0,.67.93-.74,2.23-1.65,2.1C64.71,38,64.4,36.68,65.72,36Z"/><path class="cls-13" d="M77,38.6c.32.11.91.48.84.89-.12.68-1.26.62-1.59.18C75.71,39,76.12,38.32,77,38.6Z"/><path class="cls-13" d="M63.83,18.69c.33.11.92.48.85.89-.12.67-1.27.61-1.59.17C62.58,19.07,63,18.4,63.83,18.69Z"/><path class="cls-13" d="M87.46,20.84c.3-.17,1-.38,1.23-.05.43.53-.36,1.35-.91,1.3C86.93,22,86.7,21.28,87.46,20.84Z"/><path class="cls-13" d="M81.79,15.18a3,3,0,0,0,1.36,0,3.11,3.11,0,0,1-2.07.1,3.62,3.62,0,0,1-1.3-1A5.23,5.23,0,0,0,81.79,15.18Z"/><path class="cls-14" d="M91.09,37.48a7.62,7.62,0,0,0-.24-3A3.76,3.76,0,0,0,89.41,32a1.8,1.8,0,0,0-2.25.38c.06-.15.13-.3.2-.45,2-3.73,5.29,2,4.56,4.36a2.41,2.41,0,0,1-.84,1.18Z"/><path class="cls-14" d="M72.78,24.51a2.4,2.4,0,0,0-.7-3.23,4,4,0,0,0-5.24,1.32,2.3,2.3,0,0,1,.66-2.4c1.35-1.36,5.23-1.76,6.22.22.7,1.41.26,4.32-1.34,5a3,3,0,0,1-1,.22A3,3,0,0,0,72.78,24.51Z"/><path class="cls-14" d="M61.13,28.61a1.8,1.8,0,0,0-1.33-1.19,1.31,1.31,0,0,0-.27,0,.91.91,0,0,1,1.11-.57c1.72.3,1.39,2.83.45,3.32A2.12,2.12,0,0,0,61.13,28.61Z"/><path class="cls-14" d="M84.67,31c1-1.25.65-3.59-1.29-3.57a3.15,3.15,0,0,0-2.18.9,5.49,5.49,0,0,1,1.11-1.48c1.43-1.37,4.58-1.56,3.93,2.08-.42,2.34-1.78,3.18-3,3.09A3.07,3.07,0,0,0,84.67,31Z"/><path class="cls-14" d="M79.65,18a1.54,1.54,0,0,0-1.92-1.13c.18-.32.6-.48,1.19-.29.44.14,1.24.62,1.15,1.17a.73.73,0,0,1-.38.54A2.89,2.89,0,0,0,79.65,18Z"/><path class="cls-14" d="M72.6,35.59a2.57,2.57,0,0,0-2.13.26,1.24,1.24,0,0,0-.22.18c-.08-1.55,1.27-2.45,3.13-1.46.91.48,2.51,1.86,2.09,3.06a1.62,1.62,0,0,1-.75.89C75.17,37.2,73.78,35.89,72.6,35.59Z"/><path class="cls-14" d="M84.56,34.14a.91.91,0,0,0-.82-.77,1.51,1.51,0,0,0-1.46.56,1.86,1.86,0,0,0-.24.67c-.39-.49-.23-1.18.64-1.62.51-.26,1.65-.54,2.06,0a1.08,1.08,0,0,1-.15,1.36A2.08,2.08,0,0,0,84.56,34.14Z"/><path class="cls-14" d="M68.74,17.51a.93.93,0,0,0-.83-1,1.71,1.71,0,0,0-.92.14,3.79,3.79,0,0,0-.34.2l-.06,0,0,0a1.12,1.12,0,0,0-.24.19,1.51,1.51,0,0,1,.77-.75c.51-.26,1.65-.54,2.06,0s.05,1.27-.5,1.71A2,2,0,0,0,68.74,17.51Z"/><path class="cls-14" d="M67.38,37.25a.94.94,0,0,0-1.08-1,2,2,0,0,0-1.38,1.08c-.13-.44.11-1,.8-1.31.51-.26,1.65-.54,2.07,0s.06,1.24-.48,1.68A1.78,1.78,0,0,0,67.38,37.25Z"/><path class="cls-14" d="M77.29,39.77a1.11,1.11,0,0,0-.86-.83A.54.54,0,0,0,76,39c0-.37.41-.59,1-.41.32.11.91.48.84.89a.61.61,0,0,1-.5.48A.45.45,0,0,0,77.29,39.77Z"/><path class="cls-14" d="M64,19.47a1.2,1.2,0,0,0-1-.33.37.37,0,0,0-.15,0c0-.42.37-.69,1-.49.33.11.92.48.85.89a.62.62,0,0,1-.45.46A.83.83,0,0,0,64,19.47Z"/><path class="cls-14" d="M87.46,20.84c.3-.17,1-.38,1.23-.05a.59.59,0,0,1,0,.67.72.72,0,0,0-.5-.28,1.12,1.12,0,0,0-1.06.67C86.88,21.58,86.94,21.14,87.46,20.84Z"/><path class="cls-4" d="M99.77,103.29a4.36,4.36,0,0,1-1.72,1.22,3.37,3.37,0,0,1-1.88-.18A3,3,0,0,1,94.83,103a13.38,13.38,0,0,1-.54-1.87,4,4,0,0,0,3.43,6.11c1.14.21,1.9-.8,2.33-1.74A9.17,9.17,0,0,0,99.77,103.29Z"/><path class="cls-5" d="M94.29,101.09c-.15,1.39-.17,2.8,1,3.77a2.73,2.73,0,0,0,3.36,0,4.32,4.32,0,0,0,1-1.41c.06-.11.08-.16.1-.2,1.09.48,2.17,1,3.25,1.46,1.26,2.73,2.38,5,3.22,6.82a11.3,11.3,0,0,1,1.37,4.34,11.54,11.54,0,0,1-2,5.52,12.67,12.67,0,0,1-4.72,4.13,1.38,1.38,0,0,0,.57-.45c.44-1-1.15-3.45-1.53-4.39-.28-.7-.53-2-.78-2.45a1.77,1.77,0,0,1-1.7-1.26c-.56-1.34.38-1.62.38-1.62a6.73,6.73,0,0,0-.95-2.53s-.56.13-1.21-.64a1.44,1.44,0,0,1,0-2s-1-1.9-1.34-2.67a35.9,35.9,0,0,1-1.22-4.28c0-.17-.51-1.75-.77-2.61C93,100.79,93.65,100.93,94.29,101.09Z"/><path class="cls-6" d="M94.29,101.08c-.15,1.39-.17,2.81,1,3.78a2.71,2.71,0,0,0,.49.31c.09.27.17.54.25.81a30.75,30.75,0,0,0,1.34,3.4,16.9,16.9,0,0,0,1.54,3.35c.84,1.35,2.83,4.8,4.92,4.11,2.82-.92,1.3-6,1-7.94,0-.12,0-.23,0-.36.53,1.12,1,2.13,1.43,3a11.3,11.3,0,0,1,1.37,4.34,11.54,11.54,0,0,1-2,5.52,12.67,12.67,0,0,1-4.72,4.13,1.38,1.38,0,0,0,.57-.45c.44-1-1.15-3.45-1.53-4.39-.28-.7-.53-2-.78-2.45a1.77,1.77,0,0,1-1.7-1.26c-.56-1.34.38-1.62.38-1.62a6.73,6.73,0,0,0-.95-2.53s-.56.13-1.21-.64a1.44,1.44,0,0,1,0-2s-1-1.9-1.34-2.67a35.9,35.9,0,0,1-1.22-4.28c0-.17-.51-1.75-.77-2.61C93,100.79,93.65,100.92,94.29,101.08Z"/><path class="cls-6" d="M101.48,125.11a1.34,1.34,0,0,0,0-.78,4.11,4.11,0,0,0,1.42-.48,8.15,8.15,0,0,0,3.47-5.68c.51-2.94-.37-5.19-2-7.63a45.73,45.73,0,0,1-3.71-6.84c.78.35,1.56.69,2.33,1,1.26,2.73,2.38,5,3.22,6.82a11.3,11.3,0,0,1,1.37,4.34,11.54,11.54,0,0,1-2,5.52,12.67,12.67,0,0,1-4.72,4.13A1.38,1.38,0,0,0,101.48,125.11Z"/><path class="cls-7" d="M98.69,111a.92.92,0,0,1,0,.49c-.24,1.18-1.76,1.36-2.69,1-.68-.28-1.12-1.63-.52-2.17a3.66,3.66,0,0,1,.66-.32,2.2,2.2,0,0,1,.81-.1,1.74,1.74,0,0,1,1.33.46A1.85,1.85,0,0,1,98.69,111Z"/><path class="cls-7" d="M100.55,115.44a3.76,3.76,0,0,1,1.43.64c.27.21.85.62.93,1a.66.66,0,0,1-.48.78,3.77,3.77,0,0,1-.89,0,8.09,8.09,0,0,1-2.41-.08,3.38,3.38,0,0,1-1.23-.68c-.25-.21-.74-.51-.79-.86-.14-.85,1.19-1.1,1.78-1.07a6.32,6.32,0,0,1,1,.15Z"/><path class="cls-8" d="M66.94,100.43a5.4,5.4,0,0,1,1.31-1.88.82.82,0,0,1,.27-.13c3.3.49,6.59,1.06,9.9,1.49l.41,0a1.05,1.05,0,0,0,.19.34,1.37,1.37,0,0,0,1.37.45,1.9,1.9,0,0,0,.89-.51l1.34.13a4.92,4.92,0,0,0,2.57,1.43,2.5,2.5,0,0,0,2.09-.4,2.28,2.28,0,0,0,.59-.87,26.25,26.25,0,0,1,3.87.07l.62.09c.26.86.73,2.44.77,2.61a35.9,35.9,0,0,0,1.22,4.28c.3.77,1.34,2.67,1.34,2.67a1.44,1.44,0,0,0,0,2c.65.77,1.21.64,1.21.64a6.73,6.73,0,0,1,.95,2.53s-.94.28-.38,1.62a1.77,1.77,0,0,0,1.7,1.26c.25.47.5,1.75.78,2.45.38.94,2,3.42,1.53,4.39s-10,3.88-21.86,2.63c-13.3-1.4-21.78-6.21-22.89-7.86C56.05,118.88,62.24,110.47,66.94,100.43Z"/><path class="cls-9" d="M66.94,100.43a5.4,5.4,0,0,1,1.31-1.88.82.82,0,0,1,.27-.13c3.21.48,6.4,1,9.62,1.45,0,1.49.09,3,.22,4.44.6,6.63,2.3,14.41,7.2,19.3a15,15,0,0,0,7.14,4,56.66,56.66,0,0,1-13.08.15c-13.3-1.4-21.78-6.21-22.89-7.86C56.05,118.88,62.24,110.47,66.94,100.43Z"/><path class="cls-10" d="M66.94,100.43a5.4,5.4,0,0,1,1.31-1.88.82.82,0,0,1,.27-.13l2,.31c-.06.46-.12.94-.18,1.46-.29,2.32-2,3.09-3.56,4.55-2.41,2.26-4.58,6.23-4.7,9.57-.14,3.78,2,6.53,5.31,8.25a49.24,49.24,0,0,0,11.16,4.13,57,57,0,0,0,8.2,1.34,57.29,57.29,0,0,1-7.16-.29c-13.3-1.4-21.78-6.21-22.89-7.86C56.05,118.88,62.24,110.47,66.94,100.43Z"/><path class="cls-11" d="M91.74,100.6l.62.09c.26.86.73,2.44.77,2.61a35.9,35.9,0,0,0,1.22,4.28c.3.77,1.34,2.67,1.34,2.67a1.44,1.44,0,0,0,0,2c.65.77,1.21.64,1.21.64a6.73,6.73,0,0,1,.95,2.53s-.94.28-.38,1.62a1.77,1.77,0,0,0,1.7,1.26c.25.47.5,1.75.78,2.45.21.51.77,1.47,1.17,2.4a14.52,14.52,0,0,1-1-1.55c-.54-1-.77-2.32-1.43-2.86a4.49,4.49,0,0,0-.63-.4c-.32-.36-.71-.67-1-1.08a1.11,1.11,0,0,1-.32-1.09c.1-.41.5-.66.54-1.06a2.92,2.92,0,0,0-.34-1c-.23-.55-.39-.63-.91-.85a1.76,1.76,0,0,1-1.17-2.13,2.47,2.47,0,0,0,.11-1.32c-.16-.44-.62-.76-.83-1.2a14,14,0,0,1-.81-2.42,41.82,41.82,0,0,0-1.24-5.11c-.51-.12-1.29,0-1.68-.4a.83.83,0,0,1-.11-.15C90.79,100.52,91.27,100.55,91.74,100.6Z"/><path class="cls-6" d="M56.77,119.22A15.72,15.72,0,0,0,62.66,123a70.64,70.64,0,0,0,21.85,4.41c6.57,0,14.46-.36,17-2.7a1,1,0,0,1-.07.4c-.45,1-10,3.88-21.86,2.63-13.3-1.4-21.78-6.21-22.89-7.86A.86.86,0,0,1,56.77,119.22Z"/><path class="cls-7" d="M103.71,109.85a2.44,2.44,0,0,1-.14.5c-.33.69-1,1.28-1.73.63-.86-.82-1.37-3.07.18-3.41C103.27,107.29,103.89,108.75,103.71,109.85Z"/><path class="cls-7" d="M105.74,112.74c.34.74-1.21.66-1.57.62-.82-.08-1.16-1.18-.23-1.45a1.37,1.37,0,0,1,1.25.32A1.61,1.61,0,0,1,105.74,112.74Z"/><path class="cls-7" d="M104.93,120.13a1.86,1.86,0,0,1-.53,1,1.66,1.66,0,0,1-1.32.44.5.5,0,0,1-.35-.54,3.34,3.34,0,0,1,.2-1.09c.29-.67.94-1.21,1.64-.71A.88.88,0,0,1,104.93,120.13Z"/><path class="cls-4" d="M98.25,112.24c-.52.79-1.9.84-2.72.62-1.91-.52-.42-2.56.82-2.81S99.08,111,98.25,112.24Z"/><path class="cls-12" d="M97.85,111.74a1.2,1.2,0,0,0-1.59-1,3,3,0,0,0-1.64,1.13,2.34,2.34,0,0,1,1.73-1.82c1.24-.25,2.73.93,1.9,2.19a1.5,1.5,0,0,1-.73.55A1.25,1.25,0,0,0,97.85,111.74Z"/><path class="cls-4" d="M99.57,115.41a7.73,7.73,0,0,1,1.67.52c.72.3,2.22,1.14,1.15,2a4,4,0,0,1-2.47.38c-.91,0-2.72-.19-3.16-1.11a1.34,1.34,0,0,1,1.13-1.87A5.59,5.59,0,0,1,99.57,115.41Z"/><path class="cls-12" d="M97.89,115.35a5.59,5.59,0,0,1,1.68.06,7.73,7.73,0,0,1,1.67.52c.72.3,2.22,1.14,1.15,2a2.46,2.46,0,0,1-1.45.4,2.4,2.4,0,0,0-1.65-2.27,2,2,0,0,0-2.47,1.23l-.06-.09A1.34,1.34,0,0,1,97.89,115.35Z"/><path class="cls-4" d="M98.65,104.9a3.67,3.67,0,0,0,.56-.63,2.52,2.52,0,0,1-3.44.89A2.72,2.72,0,0,0,98.65,104.9Z"/><path class="cls-4" d="M101.45,110.5c-.53-.86-.57-2.87.91-2.61C104.79,108.32,103.12,113.16,101.45,110.5Z"/><path class="cls-12" d="M103,109.46a1.68,1.68,0,0,0-1.34-.59,1.2,1.2,0,0,0-.57.14c0-.69.41-1.27,1.24-1.12,1.29.23,1.43,1.7,1,2.64A1.72,1.72,0,0,0,103,109.46Z"/><path class="cls-4" d="M102.56,121.13c0-.54.92-2.26,1.71-1.81C105.88,120.22,102.54,123.59,102.56,121.13Z"/><path class="cls-12" d="M104.27,119.32a.89.89,0,0,1,.38,1.13.92.92,0,0,0-1.5.31,6.91,6.91,0,0,0-.35,1.15,1,1,0,0,1-.24-.78C102.57,120.59,103.48,118.87,104.27,119.32Z"/><path class="cls-4" d="M103.49,112.43c.7-.72,2.49,0,2.05.73S102.65,113.3,103.49,112.43Z"/><path class="cls-12" d="M105.38,113.31a1.08,1.08,0,0,0-.22-.35,1.32,1.32,0,0,0-1.23-.42,1,1,0,0,0-.59.37.47.47,0,0,1,.15-.48c.7-.72,2.49,0,2.05.73A.57.57,0,0,1,105.38,113.31Z"/><path class="cls-11" d="M83.46,104.68a1.59,1.59,0,0,1-1.76-.08c-.38-.33-.94-1.25-.35-1.62.77-.48,3.27.65,2.27,1.58A.61.61,0,0,1,83.46,104.68Z"/><path class="cls-11" d="M72.22,102.39c.8.18.93,1,.73,1.64s-1.14.93-1.86.79-2-.88-1.18-1.74A2.62,2.62,0,0,1,72.22,102.39Z"/><path class="cls-11" d="M67.87,105.37c.77.71.19,1.59-.75,1.14-.35-.16-.8-.35-.86-.78a.76.76,0,0,1,.4-.74A1.15,1.15,0,0,1,67.87,105.37Z"/><path class="cls-11" d="M75,111.68a3.81,3.81,0,0,1-2.36-1,13,13,0,0,1-1.49-1.48,2.48,2.48,0,0,1,.14-3.2,4.71,4.71,0,0,1,4.46-.88,3.62,3.62,0,0,1,2.06,4.48A2.63,2.63,0,0,1,75,111.68Z"/><path class="cls-11" d="M92.53,107.53c.24,1.62-2.65,1.23-1.94-.07C91,106.77,92.38,106.57,92.53,107.53Z"/><path class="cls-11" d="M86.74,118.36c-2.18-.87-3.18-3.85-1.15-5.45a3.83,3.83,0,0,1,2.39-.69,2.79,2.79,0,0,1,2.14,1.27,4.15,4.15,0,0,1-.27,3C89.28,117.58,88.12,118.91,86.74,118.36Z"/><path class="cls-11" d="M92.76,124.55a3.17,3.17,0,0,1-2.08-2.4c-.19-1.22-.64-2.63-.11-3.82A2.08,2.08,0,0,1,93,116.94c2.08.62,3.2,3,3,5C95.8,123.63,94.55,125.19,92.76,124.55Z"/><path class="cls-11" d="M87.52,121.49a1.62,1.62,0,0,1-2-.91,1.17,1.17,0,0,1,.59-1.24c.69-.46,2.11-.65,2.48.31C88.81,120.31,88.11,121.27,87.52,121.49Z"/><path class="cls-11" d="M79.39,125.22c.33-.85,2.91.45,1.85,1.11C80.65,126.7,79.07,126,79.39,125.22Z"/><path class="cls-11" d="M65.19,114a2.24,2.24,0,0,1,.27,2.12,1.29,1.29,0,0,1-1.43.41c-1-.37-1.28-2.41-.69-3.19S64.7,113.11,65.19,114Z"/><path class="cls-11" d="M71.58,122.24c1.58,1.88-3,3.34-3,1.33C68.54,122.21,70.64,121.11,71.58,122.24Z"/><path class="cls-11" d="M79.05,124.51c-.87,1.27-3.46.83-4.4-.16s-1.43-3-.14-3.68a2.47,2.47,0,0,1,2.33-.12C78.2,121.16,80.14,122.92,79.05,124.51Z"/><path class="cls-13" d="M95.32,122.93a2.5,2.5,0,0,1-4,1.14c-1.37-1.29-1.41-3.91-.58-5.49C92.72,114.84,96.05,120.58,95.32,122.93Z"/><path class="cls-13" d="M71.67,111.16c-1.44-1.12-2.22-2.89-.78-4.34s5.24-1.76,6.22.21c.71,1.42.27,4.33-1.33,5A4.33,4.33,0,0,1,71.67,111.16Z"/><path class="cls-13" d="M63.13,116c-.54-.86-.57-2.87.91-2.61C66.47,113.86,64.8,118.71,63.13,116Z"/><path class="cls-13" d="M85.71,113.44c1.43-1.37,4.58-1.57,3.92,2.07C88.56,121.51,81.28,117.68,85.71,113.44Z"/><path class="cls-13" d="M82.32,103.18c.43.13,1.24.61,1.15,1.17-.15.91-1.68.85-2.13.27C80.65,103.71,81.19,102.81,82.32,103.18Z"/><path class="cls-13" d="M76.78,121.18c.91.49,2.51,1.87,2.09,3.06-.69,2-4.08,1.24-4.83-.23C72.86,121.71,74.42,119.93,76.78,121.18Z"/><path class="cls-13" d="M86.08,119.6c.51-.26,1.65-.54,2.06,0,.67.93-.74,2.23-1.65,2.1C85.07,121.53,84.75,120.26,86.08,119.6Z"/><path class="cls-13" d="M70.47,103c.51-.26,1.65-.54,2.06,0,.67.93-.73,2.23-1.65,2.1C69.46,104.9,69.14,103.63,70.47,103Z"/><path class="cls-13" d="M69.12,122.62c.51-.26,1.65-.54,2.06,0,.68.94-.73,2.24-1.65,2.11C68.11,124.56,67.79,123.29,69.12,122.62Z"/><path class="cls-13" d="M80.35,125.22c.33.11.92.48.85.89-.12.67-1.27.61-1.59.17C79.1,125.6,79.52,124.93,80.35,125.22Z"/><path class="cls-13" d="M67.23,105.3c.32.11.92.48.84.89-.12.68-1.26.62-1.58.18C66,105.68,66.4,105,67.23,105.3Z"/><path class="cls-13" d="M90.86,107.45c.3-.17,1-.38,1.23,0,.43.53-.36,1.35-.91,1.31C90.33,108.64,90.09,107.89,90.86,107.45Z"/><path class="cls-13" d="M85.19,101.8a3,3,0,0,0,1.36,0,3.27,3.27,0,0,1-2.08.1,3.85,3.85,0,0,1-1.29-1A5.19,5.19,0,0,0,85.19,101.8Z"/><path class="cls-14" d="M94.48,124.1a7.4,7.4,0,0,0-.24-3,3.71,3.71,0,0,0-1.43-2.5,1.8,1.8,0,0,0-2.25.39,3.07,3.07,0,0,1,.2-.45c2-3.74,5.29,2,4.56,4.35a2.43,2.43,0,0,1-.84,1.19Z"/><path class="cls-14" d="M76.18,111.13a2.42,2.42,0,0,0-.7-3.24,4,4,0,0,0-5.25,1.33,2.33,2.33,0,0,1,.66-2.4c1.35-1.36,5.24-1.76,6.22.21.71,1.42.27,4.33-1.33,5a2.76,2.76,0,0,1-1,.22A3,3,0,0,0,76.18,111.13Z"/><path class="cls-14" d="M64.52,115.23A1.74,1.74,0,0,0,63.2,114l-.28,0a.93.93,0,0,1,1.12-.58c1.72.31,1.38,2.83.44,3.32A2,2,0,0,0,64.52,115.23Z"/><path class="cls-14" d="M88.07,117.58c1-1.24.64-3.58-1.29-3.57a3.1,3.1,0,0,0-2.18.91,5,5,0,0,1,1.11-1.48c1.43-1.37,4.58-1.57,3.92,2.07-.41,2.34-1.78,3.18-3,3.09A2.94,2.94,0,0,0,88.07,117.58Z"/><path class="cls-14" d="M83,104.59a1.53,1.53,0,0,0-1.91-1.12c.17-.33.6-.49,1.19-.29.43.13,1.24.61,1.15,1.17a.73.73,0,0,1-.38.53A1.6,1.6,0,0,0,83,104.59Z"/><path class="cls-14" d="M76,122.21a2.56,2.56,0,0,0-2.13.25,2.13,2.13,0,0,0-.22.18c-.09-1.54,1.27-2.44,3.13-1.46.91.49,2.51,1.87,2.09,3.06a1.67,1.67,0,0,1-.75.89C78.57,123.82,77.18,122.5,76,122.21Z"/><path class="cls-14" d="M88,120.75a.93.93,0,0,0-.82-.77,1.53,1.53,0,0,0-1.46.57,1.65,1.65,0,0,0-.24.66c-.39-.48-.23-1.18.64-1.61.51-.26,1.65-.54,2.06,0A1.1,1.1,0,0,1,88,121,1.94,1.94,0,0,0,88,120.75Z"/><path class="cls-14" d="M72.13,104.13a.94.94,0,0,0-.82-1,1.84,1.84,0,0,0-.93.14,3.13,3.13,0,0,0-.34.21l-.05,0,0,0a1.14,1.14,0,0,0-.25.18,1.57,1.57,0,0,1,.78-.74c.51-.26,1.65-.54,2.06,0s0,1.27-.5,1.7A1.64,1.64,0,0,0,72.13,104.13Z"/><path class="cls-14" d="M70.78,123.86a1,1,0,0,0-1.08-1,2,2,0,0,0-1.38,1.08c-.14-.44.1-1,.8-1.31.51-.26,1.65-.54,2.06,0s.06,1.25-.47,1.69A1.85,1.85,0,0,0,70.78,123.86Z"/><path class="cls-14" d="M80.69,126.39a1.08,1.08,0,0,0-.86-.83.53.53,0,0,0-.43.06c0-.37.41-.59.95-.4.33.11.92.48.85.89a.61.61,0,0,1-.5.47A.41.41,0,0,0,80.69,126.39Z"/><path class="cls-14" d="M67.41,106.08a1.21,1.21,0,0,0-1-.33.33.33,0,0,0-.15,0c0-.42.37-.7,1-.5.32.11.92.48.84.89a.59.59,0,0,1-.45.47A.84.84,0,0,0,67.41,106.08Z"/><path class="cls-14" d="M90.86,107.45c.3-.17,1-.38,1.23,0a.61.61,0,0,1,0,.67.76.76,0,0,0-.5-.27,1.12,1.12,0,0,0-1.06.67C90.28,108.2,90.34,107.75,90.86,107.45Z"/><path class="cls-4" d="M53.89,42.57a4.34,4.34,0,0,1-1.72,1.23,3.46,3.46,0,0,1-1.88-.18A3.11,3.11,0,0,1,49,42.25a13.43,13.43,0,0,1-.54-1.88,4.79,4.79,0,0,0-.16,3.9,4.77,4.77,0,0,0,3.59,2.22c1.14.21,1.9-.8,2.33-1.74A9.31,9.31,0,0,0,53.89,42.57Z"/><path class="cls-5" d="M48.41,40.37c-.15,1.39-.17,2.81,1,3.78a2.73,2.73,0,0,0,3.35,0,4.21,4.21,0,0,0,1-1.41c.06-.11.08-.17.1-.21,1.09.49,2.17,1,3.25,1.47,1.26,2.73,2.38,5,3.22,6.82a11.25,11.25,0,0,1,1.37,4.34,11.54,11.54,0,0,1-2,5.52A12.76,12.76,0,0,1,55,64.85a1.38,1.38,0,0,0,.57-.45c.44-1-1.15-3.45-1.53-4.39-.28-.7-.53-2-.78-2.45a1.77,1.77,0,0,1-1.7-1.27C51,55,52,54.68,52,54.68A6.73,6.73,0,0,0,51,52.15s-.56.13-1.21-.64a1.44,1.44,0,0,1,0-2s-1-1.9-1.34-2.68a35.38,35.38,0,0,1-1.22-4.28c0-.16-.51-1.74-.77-2.6C47.12,40.08,47.77,40.22,48.41,40.37Z"/><path class="cls-6" d="M48.41,40.36c-.15,1.4-.17,2.82,1,3.79a2.22,2.22,0,0,0,.49.3c.09.27.17.55.25.81a29.27,29.27,0,0,0,1.34,3.4A16.39,16.39,0,0,0,53,52c.84,1.36,2.83,4.81,4.92,4.12,2.82-.92,1.3-6,1-7.94,0-.12,0-.24,0-.36.53,1.12,1,2.13,1.43,3a11.25,11.25,0,0,1,1.37,4.34,11.54,11.54,0,0,1-2,5.52A12.76,12.76,0,0,1,55,64.85a1.38,1.38,0,0,0,.57-.45c.44-1-1.15-3.45-1.53-4.39-.28-.7-.53-2-.78-2.45a1.77,1.77,0,0,1-1.7-1.27C51,55,52,54.68,52,54.68A6.73,6.73,0,0,0,51,52.15s-.56.13-1.21-.64a1.44,1.44,0,0,1,0-2s-1-1.9-1.34-2.68a35.38,35.38,0,0,1-1.22-4.28c0-.16-.51-1.74-.77-2.6C47.12,40.08,47.77,40.21,48.41,40.36Z"/><path class="cls-6" d="M55.6,64.4a1.37,1.37,0,0,0,0-.79,4.1,4.1,0,0,0,1.42-.47,8.15,8.15,0,0,0,3.47-5.68c.51-2.94-.37-5.19-2-7.63A45.73,45.73,0,0,1,54.81,43c.78.34,1.56.69,2.33,1,1.26,2.73,2.38,5,3.22,6.82a11.25,11.25,0,0,1,1.37,4.34,11.54,11.54,0,0,1-2,5.52A12.76,12.76,0,0,1,55,64.85,1.38,1.38,0,0,0,55.6,64.4Z"/><path class="cls-7" d="M52.81,50.33a.92.92,0,0,1,0,.49c-.24,1.17-1.77,1.35-2.69,1-.68-.28-1.12-1.64-.52-2.17a3.66,3.66,0,0,1,.66-.32,1.85,1.85,0,0,1,.81-.1,1.71,1.71,0,0,1,1.33.46A1.76,1.76,0,0,1,52.81,50.33Z"/><path class="cls-7" d="M54.67,54.73a3.61,3.61,0,0,1,1.43.64c.27.21.85.61.93,1a.66.66,0,0,1-.48.78,3.77,3.77,0,0,1-.89,0,8.09,8.09,0,0,1-2.41-.08A3.7,3.7,0,0,1,52,56.37c-.25-.21-.74-.51-.8-.86-.13-.86,1.2-1.1,1.79-1.08a7.62,7.62,0,0,1,1.05.16Z"/><path class="cls-8" d="M21.06,39.71a5.24,5.24,0,0,1,1.31-1.87,1,1,0,0,1,.27-.14c3.3.5,6.59,1.07,9.9,1.5l.4,0a1.22,1.22,0,0,0,.2.35,1.34,1.34,0,0,0,1.37.44,1.84,1.84,0,0,0,.89-.5l1.33.13a5,5,0,0,0,2.57,1.43,2.49,2.49,0,0,0,2.1-.41,2.14,2.14,0,0,0,.59-.87,27.69,27.69,0,0,1,3.87.08l.62.09c.26.86.73,2.44.77,2.6a35.38,35.38,0,0,0,1.22,4.28c.3.78,1.34,2.68,1.34,2.68a1.44,1.44,0,0,0,0,2c.65.77,1.21.64,1.21.64A6.73,6.73,0,0,1,52,54.68s-.94.28-.38,1.61a1.77,1.77,0,0,0,1.7,1.27c.25.47.5,1.75.78,2.45.38.94,2,3.42,1.53,4.39S45.6,68.28,33.74,67C20.44,65.62,12,60.82,10.85,59.17,10.17,58.16,16.36,49.76,21.06,39.71Z"/><path class="cls-9" d="M21.06,39.71a5.24,5.24,0,0,1,1.31-1.87,1,1,0,0,1,.27-.14c3.21.48,6.4,1,9.61,1.46,0,1.48.1,3,.23,4.44.6,6.63,2.3,14.4,7.2,19.29a15,15,0,0,0,7.14,4A57.23,57.23,0,0,1,33.74,67C20.44,65.62,12,60.82,10.85,59.17,10.17,58.16,16.36,49.76,21.06,39.71Z"/><path class="cls-10" d="M21.06,39.71a5.24,5.24,0,0,1,1.31-1.87,1,1,0,0,1,.27-.14l2,.31c-.07.47-.12,1-.18,1.47-.29,2.32-2,3.09-3.57,4.54-2.4,2.27-4.57,6.24-4.69,9.58-.14,3.78,2,6.53,5.31,8.24A48.77,48.77,0,0,0,32.7,66a55.64,55.64,0,0,0,8.2,1.35A57.29,57.29,0,0,1,33.74,67C20.44,65.62,12,60.82,10.85,59.17,10.17,58.16,16.36,49.76,21.06,39.71Z"/><path class="cls-11" d="M45.86,39.89l.62.09c.26.86.73,2.44.77,2.6a35.38,35.38,0,0,0,1.22,4.28c.3.78,1.34,2.68,1.34,2.68a1.44,1.44,0,0,0,0,2c.65.77,1.21.64,1.21.64A6.73,6.73,0,0,1,52,54.68s-.94.28-.38,1.61a1.77,1.77,0,0,0,1.7,1.27c.25.47.5,1.75.78,2.45.21.51.77,1.47,1.17,2.4a13.92,13.92,0,0,1-1-1.55c-.54-1-.77-2.32-1.43-2.86a3.73,3.73,0,0,0-.63-.4c-.32-.37-.71-.67-1-1.08a1.11,1.11,0,0,1-.32-1.09c.09-.41.5-.66.54-1.06a2.92,2.92,0,0,0-.34-1c-.23-.55-.39-.63-.91-.85A1.77,1.77,0,0,1,49,50.4a2.59,2.59,0,0,0,.11-1.32c-.16-.44-.62-.76-.83-1.2a14,14,0,0,1-.81-2.42,41.82,41.82,0,0,0-1.24-5.11c-.51-.12-1.29,0-1.68-.4a.64.64,0,0,1-.11-.16C44.91,39.81,45.39,39.83,45.86,39.89Z"/><path class="cls-6" d="M10.89,58.51a15.85,15.85,0,0,0,5.89,3.78A70.64,70.64,0,0,0,38.63,66.7c6.57,0,14.46-.36,17-2.7a1,1,0,0,1-.07.4c-.45,1-10,3.88-21.86,2.63C20.44,65.62,12,60.82,10.85,59.17A.86.86,0,0,1,10.89,58.51Z"/><path class="cls-7" d="M57.83,49.14a2.34,2.34,0,0,1-.14.49c-.33.7-1,1.29-1.73.64-.86-.82-1.37-3.08.18-3.41C57.39,46.58,58,48,57.83,49.14Z"/><path class="cls-7" d="M59.86,52c.34.74-1.21.66-1.57.62-.82-.09-1.17-1.18-.23-1.45a1.35,1.35,0,0,1,1.25.32A1.61,1.61,0,0,1,59.86,52Z"/><path class="cls-7" d="M59.05,59.42a1.86,1.86,0,0,1-.53,1,1.63,1.63,0,0,1-1.32.43.48.48,0,0,1-.35-.53,3.34,3.34,0,0,1,.2-1.09c.29-.67.94-1.21,1.64-.71A.88.88,0,0,1,59.05,59.42Z"/><path class="cls-4" d="M52.37,51.53c-.52.79-1.9.84-2.72.62-1.91-.52-.42-2.56.82-2.81S53.2,50.27,52.37,51.53Z"/><path class="cls-12" d="M52,51a1.21,1.21,0,0,0-1.59-1,3,3,0,0,0-1.64,1.14,2.34,2.34,0,0,1,1.73-1.82c1.24-.25,2.73.93,1.9,2.19a1.56,1.56,0,0,1-.73.55A1.25,1.25,0,0,0,52,51Z"/><path class="cls-4" d="M53.69,54.7a8.3,8.3,0,0,1,1.67.51c.72.31,2.22,1.15,1.15,2a4,4,0,0,1-2.47.38c-.91,0-2.72-.19-3.16-1.11A1.34,1.34,0,0,1,52,54.64,5.59,5.59,0,0,1,53.69,54.7Z"/><path class="cls-12" d="M52,54.64a5.59,5.59,0,0,1,1.68.06,8.3,8.3,0,0,1,1.67.51c.72.31,2.22,1.15,1.15,2a2.46,2.46,0,0,1-1.45.4,2.4,2.4,0,0,0-1.65-2.27,2,2,0,0,0-2.47,1.23l-.06-.09A1.34,1.34,0,0,1,52,54.64Z"/><path class="cls-4" d="M52.76,44.19a3.69,3.69,0,0,0,.57-.63,2.52,2.52,0,0,1-3.44.89A2.7,2.7,0,0,0,52.76,44.19Z"/><path class="cls-4" d="M55.57,49.79c-.53-.86-.57-2.87.91-2.61C58.91,47.61,57.24,52.45,55.57,49.79Z"/><path class="cls-12" d="M57.15,48.75a1.68,1.68,0,0,0-1.34-.59,1.2,1.2,0,0,0-.57.14c0-.69.41-1.27,1.24-1.12,1.29.23,1.43,1.7,1,2.63A1.69,1.69,0,0,0,57.15,48.75Z"/><path class="cls-4" d="M56.68,60.42c0-.54.92-2.26,1.71-1.82C60,59.51,56.66,62.88,56.68,60.42Z"/><path class="cls-12" d="M58.39,58.6a.9.9,0,0,1,.38,1.13.93.93,0,0,0-1.5.32,8,8,0,0,0-.36,1.15,1,1,0,0,1-.23-.78C56.69,59.88,57.6,58.16,58.39,58.6Z"/><path class="cls-4" d="M57.61,51.72c.7-.72,2.49,0,2,.72S56.77,52.59,57.61,51.72Z"/><path class="cls-12" d="M59.5,52.6a1.13,1.13,0,0,0-.22-.36,1.29,1.29,0,0,0-1.23-.41,1,1,0,0,0-.6.37.49.49,0,0,1,.16-.48c.7-.72,2.49,0,2,.72A.49.49,0,0,1,59.5,52.6Z"/><path class="cls-11" d="M37.58,44a1.59,1.59,0,0,1-1.76-.08c-.38-.33-.94-1.25-.35-1.62.77-.48,3.27.64,2.27,1.58A.83.83,0,0,1,37.58,44Z"/><path class="cls-11" d="M26.33,41.68c.81.18.94,1,.74,1.63a1.51,1.51,0,0,1-1.86.79c-.81-.16-2-.87-1.18-1.74A2.63,2.63,0,0,1,26.33,41.68Z"/><path class="cls-11" d="M22,44.66c.76.7.19,1.58-.75,1.14-.35-.16-.8-.35-.86-.78a.75.75,0,0,1,.4-.74A1.15,1.15,0,0,1,22,44.66Z"/><path class="cls-11" d="M29.12,51a3.87,3.87,0,0,1-2.36-1,12.33,12.33,0,0,1-1.49-1.49,2.47,2.47,0,0,1,.14-3.19,4.68,4.68,0,0,1,4.46-.88,3.63,3.63,0,0,1,2.06,4.48A2.64,2.64,0,0,1,29.12,51Z"/><path class="cls-11" d="M46.65,46.81c.24,1.63-2.65,1.24-1.94-.06C45.08,46.06,46.5,45.86,46.65,46.81Z"/><path class="cls-11" d="M40.86,57.65c-2.18-.87-3.18-3.85-1.15-5.45a3.83,3.83,0,0,1,2.39-.69,2.81,2.81,0,0,1,2.14,1.27,4.07,4.07,0,0,1-.28,3C43.4,56.86,42.24,58.2,40.86,57.65Z"/><path class="cls-11" d="M46.88,63.84a3.17,3.17,0,0,1-2.08-2.41c-.19-1.21-.64-2.62-.11-3.81a2.07,2.07,0,0,1,2.42-1.39c2.08.62,3.2,3,3,5.05C49.92,62.92,48.67,64.48,46.88,63.84Z"/><path class="cls-11" d="M41.63,60.78a1.61,1.61,0,0,1-2-.91,1.17,1.17,0,0,1,.59-1.24c.69-.46,2.11-.65,2.48.31C42.93,59.6,42.23,60.56,41.63,60.78Z"/><path class="cls-11" d="M33.51,64.51c.33-.85,2.91.45,1.85,1.11C34.77,66,33.19,65.33,33.51,64.51Z"/><path class="cls-11" d="M19.31,53.25a2.24,2.24,0,0,1,.27,2.12,1.31,1.31,0,0,1-1.43.41c-1-.38-1.28-2.41-.69-3.2S18.82,52.4,19.31,53.25Z"/><path class="cls-11" d="M25.7,61.53c1.58,1.88-3,3.34-3,1.33C22.66,61.5,24.76,60.4,25.7,61.53Z"/><path class="cls-11" d="M33.17,63.8c-.87,1.27-3.46.83-4.41-.17s-1.42-3-.14-3.67A2.52,2.52,0,0,1,31,59.83C32.32,60.45,34.26,62.2,33.17,63.8Z"/><path class="cls-13" d="M49.44,62.22a2.51,2.51,0,0,1-4,1.14c-1.36-1.29-1.4-3.91-.57-5.49C46.84,54.13,50.17,59.86,49.44,62.22Z"/><path class="cls-13" d="M25.79,50.45c-1.44-1.12-2.22-2.89-.78-4.34s5.24-1.76,6.22.21c.71,1.41.27,4.33-1.33,5A4.35,4.35,0,0,1,25.79,50.45Z"/><path class="cls-13" d="M17.25,55.33c-.54-.86-.57-2.87.9-2.61C20.59,53.15,18.92,58,17.25,55.33Z"/><path class="cls-13" d="M39.83,52.72c1.43-1.36,4.58-1.56,3.92,2.08C42.68,60.8,35.4,57,39.83,52.72Z"/><path class="cls-13" d="M36.44,42.46c.43.14,1.24.62,1.15,1.18-.15.9-1.68.85-2.13.27C34.77,43,35.31,42.1,36.44,42.46Z"/><path class="cls-13" d="M30.9,60.47c.91.48,2.51,1.86,2.09,3.06-.69,2-4.08,1.23-4.83-.24C27,61,28.54,59.22,30.9,60.47Z"/><path class="cls-13" d="M40.2,58.88c.51-.25,1.65-.53,2.06,0,.67.94-.74,2.24-1.65,2.11C39.19,60.82,38.87,59.55,40.2,58.88Z"/><path class="cls-13" d="M24.59,42.25c.51-.26,1.65-.54,2.06,0,.67.93-.73,2.23-1.65,2.1C23.58,44.18,23.26,42.91,24.59,42.25Z"/><path class="cls-13" d="M23.24,61.91c.51-.26,1.65-.54,2.06,0,.68.93-.73,2.23-1.65,2.11C22.23,63.85,21.91,62.58,23.24,61.91Z"/><path class="cls-13" d="M34.47,64.51c.33.11.92.48.85.89-.12.67-1.27.61-1.59.17C33.22,64.88,33.64,64.22,34.47,64.51Z"/><path class="cls-13" d="M21.35,44.59c.32.11.92.48.84.89-.12.68-1.26.62-1.58.18C20.1,45,20.51,44.31,21.35,44.59Z"/><path class="cls-13" d="M45,46.74c.3-.17,1-.38,1.23-.05.43.53-.36,1.35-.91,1.31C44.45,47.93,44.21,47.18,45,46.74Z"/><path class="cls-13" d="M39.3,41.09a2.89,2.89,0,0,0,1.37,0,3.21,3.21,0,0,1-2.08.11,3.85,3.85,0,0,1-1.29-1A5.21,5.21,0,0,0,39.3,41.09Z"/><path class="cls-14" d="M48.6,63.39a7.4,7.4,0,0,0-.24-3,3.74,3.74,0,0,0-1.43-2.5,1.81,1.81,0,0,0-2.25.38,3.49,3.49,0,0,1,.2-.44c2-3.74,5.29,2,4.56,4.35a2.42,2.42,0,0,1-.84,1.18Z"/><path class="cls-14" d="M30.3,50.42a2.41,2.41,0,0,0-.71-3.24,4,4,0,0,0-5.24,1.32A2.32,2.32,0,0,1,25,46.11c1.35-1.36,5.24-1.76,6.22.21.71,1.41.27,4.33-1.33,5a2.76,2.76,0,0,1-1,.22A3.06,3.06,0,0,0,30.3,50.42Z"/><path class="cls-14" d="M18.64,54.52a1.77,1.77,0,0,0-1.32-1.2,1.37,1.37,0,0,0-.28,0,.92.92,0,0,1,1.11-.58c1.73.31,1.39,2.83.45,3.32A2,2,0,0,0,18.64,54.52Z"/><path class="cls-14" d="M42.19,56.87c1-1.24.64-3.59-1.29-3.57a3.14,3.14,0,0,0-2.18.9,5.28,5.28,0,0,1,1.11-1.48c1.43-1.36,4.58-1.56,3.92,2.08-.41,2.34-1.78,3.18-3,3.09A3,3,0,0,0,42.19,56.87Z"/><path class="cls-14" d="M37.16,43.88a1.51,1.51,0,0,0-1.91-1.12c.17-.33.6-.49,1.19-.3.43.14,1.24.62,1.15,1.18a.75.75,0,0,1-.38.53A1.47,1.47,0,0,0,37.16,43.88Z"/><path class="cls-14" d="M30.12,61.5a2.55,2.55,0,0,0-2.14.25l-.21.18c-.09-1.55,1.27-2.45,3.13-1.46.91.48,2.51,1.86,2.09,3.06a1.67,1.67,0,0,1-.75.89C32.69,63.11,31.29,61.79,30.12,61.5Z"/><path class="cls-14" d="M42.08,60a.92.92,0,0,0-.82-.77,1.51,1.51,0,0,0-1.46.57,1.6,1.6,0,0,0-.24.66c-.39-.48-.23-1.18.64-1.62.51-.25,1.65-.53,2.06,0a1.11,1.11,0,0,1-.16,1.37A1.94,1.94,0,0,0,42.08,60Z"/><path class="cls-14" d="M26.25,43.42a.94.94,0,0,0-.83-1,1.82,1.82,0,0,0-.92.14l-.34.2-.05,0-.06,0a1.37,1.37,0,0,0-.24.18,1.57,1.57,0,0,1,.78-.74c.51-.26,1.65-.54,2.06,0s.05,1.26-.5,1.7A1.64,1.64,0,0,0,26.25,43.42Z"/><path class="cls-14" d="M24.9,63.15a1,1,0,0,0-1.08-1,2,2,0,0,0-1.38,1.08c-.14-.44.1-1,.8-1.31.51-.26,1.65-.54,2.06,0a1.26,1.26,0,0,1-.47,1.68A1.72,1.72,0,0,0,24.9,63.15Z"/><path class="cls-14" d="M34.81,65.67a1.1,1.1,0,0,0-.86-.82.49.49,0,0,0-.43.06c0-.37.4-.59.95-.4.33.11.92.48.85.89a.61.61,0,0,1-.5.47A1.41,1.41,0,0,0,34.81,65.67Z"/><path class="cls-14" d="M21.53,45.37a1.21,1.21,0,0,0-1-.33.33.33,0,0,0-.15.05c0-.42.37-.7,1-.5.32.11.92.48.84.89a.58.58,0,0,1-.45.46A.82.82,0,0,0,21.53,45.37Z"/><path class="cls-14" d="M45,46.74c.3-.17,1-.38,1.23-.05a.61.61,0,0,1,0,.67.72.72,0,0,0-.5-.27,1.11,1.11,0,0,0-1.06.67C44.4,47.48,44.46,47,45,46.74Z"/><path class="cls-4" d="M98.64,62.59a4.36,4.36,0,0,1-1.72,1.22A3.37,3.37,0,0,1,95,63.63a3,3,0,0,1-1.34-1.37,13.38,13.38,0,0,1-.54-1.87A4.77,4.77,0,0,0,93,64.28a4.74,4.74,0,0,0,3.59,2.22c1.14.22,1.89-.8,2.33-1.74A9.17,9.17,0,0,0,98.64,62.59Z"/><path class="cls-5" d="M93.16,60.39c-.15,1.39-.17,2.8,1,3.77a2.72,2.72,0,0,0,3.35,0,4.21,4.21,0,0,0,1-1.41l.1-.2c1.09.48,2.17,1,3.25,1.46,1.26,2.74,2.38,5,3.22,6.82a11.3,11.3,0,0,1,1.37,4.34,11.54,11.54,0,0,1-2,5.52,12.67,12.67,0,0,1-4.72,4.13,1.31,1.31,0,0,0,.57-.45c.43-1-1.15-3.45-1.53-4.39-.28-.7-.53-2-.78-2.45a1.76,1.76,0,0,1-1.7-1.26c-.56-1.34.38-1.62.38-1.62a6.59,6.59,0,0,0-1-2.53s-.56.13-1.2-.64a1.43,1.43,0,0,1,0-2s-1-1.9-1.34-2.67A35.9,35.9,0,0,1,92,62.6c0-.16-.51-1.75-.77-2.61C91.87,60.09,92.52,60.23,93.16,60.39Z"/><path class="cls-6" d="M93.16,60.38c-.15,1.39-.17,2.81,1,3.78a2,2,0,0,0,.49.31c.09.27.17.54.25.81a30.75,30.75,0,0,0,1.34,3.4A16.9,16.9,0,0,0,97.78,72c.84,1.35,2.82,4.8,4.92,4.12,2.82-.93,1.3-6,1-8,0-.11,0-.23,0-.35.53,1.11,1,2.12,1.43,3a11.3,11.3,0,0,1,1.37,4.34,11.54,11.54,0,0,1-2,5.52,12.67,12.67,0,0,1-4.72,4.13,1.31,1.31,0,0,0,.57-.45c.43-1-1.15-3.45-1.53-4.39-.28-.7-.53-2-.78-2.45a1.76,1.76,0,0,1-1.7-1.26c-.56-1.34.38-1.62.38-1.62a6.59,6.59,0,0,0-1-2.53s-.56.13-1.2-.64a1.43,1.43,0,0,1,0-2s-1-1.9-1.34-2.67A35.9,35.9,0,0,1,92,62.6c0-.16-.51-1.75-.77-2.61C91.87,60.09,92.52,60.22,93.16,60.38Z"/><path class="cls-6" d="M100.35,84.41a1.34,1.34,0,0,0,0-.78,4.18,4.18,0,0,0,1.42-.48,8.15,8.15,0,0,0,3.47-5.68c.51-2.94-.37-5.19-2-7.63A45.73,45.73,0,0,1,99.56,63c.78.35,1.56.69,2.33,1,1.26,2.74,2.38,5,3.22,6.82a11.3,11.3,0,0,1,1.37,4.34,11.54,11.54,0,0,1-2,5.52,12.67,12.67,0,0,1-4.72,4.13A1.31,1.31,0,0,0,100.35,84.41Z"/><path class="cls-7" d="M97.56,70.34a1,1,0,0,1,0,.49c-.24,1.18-1.77,1.36-2.69,1-.68-.28-1.12-1.63-.52-2.17a3.66,3.66,0,0,1,.66-.32,2.2,2.2,0,0,1,.81-.1,1.74,1.74,0,0,1,1.33.46A1.85,1.85,0,0,1,97.56,70.34Z"/><path class="cls-7" d="M99.42,74.74a3.76,3.76,0,0,1,1.43.64c.27.21.85.62.93,1a.65.65,0,0,1-.48.77,3.77,3.77,0,0,1-.89,0A7.77,7.77,0,0,1,98,77.06a3.38,3.38,0,0,1-1.23-.68c-.25-.21-.74-.51-.8-.86-.13-.85,1.2-1.1,1.79-1.07a6.32,6.32,0,0,1,1,.15Z"/><path class="cls-8" d="M65.81,59.73a5.15,5.15,0,0,1,1.31-1.88.74.74,0,0,1,.27-.13c3.3.49,6.59,1.06,9.9,1.49l.4,0a1.17,1.17,0,0,0,.2.34,1.37,1.37,0,0,0,1.37.45,2,2,0,0,0,.89-.51l1.33.13a5,5,0,0,0,2.57,1.43,2.52,2.52,0,0,0,2.1-.4,2.15,2.15,0,0,0,.58-.87,25.07,25.07,0,0,1,3.88.08l.62.08c.26.86.73,2.45.77,2.61a35.9,35.9,0,0,0,1.22,4.28c.29.77,1.34,2.67,1.34,2.67a1.43,1.43,0,0,0,0,2c.64.77,1.2.64,1.2.64a6.59,6.59,0,0,1,1,2.53s-.94.28-.38,1.62A1.76,1.76,0,0,0,98,77.57c.25.47.5,1.75.78,2.45.38.94,2,3.42,1.53,4.39s-10,3.88-21.86,2.63c-13.3-1.4-21.78-6.21-22.89-7.86C54.92,78.18,61.11,69.77,65.81,59.73Z"/><path class="cls-9" d="M65.81,59.73a5.15,5.15,0,0,1,1.31-1.88.74.74,0,0,1,.27-.13c3.21.48,6.4,1,9.61,1.45,0,1.49.1,3,.23,4.44.6,6.63,2.3,14.41,7.2,19.3a15,15,0,0,0,7.14,4A56.66,56.66,0,0,1,78.49,87c-13.3-1.4-21.78-6.21-22.89-7.86C54.92,78.18,61.11,69.77,65.81,59.73Z"/><path class="cls-10" d="M65.81,59.73a5.15,5.15,0,0,1,1.31-1.88.74.74,0,0,1,.27-.13l2,.31c-.07.46-.12.94-.18,1.46-.29,2.32-2,3.09-3.57,4.55-2.4,2.26-4.57,6.23-4.69,9.57-.14,3.78,2,6.53,5.31,8.25A49.07,49.07,0,0,0,77.45,86a57,57,0,0,0,8.2,1.34A57.29,57.29,0,0,1,78.49,87c-13.3-1.4-21.78-6.21-22.89-7.86C54.92,78.18,61.11,69.77,65.81,59.73Z"/><path class="cls-11" d="M90.61,59.91l.62.08c.26.86.73,2.45.77,2.61a35.9,35.9,0,0,0,1.22,4.28c.29.77,1.34,2.67,1.34,2.67a1.43,1.43,0,0,0,0,2c.64.77,1.2.64,1.2.64a6.59,6.59,0,0,1,1,2.53s-.94.28-.38,1.62A1.76,1.76,0,0,0,98,77.57c.25.47.5,1.75.78,2.45.21.51.77,1.47,1.16,2.4a15.2,15.2,0,0,1-1-1.55c-.54-1-.77-2.32-1.43-2.86a4.49,4.49,0,0,0-.63-.4c-.32-.36-.71-.67-1-1.08a1.11,1.11,0,0,1-.32-1.09c.09-.41.5-.66.54-1.06a2.92,2.92,0,0,0-.34-1c-.23-.55-.39-.63-.91-.85a1.76,1.76,0,0,1-1.17-2.13,2.58,2.58,0,0,0,.11-1.32c-.16-.44-.62-.76-.83-1.2a14,14,0,0,1-.81-2.42A41.82,41.82,0,0,0,91,60.36c-.51-.12-1.29,0-1.68-.4a.83.83,0,0,1-.11-.15A13.55,13.55,0,0,1,90.61,59.91Z"/><path class="cls-6" d="M55.64,78.52a15.72,15.72,0,0,0,5.89,3.78,70.64,70.64,0,0,0,21.85,4.41c6.57.05,14.46-.36,17-2.7a1,1,0,0,1-.07.4c-.45,1-10,3.88-21.86,2.63-13.3-1.4-21.78-6.21-22.89-7.86C55.52,79.06,55.54,78.84,55.64,78.52Z"/><path class="cls-7" d="M102.58,69.15a2.44,2.44,0,0,1-.14.5c-.33.69-1,1.28-1.73.63-.86-.82-1.37-3.07.17-3.41C102.14,66.59,102.76,68.05,102.58,69.15Z"/><path class="cls-7" d="M104.61,72c.33.74-1.21.66-1.57.62-.82-.08-1.17-1.18-.23-1.45a1.37,1.37,0,0,1,1.25.32A1.71,1.71,0,0,1,104.61,72Z"/><path class="cls-7" d="M103.8,79.43a1.86,1.86,0,0,1-.53,1,1.67,1.67,0,0,1-1.32.44.5.5,0,0,1-.35-.54,3.34,3.34,0,0,1,.2-1.09c.29-.67.94-1.2,1.64-.71A.88.88,0,0,1,103.8,79.43Z"/><path class="cls-4" d="M97.12,71.54c-.52.79-1.9.84-2.72.62-1.91-.51-.42-2.56.82-2.81S98,70.28,97.12,71.54Z"/><path class="cls-12" d="M96.72,71a1.2,1.2,0,0,0-1.59-1,3,3,0,0,0-1.64,1.13,2.34,2.34,0,0,1,1.73-1.82c1.24-.25,2.73.93,1.9,2.19a1.5,1.5,0,0,1-.73.55A1.25,1.25,0,0,0,96.72,71Z"/><path class="cls-4" d="M98.44,74.71a7.73,7.73,0,0,1,1.67.52c.72.3,2.22,1.14,1.15,2a4,4,0,0,1-2.47.38c-.91,0-2.72-.19-3.16-1.11a1.34,1.34,0,0,1,1.13-1.87A5.59,5.59,0,0,1,98.44,74.71Z"/><path class="cls-12" d="M96.76,74.65a5.59,5.59,0,0,1,1.68.06,7.73,7.73,0,0,1,1.67.52c.72.3,2.22,1.14,1.15,2a2.46,2.46,0,0,1-1.45.4,2.4,2.4,0,0,0-1.65-2.27,2,2,0,0,0-2.47,1.23l-.06-.09A1.34,1.34,0,0,1,96.76,74.65Z"/><path class="cls-4" d="M97.51,64.2a3.35,3.35,0,0,0,.57-.63,2.52,2.52,0,0,1-3.44.89A2.7,2.7,0,0,0,97.51,64.2Z"/><path class="cls-4" d="M100.32,69.8c-.53-.86-.57-2.87.91-2.61C103.66,67.62,102,72.46,100.32,69.8Z"/><path class="cls-12" d="M101.9,68.76a1.68,1.68,0,0,0-1.34-.59,1.17,1.17,0,0,0-.57.14c.05-.69.4-1.27,1.24-1.12,1.29.23,1.42,1.7,1,2.64A1.85,1.85,0,0,0,101.9,68.76Z"/><path class="cls-4" d="M101.43,80.43c0-.54.91-2.26,1.71-1.81C104.75,79.52,101.4,82.89,101.43,80.43Z"/><path class="cls-12" d="M103.14,78.62a.89.89,0,0,1,.38,1.13.93.93,0,0,0-1.5.31,8,8,0,0,0-.36,1.15,1,1,0,0,1-.23-.78C101.44,79.89,102.34,78.17,103.14,78.62Z"/><path class="cls-4" d="M102.36,71.73c.7-.72,2.49,0,2,.73S101.52,72.61,102.36,71.73Z"/><path class="cls-12" d="M104.25,72.61a1.08,1.08,0,0,0-.22-.35,1.32,1.32,0,0,0-1.23-.42,1,1,0,0,0-.6.37.5.5,0,0,1,.16-.48c.7-.72,2.49,0,2,.73A.57.57,0,0,1,104.25,72.61Z"/><path class="cls-11" d="M82.33,64a1.59,1.59,0,0,1-1.76-.08c-.38-.33-.94-1.25-.35-1.61.77-.49,3.27.64,2.27,1.57A.83.83,0,0,1,82.33,64Z"/><path class="cls-11" d="M71.08,61.69c.81.18.94,1,.73,1.64s-1.13.93-1.85.79-2-.88-1.18-1.74A2.61,2.61,0,0,1,71.08,61.69Z"/><path class="cls-11" d="M66.74,64.67c.76.71.19,1.59-.75,1.14-.35-.16-.81-.35-.86-.78a.76.76,0,0,1,.4-.74A1.15,1.15,0,0,1,66.74,64.67Z"/><path class="cls-11" d="M73.87,71a3.81,3.81,0,0,1-2.36-1A13,13,0,0,1,70,68.53a2.48,2.48,0,0,1,.14-3.2,4.71,4.71,0,0,1,4.46-.88,3.63,3.63,0,0,1,2.06,4.48A2.63,2.63,0,0,1,73.87,71Z"/><path class="cls-11" d="M91.4,66.83c.24,1.62-2.65,1.23-1.94-.07C89.83,66.07,91.25,65.87,91.4,66.83Z"/><path class="cls-11" d="M85.61,77.66c-2.18-.87-3.18-3.85-1.15-5.45a3.83,3.83,0,0,1,2.39-.69A2.82,2.82,0,0,1,89,72.79a4.1,4.1,0,0,1-.28,3C88.15,76.88,87,78.22,85.61,77.66Z"/><path class="cls-11" d="M91.63,83.85a3.17,3.17,0,0,1-2.08-2.4c-.19-1.22-.64-2.63-.11-3.82a2.08,2.08,0,0,1,2.42-1.39c2.08.62,3.19,3,3,5.05C94.67,82.93,93.42,84.49,91.63,83.85Z"/><path class="cls-11" d="M86.38,80.79a1.61,1.61,0,0,1-2-.91,1.15,1.15,0,0,1,.59-1.24c.69-.46,2.11-.65,2.48.31C87.68,79.61,87,80.57,86.38,80.79Z"/><path class="cls-11" d="M78.26,84.52c.33-.85,2.91.45,1.85,1.11C79.52,86,77.94,85.34,78.26,84.52Z"/><path class="cls-11" d="M64.06,73.26a2.24,2.24,0,0,1,.27,2.12,1.3,1.3,0,0,1-1.43.41c-1-.37-1.28-2.41-.69-3.19S63.57,72.41,64.06,73.26Z"/><path class="cls-11" d="M70.45,81.54c1.58,1.88-3,3.34-3,1.33C67.41,81.51,69.5,80.41,70.45,81.54Z"/><path class="cls-11" d="M77.92,83.81c-.87,1.27-3.46.83-4.41-.16s-1.42-3-.14-3.68a2.49,2.49,0,0,1,2.34-.12C77.07,80.46,79,82.22,77.92,83.81Z"/><path class="cls-13" d="M94.18,82.23a2.5,2.5,0,0,1-4,1.14c-1.36-1.29-1.41-3.91-.57-5.49C91.59,74.15,94.92,79.88,94.18,82.23Z"/><path class="cls-13" d="M70.54,70.46c-1.44-1.12-2.22-2.89-.78-4.34S75,64.36,76,66.33c.71,1.42.27,4.33-1.33,5A4.32,4.32,0,0,1,70.54,70.46Z"/><path class="cls-13" d="M62,75.34c-.54-.85-.57-2.87.9-2.61C65.34,73.16,63.67,78,62,75.34Z"/><path class="cls-13" d="M84.58,72.74c1.43-1.37,4.58-1.57,3.92,2.07C87.43,80.81,80.15,77,84.58,72.74Z"/><path class="cls-13" d="M81.19,62.48c.43.13,1.24.61,1.15,1.17-.15.91-1.68.85-2.13.27C79.52,63,80.06,62.11,81.19,62.48Z"/><path class="cls-13" d="M75.65,80.48c.91.49,2.51,1.87,2.08,3.06-.68,2-4.07,1.24-4.82-.23C71.73,81,73.28,79.23,75.65,80.48Z"/><path class="cls-13" d="M85,78.9c.51-.26,1.65-.54,2.06,0,.67.93-.74,2.23-1.65,2.1C83.94,80.84,83.62,79.56,85,78.9Z"/><path class="cls-13" d="M69.34,62.26c.51-.26,1.65-.54,2.06,0,.67.93-.74,2.23-1.65,2.1C68.33,64.2,68,62.93,69.34,62.26Z"/><path class="cls-13" d="M68,81.92c.51-.26,1.65-.54,2.06,0,.68.94-.73,2.24-1.65,2.11C67,83.86,66.66,82.59,68,81.92Z"/><path class="cls-13" d="M79.22,84.52c.33.11.92.48.85.89-.13.67-1.27.61-1.59.17C78,84.9,78.39,84.23,79.22,84.52Z"/><path class="cls-13" d="M66.1,64.6c.32.11.92.48.84.89-.12.68-1.26.62-1.58.18C64.85,65,65.26,64.32,66.1,64.6Z"/><path class="cls-13" d="M89.73,66.75c.29-.17,1-.37,1.23,0,.43.53-.36,1.35-.91,1.31C89.2,67.94,89,67.19,89.73,66.75Z"/><path class="cls-13" d="M84.05,61.1a3,3,0,0,0,1.36,0,3.23,3.23,0,0,1-2.07.1,3.85,3.85,0,0,1-1.29-1A5.21,5.21,0,0,0,84.05,61.1Z"/><path class="cls-14" d="M93.35,83.4a7.4,7.4,0,0,0-.24-3,3.74,3.74,0,0,0-1.43-2.5,1.8,1.8,0,0,0-2.25.39,3.07,3.07,0,0,1,.2-.45c2-3.73,5.29,2,4.55,4.35a2.42,2.42,0,0,1-.83,1.19Z"/><path class="cls-14" d="M75,70.43a2.4,2.4,0,0,0-.7-3.24,4,4,0,0,0-5.24,1.33,2.33,2.33,0,0,1,.66-2.4c1.35-1.36,5.24-1.76,6.22.21.71,1.42.27,4.33-1.33,5a2.76,2.76,0,0,1-1,.22A2.93,2.93,0,0,0,75,70.43Z"/><path class="cls-14" d="M63.39,74.53a1.74,1.74,0,0,0-1.32-1.19l-.28,0a.93.93,0,0,1,1.11-.58c1.73.31,1.39,2.83.45,3.32A2,2,0,0,0,63.39,74.53Z"/><path class="cls-14" d="M86.94,76.88c1-1.24.64-3.58-1.29-3.57a3.1,3.1,0,0,0-2.18.91,5,5,0,0,1,1.11-1.48c1.43-1.37,4.58-1.57,3.92,2.07-.42,2.34-1.78,3.18-3,3.09A2.94,2.94,0,0,0,86.94,76.88Z"/><path class="cls-14" d="M81.91,63.89A1.53,1.53,0,0,0,80,62.77c.17-.33.59-.49,1.19-.29.43.13,1.24.61,1.15,1.17a.73.73,0,0,1-.38.53A1.6,1.6,0,0,0,81.91,63.89Z"/><path class="cls-14" d="M74.87,81.51a2.59,2.59,0,0,0-2.14.25l-.21.18c-.09-1.54,1.27-2.44,3.13-1.46.91.49,2.51,1.87,2.08,3.06a1.61,1.61,0,0,1-.74.89C77.44,83.12,76,81.8,74.87,81.51Z"/><path class="cls-14" d="M86.83,80.05a.94.94,0,0,0-.82-.77,1.53,1.53,0,0,0-1.46.57,1.65,1.65,0,0,0-.24.66c-.39-.48-.23-1.18.64-1.61.51-.26,1.65-.54,2.06,0a1.1,1.1,0,0,1-.16,1.36A1.94,1.94,0,0,0,86.83,80.05Z"/><path class="cls-14" d="M71,63.43a.94.94,0,0,0-.83-1,1.82,1.82,0,0,0-.92.14,3.13,3.13,0,0,0-.34.21l0,0-.06,0a1.37,1.37,0,0,0-.24.18,1.57,1.57,0,0,1,.78-.74c.51-.26,1.65-.54,2.06,0s0,1.27-.5,1.7A1.6,1.6,0,0,0,71,63.43Z"/><path class="cls-14" d="M69.65,83.16a1,1,0,0,0-1.08-1,2,2,0,0,0-1.38,1.08c-.14-.44.1-1,.8-1.31.51-.26,1.65-.54,2.06,0a1.28,1.28,0,0,1-.47,1.69A1.85,1.85,0,0,0,69.65,83.16Z"/><path class="cls-14" d="M79.56,85.69a1.11,1.11,0,0,0-.87-.83.54.54,0,0,0-.43.06c0-.37.41-.59,1-.4.33.11.92.48.85.89a.61.61,0,0,1-.5.47A1.21,1.21,0,0,0,79.56,85.69Z"/><path class="cls-14" d="M66.28,65.38a1.17,1.17,0,0,0-1-.32.33.33,0,0,0-.15,0c0-.42.37-.7,1-.5.32.11.92.48.84.89a.59.59,0,0,1-.45.47A.84.84,0,0,0,66.28,65.38Z"/><path class="cls-14" d="M89.73,66.75c.29-.17,1-.37,1.23,0a.61.61,0,0,1,0,.67.76.76,0,0,0-.5-.27,1.11,1.11,0,0,0-1.06.67C89.15,67.5,89.21,67.05,89.73,66.75Z"/><path class="cls-4" d="M52.16,85.57a4.36,4.36,0,0,1-1.72,1.22,3.46,3.46,0,0,1-1.88-.17,3,3,0,0,1-1.34-1.38,13.38,13.38,0,0,1-.54-1.87,4,4,0,0,0,3.43,6.11c1.14.22,1.89-.79,2.33-1.74A9.17,9.17,0,0,0,52.16,85.57Z"/><path class="cls-5" d="M46.68,83.37c-.15,1.39-.17,2.8,1,3.77a2.72,2.72,0,0,0,3.35,0,4.21,4.21,0,0,0,1-1.41c.06-.11.08-.16.1-.2L55.41,87c1.26,2.74,2.37,5,3.22,6.82A11.29,11.29,0,0,1,60,98.2a11.51,11.51,0,0,1-2,5.51,12.63,12.63,0,0,1-4.73,4.13,1.29,1.29,0,0,0,.58-.45c.43-1-1.15-3.45-1.53-4.38-.28-.71-.53-2-.78-2.46a1.76,1.76,0,0,1-1.7-1.26c-.57-1.34.38-1.62.38-1.62a6.88,6.88,0,0,0-1-2.53s-.56.13-1.2-.64a1.43,1.43,0,0,1,0-2s-1-1.9-1.34-2.67a35.38,35.38,0,0,1-1.22-4.28c-.05-.16-.51-1.74-.77-2.61C45.39,83.07,46,83.21,46.68,83.37Z"/><path class="cls-6" d="M46.68,83.36c-.15,1.39-.18,2.81,1,3.78a2,2,0,0,0,.49.31c.09.27.16.54.25.81a30.75,30.75,0,0,0,1.34,3.4A16.64,16.64,0,0,0,51.3,95c.84,1.35,2.82,4.8,4.92,4.12,2.82-.93,1.3-6,1-7.94l-.06-.36c.54,1.11,1,2.12,1.44,3A11.29,11.29,0,0,1,60,98.2a11.51,11.51,0,0,1-2,5.51,12.63,12.63,0,0,1-4.73,4.13,1.29,1.29,0,0,0,.58-.45c.43-1-1.15-3.45-1.53-4.38-.28-.71-.53-2-.78-2.46a1.76,1.76,0,0,1-1.7-1.26c-.57-1.34.38-1.62.38-1.62a6.88,6.88,0,0,0-1-2.53s-.56.13-1.2-.64a1.43,1.43,0,0,1,0-2s-1-1.9-1.34-2.67a35.38,35.38,0,0,1-1.22-4.28c-.05-.16-.51-1.74-.77-2.61C45.39,83.07,46,83.21,46.68,83.36Z"/><path class="cls-6" d="M53.87,107.39a1.33,1.33,0,0,0,0-.78,4.18,4.18,0,0,0,1.42-.48,8.15,8.15,0,0,0,3.47-5.68c.51-2.94-.37-5.19-2-7.63A45.67,45.67,0,0,1,53.08,86l2.33,1c1.26,2.74,2.37,5,3.22,6.82A11.29,11.29,0,0,1,60,98.2a11.51,11.51,0,0,1-2,5.51,12.63,12.63,0,0,1-4.73,4.13A1.29,1.29,0,0,0,53.87,107.39Z"/><path class="cls-7" d="M51.07,93.32a1,1,0,0,1,0,.49c-.24,1.18-1.77,1.36-2.69,1-.69-.28-1.12-1.63-.52-2.17a3.66,3.66,0,0,1,.66-.32,2.2,2.2,0,0,1,.81-.1,1.74,1.74,0,0,1,1.33.46A1.7,1.7,0,0,1,51.07,93.32Z"/><path class="cls-7" d="M52.94,97.72a3.76,3.76,0,0,1,1.43.64c.27.21.85.62.92,1a.66.66,0,0,1-.47.78,4.48,4.48,0,0,1-.9,0,7.71,7.71,0,0,1-2.4-.08,3.5,3.5,0,0,1-1.24-.68c-.24-.2-.73-.51-.79-.86-.13-.85,1.2-1.1,1.79-1.07a6.35,6.35,0,0,1,1,.16Z"/><path class="cls-8" d="M19.33,82.71a5.24,5.24,0,0,1,1.31-1.88.67.67,0,0,1,.27-.13c3.3.49,6.59,1.06,9.9,1.49l.4,0a1.17,1.17,0,0,0,.2.34,1.37,1.37,0,0,0,1.37.45,2,2,0,0,0,.89-.51l1.33.14a5,5,0,0,0,2.57,1.42,2.46,2.46,0,0,0,2.09-.4,2.18,2.18,0,0,0,.59-.87,25.07,25.07,0,0,1,3.88.08l.62.08c.26.87.72,2.45.77,2.61a35.38,35.38,0,0,0,1.22,4.28c.29.77,1.34,2.67,1.34,2.67a1.43,1.43,0,0,0,0,2c.64.77,1.2.64,1.2.64a6.88,6.88,0,0,1,1,2.53s-1,.28-.38,1.62a1.76,1.76,0,0,0,1.7,1.26c.25.47.5,1.75.78,2.46.38.93,2,3.41,1.53,4.38S43.87,111.27,32,110c-13.3-1.4-21.78-6.21-22.89-7.86C8.44,101.16,14.63,92.76,19.33,82.71Z"/><path class="cls-9" d="M19.33,82.71a5.24,5.24,0,0,1,1.31-1.88.67.67,0,0,1,.27-.13c3.21.48,6.4,1,9.61,1.45,0,1.49.1,3,.23,4.45.6,6.62,2.29,14.4,7.2,19.29a15,15,0,0,0,7.14,4A56.11,56.11,0,0,1,32,110c-13.3-1.4-21.78-6.21-22.89-7.86C8.44,101.16,14.63,92.76,19.33,82.71Z"/><path class="cls-10" d="M19.33,82.71a5.24,5.24,0,0,1,1.31-1.88.67.67,0,0,1,.27-.13l2,.31c-.07.46-.12.95-.18,1.46-.29,2.32-2,3.09-3.57,4.55-2.4,2.26-4.57,6.23-4.69,9.57-.14,3.79,2,6.53,5.31,8.25A49.17,49.17,0,0,0,31,109a57.11,57.11,0,0,0,8.21,1.34A57.29,57.29,0,0,1,32,110c-13.3-1.4-21.78-6.21-22.89-7.86C8.44,101.16,14.63,92.76,19.33,82.71Z"/><path class="cls-11" d="M44.13,82.89l.62.08c.26.87.72,2.45.77,2.61a35.38,35.38,0,0,0,1.22,4.28c.29.77,1.34,2.67,1.34,2.67a1.43,1.43,0,0,0,0,2c.64.77,1.2.64,1.2.64a6.88,6.88,0,0,1,1,2.53s-1,.28-.38,1.62a1.76,1.76,0,0,0,1.7,1.26c.25.47.5,1.75.78,2.46.21.5.77,1.46,1.16,2.39a15.82,15.82,0,0,1-1-1.54c-.54-1-.77-2.32-1.43-2.87a5.16,5.16,0,0,0-.63-.4c-.32-.36-.72-.67-1-1.07a1.17,1.17,0,0,1-.33-1.1c.1-.41.51-.66.55-1.06a2.92,2.92,0,0,0-.34-1c-.23-.55-.39-.62-.91-.85a1.76,1.76,0,0,1-1.17-2.13,2.58,2.58,0,0,0,.11-1.32c-.16-.44-.62-.76-.83-1.2a13,13,0,0,1-.81-2.42,41.82,41.82,0,0,0-1.24-5.11c-.51-.12-1.29,0-1.68-.4a.83.83,0,0,1-.11-.15A13.55,13.55,0,0,1,44.13,82.89Z"/><path class="cls-6" d="M9.16,101.5a15.6,15.6,0,0,0,5.89,3.78,69.94,69.94,0,0,0,21.85,4.41c6.56.06,14.46-.36,17-2.69a1,1,0,0,1-.07.39c-.46,1-10,3.88-21.86,2.63-13.3-1.4-21.78-6.21-22.89-7.86C9,102,9.06,101.82,9.16,101.5Z"/><path class="cls-7" d="M56.1,92.13a1.94,1.94,0,0,1-.15.5c-.32.69-1,1.28-1.72.63-.86-.81-1.37-3.07.17-3.41C55.66,89.57,56.28,91,56.1,92.13Z"/><path class="cls-7" d="M58.13,95c.33.73-1.21.65-1.57.61-.82-.08-1.17-1.18-.23-1.45a1.38,1.38,0,0,1,1.25.32A1.63,1.63,0,0,1,58.13,95Z"/><path class="cls-7" d="M57.32,102.41a1.78,1.78,0,0,1-.54,1,1.64,1.64,0,0,1-1.31.44.48.48,0,0,1-.35-.54,3.39,3.39,0,0,1,.2-1.09c.29-.66.94-1.2,1.64-.7A.85.85,0,0,1,57.32,102.41Z"/><path class="cls-4" d="M50.64,94.52c-.52.79-1.91.84-2.72.62-1.91-.51-.43-2.56.81-2.81S51.47,93.26,50.64,94.52Z"/><path class="cls-12" d="M50.24,94a1.2,1.2,0,0,0-1.59-1A2.94,2.94,0,0,0,47,94.16a2.35,2.35,0,0,1,1.72-1.83c1.25-.25,2.74.93,1.91,2.19a1.44,1.44,0,0,1-.73.55A1.24,1.24,0,0,0,50.24,94Z"/><path class="cls-4" d="M52,97.69a7.73,7.73,0,0,1,1.67.52c.72.3,2.22,1.14,1.15,2a4,4,0,0,1-2.48.38c-.9,0-2.71-.19-3.15-1.11a1.34,1.34,0,0,1,1.13-1.87A5.59,5.59,0,0,1,52,97.69Z"/><path class="cls-12" d="M50.28,97.63a5.59,5.59,0,0,1,1.68.06,7.73,7.73,0,0,1,1.67.52c.72.3,2.22,1.14,1.15,2a2.46,2.46,0,0,1-1.45.4,2.41,2.41,0,0,0-1.65-2.27,2,2,0,0,0-2.47,1.23l-.06-.09A1.34,1.34,0,0,1,50.28,97.63Z"/><path class="cls-4" d="M51,87.18a3.35,3.35,0,0,0,.57-.63,2.53,2.53,0,0,1-3.45.89A2.7,2.7,0,0,0,51,87.18Z"/><path class="cls-4" d="M53.84,92.78c-.53-.86-.57-2.87.91-2.61C57.18,90.6,55.51,95.45,53.84,92.78Z"/><path class="cls-12" d="M55.42,91.75a1.66,1.66,0,0,0-1.35-.6,1.16,1.16,0,0,0-.56.14c.05-.69.4-1.27,1.24-1.12,1.29.23,1.42,1.7,1,2.64A1.82,1.82,0,0,0,55.42,91.75Z"/><path class="cls-4" d="M55,103.41c0-.54.91-2.26,1.71-1.81C58.27,102.5,54.92,105.87,55,103.41Z"/><path class="cls-12" d="M56.66,101.6a.88.88,0,0,1,.37,1.13.92.92,0,0,0-1.49.31,8.46,8.46,0,0,0-.36,1.15,1,1,0,0,1-.23-.78C55,102.87,55.86,101.15,56.66,101.6Z"/><path class="cls-4" d="M55.88,94.71c.7-.72,2.49,0,2,.73S55,95.59,55.88,94.71Z"/><path class="cls-12" d="M57.77,95.6a1,1,0,0,0-.22-.36,1.32,1.32,0,0,0-1.23-.42,1,1,0,0,0-.6.37.48.48,0,0,1,.16-.48c.7-.72,2.49,0,2,.73A1.21,1.21,0,0,1,57.77,95.6Z"/><path class="cls-11" d="M35.85,87a1.62,1.62,0,0,1-1.77-.07c-.37-.34-.93-1.25-.35-1.62.78-.49,3.28.64,2.27,1.57A.57.57,0,0,1,35.85,87Z"/><path class="cls-11" d="M24.6,84.67c.81.18.94,1,.73,1.64s-1.13.94-1.85.79-2-.87-1.18-1.74A2.61,2.61,0,0,1,24.6,84.67Z"/><path class="cls-11" d="M20.26,87.65c.76.71.19,1.59-.75,1.15-.35-.17-.81-.36-.86-.79a.73.73,0,0,1,.4-.74A1.16,1.16,0,0,1,20.26,87.65Z"/><path class="cls-11" d="M27.39,94A3.81,3.81,0,0,1,25,93a13,13,0,0,1-1.49-1.48,2.49,2.49,0,0,1,.13-3.2,4.73,4.73,0,0,1,4.47-.88,3.64,3.64,0,0,1,2.06,4.49A2.63,2.63,0,0,1,27.39,94Z"/><path class="cls-11" d="M44.91,89.81c.25,1.62-2.64,1.23-1.94-.07C43.35,89.05,44.77,88.85,44.91,89.81Z"/><path class="cls-11" d="M39.13,100.65C36.94,99.77,36,96.79,38,95.19a3.81,3.81,0,0,1,2.39-.69,2.82,2.82,0,0,1,2.14,1.27,4.09,4.09,0,0,1-.28,3C41.67,99.86,40.51,101.2,39.13,100.65Z"/><path class="cls-11" d="M45.15,106.83a3.16,3.16,0,0,1-2.08-2.4c-.19-1.22-.64-2.63-.11-3.82a2.06,2.06,0,0,1,2.42-1.38c2.08.62,3.19,3,3,5C48.19,105.91,46.94,107.47,45.15,106.83Z"/><path class="cls-11" d="M39.9,103.77a1.61,1.61,0,0,1-2-.91,1.15,1.15,0,0,1,.59-1.24c.69-.46,2.11-.65,2.48.31C41.2,102.6,40.5,103.56,39.9,103.77Z"/><path class="cls-11" d="M31.78,107.5c.33-.84,2.91.45,1.85,1.11C33,109,31.46,108.32,31.78,107.5Z"/><path class="cls-11" d="M17.58,96.24a2.27,2.27,0,0,1,.27,2.12,1.3,1.3,0,0,1-1.43.41c-1-.37-1.28-2.41-.69-3.19S17.09,95.39,17.58,96.24Z"/><path class="cls-11" d="M24,104.52c1.58,1.88-3,3.34-3,1.34C20.93,104.5,23,103.39,24,104.52Z"/><path class="cls-11" d="M31.44,106.79c-.87,1.27-3.46.83-4.41-.16s-1.43-3-.14-3.68a2.49,2.49,0,0,1,2.34-.12C30.59,103.44,32.53,105.2,31.44,106.79Z"/><path class="cls-13" d="M47.7,105.22a2.5,2.5,0,0,1-4,1.13c-1.36-1.29-1.41-3.91-.57-5.49C45.11,97.13,48.44,102.86,47.7,105.22Z"/><path class="cls-13" d="M24.06,93.44c-1.44-1.12-2.22-2.89-.78-4.34s5.23-1.76,6.22.22c.71,1.41.27,4.32-1.33,5A4.32,4.32,0,0,1,24.06,93.44Z"/><path class="cls-13" d="M15.52,98.33c-.54-.86-.57-2.88.9-2.61C18.85,96.15,17.19,101,15.52,98.33Z"/><path class="cls-13" d="M38.1,95.72c1.43-1.37,4.58-1.57,3.92,2.07C41,103.79,33.66,100,38.1,95.72Z"/><path class="cls-13" d="M34.71,85.46c.43.14,1.24.62,1.15,1.17-.15.91-1.69.85-2.13.27C33,86,33.58,85.09,34.71,85.46Z"/><path class="cls-13" d="M29.17,103.47c.91.48,2.5,1.86,2.08,3-.68,2-4.07,1.24-4.82-.23C25.25,104,26.8,102.21,29.17,103.47Z"/><path class="cls-13" d="M38.47,101.88c.5-.26,1.65-.54,2.06,0,.67.93-.74,2.23-1.65,2.11C37.46,103.82,37.14,102.55,38.47,101.88Z"/><path class="cls-13" d="M22.86,85.24c.51-.26,1.65-.54,2.06,0,.67.94-.74,2.23-1.65,2.11C21.85,87.18,21.53,85.91,22.86,85.24Z"/><path class="cls-13" d="M21.51,104.9c.51-.25,1.65-.54,2.06,0,.67.94-.74,2.24-1.65,2.11C20.5,106.84,20.18,105.57,21.51,104.9Z"/><path class="cls-13" d="M32.74,107.5c.32.11.92.48.84.89-.12.67-1.26.62-1.58.18C31.49,107.88,31.9,107.22,32.74,107.5Z"/><path class="cls-13" d="M19.62,87.59c.32.11.92.47.84.89-.12.67-1.26.61-1.58.17C18.37,88,18.78,87.3,19.62,87.59Z"/><path class="cls-13" d="M43.25,89.73c.29-.17,1-.37,1.23,0,.43.54-.36,1.35-.91,1.31C42.71,90.92,42.48,90.17,43.25,89.73Z"/><path class="cls-13" d="M37.57,84.08a3,3,0,0,0,1.36,0,3.23,3.23,0,0,1-2.07.1,3.67,3.67,0,0,1-1.29-1A5.07,5.07,0,0,0,37.57,84.08Z"/><path class="cls-14" d="M46.87,106.38a7.42,7.42,0,0,0-.24-3,3.74,3.74,0,0,0-1.43-2.5,1.81,1.81,0,0,0-2.25.39,3.07,3.07,0,0,1,.2-.45c2-3.73,5.29,2,4.55,4.36a2.43,2.43,0,0,1-.83,1.18Z"/><path class="cls-14" d="M28.56,93.41a2.39,2.39,0,0,0-.7-3.23,3.94,3.94,0,0,0-5.24,1.32,2.31,2.31,0,0,1,.66-2.4c1.35-1.36,5.23-1.76,6.22.22.71,1.41.27,4.32-1.33,5a2.76,2.76,0,0,1-1,.22A2.93,2.93,0,0,0,28.56,93.41Z"/><path class="cls-14" d="M16.91,97.51a1.75,1.75,0,0,0-1.32-1.19l-.28,0a.91.91,0,0,1,1.11-.57c1.73.3,1.39,2.82.45,3.32A2.07,2.07,0,0,0,16.91,97.51Z"/><path class="cls-14" d="M40.46,99.86c.95-1.24.64-3.58-1.3-3.56a3,3,0,0,0-2.17.9,5,5,0,0,1,1.11-1.48c1.43-1.37,4.58-1.57,3.92,2.07-.42,2.34-1.78,3.18-3,3.09A2.94,2.94,0,0,0,40.46,99.86Z"/><path class="cls-14" d="M35.43,86.88a1.53,1.53,0,0,0-1.91-1.13c.17-.32.59-.49,1.19-.29.43.14,1.24.62,1.15,1.17a.72.72,0,0,1-.39.53A.9.9,0,0,0,35.43,86.88Z"/><path class="cls-14" d="M28.39,104.49a2.63,2.63,0,0,0-2.14.25,1.29,1.29,0,0,0-.21.19c-.09-1.55,1.26-2.45,3.13-1.46.91.48,2.5,1.86,2.08,3a1.61,1.61,0,0,1-.74.89C31,106.1,29.56,104.79,28.39,104.49Z"/><path class="cls-14" d="M40.35,103a1,1,0,0,0-.82-.77,1.53,1.53,0,0,0-1.46.57,1.65,1.65,0,0,0-.24.66c-.39-.48-.24-1.17.64-1.61.5-.26,1.65-.54,2.06,0a1.1,1.1,0,0,1-.16,1.36A1.94,1.94,0,0,0,40.35,103Z"/><path class="cls-14" d="M24.52,86.41a.94.94,0,0,0-.83-1,1.94,1.94,0,0,0-.92.14,3.87,3.87,0,0,0-.34.21l-.05,0-.06,0a1.08,1.08,0,0,0-.24.18,1.53,1.53,0,0,1,.78-.74c.51-.26,1.65-.54,2.06,0s0,1.27-.5,1.7A1.6,1.6,0,0,0,24.52,86.41Z"/><path class="cls-14" d="M23.17,106.15a1,1,0,0,0-1.08-1,2,2,0,0,0-1.39,1.08c-.13-.44.11-1,.81-1.31.51-.25,1.65-.54,2.06,0s.06,1.25-.48,1.69A1.85,1.85,0,0,0,23.17,106.15Z"/><path class="cls-14" d="M33.08,108.67a1.14,1.14,0,0,0-.87-.83.54.54,0,0,0-.43.06c0-.36.41-.59,1-.4.32.11.92.48.84.89a.58.58,0,0,1-.49.47A1.21,1.21,0,0,0,33.08,108.67Z"/><path class="cls-14" d="M19.8,88.36a1.21,1.21,0,0,0-1-.32.33.33,0,0,0-.14,0c0-.42.37-.7,1-.49.32.11.92.47.84.89a.59.59,0,0,1-.45.46A.86.86,0,0,0,19.8,88.36Z"/><path class="cls-14" d="M43.25,89.73c.29-.17,1-.37,1.23,0a.61.61,0,0,1,0,.67.76.76,0,0,0-.5-.27,1.1,1.1,0,0,0-1.06.67C42.67,90.48,42.73,90,43.25,89.73Z"/></g></g></svg>