<svg xmlns="http://www.w3.org/2000/svg" viewBox="0 0 117.79 154.21"><defs><style>.cls-1{fill:#7e64ff;}.cls-2{fill:#fff;}.cls-3{fill:#5441d8;}.cls-4{fill:#9b5627;}.cls-5{fill:#ffbe2e;}.cls-6{fill:#dd9f22;}.cls-7{fill:#c27a3b;}.cls-8{fill:#a86533;}.cls-9{fill:#8e5023;}.cls-10{fill:#dd985f;}.cls-11{fill:#edb974;}</style></defs><title>Zasób 55</title><g id="Warstwa_2" data-name="Warstwa 2"><g id="Layer_1" data-name="Layer 1"><rect class="cls-1" width="117.79" height="154.21" rx="12.95"/><rect class="cls-2" x="5.37" y="5.63" width="107.05" height="142.95" rx="10.36"/><path class="cls-3" d="M11,128.09l5.16.07a43,43,0,0,0,5.88-.29,2.58,2.58,0,0,1,.26,1.17,1.57,1.57,0,0,1-.58,1.19,2.08,2.08,0,0,1-1.42.52l-2.82-.32c0,.12,0,.62-.12,1.52a63.72,63.72,0,0,0-.34,6.63,43.93,43.93,0,0,0,.51,6.66,5,5,0,0,1-1.68.29,2.4,2.4,0,0,1-1.52-.5,1.81,1.81,0,0,1-.64-1.52c0-.68.08-1.87.25-3.58s.24-3.38.24-5a40,40,0,0,0-.24-4.53,14.12,14.12,0,0,0-4.63.83A2.78,2.78,0,0,1,9,130a1.84,1.84,0,0,1,.56-1.29A1.89,1.89,0,0,1,11,128.09Z"/><path class="cls-3" d="M34.92,142.15a3.59,3.59,0,0,1,.3,1.5,2,2,0,0,1-.58,1.43,1.87,1.87,0,0,1-1.41.6q-2.58,0-8.12-.3a1.37,1.37,0,0,1-.78-.28.78.78,0,0,1-.34-.65c0-.86.07-2.32.2-4.38s.21-4,.21-5.76a43,43,0,0,0-.51-6.15c1.21.1,2.83.15,4.87.15a37.94,37.94,0,0,0,5.85-.44,2.66,2.66,0,0,1,.29,1.28,1.78,1.78,0,0,1-.58,1.32,1.89,1.89,0,0,1-1.42.58,21.89,21.89,0,0,1-2.69-.25,23.52,23.52,0,0,0-2.72-.24c-.14,1.64-.21,3.19-.22,4.65,1,.09,2.13.14,3.31.14a8.22,8.22,0,0,0,3.05-.51,2.72,2.72,0,0,1,.29,1.28,1.91,1.91,0,0,1-.57,1.35,1.86,1.86,0,0,1-1.37.6,14,14,0,0,1-2.37-.31,13.68,13.68,0,0,0-2.37-.3c0,2.57.06,4.46.17,5.67.79.07,1.4.1,1.84.1A13.92,13.92,0,0,0,34.92,142.15Z"/><path class="cls-3" d="M47.55,128.4A3.64,3.64,0,0,1,49.2,128a2,2,0,0,1,1.42.54,1.78,1.78,0,0,1,.55,1.3c0,.5-.08,1.62-.22,3.34s-.22,3.08-.22,4.1a60.46,60.46,0,0,0,.44,8.09,4.87,4.87,0,0,1-1.75.3,3,3,0,0,1-1.51-.32q-1.56-.9-7.31-11.45c-.07.63-.1,2.12-.1,4.46a43.23,43.23,0,0,0,.54,6.87,4.63,4.63,0,0,1-1.64.29A1.93,1.93,0,0,1,38,145a1.87,1.87,0,0,1-.55-1.35c0-.52.08-1.61.23-3.28s.23-2.92.23-3.77a58,58,0,0,0-.46-8.07,4.56,4.56,0,0,1,2-.34,1.92,1.92,0,0,1,1.86,1.05,126.16,126.16,0,0,0,6.93,12.48c-.05-3.13-.08-4.79-.08-5A54.22,54.22,0,0,0,47.55,128.4Z"/><path class="cls-3" d="M77.08,15.22a13.62,13.62,0,0,0,3.75-2.5,21,21,0,0,1,1.82-1.5,3.36,3.36,0,0,1,2.08-.63,4.73,4.73,0,0,1,2.11.44,89.16,89.16,0,0,0-.75,11.14,60.6,60.6,0,0,0,.56,8.94,5.1,5.1,0,0,1-2,.38,2.48,2.48,0,0,1-1.88-.75,2.81,2.81,0,0,1-.72-2c0-.85.17-2.62.5-5.33a77.5,77.5,0,0,0,.53-8.83c-.23.21-.61.63-1.16,1.25-1.21,1.4-2.15,2.1-2.83,2.1a1.65,1.65,0,0,1-1.5-.75A3.55,3.55,0,0,1,77.08,15.22Z"/><path class="cls-3" d="M106,20.48a12.74,12.74,0,0,1-2.47,7.94,8,8,0,0,1-6.76,3.26,6.29,6.29,0,0,1-4.17-1.37,7,7,0,0,1-2.29-3.44A16.91,16.91,0,0,1,89.65,22a13.08,13.08,0,0,1,2.49-8.06,8,8,0,0,1,6.74-3.33A6.2,6.2,0,0,1,103.06,12a7.35,7.35,0,0,1,2.28,3.53A17.14,17.14,0,0,1,106,20.48Zm-4.86,5.44a16,16,0,0,0,.56-2.53,19.12,19.12,0,0,0,.17-2.69,20.37,20.37,0,0,0-.15-2.6,10.32,10.32,0,0,0-.57-2.25,3.39,3.39,0,0,0-3.5-2.32,3.68,3.68,0,0,0-2.82,1.28,18.51,18.51,0,0,0-1,6.86q0,4,1.16,5.63A3.58,3.58,0,0,0,98,28.74,2.67,2.67,0,0,0,99.93,28,4.64,4.64,0,0,0,101.12,25.92Z"/><path class="cls-4" d="M56.08,78.63c-.22.37-.38,1.12-.61,1.59-.34.68-1.92,1.68-1.1,2.8.47.81,1.59.31,2.06,1.65.22.63,1.86.38,2-.89a10.65,10.65,0,0,0-.34-2.6c-.09-.46-.57-.77-.64-1.28-.1-.82.91-1.39.19-2.07C56.81,78.05,56.39,78.12,56.08,78.63Z"/><path class="cls-5" d="M57.47,80.12C53.85,83.67,48.72,89,46.41,91.77a2.06,2.06,0,0,0,.84.91c2.17-1.87,4.31-4.56,6.41-6.71,1.06-1.09,4.49-4.28,4.63-4.85A.84.84,0,0,0,57.47,80.12Z"/><path class="cls-6" d="M57.47,80.12,55.7,81.87c-.33,2.18-2.38,4-3.82,5.49S48.65,91,46.69,92.2a2.13,2.13,0,0,0,.56.48c2.17-1.87,4.31-4.56,6.41-6.71,1.06-1.09,4.49-4.28,4.63-4.85A.84.84,0,0,0,57.47,80.12Z"/><path class="cls-7" d="M92.57,41a23.77,23.77,0,0,0-4.82,3.84c-1.68,1.71-2.61,3.84-4.61,5.33s-2.74,3.68-4.59,5.2A22.47,22.47,0,0,0,75.4,58,12.77,12.77,0,0,0,74,60.64c-.89,1.6-3.33,2.56-4.8,3.78a6.15,6.15,0,0,0-2.12,2.34,3.8,3.8,0,0,1-1.69,2.59c-2,1.53-3.11,3.5-4.94,5.14a14.66,14.66,0,0,0-2.31,2c-.27.38-.41.84-.71,1.19s-1-.09-1.34.92c1,.77.07,1.09.2,1.59.29,1.06,1.17.87,1.37,1.45.34,1-.79,2.62.46,2.89a20.1,20.1,0,0,0,5.08-5.75A4.73,4.73,0,0,1,66,76.39a5.13,5.13,0,0,0,2.34-2.6c1-1.77,3-2.51,3.91-4.2a12.74,12.74,0,0,1,1.62-3c.93-.94,2.36-.92,3.3-1.78a18.8,18.8,0,0,0,1.51-2.25c.72-.89,1.5-1.85,2.3-2.69a13.69,13.69,0,0,0,2.25-2.32,28.56,28.56,0,0,1,1.35-2.64c1.2-1.7,3.37-2.73,4.68-4.46s3-2.93,4-4.62c.45-.72.49-1.54.89-2.22.51-.88,1.81-1.29,2.24-2.15C97.49,39.37,93.53,40.47,92.57,41Z"/><path class="cls-8" d="M95.08,40.27c-1.85,2.52-4,4.87-5.88,7.26-3.48,4.45-6.68,9-10.69,13-1.83,1.83-3.73,3.6-5.64,5.36s-3.1,3.92-4.94,5.63a137.47,137.47,0,0,0-9.72,9.89,3.91,3.91,0,0,1-.51.49c.13,1-.75,2.41.41,2.66a20.1,20.1,0,0,0,5.08-5.75A4.73,4.73,0,0,1,66,76.39a5.13,5.13,0,0,0,2.34-2.6c1-1.77,3-2.51,3.91-4.2a12.74,12.74,0,0,1,1.62-3c.93-.94,2.36-.92,3.3-1.78a18.8,18.8,0,0,0,1.51-2.25c.72-.89,1.5-1.85,2.3-2.69a13.69,13.69,0,0,0,2.25-2.32,28.56,28.56,0,0,1,1.35-2.64c1.2-1.7,3.37-2.73,4.68-4.46s3-2.93,4-4.62c.45-.72.49-1.54.89-2.22.51-.88,1.81-1.29,2.24-2.15C97,40.37,96.14,40.15,95.08,40.27Z"/><path class="cls-9" d="M87.75,44.82c-1.68,1.71-2.61,3.84-4.61,5.33s-2.74,3.68-4.59,5.2A22.47,22.47,0,0,0,75.4,58,12.77,12.77,0,0,0,74,60.64c-.89,1.6-3.33,2.56-4.8,3.78a6.15,6.15,0,0,0-2.12,2.34,3.8,3.8,0,0,1-1.69,2.59c-2,1.53-3.11,3.5-4.94,5.14a14.66,14.66,0,0,0-2.31,2,5,5,0,0,0-.29.5,4,4,0,0,1,.5.06,5.33,5.33,0,0,1,1.23-1.69,3.6,3.6,0,0,1,1.52-.86,6.38,6.38,0,0,1,1.2-.24c.1-.09.19-.2.29-.3A4.78,4.78,0,0,1,66,70.25,12,12,0,0,1,67,69.18c.11-3.19,2.71-4.51,5.25-5.78,1.79-.89,3.26-3.53,4-5.33.84-2,3.36-2.79,4.65-4.43,1-1.31,2-2.67,3.11-3.91a30.57,30.57,0,0,0,3.14-3.3,9.57,9.57,0,0,1,1.58-1.91,5.19,5.19,0,0,1,1.31-1.36,8.07,8.07,0,0,1,1.67-.88c.22-.39.43-.78.63-1.19A24.66,24.66,0,0,0,87.75,44.82Z"/><path class="cls-9" d="M92.64,44.07C91.39,46,90.57,48,89,49.67c-1.4,1.48-3.28,2.51-4.38,4.28C82.44,57.46,78,63.67,74,65.09c-2.08.73-1,3.13-2.8,4.17s-1.29.64-2.28,2.42c-1.74,3.12-5.6,3.82-7.28,6.71-1.11,1.91-2.3,4.23-4.14,5.58a.66.66,0,0,0,.59.59,20.1,20.1,0,0,0,5.08-5.75A4.73,4.73,0,0,1,66,76.39a5.13,5.13,0,0,0,2.34-2.6c1-1.77,3-2.51,3.91-4.2a12.74,12.74,0,0,1,1.62-3c.93-.94,2.36-.92,3.3-1.78a18.8,18.8,0,0,0,1.51-2.25c.72-.89,1.5-1.85,2.3-2.69a13.69,13.69,0,0,0,2.25-2.32,28.56,28.56,0,0,1,1.35-2.64c1.2-1.7,3.37-2.73,4.68-4.46s3-2.93,4-4.62c.45-.72.49-1.54.89-2.22.51-.88,1.81-1.29,2.24-2.15s.12-1.07-.37-1.19C95.1,41.76,93.53,42.71,92.64,44.07Z"/><path class="cls-10" d="M64.12,72.4a5.37,5.37,0,0,0-.65.37s-.36.83-.2.67a12.53,12.53,0,0,1-1.31.89l.06.32c-1.05.1-1.63.31-1.36,1.42-1.13-.2-.91.32-1.13,1.15-.19-.06-.52,0-.71,0a7.23,7.23,0,0,0-.32,1.55A2.61,2.61,0,0,0,57,78.07c0,.27.14.26.23.35l-.17.13c.81.4,1.16,2.08,1.51,2.89a9.22,9.22,0,0,0-.34-2.24,1.63,1.63,0,0,0,.7.72c-.1-.31-.13-.64-.21-1a2.76,2.76,0,0,0,.92.74,4.22,4.22,0,0,1,0-2.23c.91-.31,1.29.12,1.34-1,.17.12.49.17.65.29a5,5,0,0,0,0-.76c.64.31.73-.51.8-1a7.16,7.16,0,0,0,1.49-.31,3.32,3.32,0,0,1,0-2,3.83,3.83,0,0,0,.9,0c0-.09,0-.23,0-.33.17,0,.42-.07.6,0,0-.43-.24-.75-.37-1.17.58.3,1.52-.42,1.47-1,.29-.06.65-.26.93-.33C66.73,69.17,63.57,71.65,64.12,72.4Z"/><path class="cls-10" d="M90.32,43.28c.18.07.41.38.58.46-.84.49-1.68.32-2.22,1.3.72.72-.41,1-.93,1.1.2.14.35.47.56.62-.36.16-.58.31-.78.18.28.8-1.45,1.31-2,1.25-.18.65.44,1,.79,1.44a2.21,2.21,0,0,1-1.45.34c0,.58-.65.81-1.13.55-.42.55.1,1.4-.26,1.94-.26.38-1.4.74-1.84,1.12-.11.09-.58.47-.84.7s-.32.53-.61.86a4.41,4.41,0,0,1-1.58,1.24c.44.81-1.23.86-1.66,1.37.19.17.28.53.47.69a12.47,12.47,0,0,0-2,1.56c.46.92-1.41,1.69-1.88,2.35,0,.09.11.15.15.25a23.2,23.2,0,0,0-2.51,1.66c-.2.17-.35-.13-.55.21s.3.45.24.66c-.14.52-.27,1.15-.94.73-.43.37-.82,2.47-1.58,1.31-.06.6-.34,1.24-.34,1.85l-.24,0a8.94,8.94,0,0,0-.11,1.27,3.38,3.38,0,0,0,1.07-1.57c.07.1.21.2.28.3a7.34,7.34,0,0,1,1.93-1.67c.72-.42,1.68-.93.68-1.87.31-.11.69-.25,1-.39,0,0,0-.11-.08-.16a12.23,12.23,0,0,0,2.3-1.91c.2-.28.17-.68.56-1.08s.7-.47,1-.77c-.17-.83,1-1.08,1.47-1.63.23-.29,0-.57.41-.93s.88-.16,1.19-.39c.93-.68-.19-.79.54-1.62.39-.45,1.77-.42,1.32-1.5.65-.55,1.5-.88,2.09-1.47-.13-.13-.21-.4-.34-.52.67-.17,1.53-1.13,2.11-1.61a2.44,2.44,0,0,0-.29-.27,1,1,0,0,0,0-.17c.26.08.65,0,.92,0,0-1,2-1.32,1.26-2.35.55-.54,1.32-.69,1.79-1.36.19-.27.13-.59.28-.88s.46-.41.6-.68-.18-.56,0-.86.62-.36.85-.49c.63-.35,1.34-.5,1.74-1.06-.12,0-.48-.28-.6-.31,1.06-.66,2.12-1.45,3.21-2A11.81,11.81,0,0,0,90.32,43.28Z"/><path class="cls-11" d="M59.79,77c-.08-.11-.21-.2-.28-.31-.2.61-.72.83-1,1.27-.15-.09-.24-.06-.38-.11a1.28,1.28,0,0,0-.15.52l-.06-.08a4.79,4.79,0,0,1,.58,1.14c0-.24,0-.48,0-.71.09.18.24.34.31.52,0-.28.09-.66.09-1,.06-.07.18,0,.26,0a2.5,2.5,0,0,1,.13-.54l.24.3a4.38,4.38,0,0,0,.06-.83c.09,0,.37.06.5.13,0-.22.3-.54.33-.75.07,0,.15.18.21.23a.58.58,0,0,0,0-.5A2,2,0,0,0,59.79,77Z"/><path class="cls-11" d="M64.25,71.82a.4.4,0,0,0,.28.28h0s0,0,0,0h0c-.23.05-.78-.1-.92.14s.19.53.3.67a.92.92,0,0,0-.76,0,.37.37,0,0,0,.25.35c-.16.07-.74.17-.31.4-.12.15-.63.29-.44.56l-.15,0c.12.08.34,0,.42,0l-.14,0a2.73,2.73,0,0,1,.68.18,2.34,2.34,0,0,0-.25-.5l.38.12a.75.75,0,0,0-.08-.38.91.91,0,0,0,.35.07,5.09,5.09,0,0,1,0-.55c.13,0,.77,0,.84-.11s-.32-.49-.37-.68c.28-.14.74.08,1.06,0-.14-.19-.4-.29-.45-.54A1.13,1.13,0,0,0,64.25,71.82Z"/><path class="cls-11" d="M64.54,72.1h0S64.56,72.1,64.54,72.1Z"/><path class="cls-11" d="M65,71.86a0,0,0,0,0,0,0Z"/><path class="cls-11" d="M64.93,71.83h0Z"/><path class="cls-11" d="M64.9,71.79l.07.06a0,0,0,0,1,0,0h0l.15.08A.76.76,0,0,0,64.9,71.79Z"/><path class="cls-11" d="M77,59.49a7.94,7.94,0,0,0-1.23.63c.42.4-.14.39-.2.7l.11,0c-.24.18-.42.36-.66.51s-.5.2-.67.45a.86.86,0,0,0,.3.16c-.3.11-1.62.54-.84.83-.3.27-.81.28-1.13.56.1.06.1.14.25.16a3.09,3.09,0,0,0-1.07.5.62.62,0,0,0,.29.06,12,12,0,0,0-1.82.93,5.91,5.91,0,0,1,.92.11c-.38.14-1,.23-1.19.69a1.56,1.56,0,0,1,.41.15c-.18.16-1.22.65-.42.66a1.51,1.51,0,0,0-.61.2c-.36.28,0,.18,0,.46-.15.43-1,.24-.82.86a4.82,4.82,0,0,0-.68.16.27.27,0,0,0,.26.16l0,0a6.62,6.62,0,0,0,.79.26c-.52-.5.32-.21.54-.36a2.23,2.23,0,0,1-.1-.62,1.66,1.66,0,0,0,1-.2,2.06,2.06,0,0,0-.37-.57c.24-.15.53.08.74-.07,0,0,0-.1,0-.15s.16,0,.23,0-.08-.39,0-.49.25,0,.35-.22-.15-.4-.09-.53.42-.19.56-.33c.3-.29.2-.66.55-.92s.79-.2.93-.58c.26,0,.7-.36.43-.61.38.08,1.28-.21.69-.63.46-.37,1.55-.22,1.12-1.05a6.15,6.15,0,0,0,1.28-.71c-.31-.29-.06-.51.15-.75H77c0-.09,0-.18-.1-.28.37-.18,1.8-.48,1.42-1.06a9.45,9.45,0,0,0-2,.73C76.51,59.43,76.81,59.32,77,59.49Z"/><path class="cls-11" d="M81.39,53.83c.09,0,.18.18.26.22-.33.27-.68.52-1,.77.5,0-.08.53-.35.53.24.4-1,.75-1.27.91.13.14.35.11.48.25a3.85,3.85,0,0,0-.74.47c.19,0,.41,0,.54.1a1.1,1.1,0,0,1-.46.28.83.83,0,0,1,.27,0c-.5.5-1.19.47-1.77.73.26.18.84.19,1,.47h0l.2,0a3.68,3.68,0,0,0,1.24-.34c-.13-.08-.43-.07-.46-.23s.5-.46.62-.54c0,0-.44-.25-.49-.21.3-.25,1.27-.5,1.33-.9-.31-.12-.59,0-.9,0,.52-.31,1.26-.41,1.7-.86a1,1,0,0,0-.57-.09,9.46,9.46,0,0,0,.88-.56,1.6,1.6,0,0,0-.69.12c.5-.44,1.19-.59,1.66-1-.3-.18-.68.1-1,.11.3-.25.74-.39,1-.71H82.6C82.26,53.49,81.7,53.52,81.39,53.83Z"/><path class="cls-11" d="M78.82,57.36l-.3.08A1.11,1.11,0,0,0,78.82,57.36Z"/><path class="cls-11" d="M89.61,44.11h0Z"/><path class="cls-11" d="M94.88,40.67a1.84,1.84,0,0,0-1,.38c-.49.31-1.06.6-1.51.93a1.1,1.1,0,0,1,.48,0c-.62.58-1.9.68-2.37,1.41.21,0,.46,0,.61.11a2.78,2.78,0,0,1-1.37.58.38.38,0,0,1,.28.14c-.29.26-.72.32-1,.61.16.21.43.25.29.53s-.51.24-.68.34c.56.62-.15,1.21-.87,1.08.66.43.08.53-.4.68.45.41-.77.39-.87.74.11.24-.22.51-.39.66a2.39,2.39,0,0,1,.26.1,1.33,1.33,0,0,1-.66.3,1.92,1.92,0,0,0,.36.14,2.12,2.12,0,0,1-1.29.93.88.88,0,0,1,.47.16c-.29.29-1,.31-1.17.62a2.8,2.8,0,0,1,.91-.06c-.32.33-.86.25-1.25.46a7.36,7.36,0,0,0-1.18.63c.41,0,1-.36,1.66-.29.37,0,.89.32,1.24.11a2.33,2.33,0,0,1-.42-.51,4.12,4.12,0,0,1,1-.33,1.26,1.26,0,0,0-.29-.35,3.37,3.37,0,0,0,.55-.38,1.49,1.49,0,0,1-.54-.1c.39-.38,1.17-.4,1.49-.8a4,4,0,0,0-.9-.33c.49-.34,1.19-.17,1.63-.45a1.71,1.71,0,0,0-.79-.25c.31,0,.64-.17,1-.23-.62-.08.37-.6.53-.72-.23-.31.11-.55.4-.59l-.1-.09c.07,0,.14-.14.21-.18-.67-.38.84-1.13,1-1.29-.16-.12-.41-.07-.56-.21.32-.47,1-.36,1.36-.71a1,1,0,0,1-.43,0c.34-.36.92-.31,1.28-.66-.09,0-.2-.12-.3-.13.06-.31.75-.47,1-.66a1.07,1.07,0,0,1-.55.09c.07-.69,1.73-1,2.1-1.46a1.35,1.35,0,0,1-.3-.09,4.5,4.5,0,0,1,1.1-.47C95.3,40.88,95.36,40.68,94.88,40.67Z"/><path class="cls-4" d="M42.83,78.58c-.21.38-.34,1.13-.56,1.61-.32.7-1.86,1.74-1,2.84.49.79,1.6.25,2.11,1.58.24.62,1.88.32,2-1a10.46,10.46,0,0,0-.42-2.58c-.11-.46-.6-.76-.68-1.26-.13-.82.86-1.42.11-2.08C43.54,78,43.12,78.06,42.83,78.58Z"/><path class="cls-5" d="M44.27,80c-3.5,3.67-8.46,9.15-10.67,12a2.13,2.13,0,0,0,.88.88c2.1-2,4.15-4.71,6.17-6.93,1-1.12,4.35-4.42,4.47-5A.84.84,0,0,0,44.27,80Z"/><path class="cls-6" d="M44.27,80l-1.71,1.81c-.26,2.19-2.24,4.09-3.63,5.62s-3.11,3.77-5,5a2.35,2.35,0,0,0,.58.46c2.1-2,4.15-4.71,6.17-6.93,1-1.12,4.35-4.42,4.47-5A.84.84,0,0,0,44.27,80Z"/><path class="cls-7" d="M78.05,39.74a23.56,23.56,0,0,0-4.69,4c-1.62,1.77-2.48,3.92-4.43,5.48S66.31,53,64.51,54.56a23.69,23.69,0,0,0-3.06,2.75A12.89,12.89,0,0,0,60.13,60c-.83,1.63-3.23,2.67-4.66,3.94a6.09,6.09,0,0,0-2,2.42A3.81,3.81,0,0,1,51.82,69c-2,1.59-3,3.6-4.77,5.29a14.62,14.62,0,0,0-2.24,2.12c-.26.38-.38.85-.67,1.2s-1,0-1.31,1c1,.74.11,1.09.26,1.58.32,1,1.19.83,1.41,1.41.37.94-.7,2.64.55,2.87a20.08,20.08,0,0,0,4.89-5.91A4.72,4.72,0,0,1,52.68,76a5.12,5.12,0,0,0,2.25-2.68c1-1.81,2.88-2.61,3.77-4.33a12.08,12.08,0,0,1,1.53-3c.89-1,2.32-1,3.23-1.89a18.33,18.33,0,0,0,1.43-2.3c.7-.91,1.44-1.9,2.22-2.77a13.6,13.6,0,0,0,2.17-2.39c.47-.89.69-1.82,1.25-2.68,1.15-1.74,3.29-2.84,4.54-4.61s2.89-3,3.89-4.76c.42-.73.43-1.55.81-2.25.47-.89,1.76-1.34,2.16-2.22C82.91,38,79,39.19,78.05,39.74Z"/><path class="cls-8" d="M80.53,39c-1.76,2.57-3.85,5-5.63,7.44C71.57,51,68.52,55.6,64.65,59.74c-1.77,1.9-3.61,3.73-5.46,5.55s-3,4-4.75,5.79a137.33,137.33,0,0,0-9.38,10.21,4.72,4.72,0,0,1-.5.5c.16,1-.67,2.44.49,2.65a20.08,20.08,0,0,0,4.89-5.91A4.72,4.72,0,0,1,52.68,76a5.12,5.12,0,0,0,2.25-2.68c1-1.81,2.88-2.61,3.77-4.33a12.08,12.08,0,0,1,1.53-3c.89-1,2.32-1,3.23-1.89a18.33,18.33,0,0,0,1.43-2.3c.7-.91,1.44-1.9,2.22-2.77a13.6,13.6,0,0,0,2.17-2.39c.47-.89.69-1.82,1.25-2.68,1.15-1.74,3.29-2.84,4.54-4.61s2.89-3,3.89-4.76c.42-.73.43-1.55.81-2.25.47-.89,1.76-1.34,2.16-2.22C82.45,39,81.59,38.79,80.53,39Z"/><path class="cls-9" d="M73.36,43.74c-1.62,1.77-2.48,3.92-4.43,5.48S66.31,53,64.51,54.56a23.69,23.69,0,0,0-3.06,2.75A12.89,12.89,0,0,0,60.13,60c-.83,1.63-3.23,2.67-4.66,3.94a6.09,6.09,0,0,0-2,2.42A3.81,3.81,0,0,1,51.82,69c-2,1.59-3,3.6-4.77,5.29a14.62,14.62,0,0,0-2.24,2.12,4.82,4.82,0,0,0-.27.5,4.21,4.21,0,0,1,.5,0,5.46,5.46,0,0,1,1.17-1.73,3.91,3.91,0,0,1,1.5-.91A6.28,6.28,0,0,1,48.89,74c.1-.1.19-.21.28-.31a4.79,4.79,0,0,1,3.26-3.85,12,12,0,0,1,1-1.11c0-3.19,2.56-4.59,5.06-5.95,1.76-1,3.14-3.63,3.83-5.46.78-2,3.27-2.9,4.51-4.58,1-1.34,1.91-2.74,3-4a29.48,29.48,0,0,0,3-3.4,9.58,9.58,0,0,1,1.52-2A5.23,5.23,0,0,1,75.65,42a8.3,8.3,0,0,1,1.64-.94c.2-.39.39-.79.58-1.21A24.22,24.22,0,0,0,73.36,43.74Z"/><path class="cls-9" d="M78.22,42.82c-1.18,1.94-1.94,4-3.47,5.72-1.35,1.53-3.2,2.62-4.23,4.43-2,3.57-6.26,9.93-10.21,11.48-2.05.8-.84,3.16-2.66,4.27s-1.27.68-2.2,2.49c-1.63,3.17-5.46,4-7.05,7-1,2-2.16,4.3-3.95,5.71a.66.66,0,0,0,.6.57,20.08,20.08,0,0,0,4.89-5.91A4.72,4.72,0,0,1,52.68,76a5.12,5.12,0,0,0,2.25-2.68c1-1.81,2.88-2.61,3.77-4.33a12.08,12.08,0,0,1,1.53-3c.89-1,2.32-1,3.23-1.89a18.33,18.33,0,0,0,1.43-2.3c.7-.91,1.44-1.9,2.22-2.77a13.6,13.6,0,0,0,2.17-2.39c.47-.89.69-1.82,1.25-2.68,1.15-1.74,3.29-2.84,4.54-4.61s2.89-3,3.89-4.76c.42-.73.43-1.55.81-2.25.47-.89,1.76-1.34,2.16-2.22s.09-1.07-.4-1.18C80.61,40.43,79.07,41.44,78.22,42.82Z"/><path class="cls-10" d="M50.66,72.09a5.13,5.13,0,0,0-.64.39s-.33.84-.18.67a9.86,9.86,0,0,1-1.27.93l.06.32c-1,.14-1.62.37-1.31,1.47-1.14-.16-.89.35-1.09,1.19-.19-.06-.52,0-.7,0a7.37,7.37,0,0,0-.28,1.57A2.56,2.56,0,0,0,43.69,78c0,.27.15.26.24.34l-.17.14c.83.37,1.23,2,1.61,2.84A8.75,8.75,0,0,0,45,79.08a1.67,1.67,0,0,0,.72.7c-.11-.31-.15-.64-.24-1a2.78,2.78,0,0,0,.94.7,4.22,4.22,0,0,1-.06-2.23c.9-.34,1.3.09,1.31-1.09.17.12.49.15.66.27a5.27,5.27,0,0,0,0-.76c.65.29.71-.53.77-1.06a6.45,6.45,0,0,0,1.47-.36,3.37,3.37,0,0,1-.06-2,3.76,3.76,0,0,0,.91-.05c0-.09,0-.23-.06-.32.17,0,.41-.09.6-.07,0-.43-.27-.74-.41-1.16.58.29,1.5-.47,1.43-1,.29-.06.65-.28.91-.36C53.16,68.77,50.09,71.36,50.66,72.09Z"/><path class="cls-10" d="M75.88,42.11c.18.07.42.37.59.45-.82.51-1.66.36-2.17,1.37.74.7-.38,1-.9,1.12.21.14.37.46.58.61-.35.17-.56.33-.77.21.31.78-1.41,1.35-2,1.32-.16.64.46,1,.83,1.4a2.13,2.13,0,0,1-1.44.39c.07.58-.62.83-1.11.58-.4.58.15,1.4-.2,2-.24.38-1.37.78-1.8,1.17-.11.1-.56.5-.81.74s-.31.53-.58.87a4.31,4.31,0,0,1-1.54,1.29c.47.8-1.2.91-1.62,1.44.2.15.3.51.5.66a13.19,13.19,0,0,0-2,1.63c.5.91-1.35,1.74-1.8,2.41,0,.09.11.15.16.25a22,22,0,0,0-2.45,1.74c-.2.18-.35-.12-.55.23s.32.44.27.65c-.13.52-.24,1.16-.92.76-.42.38-.74,2.5-1.54,1.36a16.84,16.84,0,0,0-.27,1.87l-.24,0a8.93,8.93,0,0,0-.07,1.27,3.4,3.4,0,0,0,1-1.61,4.11,4.11,0,0,0,.29.3,7.38,7.38,0,0,1,1.87-1.74c.7-.43,1.65-1,.62-1.88l1-.42-.08-.17a12.11,12.11,0,0,0,2.23-2c.2-.29.15-.68.53-1.1s.69-.49,1-.8c-.2-.82,1-1.12,1.41-1.69.23-.29,0-.56.38-.94s.88-.18,1.18-.42c.91-.71-.21-.79.49-1.64.37-.46,1.75-.48,1.27-1.55.63-.56,1.47-.93,2-1.53-.14-.12-.22-.39-.36-.51.66-.2,1.49-1.18,2.06-1.68a3.48,3.48,0,0,0-.3-.26c0-.06,0-.11,0-.17.26.07.65,0,.92,0-.06-1,2-1.38,1.18-2.39.54-.56,1.3-.74,1.75-1.42.18-.27.11-.6.25-.89s.44-.42.58-.7-.2-.56,0-.85.61-.39.83-.52c.62-.38,1.33-.55,1.72-1.12-.13,0-.49-.27-.62-.29,1-.7,2.07-1.53,3.14-2.13A11.82,11.82,0,0,0,75.88,42.11Z"/><path class="cls-11" d="M46.48,76.82c-.07-.09-.21-.19-.28-.29-.18.61-.7.85-1,1.3a2.24,2.24,0,0,0-.39-.1,1.16,1.16,0,0,0-.12.53l-.07-.08a4.76,4.76,0,0,1,.61,1.12c0-.23,0-.47,0-.71.09.18.25.34.32.51a8.71,8.71,0,0,1,.06-1c.06-.07.18,0,.26,0a2,2,0,0,1,.11-.54,3.47,3.47,0,0,1,.25.29,4.48,4.48,0,0,0,0-.83c.09,0,.37,0,.5.11,0-.22.29-.55.31-.76.07,0,.16.17.21.22a.55.55,0,0,0,0-.5A2.2,2.2,0,0,0,46.48,76.82Z"/><path class="cls-11" d="M50.77,71.5a.4.4,0,0,0,.29.27h0s0,0,0,0h0c-.23.06-.78-.07-.91.18s.2.52.32.65a.94.94,0,0,0-.77,0A.39.39,0,0,0,50,73c-.16.08-.73.19-.3.41-.12.16-.62.31-.42.58l-.15,0c.12.08.34,0,.42,0L49.38,74a2.67,2.67,0,0,1,.69.16,2.15,2.15,0,0,0-.27-.49l.39.11a.75.75,0,0,0-.1-.38.92.92,0,0,0,.35.06,3.45,3.45,0,0,1,0-.55c.12,0,.77,0,.83-.14s-.33-.48-.39-.67c.28-.15.74.06,1.06,0-.15-.19-.41-.28-.47-.53A1.21,1.21,0,0,0,50.77,71.5Z"/><path class="cls-11" d="M51.07,71.77h0S51.09,71.78,51.07,71.77Z"/><path class="cls-11" d="M51.51,71.52h0Z"/><path class="cls-11" d="M51.45,71.49h0Z"/><path class="cls-11" d="M51.42,71.45l.07.06h0s0,0,0,0l.15.08A.76.76,0,0,0,51.42,71.45Z"/><path class="cls-11" d="M63.1,58.76a7.14,7.14,0,0,0-1.2.67c.43.38-.13.4-.18.7l.11,0a7.81,7.81,0,0,1-.64.53c-.24.16-.5.22-.66.47a.75.75,0,0,0,.31.15c-.3.12-1.6.6-.81.86-.3.28-.81.31-1.12.6.1.06.11.13.26.15a3,3,0,0,0-1.05.54.63.63,0,0,0,.29,0,10.74,10.74,0,0,0-1.79,1,7.26,7.26,0,0,1,.92.07c-.37.15-1,.27-1.16.73a2,2,0,0,1,.41.14c-.18.17-1.2.69-.39.67a1.61,1.61,0,0,0-.6.22c-.36.29,0,.18,0,.47s-1,.27-.78.89a3.1,3.1,0,0,0-.68.18.27.27,0,0,0,.27.14l0,0a6,6,0,0,0,.8.23c-.54-.48.31-.23.53-.37a2.37,2.37,0,0,1-.13-.62,1.76,1.76,0,0,0,1-.24,3,3,0,0,0-.39-.56c.23-.15.52.07.74-.09,0,0,0-.1-.06-.15s.17,0,.23,0-.08-.38,0-.49.25,0,.34-.22-.16-.4-.1-.54.41-.2.54-.34c.29-.3.18-.67.53-.94s.77-.22.9-.61c.26,0,.69-.39.41-.63.38.07,1.28-.24.67-.65.44-.38,1.54-.27,1.09-1.08a6.42,6.42,0,0,0,1.25-.76c-.31-.27-.07-.5.12-.75h.12c0-.08,0-.17-.11-.27.36-.19,1.78-.54,1.38-1.11a9.77,9.77,0,0,0-2,.8C62.61,58.71,62.91,58.59,63.1,58.76Z"/><path class="cls-11" d="M67.31,53c.08,0,.18.16.26.21-.32.28-.67.54-1,.8.49,0-.07.53-.33.54.24.39-1,.79-1.25,1,.14.13.36.1.5.24a3.22,3.22,0,0,0-.73.49c.19,0,.4,0,.54.09a1.25,1.25,0,0,1-.45.29,1.26,1.26,0,0,1,.27,0c-.48.52-1.17.51-1.75.78.28.18.86.17,1.06.44h0l.2-.06a3.11,3.11,0,0,0,1.22-.38c-.13-.07-.43,0-.46-.21s.48-.48.6-.56c0,0-.44-.24-.5-.19.3-.26,1.25-.54,1.3-.94-.31-.12-.59,0-.89,0,.51-.32,1.24-.45,1.67-.92a1.21,1.21,0,0,0-.58-.07c.27-.22.64-.33.86-.59a1.78,1.78,0,0,0-.69.15c.49-.46,1.18-.63,1.63-1.06-.3-.16-.67.12-1,.15.29-.26.72-.42.93-.74h-.25C68.17,52.58,67.6,52.63,67.31,53Z"/><path class="cls-11" d="M64.85,56.57l-.29.09A1.4,1.4,0,0,0,64.85,56.57Z"/><path class="cls-11" d="M75.2,43h0Z"/><path class="cls-11" d="M80.35,39.35a1.9,1.9,0,0,0-1,.41c-.48.33-1,.64-1.48,1a1.34,1.34,0,0,1,.49,0c-.6.6-1.89.74-2.33,1.49.22,0,.46,0,.62.09a2.81,2.81,0,0,1-1.35.62.41.41,0,0,1,.28.13c-.28.28-.71.35-1,.64.17.21.44.24.31.52s-.5.26-.67.37c.58.6-.11,1.21-.84,1.1.68.41.1.54-.37.69.46.4-.76.42-.85.78.12.23-.2.52-.37.67a2.12,2.12,0,0,1,.27.09,1.33,1.33,0,0,1-.65.32,1.4,1.4,0,0,0,.36.13,2.1,2.1,0,0,1-1.26,1,.91.91,0,0,1,.48.15c-.28.29-1,.34-1.15.65a3.12,3.12,0,0,1,.91-.08c-.3.34-.85.27-1.23.5a7.31,7.31,0,0,0-1.16.67,7.88,7.88,0,0,1,1.65-.35c.36,0,.9.29,1.24.07a3,3,0,0,1-.44-.49,4.13,4.13,0,0,1,1-.37,1.1,1.1,0,0,0-.3-.34,2.9,2.9,0,0,0,.53-.39,1.57,1.57,0,0,1-.54-.09c.38-.39,1.16-.44,1.47-.85a3.65,3.65,0,0,0-.92-.29c.48-.36,1.19-.22,1.63-.51a1.58,1.58,0,0,0-.8-.22c.31-.07.62-.2.93-.27-.62-.06.36-.61.51-.73-.24-.3.09-.55.38-.6l-.11-.09c.08,0,.14-.15.22-.19-.7-.36.79-1.16,1-1.33-.17-.11-.42,0-.57-.19.3-.47,1-.39,1.34-.75a1,1,0,0,1-.43,0c.32-.37.91-.34,1.26-.7-.1,0-.21-.11-.31-.12.05-.31.73-.49,1-.69a1,1,0,0,1-.54.11c0-.69,1.69-1,2-1.54-.11,0-.24-.07-.3-.07a4.67,4.67,0,0,1,1.08-.51C80.77,39.55,80.83,39.34,80.35,39.35Z"/><path class="cls-4" d="M40.42,66c-.12.41-.09,1.17-.2,1.69-.16.74-1.44,2.1-.37,3,.65.68,1.62-.09,2.4,1.09.37.56,1.9-.09,1.73-1.36a10.28,10.28,0,0,0-1-2.43c-.19-.42-.74-.6-.93-1.08-.3-.77.54-1.58-.34-2.06C41,65.22,40.59,65.39,40.42,66Z"/><path class="cls-5" d="M42.13,67.06c-2.62,4.33-6.29,10.74-7.83,14a2.09,2.09,0,0,0,1,.67c1.64-2.35,3-5.49,4.55-8.09.76-1.31,3.29-5.25,3.29-5.84A.83.83,0,0,0,42.13,67.06Z"/><path class="cls-6" d="M42.13,67.06c-.4.66-.83,1.38-1.27,2.13.21,2.19-1.32,4.47-2.35,6.27-1.12,2-2.23,4.34-3.83,6a1.86,1.86,0,0,0,.66.33c1.64-2.35,3-5.49,4.55-8.09.76-1.31,3.29-5.25,3.29-5.84A.83.83,0,0,0,42.13,67.06Z"/><path class="cls-7" d="M66.5,20.46a23.67,23.67,0,0,0-3.73,4.92c-1.2,2.07-1.58,4.36-3.15,6.3s-1.75,4.24-3.17,6.17a23.75,23.75,0,0,0-2.4,3.33,13,13,0,0,0-.71,2.92c-.47,1.77-2.59,3.3-3.72,4.85a6.1,6.1,0,0,0-1.47,2.79,3.84,3.84,0,0,1-1,2.93c-1.62,2-2.15,4.16-3.53,6.19a15.29,15.29,0,0,0-1.73,2.55c-.17.43-.19.92-.39,1.32s-1,.16-1.08,1.23c1.13.51.34,1,.59,1.48.54,1,1.34.56,1.69,1.07.56.85-.12,2.74,1.15,2.69a20.18,20.18,0,0,0,3.51-6.82,4.71,4.71,0,0,1,2.13-3,5.12,5.12,0,0,0,1.63-3.1c.53-2,2.25-3.17,2.75-5a13.07,13.07,0,0,1,.84-3.28c.67-1.14,2.06-1.47,2.76-2.53a18.54,18.54,0,0,0,.9-2.56c.48-1,1-2.16,1.57-3.18a13.46,13.46,0,0,0,1.61-2.79A28.71,28.71,0,0,1,62.2,36c.74-1.95,2.6-3.49,3.44-5.48s2.18-3.58,2.78-5.48c.25-.81.09-1.61.31-2.37.27-1,1.43-1.69,1.64-2.64C70.86,17.69,67.3,19.73,66.5,20.46Z"/><path class="cls-8" d="M68.75,19.16c-1.17,2.89-2.69,5.7-3.91,8.48C62.57,32.81,60.59,38,57.69,42.88c-1.32,2.23-2.72,4.41-4.14,6.59s-2,4.56-3.4,6.67a136.08,136.08,0,0,0-7,12,4.27,4.27,0,0,1-.38.59c.37.91-.13,2.53,1.05,2.48a20.18,20.18,0,0,0,3.51-6.82,4.71,4.71,0,0,1,2.13-3,5.12,5.12,0,0,0,1.63-3.1c.53-2,2.25-3.17,2.75-5a13.07,13.07,0,0,1,.84-3.28c.67-1.14,2.06-1.47,2.76-2.53a18.54,18.54,0,0,0,.9-2.56c.48-1,1-2.16,1.57-3.18a13.46,13.46,0,0,0,1.61-2.79A28.71,28.71,0,0,1,62.2,36c.74-1.95,2.6-3.49,3.44-5.48s2.18-3.58,2.78-5.48c.25-.81.09-1.61.31-2.37.27-1,1.43-1.69,1.64-2.64C70.63,18.78,69.75,18.78,68.75,19.16Z"/><path class="cls-9" d="M62.77,25.38c-1.2,2.07-1.58,4.36-3.15,6.3s-1.75,4.24-3.17,6.17a23.75,23.75,0,0,0-2.4,3.33,13,13,0,0,0-.71,2.92c-.47,1.77-2.59,3.3-3.72,4.85a6.1,6.1,0,0,0-1.47,2.79,3.84,3.84,0,0,1-1,2.93c-1.62,2-2.15,4.16-3.53,6.19a15.29,15.29,0,0,0-1.73,2.55,3.44,3.44,0,0,0-.15.55l.49-.07A5.5,5.5,0,0,1,43,62a4,4,0,0,1,1.27-1.21,6.88,6.88,0,0,1,1.1-.52l.2-.36a4.78,4.78,0,0,1,2.36-4.46,12.45,12.45,0,0,1,.77-1.31c-.68-3.12,1.51-5,3.67-6.89C53.88,45.89,54.65,43,54.94,41c.32-2.17,2.57-3.53,3.42-5.44.68-1.52,1.27-3.08,2-4.56a29.15,29.15,0,0,0,2.22-4,9.62,9.62,0,0,1,1.06-2.24,5.24,5.24,0,0,1,.94-1.64A8.46,8.46,0,0,1,66,21.92c.11-.43.22-.86.31-1.31A24.54,24.54,0,0,0,62.77,25.38Z"/><path class="cls-9" d="M67.32,23.44c-.74,2.14-1,4.32-2.16,6.33C64.16,31.55,62.6,33,62,35c-1.22,3.93-4,11-7.5,13.4-1.84,1.23-.15,3.27-1.69,4.74s-1.09.94-1.61,2.91c-.92,3.45-4.48,5.08-5.4,8.3-.6,2.13-1.18,4.66-2.63,6.43a.65.65,0,0,0,.71.42,20.18,20.18,0,0,0,3.51-6.82,4.71,4.71,0,0,1,2.13-3,5.12,5.12,0,0,0,1.63-3.1c.53-2,2.25-3.17,2.75-5a13.07,13.07,0,0,1,.84-3.28c.67-1.14,2.06-1.47,2.76-2.53a18.54,18.54,0,0,0,.9-2.56c.48-1,1-2.16,1.57-3.18a13.46,13.46,0,0,0,1.61-2.79A28.71,28.71,0,0,1,62.2,36c.74-1.95,2.6-3.49,3.44-5.48s2.18-3.58,2.78-5.48c.25-.81.09-1.61.31-2.37.27-1,1.43-1.69,1.64-2.64.17-.79-.14-1.06-.65-1.06C69.14,20.59,67.85,21.91,67.32,23.44Z"/><path class="cls-10" d="M46.68,57.94a6.88,6.88,0,0,0-.54.51s-.14.9,0,.7c-.28.5-.69.72-1,1.18,0,.1.09.2.13.3-1,.36-1.5.71-1,1.72-1.15.08-.8.52-.82,1.39-.19,0-.49.15-.69.13a7.73,7.73,0,0,0,.07,1.59,2.63,2.63,0,0,0-1.65-.27c.07.26.2.23.31.28l-.14.17c.89.19,1.64,1.73,2.18,2.44A8.49,8.49,0,0,0,42.6,66a1.89,1.89,0,0,0,.86.53c-.17-.28-.28-.6-.43-.88a2.71,2.71,0,0,0,1.06.48A4.38,4.38,0,0,1,43.55,64c.81-.53,1.29-.2,1.05-1.35.19.08.51,0,.7.12a4.38,4.38,0,0,0-.21-.73c.7.14.58-.67.53-1.2A6.85,6.85,0,0,0,47,60.14a3.38,3.38,0,0,1-.49-2,3.44,3.44,0,0,0,.87-.24c0-.08-.09-.21-.12-.3.17,0,.38-.17.56-.2-.07-.42-.41-.67-.65-1,.64.15,1.37-.78,1.19-1.33.26-.12.56-.41.81-.54C48.41,54.16,46,57.35,46.68,57.94Z"/><path class="cls-10" d="M64.88,23.25c.19,0,.49.26.68.31-.7.67-1.55.71-1.83,1.8.87.52-.16,1-.64,1.29.24.09.46.37.7.47-.31.24-.48.44-.71.37.47.7-1.08,1.62-1.66,1.71,0,.67.65.84,1.11,1.2a2.18,2.18,0,0,1-1.32.69c.19.55-.43.94-1,.8-.27.65.44,1.34.22,2-.15.44-1.17,1.06-1.5,1.54-.09.12-.44.6-.64.89s-.18.59-.38,1a4.3,4.3,0,0,1-1.23,1.59c.63.68-1,1.14-1.27,1.75.23.11.41.43.63.54a13.59,13.59,0,0,0-1.58,2c.68.79-1,2-1.24,2.74a2.08,2.08,0,0,0,.21.21,23.5,23.5,0,0,0-2,2.23c-.15.22-.37,0-.48.34s.4.36.4.58c0,.54,0,1.18-.73.94-.33.46-.19,2.6-1.21,1.66a17,17,0,0,0,.13,1.88l-.22.1a9.17,9.17,0,0,0,.2,1.26,3.37,3.37,0,0,0,.65-1.79,3.37,3.37,0,0,0,.35.22A7.19,7.19,0,0,1,52,51.42c.6-.58,1.4-1.32.2-2l.88-.63L53,48.68a12.65,12.65,0,0,0,1.76-2.42c.12-.32,0-.69.28-1.18.19-.33.56-.63.79-1-.37-.76.72-1.3,1-1.95.15-.33-.17-.53.16-1,.22-.31.82-.36,1.07-.66.73-.9-.38-.73.12-1.71.27-.53,1.61-.85.91-1.78.49-.69,1.24-1.23,1.66-1.94-.16-.09-.3-.33-.46-.42.61-.33,1.2-1.47,1.65-2.09a2.31,2.31,0,0,0-.35-.18,1,1,0,0,0,0-.17c.27,0,.63-.16.9-.18-.27-.94,1.66-1.78.64-2.58.41-.66,1.11-1,1.4-1.77.12-.3,0-.6.06-.92s.34-.51.41-.81-.31-.5-.21-.83.51-.5.7-.68c.52-.5,1.18-.81,1.43-1.46-.12,0-.54-.16-.66-.15.86-.91,1.69-1.94,2.61-2.75A11.7,11.7,0,0,0,64.88,23.25Z"/><path class="cls-11" d="M43.61,63.46c-.09-.08-.25-.14-.34-.23,0,.64-.5,1-.68,1.48a1.74,1.74,0,0,0-.39,0,1.1,1.1,0,0,0,0,.54l-.09-.07a4.72,4.72,0,0,1,.84,1c-.09-.22-.11-.46-.18-.69.12.16.31.28.42.43-.09-.26-.08-.66-.15-1,0-.09.18,0,.25-.07a2.52,2.52,0,0,1,0-.55l.31.23a4.23,4.23,0,0,0-.15-.81,4.5,4.5,0,0,1,.52,0c0-.23.15-.6.13-.81.07,0,.2.13.26.17a.56.56,0,0,0-.13-.48A2.1,2.1,0,0,0,43.61,63.46Z"/><path class="cls-11" d="M46.66,57.34a.39.39,0,0,0,.34.2h0c-.21.11-.78.09-.85.37s.31.46.45.57a.92.92,0,0,0-.74.18.38.38,0,0,0,.33.28c-.14.1-.67.34-.2.46-.08.18-.54.44-.29.65l-.14.08c.14,0,.34-.06.42-.08h-.15a2.73,2.73,0,0,1,.7,0,1.78,1.78,0,0,0-.36-.42l.4,0a.74.74,0,0,0-.18-.35,1,1,0,0,0,.36,0,3.79,3.79,0,0,1-.14-.53c.11,0,.74-.21.78-.31s-.43-.4-.52-.58c.24-.2.74-.1,1-.25-.18-.15-.45-.19-.57-.42A1.24,1.24,0,0,0,46.66,57.34Z"/><path class="cls-11" d="M47,57.54h0Z"/><path class="cls-11" d="M47.38,57.19h0S47.39,57.2,47.38,57.19Z"/><path class="cls-11" d="M47.32,57.19Z"/><path class="cls-11" d="M47.28,57.15l.08,0h0s0,0,0,0h0l.17,0A.91.91,0,0,0,47.28,57.15Z"/><path class="cls-11" d="M56,42.25a7.3,7.3,0,0,0-1,.91c.5.28,0,.42,0,.73H55c-.19.23-.32.45-.52.65s-.43.33-.54.61a.89.89,0,0,0,.34.07c-.27.18-1.44.93-.61,1-.23.33-.72.47-1,.82.11,0,.13.11.28.1a3,3,0,0,0-.91.75.59.59,0,0,0,.29,0,11.62,11.62,0,0,0-1.53,1.36,5.51,5.51,0,0,1,.92-.13c-.34.23-.92.47-1,1a2,2,0,0,1,.42,0c-.13.21-1,.94-.23.75a1.46,1.46,0,0,0-.54.34c-.29.36.08.17,0,.47s-.91.48-.57,1a4,4,0,0,0-.62.32.27.27,0,0,0,.29.09l0,0a8.11,8.11,0,0,0,.83.06c-.63-.36.26-.29.44-.49a2.64,2.64,0,0,1-.26-.57,1.8,1.8,0,0,0,.94-.45,3.14,3.14,0,0,0-.5-.46c.19-.2.53-.05.7-.25a1.1,1.1,0,0,0-.09-.14c.06,0,.16-.07.22-.07s-.16-.36-.13-.47.24-.05.28-.3-.24-.35-.22-.49.36-.29.46-.46c.22-.36,0-.69.31-1s.71-.38.76-.79c.25-.05.58-.52.26-.7.39,0,1.2-.51.51-.78.36-.46,1.45-.6.84-1.29a6.32,6.32,0,0,0,1.06-1c-.37-.2-.18-.47,0-.76l.12,0c0-.07,0-.17-.16-.25.31-.26,1.62-.9,1.1-1.37a9.35,9.35,0,0,0-1.8,1.22C55.48,42.31,55.75,42.12,56,42.25Z"/><path class="cls-11" d="M58.83,35.68a2.1,2.1,0,0,1,.3.15c-.25.34-.53.67-.8,1,.49-.08.05.53-.21.6.33.32-.79,1-1,1.19.16.1.37,0,.54.12a3.68,3.68,0,0,0-.61.64c.19,0,.38-.13.55,0a1.28,1.28,0,0,1-.38.39.6.6,0,0,1,.25-.1c-.35.6-1,.75-1.53,1.14.3.11.86,0,1.12.2h0l.19-.1a3.4,3.4,0,0,0,1.11-.64c-.15,0-.43,0-.49-.1s.36-.58.46-.68-.49-.14-.53-.08c.23-.32,1.11-.79,1.07-1.2-.33,0-.56.18-.87.21.43-.43,1.11-.7,1.43-1.26a1.27,1.27,0,0,0-.57,0c.21-.27.54-.46.71-.75a1.49,1.49,0,0,0-.64.29c.37-.55,1-.87,1.36-1.39-.33-.09-.63.27-.93.36.23-.32.62-.56.75-.93l-.24.06C59.59,35.13,59.05,35.3,58.83,35.68Z"/><path class="cls-11" d="M57.21,39.74c-.09,0-.18.1-.27.15Z"/><path class="cls-11" d="M64.4,24.23l.13,0Z"/><path class="cls-11" d="M68.66,19.59a2,2,0,0,0-.87.61c-.39.42-.87.84-1.23,1.28A1.18,1.18,0,0,1,67,21.4c-.46.71-1.68,1.13-2,2,.22,0,.44-.13.62,0a2.73,2.73,0,0,1-1.18.89.4.4,0,0,1,.3.07c-.21.33-.62.49-.83.84.21.16.48.14.41.44s-.43.37-.57.51c.69.46.15,1.2-.58,1.25.75.25.21.5-.22.76.54.29-.65.57-.66.93.17.21-.08.55-.21.74.09,0,.22,0,.28,0a1.42,1.42,0,0,1-.57.46,1.53,1.53,0,0,0,.38,0,2.13,2.13,0,0,1-1,1.22.82.82,0,0,1,.49,0c-.21.35-.9.55-1,.89.26-.07.6-.3.87-.28-.22.39-.77.45-1.09.75a6.64,6.64,0,0,0-1,.91c.39-.11.84-.59,1.53-.7.35-.12,1,.09,1.23-.19a3.45,3.45,0,0,1-.53-.39,4,4,0,0,1,.88-.57,1.52,1.52,0,0,0-.37-.27,3,3,0,0,0,.44-.5,1.3,1.3,0,0,1-.55,0c.29-.46,1-.68,1.25-1.14a3.44,3.44,0,0,0-1-.09c.4-.46,1.12-.47,1.48-.85a1.78,1.78,0,0,0-.83,0c.29-.13.57-.33.86-.46-.62.07.21-.67.34-.82-.3-.25,0-.57.24-.68l-.12-.06c.06-.05.1-.17.16-.23-.75-.2.53-1.3.68-1.51-.19-.07-.42,0-.59-.06.19-.53.85-.59,1.13-1a.92.92,0,0,1-.42.08c.24-.43.82-.53,1.08-.95a2.88,2.88,0,0,0-.33-.05c0-.32.62-.64.83-.89a1.06,1.06,0,0,1-.51.22c-.1-.68,1.43-1.38,1.67-1.94a1,1,0,0,1-.31,0,5.32,5.32,0,0,1,1-.73C69.11,19.7,69.12,19.48,68.66,19.59Z"/><path class="cls-4" d="M12.14,63.33c0,.43.24,1.16.27,1.68.05.76-.81,2.42.47,3,.81.46,1.53-.54,2.61.38.5.44,1.8-.61,1.28-1.78a10.53,10.53,0,0,0-1.59-2.07c-.31-.36-.89-.38-1.2-.79-.5-.65.08-1.66-.89-1.88C12.48,62.46,12.15,62.74,12.14,63.33Z"/><path class="cls-5" d="M14.09,63.92C12.76,68.8,11,76,10.41,79.55a2.19,2.19,0,0,0,1.19.37c.93-2.72,1.42-6.12,2.15-9,.37-1.48,1.72-6,1.55-6.53A.83.83,0,0,0,14.09,63.92Z"/><path class="cls-6" d="M14.09,63.92c-.2.75-.42,1.56-.64,2.4.81,2,0,4.66-.53,6.67-.54,2.18-.95,4.79-2.05,6.79a2.06,2.06,0,0,0,.73.14c.93-2.72,1.42-6.12,2.15-9,.37-1.48,1.72-6,1.55-6.53A.83.83,0,0,0,14.09,63.92Z"/><path class="cls-7" d="M24.69,12.42a23.81,23.81,0,0,0-2.24,5.75c-.58,2.32-.31,4.63-1.29,6.92s-.52,4.56-1.35,6.81a23.48,23.48,0,0,0-1.39,3.86,13.54,13.54,0,0,0,.12,3c0,1.84-1.58,3.89-2.23,5.69a6,6,0,0,0-.66,3.09,3.81,3.81,0,0,1-.15,3.09c-1,2.35-.92,4.59-1.68,6.92a14.58,14.58,0,0,0-1,2.93c0,.46.07.93,0,1.38s-.91.42-.7,1.47c1.22.18.61.91,1,1.27.78.77,1.44.16,1.91.56.78.66.64,2.67,1.85,2.27a20.05,20.05,0,0,0,1.5-7.52,4.72,4.72,0,0,1,1.21-3.52A5.1,5.1,0,0,0,20.3,53c0-2,1.29-3.66,1.26-5.6A12.44,12.44,0,0,1,21.47,44c.33-1.28,1.57-2,2-3.19a19,19,0,0,0,.16-2.71c.18-1.13.37-2.35.63-3.49A13.29,13.29,0,0,0,25,31.46c0-1-.25-1.93-.17-3,.18-2.07,1.54-4.06,1.8-6.21.23-2,1.11-4,1.16-6,0-.85-.35-1.57-.35-2.37,0-1,.91-2,.85-3C28.12,8.55,25.26,11.49,24.69,12.42Z"/><path class="cls-8" d="M26.49,10.54c-.33,3.11-1,6.23-1.42,9.23-.76,5.6-1.24,11.13-2.68,16.62-.66,2.51-1.4,5-2.17,7.47s-.7,5-1.43,7.35a137.13,137.13,0,0,0-3.4,13.45,4.37,4.37,0,0,1-.2.67c.6.78.57,2.47,1.69,2.1a20.05,20.05,0,0,0,1.5-7.52,4.72,4.72,0,0,1,1.21-3.52A5.1,5.1,0,0,0,20.3,53c0-2,1.29-3.66,1.26-5.6A12.44,12.44,0,0,1,21.47,44c.33-1.28,1.57-2,2-3.19a19,19,0,0,0,.16-2.71c.18-1.13.37-2.35.63-3.49A13.29,13.29,0,0,0,25,31.46c0-1-.25-1.93-.17-3,.18-2.07,1.54-4.06,1.8-6.21.23-2,1.11-4,1.16-6,0-.85-.35-1.57-.35-2.37,0-1,.91-2,.85-3C28.2,9.66,27.35,9.9,26.49,10.54Z"/><path class="cls-9" d="M22.45,18.17c-.58,2.32-.31,4.63-1.29,6.92s-.52,4.56-1.35,6.81a23.48,23.48,0,0,0-1.39,3.86,13.54,13.54,0,0,0,.12,3c0,1.84-1.58,3.89-2.23,5.69a6,6,0,0,0-.66,3.09,3.81,3.81,0,0,1-.15,3.09c-1,2.35-.92,4.59-1.68,6.92a14.58,14.58,0,0,0-1,2.93,3.62,3.62,0,0,0,0,.57,4.58,4.58,0,0,1,.46-.2,5.43,5.43,0,0,1,.21-2.08,3.83,3.83,0,0,1,.88-1.51,6.2,6.2,0,0,1,.92-.8l.09-.41a4.8,4.8,0,0,1,1-4.94,10.86,10.86,0,0,1,.39-1.46c-1.52-2.82.06-5.26,1.62-7.64,1.1-1.67,1-4.69.78-6.63-.29-2.17,1.5-4.1,1.79-6.17.23-1.65.38-3.31.71-4.95a29.28,29.28,0,0,0,1.05-4.42,9.73,9.73,0,0,1,.4-2.45,5.3,5.3,0,0,1,.45-1.84,8.08,8.08,0,0,1,1-1.6c0-.45,0-.89-.06-1.34A24.37,24.37,0,0,0,22.45,18.17Z"/><path class="cls-9" d="M26.3,15.05c-.12,2.27.19,4.44-.34,6.68-.47,2-1.57,3.83-1.62,5.91-.1,4.11-.79,11.72-3.53,15-1.42,1.68.76,3.19-.31,5s-.79,1.2-.75,3.24c.06,3.56-2.91,6.12-2.91,9.46,0,2.21.15,4.81-.76,6.91a.66.66,0,0,0,.8.21,20.05,20.05,0,0,0,1.5-7.52,4.72,4.72,0,0,1,1.21-3.52A5.1,5.1,0,0,0,20.3,53c0-2,1.29-3.66,1.26-5.6A12.44,12.44,0,0,1,21.47,44c.33-1.28,1.57-2,2-3.19a19,19,0,0,0,.16-2.71c.18-1.13.37-2.35.63-3.49A13.29,13.29,0,0,0,25,31.46c0-1-.25-1.93-.17-3,.18-2.07,1.54-4.06,1.8-6.21.23-2,1.11-4,1.16-6,0-.85-.35-1.57-.35-2.37,0-1,.91-2,.85-3s-.43-1-.92-.84C27.26,11.81,26.38,13.43,26.3,15.05Z"/><path class="cls-10" d="M16,53.9a5.91,5.91,0,0,0-.38.64s.11.9.16.68a10.85,10.85,0,0,1-.67,1.43c.06.08.14.16.2.25-.85.61-1.25,1.09-.45,1.91-1.08.4-.63.73-.4,1.56-.19,0-.44.29-.63.33a8.25,8.25,0,0,0,.5,1.5,2.64,2.64,0,0,0-1.66.2c.14.23.26.16.37.19l-.08.2c.9-.07,2.05,1.21,2.77,1.73a9.12,9.12,0,0,0-1.43-1.76,1.71,1.71,0,0,0,1,.27c-.25-.22-.44-.49-.66-.72a2.85,2.85,0,0,0,1.16.17,4.37,4.37,0,0,1-1.12-1.93c.63-.73,1.18-.55.63-1.59.21,0,.51-.1.71-.07a4,4,0,0,0-.4-.65c.71-.05.38-.81.18-1.29a7.31,7.31,0,0,0,1.12-1c-.4-.52-1-1-1-1.75a3.57,3.57,0,0,0,.78-.46c-.05-.08-.15-.18-.21-.26.16-.07.32-.27.49-.35-.19-.38-.58-.52-.91-.82a1.18,1.18,0,0,0,.77-1.6c.22-.19.44-.55.63-.75C16.58,49.79,15.1,53.53,16,53.9Z"/><path class="cls-10" d="M23.9,15.54c.19,0,.54.12.73.11-.48.84-1.29,1.11-1.26,2.24,1,.26.13,1-.25,1.41.25,0,.54.23.79.26-.22.32-.33.56-.58.55.65.55-.59,1.86-1.12,2.11.17.64.86.62,1.39.84a2.19,2.19,0,0,1-1.07,1c.33.47-.16,1-.7,1-.09.69.79,1.16.75,1.81,0,.46-.84,1.34-1,1.89l-.37,1c-.15.45,0,.61-.09,1a4.3,4.3,0,0,1-.74,1.87c.79.48-.62,1.36-.74,2,.24.05.51.31.75.36a13,13,0,0,0-1,2.36c.87.57-.36,2.18-.43,3,.08.06.17.08.25.14a24.09,24.09,0,0,0-1.33,2.7c-.09.25-.36.06-.37.46s.49.24.54.45c.14.52.35,1.13-.44,1.1-.19.54.53,2.55-.71,1.93a18.87,18.87,0,0,0,.64,1.78l-.18.15a9.29,9.29,0,0,0,.54,1.15A3.39,3.39,0,0,0,18,48.47c.11.05.28.07.39.12a7.17,7.17,0,0,1,.83-2.42c.41-.71,1-1.65-.36-2,.21-.25.47-.57.68-.84l-.15-.11a12.42,12.42,0,0,0,1-2.8c0-.35-.19-.67-.05-1.22.09-.37.36-.76.48-1.18-.56-.63.34-1.45.45-2.15.05-.37-.31-.47-.12-1,.13-.36.69-.57.84-.93.46-1.06-.56-.59-.35-1.68.11-.58,1.32-1.25.38-2,.29-.8.86-1.52,1.06-2.32-.17,0-.37-.24-.55-.27a8,8,0,0,0,1-2.46,1.83,1.83,0,0,0-.39-.09l-.06-.15c.26-.07.55-.33.82-.42-.53-.84,1.09-2.17-.1-2.66.21-.75.79-1.27.86-2.09,0-.32-.19-.57-.2-.9s.19-.58.17-.89-.43-.4-.43-.74.35-.62.49-.85c.36-.62.9-1.1,1-1.79-.12,0-.56,0-.68,0,.58-1.1,1.1-2.32,1.76-3.36A11.69,11.69,0,0,0,23.9,15.54Z"/><path class="cls-11" d="M14.52,60.05c-.11,0-.28-.07-.39-.13.13.63-.21,1.08-.24,1.62a1.87,1.87,0,0,0-.39.09,1.26,1.26,0,0,0,.14.53l-.1,0a4.87,4.87,0,0,1,1.08.69,6.18,6.18,0,0,1-.37-.61c.16.12.38.18.52.3a9.35,9.35,0,0,1-.41-.89c0-.09.16-.08.23-.13a2.26,2.26,0,0,1-.17-.52,3.84,3.84,0,0,1,.36.14,3.66,3.66,0,0,0-.36-.75c.1,0,.35-.14.5-.14-.09-.21,0-.62-.1-.82.07,0,.23.08.29.09a.56.56,0,0,0-.25-.42A2.06,2.06,0,0,0,14.52,60.05Z"/><path class="cls-11" d="M15.77,53.33a.4.4,0,0,0,.38.1h0c-.17.16-.73.3-.72.59s.43.36.6.42a.94.94,0,0,0-.67.38.38.38,0,0,0,.4.17c-.11.15-.56.52-.07.5,0,.2-.4.57-.1.71l-.11.11c.14,0,.31-.14.38-.18l-.15,0a2.38,2.38,0,0,1,.68-.19,1.79,1.79,0,0,0-.47-.3l.39-.1a.7.7,0,0,0-.26-.28,1,1,0,0,0,.34-.12c-.09-.18-.23-.29-.28-.47s.65-.4.66-.51-.52-.27-.66-.41c.17-.27.68-.31.91-.53-.21-.1-.49-.06-.66-.25A1.23,1.23,0,0,0,15.77,53.33Z"/><path class="cls-11" d="M16.15,53.43Z"/><path class="cls-11" d="M16.42,53h0S16.43,53,16.42,53Z"/><path class="cls-11" d="M16.36,53Z"/><path class="cls-11" d="M16.31,53l.09,0h0s0,0,0,0h.15A.66.66,0,0,0,16.31,53Z"/><path class="cls-11" d="M20.57,36.26a7.68,7.68,0,0,0-.75,1.16c.56.13.08.41.18.71l.11,0c-.12.27-.19.51-.32.77a1.85,1.85,0,0,0-.36.73,1,1,0,0,0,.35,0c-.21.24-1.13,1.28-.31,1.14-.13.39-.56.65-.7,1.06.12,0,.16.06.3,0a3.37,3.37,0,0,0-.67,1,.54.54,0,0,0,.28-.09,11.94,11.94,0,0,0-1.1,1.72,7.3,7.3,0,0,1,.85-.38c-.26.32-.75.71-.68,1.2a2,2,0,0,1,.43-.08c-.08.24-.73,1.18,0,.79a1.36,1.36,0,0,0-.42.47c-.18.43.12.14.18.43.09.45-.75.72-.27,1.16a3.86,3.86,0,0,0-.51.48.27.27,0,0,0,.3,0l0,0a5.42,5.42,0,0,0,.82-.17c-.71-.17.16-.35.28-.58a2.27,2.27,0,0,1-.4-.49,1.75,1.75,0,0,0,.77-.68,2.5,2.5,0,0,0-.61-.31c.13-.24.5-.19.61-.43l-.12-.11c.05,0,.13-.11.19-.13s-.26-.3-.26-.42.22-.11.19-.36-.33-.27-.34-.42.26-.37.31-.56c.12-.4-.16-.67,0-1.07s.58-.57.5-1c.23-.11.43-.66.06-.74.38-.12,1-.82.29-.89.21-.54,1.22-1,.44-1.47a5.87,5.87,0,0,0,.74-1.26c-.4-.09-.3-.41-.25-.72l.11,0c-.07-.06-.09-.15-.23-.19.23-.34,1.31-1.32.69-1.63a9.62,9.62,0,0,0-1.4,1.66C20.11,36.45,20.31,36.2,20.57,36.26Z"/><path class="cls-11" d="M21.51,29.15c.09,0,.24.06.33.06-.15.4-.33.8-.5,1.19.45-.21.19.49,0,.63.4.22-.49,1.16-.64,1.43.18,0,.36-.08.55,0a3.42,3.42,0,0,0-.41.78c.18-.07.34-.23.52-.18a1.09,1.09,0,0,1-.26.47,1.12,1.12,0,0,1,.22-.16c-.18.68-.78,1-1.16,1.52.32,0,.82-.26,1.13-.12h0l.15-.15c.28-.26.75-.56.89-.92-.15,0-.4.17-.5,0s.19-.65.25-.78-.5,0-.52.07c.13-.37.84-1.07.69-1.45-.33.05-.49.33-.78.44.3-.53.88-1,1-1.6a1.17,1.17,0,0,0-.54.21,6.76,6.76,0,0,0,.47-.93c-.22.07-.38.32-.54.46.22-.63.74-1.11.94-1.71-.35,0-.54.43-.8.6.13-.36.44-.7.47-1.09a.94.94,0,0,0-.22.12C22.08,28.42,21.61,28.73,21.51,29.15Z"/><path class="cls-11" d="M21.06,33.5l-.21.22A1.45,1.45,0,0,0,21.06,33.5Z"/><path class="cls-11" d="M23.71,16.62l.11-.07A.41.41,0,0,0,23.71,16.62Z"/><path class="cls-11" d="M26.52,11a1.91,1.91,0,0,0-.66.82c-.27.51-.61,1-.83,1.56a1.48,1.48,0,0,1,.44-.21c-.25.82-1.31,1.55-1.34,2.42.2-.08.39-.24.59-.21a2.77,2.77,0,0,1-.9,1.18.42.42,0,0,1,.31,0c-.11.37-.46.64-.56,1,.24.1.49,0,.51.31s-.31.47-.41.65c.79.25.48,1.11-.21,1.36.79,0,.34.42,0,.79.61.13-.46.72-.37,1.08.22.15.07.55,0,.77a1.76,1.76,0,0,1,.27-.05,1.29,1.29,0,0,1-.41.59,1.24,1.24,0,0,0,.37-.06,2.14,2.14,0,0,1-.64,1.46.82.82,0,0,1,.48-.1c-.1.39-.71.78-.7,1.12.23-.13.49-.45.76-.5-.1.44-.61.64-.84,1a6.86,6.86,0,0,0-.7,1.14c.35-.21.65-.79,1.28-1.09.3-.21.93-.17,1.13-.52a3.56,3.56,0,0,1-.62-.23,3.66,3.66,0,0,1,.69-.79,1.26,1.26,0,0,0-.43-.16,2.53,2.53,0,0,0,.28-.6,1.49,1.49,0,0,1-.52.19c.15-.53.82-.95.89-1.45a3.71,3.71,0,0,0-.94.17c.25-.54.94-.75,1.18-1.21a1.7,1.7,0,0,0-.81.18c.25-.2.46-.47.7-.68-.57.25,0-.7.1-.88-.35-.16-.18-.53,0-.71l-.14,0a2.77,2.77,0,0,0,.1-.26c-.78,0,.15-1.4.24-1.64-.21,0-.39.15-.59.1,0-.56.66-.8.81-1.29a1.13,1.13,0,0,1-.38.19c.11-.48.64-.73.77-1.22-.09,0-.23,0-.33,0-.1-.3.42-.78.55-1.09a1,1,0,0,1-.42.36c-.29-.63,1-1.72,1.07-2.32a1,1,0,0,1-.3.07c.13-.37.49-.63.71-1S26.94,10.75,26.52,11Z"/><path class="cls-4" d="M22.07,62.09c-.07.42.07,1.18,0,1.7-.05.76-1.13,2.29,0,3,.74.58,1.59-.32,2.53.75.44.5,1.87-.36,1.52-1.59a10.41,10.41,0,0,0-1.29-2.28c-.26-.39-.82-.49-1.08-.94-.4-.72.32-1.63-.61-2C22.53,61.28,22.16,61.5,22.07,62.09Z"/><path class="cls-5" d="M23.92,62.94c-2,4.65-4.74,11.51-5.81,15a2.11,2.11,0,0,0,1.12.52c1.3-2.56,2.26-5.86,3.38-8.64.57-1.41,2.54-5.66,2.45-6.25A.84.84,0,0,0,23.92,62.94Z"/><path class="cls-6" d="M23.92,62.94c-.31.72-.64,1.49-1,2.29.52,2.14-.68,4.61-1.45,6.53-.84,2.09-1.6,4.62-3,6.45a2.22,2.22,0,0,0,.7.23c1.3-2.56,2.26-5.86,3.38-8.64.57-1.41,2.54-5.66,2.45-6.25A.84.84,0,0,0,23.92,62.94Z"/><path class="cls-7" d="M41.56,13.41a23.94,23.94,0,0,0-3,5.39c-.9,2.22-.95,4.54-2.24,6.67S35.16,29.92,34,32a22.51,22.51,0,0,0-1.91,3.63,12.81,12.81,0,0,0-.3,3c-.22,1.82-2.11,3.63-3,5.32a6,6,0,0,0-1.08,3,3.84,3.84,0,0,1-.58,3c-1.32,2.19-1.55,4.42-2.63,6.62a15,15,0,0,0-1.36,2.76c-.11.45-.06.94-.21,1.37s-1,.29-.89,1.36c1.18.35.48,1,.79,1.39.67.88,1.41.36,1.82.82.67.76.26,2.73,1.51,2.51a20.07,20.07,0,0,0,2.53-7.25,4.68,4.68,0,0,1,1.69-3.3A5.19,5.19,0,0,0,31.59,53c.25-2,1.79-3.45,2-5.37A12.51,12.51,0,0,1,34,44.23c.5-1.23,1.83-1.75,2.37-2.9a18.9,18.9,0,0,0,.55-2.65c.33-1.1.68-2.28,1.11-3.37a13.53,13.53,0,0,0,1.2-3,29.56,29.56,0,0,1,.24-3c.47-2,2.09-3.81,2.64-5.9.51-1.93,1.66-3.85,2-5.81.13-.84-.13-1.61,0-2.4.14-1,1.19-1.87,1.26-2.83C45.5,10.06,42.25,12.57,41.56,13.41Z"/><path class="cls-8" d="M43.61,11.81c-.76,3-1.87,6-2.69,8.94-1.53,5.44-2.77,10.85-5,16.08-1,2.4-2.08,4.75-3.18,7.1s-1.39,4.8-2.44,7.08c-2,4.24-3.7,8.42-5.24,12.84a3.87,3.87,0,0,1-.29.65c.49.85.22,2.52,1.38,2.31a20.07,20.07,0,0,0,2.53-7.25,4.68,4.68,0,0,1,1.69-3.3A5.19,5.19,0,0,0,31.59,53c.25-2,1.79-3.45,2-5.37A12.51,12.51,0,0,1,34,44.23c.5-1.23,1.83-1.75,2.37-2.9a18.9,18.9,0,0,0,.55-2.65c.33-1.1.68-2.28,1.11-3.37a13.53,13.53,0,0,0,1.2-3,29.56,29.56,0,0,1,.24-3c.47-2,2.09-3.81,2.64-5.9.51-1.93,1.66-3.85,2-5.81.13-.84-.13-1.61,0-2.4.14-1,1.19-1.87,1.26-2.83C45.42,11.17,44.55,11.29,43.61,11.81Z"/><path class="cls-9" d="M38.55,18.8c-.9,2.22-.95,4.54-2.24,6.67S35.16,29.92,34,32a22.51,22.51,0,0,0-1.91,3.63,12.81,12.81,0,0,0-.3,3c-.22,1.82-2.11,3.63-3,5.32a6,6,0,0,0-1.08,3,3.84,3.84,0,0,1-.58,3c-1.32,2.19-1.55,4.42-2.63,6.62a15,15,0,0,0-1.36,2.76,5.58,5.58,0,0,0-.08.57,3.94,3.94,0,0,1,.49-.14,5.28,5.28,0,0,1,.49-2,3.89,3.89,0,0,1,1.08-1.37,7.16,7.16,0,0,1,1-.67l.15-.39A4.79,4.79,0,0,1,28,50.59a12.21,12.21,0,0,1,.59-1.4c-1.11-3,.79-5.2,2.67-7.33C32.61,40.35,33,37.35,33,35.4c0-2.19,2.05-3.86,2.63-5.86.46-1.61.83-3.23,1.39-4.81a28.4,28.4,0,0,0,1.65-4.24,9.43,9.43,0,0,1,.74-2.36,5.13,5.13,0,0,1,.7-1.76,8.39,8.39,0,0,1,1.21-1.45c.05-.44.1-.88.13-1.34A24.6,24.6,0,0,0,38.55,18.8Z"/><path class="cls-9" d="M42.79,16.24c-.43,2.23-.42,4.43-1.26,6.57-.74,1.9-2.09,3.58-2.43,5.63-.67,4.06-2.41,11.49-5.56,14.31-1.65,1.47.3,3.26-1,4.93s-1,1.08-1.2,3.1c-.43,3.54-3.72,5.66-4.19,9-.3,2.19-.52,4.78-1.71,6.74a.66.66,0,0,0,.76.32,20.07,20.07,0,0,0,2.53-7.25,4.68,4.68,0,0,1,1.69-3.3A5.19,5.19,0,0,0,31.59,53c.25-2,1.79-3.45,2-5.37A12.51,12.51,0,0,1,34,44.23c.5-1.23,1.83-1.75,2.37-2.9a18.9,18.9,0,0,0,.55-2.65c.33-1.1.68-2.28,1.11-3.37a13.53,13.53,0,0,0,1.2-3,29.56,29.56,0,0,1,.24-3c.47-2,2.09-3.81,2.64-5.9.51-1.93,1.66-3.85,2-5.81.13-.84-.13-1.61,0-2.4.14-1,1.19-1.87,1.26-2.83.06-.81-.29-1-.79-1C44.2,13.17,43.1,14.65,42.79,16.24Z"/><path class="cls-10" d="M27.15,53.28a5,5,0,0,0-.46.58s0,.91.06.7a9.68,9.68,0,0,1-.87,1.32c.06.09.12.18.17.27-.93.49-1.39.91-.71,1.83-1.13.25-.72.64-.62,1.5-.19,0-.47.22-.66.23a7.13,7.13,0,0,0,.29,1.56,2.55,2.55,0,0,0-1.68,0c.11.24.23.19.35.23l-.12.19c.91.06,1.87,1.48,2.5,2.1a8.64,8.64,0,0,0-1.17-1.94,1.7,1.7,0,0,0,.93.4c-.21-.25-.36-.55-.56-.81a2.64,2.64,0,0,0,1.13.33,4.26,4.26,0,0,1-.84-2.07c.73-.63,1.25-.37.85-1.47.2,0,.52,0,.71,0a4.08,4.08,0,0,0-.31-.7c.71,0,.49-.75.36-1.26a6.4,6.4,0,0,0,1.25-.85A3.39,3.39,0,0,1,27,53.54a3.42,3.42,0,0,0,.84-.35c0-.08-.13-.2-.17-.28.16,0,.36-.23.53-.28-.13-.41-.5-.6-.78-.94.64.06,1.24-1,1-1.48.25-.16.51-.48.73-.65C28.34,49.3,26.36,52.79,27.15,53.28Z"/><path class="cls-10" d="M40.35,16.39c.19,0,.52.2.71.21-.6.77-1.43.93-1.56,2,.94.39,0,1-.45,1.36.25.06.51.3.75.37-.26.28-.41.51-.65.47.56.62-.84,1.75-1.4,1.92.07.66.76.74,1.26,1a2.16,2.16,0,0,1-1.21.87c.27.52-.29,1-.83.93-.18.68.62,1.26.49,1.9-.1.45-1,1.21-1.28,1.73l-.51,1c-.21.43-.1.61-.24,1a4.35,4.35,0,0,1-1,1.74c.72.59-.81,1.27-1,1.9.23.08.46.38.69.46a13.75,13.75,0,0,0-1.29,2.21c.78.68-.66,2.11-.84,2.89.07.07.16.1.23.17a24.81,24.81,0,0,0-1.69,2.49c-.13.24-.37,0-.43.41s.45.3.47.52c.07.53.19,1.16-.59,1-.26.5.18,2.6-1,1.81.18.58.16,1.27.39,1.84l-.2.13a7.49,7.49,0,0,0,.38,1.22A3.35,3.35,0,0,0,30,48.19c.11.07.27.11.38.17a7.05,7.05,0,0,1,1.15-2.27c.5-.66,1.2-1.5-.08-2,.24-.22.54-.49.78-.74l-.13-.12a12.66,12.66,0,0,0,1.4-2.64c.08-.34-.1-.69.12-1.21.14-.35.47-.7.64-1.1-.47-.7.53-1.39.74-2.07.11-.35-.24-.51,0-1,.17-.34.76-.48,1-.81.6-1-.48-.67-.12-1.71.19-.56,1.48-1.06.65-1.89.4-.75,1.06-1.38,1.38-2.15-.17-.07-.34-.29-.51-.35A8,8,0,0,0,38.7,26a2.72,2.72,0,0,0-.37-.13c0-.06,0-.11,0-.17a8,8,0,0,0,.86-.3c-.4-.9,1.39-2,.28-2.65.31-.71,1-1.14,1.14-1.94.07-.32-.11-.6-.08-.92s.27-.55.3-.86-.38-.45-.33-.79.44-.57.6-.77c.45-.57,1-1,1.22-1.65-.13,0-.56-.08-.68-.06.73-1,1.41-2.15,2.2-3.08A11.77,11.77,0,0,0,40.35,16.39Z"/><path class="cls-11" d="M24.88,59.17a2.53,2.53,0,0,1-.37-.18c0,.64-.36,1-.46,1.57a1.26,1.26,0,0,0-.4,0,1.2,1.2,0,0,0,.07.54l-.1-.06a4.61,4.61,0,0,1,1,.84c-.12-.21-.18-.44-.28-.65.15.13.35.23.48.36-.13-.24-.17-.64-.29-.93,0-.1.18-.06.25-.1a2,2,0,0,1-.09-.54,3.47,3.47,0,0,1,.33.18,4,4,0,0,0-.26-.79c.11,0,.37-.08.52-.07-.05-.22.07-.61,0-.82.07,0,.21.11.28.13a.56.56,0,0,0-.2-.45A2.06,2.06,0,0,0,24.88,59.17Z"/><path class="cls-11" d="M27.05,52.69a.38.38,0,0,0,.36.15h0c-.19.14-.76.2-.79.48s.37.42.53.51a.91.91,0,0,0-.71.28.39.39,0,0,0,.37.23c-.13.12-.62.43-.14.48-.06.19-.47.51-.19.69l-.13.09c.14,0,.33-.1.4-.13H26.6a2.36,2.36,0,0,1,.7-.09,2.14,2.14,0,0,0-.42-.37l.4,0a.71.71,0,0,0-.22-.32c.13,0,.24-.06.35-.07a4.36,4.36,0,0,1-.22-.51c.11-.06.71-.31.73-.41,0-.26-.47-.34-.6-.5.21-.24.72-.21,1-.4-.19-.12-.47-.12-.62-.33A1.16,1.16,0,0,0,27.05,52.69Z"/><path class="cls-11" d="M27.42,52.84h0Z"/><path class="cls-11" d="M27.74,52.45s0,0,0,0Z"/><path class="cls-11" d="M27.68,52.45Z"/><path class="cls-11" d="M27.64,52.41l.08,0s0,0,0,0h0l.17,0A.78.78,0,0,0,27.64,52.41Z"/><path class="cls-11" d="M34.17,36.45a7.1,7.1,0,0,0-.9,1c.54.2,0,.41.08.72l.11,0c-.15.25-.25.48-.42.71s-.38.39-.45.68a.94.94,0,0,0,.34,0c-.23.21-1.29,1.11-.46,1.09-.18.36-.65.57-.84.95.12,0,.15.09.3.05a3,3,0,0,0-.8.87.54.54,0,0,0,.29-.06,11,11,0,0,0-1.33,1.56,5.09,5.09,0,0,1,.89-.26c-.3.28-.84.6-.84,1.09a3.09,3.09,0,0,1,.43,0c-.1.22-.88,1.06-.13.77a1.38,1.38,0,0,0-.49.41c-.23.4.11.15.13.45,0,.46-.85.61-.43,1.11a3.45,3.45,0,0,0-.57.41.28.28,0,0,0,.3,0l0,0c.23,0,.62,0,.83-.06-.67-.27.21-.33.36-.54a2.52,2.52,0,0,1-.33-.54,1.7,1.7,0,0,0,.86-.57,2.51,2.51,0,0,0-.56-.38c.16-.23.52-.13.66-.35l-.1-.12c.06,0,.14-.09.21-.11s-.22-.33-.2-.45.23-.08.23-.33-.28-.31-.28-.46.32-.33.39-.51c.17-.39-.07-.69.17-1.07s.65-.47.64-.89c.24-.08.5-.59.16-.72.38-.07,1.11-.68.4-.85.28-.51,1.35-.79.64-1.39a5.62,5.62,0,0,0,.91-1.15c-.39-.14-.24-.44-.15-.75l.12,0c-.07-.07-.07-.17-.2-.22.27-.3,1.48-1.13.9-1.52a9.66,9.66,0,0,0-1.61,1.46C33.69,36.58,33.93,36.36,34.17,36.45Z"/><path class="cls-11" d="M36.09,29.54c.09,0,.23.1.32.11-.2.37-.44.74-.66,1.1.48-.14.12.52-.12.63.36.27-.66,1.08-.84,1.32.18.08.37,0,.55,0a3.28,3.28,0,0,0-.51.71c.19,0,.36-.18.54-.11a1.28,1.28,0,0,1-.32.44.59.59,0,0,1,.23-.13c-.26.65-.91.88-1.36,1.34.32.07.86-.14,1.14,0h0l.17-.13a3.15,3.15,0,0,0,1-.78c-.15,0-.42.11-.51,0s.28-.62.36-.74-.49-.07-.52,0c.18-.35,1-.95.88-1.34-.33,0-.53.25-.83.32.36-.48,1-.84,1.25-1.44a1.35,1.35,0,0,0-.57.13,6.51,6.51,0,0,0,.6-.84c-.23,0-.42.25-.59.37.29-.6.88-1,1.16-1.56-.34,0-.59.35-.88.49.19-.35.54-.65.62-1l-.23.09C36.76,28.89,36.25,29.14,36.09,29.54Z"/><path class="cls-11" d="M35.05,33.79,34.8,34A1.44,1.44,0,0,0,35.05,33.79Z"/><path class="cls-11" d="M40,17.43l.12,0Z"/><path class="cls-11" d="M43.58,12.25a1.9,1.9,0,0,0-.77.72c-.34.47-.75,1-1.05,1.43a1.68,1.68,0,0,1,.47-.14c-.35.77-1.51,1.35-1.66,2.21.21,0,.42-.19.61-.13a2.86,2.86,0,0,1-1,1.05.37.37,0,0,1,.31,0c-.16.35-.54.57-.7.94.22.13.49.07.47.38s-.38.42-.5.58c.75.36.32,1.17-.4,1.32.78.15.28.47-.12.78.58.21-.55.66-.52,1,.2.18,0,.56-.11.76a.87.87,0,0,1,.28,0,1.36,1.36,0,0,1-.49.52,1.23,1.23,0,0,0,.38,0,2.15,2.15,0,0,1-.84,1.36.82.82,0,0,1,.49,0c-.16.38-.81.68-.84,1,.24-.1.54-.38.81-.4-.16.42-.69.56-1,.9a7.37,7.37,0,0,0-.85,1c.37-.16.75-.69,1.42-.9.33-.17.95,0,1.19-.36a3.09,3.09,0,0,1-.59-.32,4.05,4.05,0,0,1,.8-.68,1.14,1.14,0,0,0-.41-.21,3,3,0,0,0,.37-.56,1.53,1.53,0,0,1-.54.11c.22-.5.93-.82,1.08-1.31a3.86,3.86,0,0,0-1,0c.33-.5,1-.61,1.34-1a1.79,1.79,0,0,0-.82.07c.27-.16.52-.4.78-.57-.6.16.12-.7.22-.86-.33-.21-.1-.55.15-.7l-.13,0c.06-.07.08-.19.13-.26-.77-.09.35-1.36.46-1.58-.2-.05-.41.09-.59,0,.11-.55.76-.71,1-1.17a1.11,1.11,0,0,1-.41.14c.18-.46.74-.64.94-1.1-.09,0-.23,0-.33,0-.06-.31.52-.72.69-1a1.1,1.1,0,0,1-.47.29c-.19-.66,1.23-1.56,1.39-2.15-.1.05-.25,0-.31,0,.18-.36.57-.56.84-.86S44,12.08,43.58,12.25Z"/><path class="cls-4" d="M28.37,72.45c-.06.43.08,1.18,0,1.7-.06.77-1.14,2.29,0,3,.75.58,1.6-.32,2.54.75.44.5,1.87-.36,1.52-1.59a10.79,10.79,0,0,0-1.3-2.27c-.25-.39-.82-.5-1.07-1-.41-.72.31-1.63-.62-2C28.83,71.64,28.46,71.86,28.37,72.45Z"/><path class="cls-5" d="M30.22,73.3c-2,4.66-4.74,11.52-5.81,15a2.1,2.1,0,0,0,1.12.52c1.3-2.56,2.26-5.86,3.38-8.64.57-1.41,2.54-5.66,2.45-6.25A.84.84,0,0,0,30.22,73.3Z"/><path class="cls-6" d="M30.22,73.3c-.31.72-.63,1.49-1,2.29.52,2.14-.68,4.61-1.45,6.53-.83,2.09-1.6,4.62-3,6.45a2,2,0,0,0,.7.23c1.3-2.56,2.26-5.86,3.38-8.64.57-1.41,2.54-5.66,2.45-6.25A.84.84,0,0,0,30.22,73.3Z"/><path class="cls-7" d="M47.86,23.77a24.16,24.16,0,0,0-3,5.39c-.89,2.22-1,4.54-2.23,6.67s-1.15,4.45-2.29,6.56A23.34,23.34,0,0,0,38.42,46a13.37,13.37,0,0,0-.3,3c-.21,1.82-2.1,3.63-3,5.32a6.14,6.14,0,0,0-1.08,3,3.8,3.8,0,0,1-.58,3c-1.32,2.19-1.55,4.42-2.63,6.62a15,15,0,0,0-1.36,2.76c-.1.45-.06.94-.2,1.37s-1,.29-.9,1.36c1.19.35.48,1,.79,1.39.67.88,1.41.37,1.82.83.68.75.26,2.72,1.52,2.5A20.06,20.06,0,0,0,35,69.92a4.7,4.7,0,0,1,1.69-3.3,5.13,5.13,0,0,0,1.18-3.3c.26-2,1.79-3.45,2-5.37a12.55,12.55,0,0,1,.37-3.36c.51-1.23,1.83-1.75,2.38-2.9A20.41,20.41,0,0,0,43.21,49c.33-1.1.69-2.28,1.11-3.37a13.53,13.53,0,0,0,1.2-3,29.59,29.59,0,0,1,.25-3c.46-2,2.09-3.81,2.64-5.9.51-1.93,1.66-3.85,2-5.81.14-.84-.13-1.61,0-2.4.13-1,1.18-1.87,1.25-2.83C51.8,20.42,48.56,22.93,47.86,23.77Z"/><path class="cls-8" d="M49.91,22.17c-.76,3-1.87,6-2.69,8.94-1.52,5.44-2.77,10.85-5,16.08-1,2.4-2.08,4.76-3.18,7.1s-1.38,4.8-2.44,7.08c-2,4.24-3.7,8.42-5.24,12.85a4.15,4.15,0,0,1-.29.64c.49.85.23,2.52,1.39,2.31A20.06,20.06,0,0,0,35,69.92a4.7,4.7,0,0,1,1.69-3.3,5.13,5.13,0,0,0,1.18-3.3c.26-2,1.79-3.45,2-5.37a12.55,12.55,0,0,1,.37-3.36c.51-1.23,1.83-1.75,2.38-2.9A20.41,20.41,0,0,0,43.21,49c.33-1.1.69-2.28,1.11-3.37a13.53,13.53,0,0,0,1.2-3,29.59,29.59,0,0,1,.25-3c.46-2,2.09-3.81,2.64-5.9.51-1.93,1.66-3.85,2-5.81.14-.84-.13-1.61,0-2.4.13-1,1.18-1.87,1.25-2.83C51.72,21.53,50.85,21.65,49.91,22.17Z"/><path class="cls-9" d="M44.85,29.16c-.89,2.22-1,4.54-2.23,6.67s-1.15,4.45-2.29,6.56A23.34,23.34,0,0,0,38.42,46a13.37,13.37,0,0,0-.3,3c-.21,1.82-2.1,3.63-3,5.32a6.14,6.14,0,0,0-1.08,3,3.8,3.8,0,0,1-.58,3c-1.32,2.19-1.55,4.42-2.63,6.62a15,15,0,0,0-1.36,2.76,3.7,3.7,0,0,0-.07.57l.48-.14a5.19,5.19,0,0,1,.49-2,3.84,3.84,0,0,1,1.09-1.38,6.55,6.55,0,0,1,1-.67c.06-.12.1-.26.15-.39A4.81,4.81,0,0,1,34.34,61a12.15,12.15,0,0,1,.58-1.4c-1.11-3,.8-5.19,2.67-7.33,1.32-1.51,1.68-4.51,1.69-6.46,0-2.19,2.06-3.86,2.63-5.86.46-1.61.83-3.23,1.39-4.81A28.28,28.28,0,0,0,45,30.86a9.38,9.38,0,0,1,.75-2.37,5.13,5.13,0,0,1,.7-1.76,8.26,8.26,0,0,1,1.2-1.45c.06-.44.1-.88.13-1.34A25,25,0,0,0,44.85,29.16Z"/><path class="cls-9" d="M49.1,26.6c-.44,2.23-.43,4.43-1.27,6.57-.74,1.9-2.08,3.58-2.42,5.63-.67,4.06-2.41,11.49-5.57,14.31-1.65,1.47.31,3.26-1,4.93s-.95,1.08-1.19,3.11c-.43,3.54-3.73,5.65-4.19,9-.31,2.19-.53,4.78-1.72,6.74a.67.67,0,0,0,.77.32A20.06,20.06,0,0,0,35,69.92a4.7,4.7,0,0,1,1.69-3.3,5.13,5.13,0,0,0,1.18-3.3c.26-2,1.79-3.45,2-5.37a12.55,12.55,0,0,1,.37-3.36c.51-1.23,1.83-1.75,2.38-2.9A20.41,20.41,0,0,0,43.21,49c.33-1.1.69-2.28,1.11-3.37a13.53,13.53,0,0,0,1.2-3,29.59,29.59,0,0,1,.25-3c.46-2,2.09-3.81,2.64-5.9.51-1.93,1.66-3.85,2-5.81.14-.84-.13-1.61,0-2.4.13-1,1.18-1.87,1.25-2.83s-.29-1-.79-1C50.5,23.53,49.41,25,49.1,26.6Z"/><path class="cls-10" d="M33.45,63.64a6.42,6.42,0,0,0-.46.58s0,.91.06.7a9.93,9.93,0,0,1-.86,1.32c.05.09.11.18.17.27-.93.49-1.39.91-.72,1.84-1.12.24-.72.63-.61,1.49-.2,0-.48.22-.67.23a7.78,7.78,0,0,0,.29,1.56,2.61,2.61,0,0,0-1.68,0c.11.24.24.19.35.23l-.11.19c.9.06,1.86,1.48,2.5,2.1a9,9,0,0,0-1.17-1.94,1.71,1.71,0,0,0,.92.4c-.21-.25-.36-.55-.55-.81a2.77,2.77,0,0,0,1.12.34A4.44,4.44,0,0,1,31.19,70c.73-.64,1.25-.38.85-1.48.2,0,.52,0,.71,0a3.7,3.7,0,0,0-.31-.69c.72,0,.49-.75.36-1.26a7.51,7.51,0,0,0,1.26-.85c-.33-.58-.84-1.18-.76-1.88a3.34,3.34,0,0,0,.83-.35,2.09,2.09,0,0,0-.17-.28c.17-.05.36-.23.54-.28-.14-.41-.51-.6-.79-.94.65.06,1.24-1,1-1.48.24-.15.5-.48.72-.65C34.64,59.66,32.66,63.15,33.45,63.64Z"/><path class="cls-10" d="M46.65,26.75c.2,0,.52.2.71.21-.59.77-1.43.93-1.56,2.05.94.39,0,1-.45,1.36.25.06.51.3.76.37-.27.28-.41.51-.66.47.57.62-.84,1.75-1.4,1.92.08.67.77.74,1.26,1a2.14,2.14,0,0,1-1.2.87c.26.52-.3,1-.84.93-.18.68.62,1.26.49,1.9-.09.45-1,1.21-1.28,1.73-.06.13-.35.66-.51,1s-.09.61-.23,1a4.26,4.26,0,0,1-1,1.74c.72.59-.8,1.27-1,1.91.24.08.46.37.69.45a13,13,0,0,0-1.28,2.21c.78.68-.67,2.11-.85,2.89.07.07.16.1.24.17a23.34,23.34,0,0,0-1.7,2.49c-.12.24-.37,0-.43.41s.45.3.48.52c.06.53.18,1.16-.6,1-.26.5.18,2.6-1,1.81a18.81,18.81,0,0,0,.4,1.84l-.21.13a10.15,10.15,0,0,0,.38,1.22,3.45,3.45,0,0,0,.4-1.86c.1.07.26.11.37.17a7.48,7.48,0,0,1,1.15-2.27c.51-.66,1.2-1.5-.08-2,.24-.22.54-.49.79-.74l-.14-.12A12.25,12.25,0,0,0,39.78,51c.07-.34-.1-.69.11-1.21.15-.35.47-.7.64-1.1-.47-.7.54-1.39.74-2.07.11-.35-.23-.51,0-1,.17-.34.76-.48,1-.81.6-1-.48-.66-.12-1.71.2-.56,1.48-1.06.66-1.89.39-.75,1.05-1.38,1.37-2.15-.17-.07-.34-.29-.51-.35A8,8,0,0,0,45,36.36a2.32,2.32,0,0,0-.37-.13,1,1,0,0,0,0-.17,9,9,0,0,0,.87-.3c-.41-.9,1.39-2,.27-2.65.31-.71,1-1.14,1.14-1.94.07-.31-.1-.6-.07-.92s.27-.55.29-.86-.37-.45-.32-.79.43-.57.6-.77c.45-.57,1.05-1,1.21-1.65-.12,0-.55-.08-.68-.06.73-1,1.41-2.15,2.21-3.08A11.69,11.69,0,0,0,46.65,26.75Z"/><path class="cls-11" d="M31.19,69.53a3.26,3.26,0,0,1-.38-.18c.05.64-.35,1-.46,1.57A1.51,1.51,0,0,0,30,71a1.08,1.08,0,0,0,.06.54l-.09-.06a5.23,5.23,0,0,1,1,.84c-.13-.2-.18-.44-.29-.65.15.13.35.23.48.36a9.36,9.36,0,0,1-.28-.93c0-.09.17-.06.24-.1a3.2,3.2,0,0,1-.09-.54l.34.18a4,4,0,0,0-.26-.79c.1,0,.37-.08.51-.07-.05-.22.07-.61,0-.82.07,0,.22.11.28.13a.56.56,0,0,0-.2-.45A1.94,1.94,0,0,0,31.19,69.53Z"/><path class="cls-11" d="M33.35,63.05a.38.38,0,0,0,.37.15h0c-.2.14-.76.2-.8.48s.38.42.53.51a.93.93,0,0,0-.71.28.39.39,0,0,0,.37.23c-.13.12-.62.43-.14.48,0,.19-.47.51-.19.69a1,1,0,0,1-.13.09c.14,0,.33-.1.4-.13h-.14a2.61,2.61,0,0,1,.69-.09,1.89,1.89,0,0,0-.42-.37l.4,0a.71.71,0,0,0-.22-.32c.13,0,.25-.06.35-.07-.06-.19-.19-.32-.21-.51s.7-.3.72-.41c.06-.26-.47-.34-.59-.5.21-.24.72-.21,1-.4-.2-.12-.48-.12-.62-.33A1.28,1.28,0,0,0,33.35,63.05Z"/><path class="cls-11" d="M33.72,63.2Z"/><path class="cls-11" d="M34,62.81h0Z"/><path class="cls-11" d="M34,62.81h0Z"/><path class="cls-11" d="M33.94,62.78l.09,0h0l.17,0A.5.5,0,0,0,33.94,62.78Z"/><path class="cls-11" d="M40.47,46.81a7,7,0,0,0-.89,1c.53.21,0,.41.07.72l.11,0c-.15.25-.25.48-.41.71s-.39.39-.46.68a1,1,0,0,0,.35,0c-.24.21-1.3,1.11-.47,1.09-.18.36-.65.57-.83,1,.11,0,.14.09.29,0a3.29,3.29,0,0,0-.8.87.63.63,0,0,0,.29,0,11,11,0,0,0-1.33,1.55,6.52,6.52,0,0,1,.89-.26c-.3.28-.84.6-.83,1.1a2,2,0,0,1,.43,0c-.11.22-.88,1.06-.14.77a1.57,1.57,0,0,0-.48.41c-.23.4.1.15.12.46s-.84.6-.43,1.1a3.93,3.93,0,0,0-.57.41.28.28,0,0,0,.3,0l0,0a7.2,7.2,0,0,0,.83-.06c-.67-.27.22-.33.37-.54a2.22,2.22,0,0,1-.34-.54,1.7,1.7,0,0,0,.86-.57,2.69,2.69,0,0,0-.55-.38c.16-.23.51-.13.66-.35l-.11-.12c.06,0,.15-.09.21-.11s-.21-.33-.2-.45.23-.08.24-.33-.29-.31-.28-.46.31-.33.39-.51c.16-.39-.07-.69.16-1.06s.65-.48.64-.9c.24-.08.51-.59.16-.72.39-.07,1.11-.68.4-.85.29-.51,1.35-.79.65-1.39a6.4,6.4,0,0,0,.91-1.15c-.39-.14-.25-.44-.15-.75l.11,0c-.06-.07-.07-.17-.2-.22.28-.3,1.48-1.13.91-1.52a9.28,9.28,0,0,0-1.61,1.46C40,46.94,40.23,46.72,40.47,46.81Z"/><path class="cls-11" d="M42.39,39.91c.1,0,.23.09.32.1-.2.37-.43.74-.66,1.11.48-.15.12.51-.12.62.37.27-.65,1.08-.83,1.32.17.08.37,0,.54,0a3.66,3.66,0,0,0-.51.71c.19,0,.36-.18.54-.1a1.13,1.13,0,0,1-.32.43.7.7,0,0,1,.24-.13c-.27.65-.92.88-1.37,1.34.32.07.86-.14,1.14,0h0l.17-.12c.31-.22.82-.45,1-.79-.15,0-.42.11-.5,0s.27-.62.36-.74-.5-.07-.53,0c.18-.35,1-.94.89-1.34-.34,0-.54.25-.84.32.37-.48,1-.84,1.25-1.44a1.19,1.19,0,0,0-.56.14c.17-.31.47-.54.6-.85a1.68,1.68,0,0,0-.6.37c.3-.6.88-1,1.16-1.56-.34,0-.59.35-.87.49.18-.35.53-.64.61-1l-.23.09C43.07,39.25,42.55,39.5,42.39,39.91Z"/><path class="cls-11" d="M41.35,44.15l-.24.19Z"/><path class="cls-11" d="M46.31,27.79l.12,0Z"/><path class="cls-11" d="M49.88,22.61a2,2,0,0,0-.77.72c-.33.48-.74,1-1,1.44a1.38,1.38,0,0,1,.46-.15c-.35.77-1.5,1.35-1.66,2.21.21,0,.42-.19.61-.13a2.78,2.78,0,0,1-1,1.05.37.37,0,0,1,.31,0c-.16.35-.54.57-.7.94.23.13.49.07.47.38s-.38.42-.5.58c.75.36.32,1.17-.4,1.32.78.15.28.47-.11.78.58.22-.56.66-.52,1,.19.18,0,.56-.11.76a1.3,1.3,0,0,1,.28,0,1.38,1.38,0,0,1-.5.52,1.61,1.61,0,0,0,.38,0,2.13,2.13,0,0,1-.84,1.35.86.86,0,0,1,.5,0c-.16.38-.82.68-.85,1,.24-.1.54-.38.82-.4-.17.43-.7.56-1,.9a7.44,7.44,0,0,0-.85,1c.38-.17.75-.7,1.42-.91.33-.17,1,0,1.19-.36a3.23,3.23,0,0,1-.58-.31,4,4,0,0,1,.79-.69,1.4,1.4,0,0,0-.4-.21,3,3,0,0,0,.36-.56,1.53,1.53,0,0,1-.54.11c.22-.5.94-.82,1.08-1.31a3.44,3.44,0,0,0-1,0c.33-.51,1-.62,1.35-1a1.7,1.7,0,0,0-.83.08c.27-.17.52-.4.79-.58-.6.16.11-.7.22-.86-.33-.21-.11-.55.14-.7l-.13,0c.06-.07.08-.19.14-.26-.78-.09.34-1.36.46-1.58-.2-.05-.41.09-.6,0,.12-.55.77-.71,1-1.17a1.18,1.18,0,0,1-.41.14c.17-.46.73-.64.94-1.1-.1,0-.24,0-.34,0-.06-.31.52-.72.7-1a1.06,1.06,0,0,1-.47.29c-.2-.66,1.22-1.56,1.38-2.15-.1.05-.25,0-.31,0,.19-.36.57-.56.84-.86S50.32,22.44,49.88,22.61Z"/><path class="cls-4" d="M61.76,128.39c0,.42.29,1.14.34,1.66.09.76-.7,2.46.6,2.95.83.43,1.5-.6,2.62.28.53.41,1.78-.69,1.21-1.84a10.53,10.53,0,0,0-1.69-2c-.32-.34-.9-.34-1.22-.73-.53-.64,0-1.67-1-1.85C62.06,127.5,61.75,127.79,61.76,128.39Z"/><path class="cls-5" d="M63.73,128.89c-1.12,4.94-2.57,12.18-3,15.78a2.16,2.16,0,0,0,1.2.31c.82-2.75,1.16-6.17,1.76-9.11.3-1.49,1.47-6,1.28-6.59A.84.84,0,0,0,63.73,128.89Z"/><path class="cls-6" d="M63.73,128.89c-.17.76-.35,1.58-.53,2.43.89,2,.16,4.65-.25,6.68-.44,2.2-.74,4.83-1.75,6.88a2.3,2.3,0,0,0,.73.1c.82-2.75,1.16-6.17,1.76-9.11.3-1.49,1.47-6,1.28-6.59A.84.84,0,0,0,63.73,128.89Z"/><path class="cls-7" d="M72.12,77a23.78,23.78,0,0,0-2,5.84c-.48,2.35-.11,4.64-1,7s-.33,4.58-1.06,6.86a22.57,22.57,0,0,0-1.22,3.93,12.86,12.86,0,0,0,.25,3c.11,1.83-1.42,4-2,5.77a5.92,5.92,0,0,0-.52,3.12,3.78,3.78,0,0,1,0,3.09c-.9,2.39-.72,4.63-1.38,7a15,15,0,0,0-.84,3,12.61,12.61,0,0,1,0,1.37c-.07.49-.89.47-.63,1.51,1.23.12.65.87,1,1.22.82.74,1.45.1,1.94.48.8.62.75,2.64,1.94,2.19a19.92,19.92,0,0,0,1.17-7.58,4.74,4.74,0,0,1,1.07-3.56,5.13,5.13,0,0,0,.56-3.46c-.12-2,1.13-3.71,1-5.64a12.46,12.46,0,0,1-.24-3.38c.28-1.29,1.48-2,1.81-3.28a17.54,17.54,0,0,0,0-2.71c.13-1.14.27-2.36.49-3.51A14,14,0,0,0,73.24,96c0-1-.34-1.92-.3-3,.09-2.08,1.37-4.13,1.53-6.29.15-2,.93-4.08.9-6.07,0-.85-.41-1.56-.45-2.35,0-1,.83-2.06.72-3C75.38,73,72.65,76,72.12,77Z"/><path class="cls-8" d="M73.84,75c-.2,3.12-.75,6.27-1,9.28-.52,5.63-.77,11.18-2,16.72-.55,2.53-1.19,5-1.85,7.56s-.49,5-1.11,7.4c-1.16,4.53-2.12,9-2.83,13.58a3.67,3.67,0,0,1-.17.69c.64.74.68,2.43,1.78,2a19.92,19.92,0,0,0,1.17-7.58,4.74,4.74,0,0,1,1.07-3.56,5.13,5.13,0,0,0,.56-3.46c-.12-2,1.13-3.71,1-5.64a12.46,12.46,0,0,1-.24-3.38c.28-1.29,1.48-2,1.81-3.28a17.54,17.54,0,0,0,0-2.71c.13-1.14.27-2.36.49-3.51A14,14,0,0,0,73.24,96c0-1-.34-1.92-.3-3,.09-2.08,1.37-4.13,1.53-6.29.15-2,.93-4.08.9-6.07,0-.85-.41-1.56-.45-2.35,0-1,.83-2.06.72-3C75.5,74.07,74.67,74.36,73.84,75Z"/><path class="cls-9" d="M70.13,82.82c-.48,2.35-.11,4.64-1,7s-.33,4.58-1.06,6.86a22.57,22.57,0,0,0-1.22,3.93,12.86,12.86,0,0,0,.25,3c.11,1.83-1.42,4-2,5.77a5.92,5.92,0,0,0-.52,3.12,3.78,3.78,0,0,1,0,3.09c-.9,2.39-.72,4.63-1.38,7a15,15,0,0,0-.84,3,3.63,3.63,0,0,0,0,.57,3.17,3.17,0,0,1,.45-.23,5.31,5.31,0,0,1,.11-2.08,4,4,0,0,1,.82-1.55,7,7,0,0,1,.88-.84c0-.13,0-.27.08-.41a4.79,4.79,0,0,1,.83-5,11.18,11.18,0,0,1,.32-1.48c-1.63-2.74-.16-5.25,1.29-7.69,1-1.72.84-4.74.5-6.66C67.28,98,69,96,69.18,93.92c.16-1.66.24-3.33.5-5a29.75,29.75,0,0,0,.86-4.46,9.5,9.5,0,0,1,.3-2.47,5,5,0,0,1,.37-1.85,8.09,8.09,0,0,1,.92-1.65c0-.44-.06-.88-.11-1.34A24.86,24.86,0,0,0,70.13,82.82Z"/><path class="cls-9" d="M73.84,79.54c0,2.27.38,4.44,0,6.69-.39,2-1.41,3.89-1.37,6,.08,4.12-.29,11.75-2.88,15.09-1.35,1.75.89,3.15-.1,5s-.74,1.24-.61,3.27c.21,3.56-2.64,6.24-2.5,9.58.09,2.21.35,4.8-.47,6.93a.66.66,0,0,0,.81.18,19.92,19.92,0,0,0,1.17-7.58,4.74,4.74,0,0,1,1.07-3.56,5.13,5.13,0,0,0,.56-3.46c-.12-2,1.13-3.71,1-5.64a12.46,12.46,0,0,1-.24-3.38c.28-1.29,1.48-2,1.81-3.28a17.54,17.54,0,0,0,0-2.71c.13-1.14.27-2.36.49-3.51A14,14,0,0,0,73.24,96c0-1-.34-1.92-.3-3,.09-2.08,1.37-4.13,1.53-6.29.15-2,.93-4.08.9-6.07,0-.85-.41-1.56-.45-2.35,0-1,.83-2.06.72-3-.09-.8-.47-1-1-.8C74.67,76.27,73.86,77.92,73.84,79.54Z"/><path class="cls-10" d="M65.16,118.8a7.29,7.29,0,0,0-.35.66s.15.89.19.67a9.51,9.51,0,0,1-.61,1.45l.22.24c-.83.66-1.21,1.15-.38,1.94-1.06.44-.59.75-.33,1.58-.19,0-.43.3-.61.34a7.14,7.14,0,0,0,.57,1.49,2.59,2.59,0,0,0-1.66.27c.15.22.26.14.38.17l-.08.2c.9-.11,2.11,1.12,2.84,1.62a8.28,8.28,0,0,0-1.5-1.7,1.82,1.82,0,0,0,1,.23c-.26-.22-.46-.48-.7-.7a2.84,2.84,0,0,0,1.17.12,4.35,4.35,0,0,1-1.2-1.88c.6-.75,1.16-.59.57-1.61.2,0,.5-.12.7-.11a4.11,4.11,0,0,0-.43-.62c.71-.09.34-.83.12-1.31a6.78,6.78,0,0,0,1.08-1.06c-.42-.5-1-1-1.08-1.7a4.17,4.17,0,0,0,.76-.5c-.06-.08-.16-.17-.22-.25.15-.08.31-.28.47-.37-.2-.37-.6-.5-.94-.78a1.18,1.18,0,0,0,.7-1.63c.21-.2.41-.57.6-.78C65.61,114.67,64.29,118.47,65.16,118.8Z"/><path class="cls-10" d="M71.46,80.14c.19,0,.55.09.74.07-.45.86-1.24,1.17-1.16,2.29,1,.23.17,1-.2,1.43.26,0,.56.2.81.22-.21.33-.31.58-.56.58.67.51-.51,1.88-1,2.15.19.64.89.58,1.43.78a2.14,2.14,0,0,1-1,1.07c.35.47-.11,1-.65,1.07-.06.7.84,1.13.82,1.78,0,.46-.78,1.37-.94,1.93l-.32,1c-.14.46,0,.61-.05,1a4.33,4.33,0,0,1-.66,1.9c.81.44-.57,1.39-.66,2,.25,0,.52.29.77.32a13.81,13.81,0,0,0-.87,2.41c.9.53-.27,2.2-.31,3,.09.06.18.08.27.14a21.55,21.55,0,0,0-1.22,2.75c-.08.25-.36.08-.35.47s.5.22.56.43c.16.51.39,1.12-.39,1.12-.17.54.64,2.53-.63,2,.28.54.39,1.23.72,1.74l-.18.17a10.12,10.12,0,0,0,.59,1.13,3.45,3.45,0,0,0,.06-1.91c.11,0,.28.07.4.11a7.22,7.22,0,0,1,.72-2.45c.38-.73.9-1.69-.44-1.94.2-.26.44-.58.64-.87l-.16-.1a12,12,0,0,0,.91-2.84c0-.35-.23-.66-.11-1.21.08-.38.33-.78.43-1.2-.59-.61.28-1.47.36-2.17,0-.37-.33-.46-.16-1,.11-.37.66-.61.8-1,.41-1.07-.59-.56-.43-1.65.09-.59,1.27-1.31.3-2,.25-.81.79-1.55,1-2.36-.18,0-.39-.22-.57-.25a8,8,0,0,0,.9-2.51,2.44,2.44,0,0,0-.39-.06,1.11,1.11,0,0,0-.07-.16,8.06,8.06,0,0,0,.8-.45c-.56-.81,1-2.21-.21-2.65.18-.76.74-1.31.77-2.12,0-.33-.21-.57-.24-.89s.16-.59.14-.9-.46-.38-.47-.72.33-.63.45-.87c.34-.64.86-1.14.9-1.84-.12,0-.56,0-.68.07.53-1.13,1-2.37,1.61-3.43A11.8,11.8,0,0,0,71.46,80.14Z"/><path class="cls-11" d="M64,125c-.12,0-.28,0-.4-.1.16.62-.16,1.08-.17,1.62a1.72,1.72,0,0,0-.38.11,1.13,1.13,0,0,0,.16.52l-.1,0a5,5,0,0,1,1.1.65c-.16-.18-.25-.4-.39-.59.16.1.38.16.54.27a8.75,8.75,0,0,1-.46-.87c0-.09.16-.08.23-.14a2.42,2.42,0,0,1-.19-.51l.36.12a3.71,3.71,0,0,0-.39-.73c.1,0,.34-.15.49-.16-.09-.21,0-.62-.13-.81.06,0,.23.06.3.07a.58.58,0,0,0-.28-.41A2.09,2.09,0,0,0,64,125Z"/><path class="cls-11" d="M65,118.24a.37.37,0,0,0,.38.08h0c-.16.17-.71.34-.69.62s.44.34.61.4a.93.93,0,0,0-.65.41.4.4,0,0,0,.41.15c-.1.15-.54.54,0,.5,0,.2-.37.59-.07.71l-.11.12c.15,0,.31-.16.37-.2l-.14,0a2.61,2.61,0,0,1,.67-.21,1.64,1.64,0,0,0-.48-.28l.39-.11a.75.75,0,0,0-.28-.28c.14,0,.23-.1.34-.13-.1-.17-.25-.28-.31-.46.1-.08.64-.43.64-.54s-.52-.24-.67-.38c.16-.27.67-.33.89-.57-.22-.08-.5,0-.67-.21A1.15,1.15,0,0,0,65,118.24Z"/><path class="cls-11" d="M65.35,118.32h0Z"/><path class="cls-11" d="M65.59,117.87h0S65.6,117.88,65.59,117.87Z"/><path class="cls-11" d="M65.53,117.88h0A0,0,0,0,1,65.53,117.88Z"/><path class="cls-11" d="M65.49,117.86l.09,0h0s0,0,0,0h.15A.67.67,0,0,0,65.49,117.86Z"/><path class="cls-11" d="M69,101a7.71,7.71,0,0,0-.69,1.19c.56.11.09.41.2.7l.11,0c-.11.27-.16.52-.28.77a2,2,0,0,0-.33.75,1.06,1.06,0,0,0,.35,0c-.2.25-1.08,1.33-.26,1.15-.11.39-.54.68-.65,1.09.12,0,.16.06.3,0a3.19,3.19,0,0,0-.63,1,.67.67,0,0,0,.27-.11,11.13,11.13,0,0,0-1,1.77,5.82,5.82,0,0,1,.83-.41c-.25.32-.72.74-.63,1.22a2,2,0,0,1,.42-.09c-.06.23-.67,1.21,0,.78a1.46,1.46,0,0,0-.4.49c-.16.44.13.14.2.43s-.72.74-.22,1.16a3.85,3.85,0,0,0-.49.5.25.25,0,0,0,.3,0l0,0a6.85,6.85,0,0,0,.81-.2c-.72-.14.15-.36.26-.6a2.38,2.38,0,0,1-.43-.47,1.64,1.64,0,0,0,.74-.71,2.5,2.5,0,0,0-.62-.28c.12-.25.49-.22.59-.46,0,0-.07-.07-.12-.1s.12-.12.18-.14-.27-.29-.28-.41.22-.12.18-.37-.34-.25-.36-.4.25-.38.29-.57c.09-.41-.2-.67,0-1.08s.55-.59.46-1c.23-.12.4-.68,0-.75.37-.13,1-.86.24-.9.19-.55,1.19-1,.39-1.49a5.88,5.88,0,0,0,.68-1.29c-.41-.07-.32-.39-.28-.71l.1,0c-.07-.06-.09-.15-.23-.18.22-.35,1.25-1.38.62-1.66a9.15,9.15,0,0,0-1.32,1.72C68.57,101.19,68.77,100.93,69,101Z"/><path class="cls-11" d="M69.66,93.84c.09,0,.24,0,.33,0-.13.41-.29.81-.45,1.21.44-.22.21.49,0,.64.4.2-.45,1.17-.59,1.45.19,0,.36-.1.55-.06a3.21,3.21,0,0,0-.37.8c.18-.08.32-.24.51-.2a1.21,1.21,0,0,1-.24.48.87.87,0,0,1,.21-.17c-.15.69-.74,1-1.1,1.57.32,0,.82-.3,1.13-.17h0l.14-.15c.27-.28.72-.59.85-1-.15,0-.39.18-.5.06s.16-.66.22-.79-.49,0-.52.09c.12-.38.8-1.1.63-1.47-.32.06-.47.34-.76.46.28-.53.84-1,1-1.64a1.3,1.3,0,0,0-.53.23,6.63,6.63,0,0,0,.43-.94c-.22.08-.37.33-.51.48.18-.64.68-1.14.86-1.75-.35,0-.52.46-.78.64a4.5,4.5,0,0,0,.42-1.12l-.21.13C70.2,93.08,69.74,93.41,69.66,93.84Z"/><path class="cls-11" d="M69.4,98.2l-.21.23A1.51,1.51,0,0,0,69.4,98.2Z"/><path class="cls-11" d="M71.32,81.22l.11-.07A.41.41,0,0,0,71.32,81.22Z"/><path class="cls-11" d="M73.89,75.47a1.92,1.92,0,0,0-.63.85c-.24.53-.56,1.08-.76,1.6a1.49,1.49,0,0,1,.43-.23c-.21.83-1.24,1.61-1.23,2.47.19-.08.38-.26.57-.23a2.77,2.77,0,0,1-.84,1.22.42.42,0,0,1,.31,0c-.1.38-.43.66-.52,1.06.24.09.49,0,.53.29s-.3.48-.39.66c.81.22.53,1.09-.15,1.37.79,0,.36.41,0,.79.61.1-.43.74-.33,1.09.22.15.1.55,0,.77a1.66,1.66,0,0,1,.28-.05,1.35,1.35,0,0,1-.4.6,1.27,1.27,0,0,0,.38-.07,2.13,2.13,0,0,1-.59,1.48A.85.85,0,0,1,71.1,89c-.1.4-.68.81-.65,1.15.22-.15.46-.48.73-.54-.08.45-.58.67-.8,1.06a8,8,0,0,0-.65,1.17c.34-.22.62-.82,1.23-1.14.3-.23.93-.22,1.11-.57a2.91,2.91,0,0,1-.63-.21,4.59,4.59,0,0,1,.65-.82,1.13,1.13,0,0,0-.43-.13,3.29,3.29,0,0,0,.26-.61,1.55,1.55,0,0,1-.51.2c.13-.53.77-1,.82-1.48a3.69,3.69,0,0,0-.93.21c.23-.55.91-.79,1.13-1.26a1.56,1.56,0,0,0-.8.22c.23-.22.44-.49.67-.71-.56.27,0-.71.06-.89-.36-.14-.2-.52,0-.71l-.14,0c.05-.07,0-.2.09-.27-.78,0,.09-1.41.16-1.65-.2,0-.38.17-.58.13,0-.56.63-.83.76-1.33a1.2,1.2,0,0,1-.38.21c.09-.48.61-.76.72-1.25-.09,0-.23,0-.33.06-.11-.29.39-.8.51-1.11a1.15,1.15,0,0,1-.41.38c-.32-.62.92-1.76,1-2.37a1.62,1.62,0,0,1-.3.09,4.93,4.93,0,0,1,.67-1C74.35,75.43,74.29,75.22,73.89,75.47Z"/><path class="cls-4" d="M74.09,126.06c0,.42.33,1.12.41,1.64.12.76-.6,2.49.72,2.93.85.39,1.48-.67,2.63.16.54.39,1.75-.76,1.13-1.88A10.18,10.18,0,0,0,77.21,127c-.33-.33-.91-.3-1.25-.68-.56-.61-.06-1.67-1-1.81C74.35,125.16,74.05,125.46,74.09,126.06Z"/><path class="cls-5" d="M76.08,126.47c-.91,5-2.06,12.28-2.33,15.89a2.17,2.17,0,0,0,1.21.27c.7-2.79.9-6.22,1.37-9.18.24-1.5,1.21-6.09,1-6.64A.84.84,0,0,0,76.08,126.47Z"/><path class="cls-6" d="M76.08,126.47c-.14.77-.29,1.6-.43,2.45,1,2,.36,4.64,0,6.69-.35,2.22-.54,4.86-1.46,6.94a2,2,0,0,0,.73.08c.7-2.79.9-6.22,1.37-9.18.24-1.5,1.21-6.09,1-6.64A.84.84,0,0,0,76.08,126.47Z"/><path class="cls-7" d="M82.25,74.26a23.83,23.83,0,0,0-1.73,5.92c-.39,2.36.08,4.64-.7,7s-.13,4.59-.77,6.9a22.82,22.82,0,0,0-1,4,13.21,13.21,0,0,0,.37,3c.2,1.82-1.24,4-1.74,5.85a6.15,6.15,0,0,0-.39,3.14,3.8,3.8,0,0,1,.11,3.09c-.8,2.43-.52,4.66-1.08,7a14.49,14.49,0,0,0-.71,3c0,.46.14.93.1,1.38s-.87.5-.57,1.53c1.23.07.68.84,1.08,1.17.84.71,1.45,0,2,.4.83.59.87,2.6,2,2.11a20.13,20.13,0,0,0,.85-7.63,4.71,4.71,0,0,1,.91-3.6,5.16,5.16,0,0,0,.42-3.48c-.21-2,1-3.76.77-5.68a12.87,12.87,0,0,1-.38-3.37c.22-1.3,1.4-2.1,1.67-3.35a18.84,18.84,0,0,0-.06-2.71c.08-1.14.16-2.37.33-3.53a13.43,13.43,0,0,0,.51-3.19,27.92,27.92,0,0,1-.42-2.93c0-2.08,1.19-4.18,1.26-6.34.07-2,.76-4.12.65-6.11,0-.84-.49-1.54-.56-2.33-.09-1,.74-2.09.59-3C85.35,70.11,82.74,73.29,82.25,74.26Z"/><path class="cls-8" d="M83.89,72.24c-.06,3.12-.48,6.29-.63,9.31C83,87.2,83,92.75,82,98.34c-.45,2.55-1,5.09-1.53,7.63s-.28,5-.8,7.44c-1,4.57-1.73,9-2.24,13.69a5,5,0,0,1-.14.69c.66.72.78,2.41,1.86,2a20.13,20.13,0,0,0,.85-7.63,4.71,4.71,0,0,1,.91-3.6,5.16,5.16,0,0,0,.42-3.48c-.21-2,1-3.76.77-5.68a12.87,12.87,0,0,1-.38-3.37c.22-1.3,1.4-2.1,1.67-3.35a18.84,18.84,0,0,0-.06-2.71c.08-1.14.16-2.37.33-3.53a13.43,13.43,0,0,0,.51-3.19,27.92,27.92,0,0,1-.42-2.93c0-2.08,1.19-4.18,1.26-6.34.07-2,.76-4.12.65-6.11,0-.84-.49-1.54-.56-2.33-.09-1,.74-2.09.59-3C85.51,71.21,84.69,71.52,83.89,72.24Z"/><path class="cls-9" d="M80.52,80.18c-.39,2.36.08,4.64-.7,7s-.13,4.59-.77,6.9a22.82,22.82,0,0,0-1,4,13.21,13.21,0,0,0,.37,3c.2,1.82-1.24,4-1.74,5.85a6.15,6.15,0,0,0-.39,3.14,3.8,3.8,0,0,1,.11,3.09c-.8,2.43-.52,4.66-1.08,7a14.49,14.49,0,0,0-.71,3,3.64,3.64,0,0,0,0,.57,3.21,3.21,0,0,1,.45-.24,5.27,5.27,0,0,1,0-2.09,3.61,3.61,0,0,1,.75-1.58,6.4,6.4,0,0,1,.84-.88l.06-.41a4.81,4.81,0,0,1,.61-5A12.91,12.91,0,0,1,77.6,112c-1.75-2.67-.38-5.24,1-7.75,1-1.76.63-4.76.21-6.67-.47-2.14,1.15-4.21,1.26-6.3.09-1.67.09-3.33.29-5a29.77,29.77,0,0,0,.66-4.5,9.52,9.52,0,0,1,.2-2.47,5.06,5.06,0,0,1,.29-1.87,8.36,8.36,0,0,1,.85-1.69c0-.43-.1-.88-.17-1.33A24.78,24.78,0,0,0,80.52,80.18Z"/><path class="cls-9" d="M84.08,76.74c.08,2.27.57,4.42.24,6.69-.3,2-1.24,3.95-1.12,6,.26,4.11.21,11.75-2.24,15.2-1.27,1.8,1,3.11.12,5s-.69,1.26-.48,3.29c.37,3.55-2.37,6.34-2.08,9.68.19,2.2.55,4.77-.18,6.94a.67.67,0,0,0,.82.15,20.13,20.13,0,0,0,.85-7.63,4.71,4.71,0,0,1,.91-3.6,5.16,5.16,0,0,0,.42-3.48c-.21-2,1-3.76.77-5.68a12.87,12.87,0,0,1-.38-3.37c.22-1.3,1.4-2.1,1.67-3.35a18.84,18.84,0,0,0-.06-2.71c.08-1.14.16-2.37.33-3.53a13.43,13.43,0,0,0,.51-3.19,27.92,27.92,0,0,1-.42-2.93c0-2.08,1.19-4.18,1.26-6.34.07-2,.76-4.12.65-6.11,0-.84-.49-1.54-.56-2.33-.09-1,.74-2.09.59-3-.12-.8-.51-1-1-.76C84.77,73.44,84,75.13,84.08,76.74Z"/><path class="cls-10" d="M77.08,116.33c0,.12-.33.6-.32.67s.18.89.22.67a10.67,10.67,0,0,1-.56,1.48,2.5,2.5,0,0,1,.23.23c-.8.68-1.15,1.19-.29,1.94-1,.5-.56.78-.26,1.6-.19,0-.42.31-.6.37a7.4,7.4,0,0,0,.63,1.46,2.57,2.57,0,0,0-1.65.34c.16.21.27.13.39.15l-.06.21c.89-.15,2.14,1,2.9,1.49a8.63,8.63,0,0,0-1.57-1.63,1.7,1.7,0,0,0,1,.18c-.26-.2-.48-.45-.72-.66a2.77,2.77,0,0,0,1.17.07,4.23,4.23,0,0,1-1.28-1.83c.57-.78,1.14-.64.5-1.63.21,0,.5-.14.7-.14-.14-.14-.25-.44-.46-.6.71-.12.31-.84.07-1.31a7.14,7.14,0,0,0,1-1.11c-.44-.48-1.07-1-1.15-1.65a3.55,3.55,0,0,0,.73-.54,2.49,2.49,0,0,0-.23-.23c.15-.09.3-.3.46-.39-.22-.37-.62-.48-1-.74a1.19,1.19,0,0,0,.63-1.67c.2-.2.38-.58.56-.79C77.35,112.18,76.2,116,77.08,116.33Z"/><path class="cls-10" d="M81.73,77.44c.19,0,.56.07.74,0-.41.88-1.19,1.22-1.06,2.34,1,.18.22,1-.13,1.43.25,0,.56.18.81.19-.2.34-.29.59-.53.6.69.49-.43,1.9-.94,2.19.22.63.91.55,1.46.72a2.18,2.18,0,0,1-1,1.12c.37.44-.07,1-.61,1.09,0,.7.89,1.09.9,1.75,0,.45-.72,1.4-.86,2,0,.14-.2.72-.28,1.06s0,.61,0,1a4.46,4.46,0,0,1-.58,1.92c.83.41-.51,1.41-.57,2.08.25,0,.53.27.78.29a12.57,12.57,0,0,0-.76,2.44c.91.49-.18,2.21-.19,3,.09,0,.18.06.27.11a24.28,24.28,0,0,0-1.09,2.81c-.07.26-.36.09-.33.49s.5.19.58.4c.18.51.43,1.1-.35,1.14-.15.55.75,2.49-.55,2a17.73,17.73,0,0,0,.8,1.71l-.17.17a8.18,8.18,0,0,0,.64,1.11,3.45,3.45,0,0,0,0-1.91c.12.05.28.05.4.09a7.13,7.13,0,0,1,.62-2.48c.34-.75.83-1.72-.52-1.91.19-.27.41-.61.6-.9l-.16-.09a12.57,12.57,0,0,0,.78-2.88c0-.35-.25-.66-.16-1.21.07-.38.31-.79.39-1.22-.62-.58.21-1.47.26-2.18,0-.37-.35-.44-.2-1,.09-.37.63-.64.75-1,.37-1.09-.61-.54-.49-1.64.06-.58,1.2-1.36.21-2,.22-.82.72-1.59.87-2.41-.18,0-.4-.2-.58-.22a8.14,8.14,0,0,0,.8-2.54,2.73,2.73,0,0,0-.4,0,1.09,1.09,0,0,0-.08-.15c.26-.09.53-.37.78-.48-.59-.79.91-2.26-.32-2.65.15-.76.68-1.33.68-2.15,0-.32-.23-.56-.28-.88s.14-.6.1-.9-.47-.36-.49-.7.29-.65.41-.89c.31-.65.81-1.18.82-1.87-.12,0-.56,0-.67.09.48-1.15.89-2.41,1.46-3.5A11.84,11.84,0,0,0,81.73,77.44Z"/><path class="cls-11" d="M76.18,122.58c-.12,0-.28,0-.4-.09.18.61-.12,1.09-.11,1.63a1.78,1.78,0,0,0-.37.13,1.24,1.24,0,0,0,.18.51l-.1,0a4.65,4.65,0,0,1,1.13.6c-.17-.18-.27-.39-.42-.58.17.1.39.15.55.25-.18-.21-.31-.59-.49-.85,0-.09.16-.09.22-.15a2.21,2.21,0,0,1-.21-.5,2.24,2.24,0,0,1,.37.1,3.36,3.36,0,0,0-.43-.71c.1,0,.34-.17.49-.18-.11-.21-.07-.62-.17-.81.07,0,.23.06.31.07a.6.6,0,0,0-.3-.4A2.07,2.07,0,0,0,76.18,122.58Z"/><path class="cls-11" d="M76.85,115.78a.42.42,0,0,0,.39.07h0c-.16.17-.7.36-.67.64s.46.33.63.38a.89.89,0,0,0-.63.43.39.39,0,0,0,.41.14c-.09.15-.51.56,0,.5,0,.2-.34.6,0,.71a.69.69,0,0,1-.11.13.78.78,0,0,0,.37-.22l-.14,0a2.48,2.48,0,0,1,.66-.24,1.86,1.86,0,0,0-.5-.27l.39-.12a.73.73,0,0,0-.29-.26c.13,0,.23-.11.32-.15-.09-.17-.25-.27-.32-.45.1-.08.62-.45.62-.56s-.54-.22-.69-.35c.15-.28.65-.36.86-.61-.22-.08-.49,0-.67-.19A1.28,1.28,0,0,0,76.85,115.78Z"/><path class="cls-11" d="M77.24,115.85Z"/><path class="cls-11" d="M77.47,115.39h0Z"/><path class="cls-11" d="M77.41,115.4h0Z"/><path class="cls-11" d="M77.36,115.38h.07l.17,0A.65.65,0,0,0,77.36,115.38Z"/><path class="cls-11" d="M80.18,98.36a6.74,6.74,0,0,0-.64,1.22c.57.09.11.41.23.69l.11,0c-.1.28-.14.52-.26.79a2,2,0,0,0-.29.75.86.86,0,0,0,.35,0c-.19.26-1,1.37-.21,1.16-.1.39-.51.7-.61,1.11.12,0,.17.06.3,0a3.1,3.1,0,0,0-.58,1c.08,0,.17,0,.26-.12a11.93,11.93,0,0,0-.94,1.81,6.28,6.28,0,0,1,.81-.45c-.24.34-.69.77-.57,1.25a1.76,1.76,0,0,1,.41-.11c0,.24-.62,1.24,0,.78a1.58,1.58,0,0,0-.38.51c-.13.44.14.13.22.42s-.68.77-.17,1.17a3.3,3.3,0,0,0-.47.52.29.29,0,0,0,.31,0v0a6.75,6.75,0,0,0,.8-.24c-.72-.11.13-.37.23-.61a2.34,2.34,0,0,1-.44-.45,1.71,1.71,0,0,0,.71-.75,3,3,0,0,0-.63-.25c.1-.26.47-.23.56-.48a1.27,1.27,0,0,0-.12-.1s.12-.12.18-.15-.29-.27-.3-.39.21-.13.16-.37-.35-.24-.38-.39.23-.39.27-.59c.08-.41-.22-.66-.08-1.07s.53-.61.42-1c.22-.14.37-.7,0-.75.36-.15.94-.91.2-.91.17-.56,1.14-1.07.32-1.5a5.93,5.93,0,0,0,.63-1.32c-.41-.06-.33-.38-.31-.7l.1-.06c-.07-.05-.1-.14-.24-.17.2-.36,1.2-1.42.55-1.68a9.65,9.65,0,0,0-1.25,1.78C79.74,98.59,79.92,98.32,80.18,98.36Z"/><path class="cls-11" d="M80.51,91.2a3.31,3.31,0,0,1,.33,0c-.11.4-.25.82-.39,1.22.43-.25.23.48,0,.63.42.19-.4,1.2-.52,1.48.19,0,.35-.11.54-.08a3.57,3.57,0,0,0-.34.81c.18-.08.32-.26.51-.22a1.28,1.28,0,0,1-.22.49.86.86,0,0,1,.2-.18c-.12.69-.7,1.07-1,1.62.32,0,.8-.34,1.12-.22h0l.13-.16a3.36,3.36,0,0,0,.82-1c-.15,0-.39.2-.5.08s.13-.67.19-.8-.5,0-.52.11c.1-.38.75-1.13.57-1.5-.33.08-.47.37-.74.5.25-.54.79-1.05.89-1.68a1.27,1.27,0,0,0-.52.26,8.53,8.53,0,0,0,.4-1c-.22.08-.36.34-.5.49.16-.64.64-1.16.78-1.78-.34,0-.49.48-.74.67.1-.38.38-.74.37-1.13a.9.9,0,0,0-.2.14C81,90.42,80.58,90.77,80.51,91.2Z"/><path class="cls-11" d="M80.44,95.57l-.2.24A1.59,1.59,0,0,0,80.44,95.57Z"/><path class="cls-11" d="M81.63,78.52a.41.41,0,0,0,.11-.07Z"/><path class="cls-11" d="M84,72.67a2,2,0,0,0-.59.88c-.22.54-.51,1.1-.7,1.63a1.41,1.41,0,0,1,.42-.25c-.17.84-1.16,1.66-1.12,2.52.19-.09.36-.27.56-.26a2.7,2.7,0,0,1-.79,1.26.43.43,0,0,1,.31,0c-.08.38-.4.68-.47,1.08.25.08.49,0,.54.27s-.28.49-.36.67c.81.19.57,1.07-.1,1.38.8,0,.38.39.07.78.61.08-.4.77-.28,1.11.23.13.12.55.06.77a1.2,1.2,0,0,1,.27-.07,1.26,1.26,0,0,1-.36.62,1.33,1.33,0,0,0,.37-.09,2.18,2.18,0,0,1-.52,1.51.87.87,0,0,1,.47-.15c-.07.41-.64.84-.6,1.18.22-.15.45-.49.71-.57-.06.45-.55.7-.75,1.1a6.72,6.72,0,0,0-.6,1.2c.33-.25.58-.85,1.18-1.2.29-.24.92-.26,1.08-.62a3.07,3.07,0,0,1-.64-.18,4.55,4.55,0,0,1,.62-.84,1.16,1.16,0,0,0-.44-.12,2.75,2.75,0,0,0,.24-.62,1.56,1.56,0,0,1-.5.22c.1-.53.72-1,.75-1.51a4.18,4.18,0,0,0-.92.25c.21-.56.88-.83,1.08-1.31a1.67,1.67,0,0,0-.79.25c.22-.22.42-.5.64-.73-.55.29,0-.71,0-.89-.37-.13-.23-.52,0-.71,0,0-.11,0-.14,0s0-.2.07-.27c-.77.08,0-1.41.1-1.65-.2,0-.38.18-.58.15,0-.56.6-.86.71-1.36a1.25,1.25,0,0,1-.37.23c.07-.49.57-.79.67-1.28a2.17,2.17,0,0,0-.33.07c-.12-.29.35-.81.46-1.13a1,1,0,0,1-.4.39c-.34-.6.85-1.8.87-2.4a1.43,1.43,0,0,1-.29.1,4.53,4.53,0,0,1,.63-1C84.42,72.61,84.35,72.41,84,72.67Z"/><path class="cls-4" d="M85.8,112.07c0,.43.28,1.14.33,1.66.08.77-.73,2.45.57,3,.83.44,1.51-.59,2.62.3.52.41,1.78-.68,1.22-1.83a10.21,10.21,0,0,0-1.67-2c-.31-.34-.89-.34-1.22-.74-.52-.64,0-1.66-1-1.85C86.11,111.18,85.79,111.47,85.8,112.07Z"/><path class="cls-5" d="M87.77,112.58c-1.16,4.93-2.67,12.16-3.13,15.76a2.09,2.09,0,0,0,1.2.32c.83-2.75,1.21-6.16,1.83-9.1.31-1.48,1.51-6,1.33-6.57A.85.85,0,0,0,87.77,112.58Z"/><path class="cls-6" d="M87.77,112.58c-.18.76-.37,1.58-.56,2.43.88,2,.13,4.65-.3,6.68-.46,2.2-.78,4.82-1.8,6.86a2,2,0,0,0,.73.11c.83-2.75,1.21-6.16,1.83-9.1.31-1.48,1.51-6,1.33-6.57A.85.85,0,0,0,87.77,112.58Z"/><path class="cls-7" d="M96.56,60.75a24.23,24.23,0,0,0-2,5.82c-.5,2.34-.15,4.64-1,7s-.36,4.58-1.11,6.85a22.59,22.59,0,0,0-1.25,3.92,12.86,12.86,0,0,0,.22,3c.11,1.83-1.44,3.94-2,5.76a6,6,0,0,0-.55,3.11,3.79,3.79,0,0,1-.05,3.09c-.92,2.39-.76,4.63-1.44,7a14.56,14.56,0,0,0-.86,3c0,.46.1.93,0,1.38s-.89.45-.64,1.5c1.23.13.64.88,1,1.23.81.74,1.45.11,1.93.49.8.63.73,2.64,1.93,2.21a20.09,20.09,0,0,0,1.23-7.58A4.73,4.73,0,0,1,93,104.87a5.09,5.09,0,0,0,.59-3.45c-.1-2,1.17-3.7,1.07-5.63a12.46,12.46,0,0,1-.21-3.38c.28-1.3,1.5-2,1.83-3.27a20.35,20.35,0,0,0,.08-2.7c.13-1.14.28-2.37.51-3.51a13.59,13.59,0,0,0,.66-3.16c0-1-.32-1.92-.27-3,.11-2.08,1.4-4.12,1.58-6.27.17-2,1-4.08,1-6.07,0-.85-.4-1.56-.43-2.36,0-1,.84-2,.74-3C99.86,56.76,97.1,59.8,96.56,60.75Z"/><path class="cls-8" d="M98.3,58.81c-.22,3.12-.8,6.26-1.1,9.27-.56,5.63-.85,11.17-2.09,16.7-.58,2.53-1.23,5-1.91,7.55s-.53,5-1.17,7.39a138.66,138.66,0,0,0-2.94,13.56,4.51,4.51,0,0,1-.17.68c.62.75.65,2.44,1.76,2a20.09,20.09,0,0,0,1.23-7.58A4.73,4.73,0,0,1,93,104.87a5.09,5.09,0,0,0,.59-3.45c-.1-2,1.17-3.7,1.07-5.63a12.46,12.46,0,0,1-.21-3.38c.28-1.3,1.5-2,1.83-3.27a20.35,20.35,0,0,0,.08-2.7c.13-1.14.28-2.37.51-3.51a13.59,13.59,0,0,0,.66-3.16c0-1-.32-1.92-.27-3,.11-2.08,1.4-4.12,1.58-6.27.17-2,1-4.08,1-6.07,0-.85-.4-1.56-.43-2.36,0-1,.84-2,.74-3C100,57.87,99.14,58.14,98.3,58.81Z"/><path class="cls-9" d="M94.53,66.57c-.5,2.34-.15,4.64-1,7s-.36,4.58-1.11,6.85a22.59,22.59,0,0,0-1.25,3.92,12.86,12.86,0,0,0,.22,3c.11,1.83-1.44,3.94-2,5.76a6,6,0,0,0-.55,3.11,3.79,3.79,0,0,1-.05,3.09c-.92,2.39-.76,4.63-1.44,7a14.56,14.56,0,0,0-.86,3,5.43,5.43,0,0,0,0,.57,4.91,4.91,0,0,1,.46-.22,5.16,5.16,0,0,1,.13-2.08,3.79,3.79,0,0,1,.83-1.54,6.32,6.32,0,0,1,.88-.84l.09-.41a4.78,4.78,0,0,1,.86-5A12.93,12.93,0,0,1,90,98.23c-1.6-2.76-.11-5.26,1.36-7.69,1-1.71.87-4.73.55-6.65-.36-2.16,1.36-4.16,1.57-6.23.18-1.66.27-3.33.54-5a28.63,28.63,0,0,0,.89-4.46,10.29,10.29,0,0,1,.32-2.46,5.16,5.16,0,0,1,.39-1.85,8.17,8.17,0,0,1,.94-1.65c0-.44-.06-.88-.11-1.33A24.44,24.44,0,0,0,94.53,66.57Z"/><path class="cls-9" d="M98.27,63.32c0,2.27.34,4.44-.11,6.69-.4,2-1.43,3.88-1.41,6,0,4.12-.39,11.74-3,15.06-1.36,1.74.87,3.16-.14,5s-.75,1.23-.64,3.27c.2,3.56-2.68,6.21-2.57,9.55.08,2.21.31,4.8-.52,6.93a.67.67,0,0,0,.81.19,20.09,20.09,0,0,0,1.23-7.58A4.73,4.73,0,0,1,93,104.87a5.09,5.09,0,0,0,.59-3.45c-.1-2,1.17-3.7,1.07-5.63a12.46,12.46,0,0,1-.21-3.38c.28-1.3,1.5-2,1.83-3.27a20.35,20.35,0,0,0,.08-2.7c.13-1.14.28-2.37.51-3.51a13.59,13.59,0,0,0,.66-3.16c0-1-.32-1.92-.27-3,.11-2.08,1.4-4.12,1.58-6.27.17-2,1-4.08,1-6.07,0-.85-.4-1.56-.43-2.36,0-1,.84-2,.74-3-.08-.8-.46-1-.94-.81C99.12,60.05,98.3,61.7,98.27,63.32Z"/><path class="cls-10" d="M89.27,102.51c0,.11-.35.58-.35.65s.14.9.19.67a10.26,10.26,0,0,1-.63,1.45c.07.09.15.16.22.25-.84.64-1.22,1.13-.39,1.93-1.07.43-.6.75-.35,1.57-.19,0-.43.3-.61.34a7.66,7.66,0,0,0,.55,1.49,2.66,2.66,0,0,0-1.66.26c.15.22.27.15.38.17l-.07.2c.9-.09,2.09,1.14,2.82,1.65a8.33,8.33,0,0,0-1.49-1.72,1.75,1.75,0,0,0,1,.24c-.26-.21-.46-.48-.69-.7a2.63,2.63,0,0,0,1.16.13,4.4,4.4,0,0,1-1.18-1.89c.61-.75,1.17-.59.58-1.61.21,0,.5-.12.7-.1-.13-.15-.22-.46-.42-.63.71-.08.35-.82.13-1.3a6.8,6.8,0,0,0,1.09-1c-.42-.51-1-1-1.07-1.71a4.17,4.17,0,0,0,.76-.5c-.05-.07-.16-.17-.22-.25.16-.07.32-.28.48-.36-.2-.38-.6-.51-.93-.79.64-.05,1-1.16.71-1.63.21-.19.41-.57.6-.77C89.76,98.38,88.41,102.16,89.27,102.51Z"/><path class="cls-10" d="M95.88,63.89c.2,0,.56.1.74.09-.45.85-1.25,1.16-1.18,2.28,1,.23.17,1-.2,1.42.25,0,.55.21.8.23-.21.33-.32.57-.56.57.66.52-.53,1.88-1,2.15.19.63.88.59,1.42.79a2.1,2.1,0,0,1-1,1.06c.35.47-.12,1-.66,1.07-.06.69.83,1.13.81,1.78,0,.46-.79,1.37-1,1.93,0,.14-.23.71-.33,1s0,.61-.06,1a4.14,4.14,0,0,1-.67,1.89c.81.45-.58,1.39-.67,2.06.25,0,.52.28.76.32a13.44,13.44,0,0,0-.88,2.4c.89.54-.29,2.19-.34,3,.09.06.18.08.27.13a24,24,0,0,0-1.24,2.75c-.08.25-.36.07-.35.47s.49.22.55.43c.16.52.39,1.12-.4,1.12-.17.54.62,2.53-.64,2a18.77,18.77,0,0,0,.7,1.75l-.18.16a9.45,9.45,0,0,0,.59,1.14,3.51,3.51,0,0,0,.07-1.9c.11,0,.28.06.39.1a7.5,7.5,0,0,1,.74-2.44c.39-.73.92-1.68-.42-1.94l.65-.87-.16-.1a12.34,12.34,0,0,0,.93-2.83c0-.35-.22-.67-.1-1.22.09-.37.34-.77.45-1.19-.59-.61.28-1.46.36-2.17,0-.37-.32-.46-.15-1,.12-.36.67-.6.81-1,.42-1.07-.59-.56-.41-1.66.09-.58,1.27-1.3.31-2,.26-.81.8-1.55,1-2.36-.18,0-.39-.22-.57-.25a8.16,8.16,0,0,0,.93-2.5c-.15,0-.25-.06-.39-.07l-.07-.15c.25-.07.54-.34.8-.45-.55-.81,1-2.2-.19-2.65.18-.76.75-1.3.79-2.11,0-.33-.21-.58-.24-.9s.17-.59.15-.9-.45-.38-.46-.72.33-.63.46-.86c.34-.64.86-1.14.91-1.83-.12,0-.56,0-.68,0,.54-1.12,1-2.36,1.63-3.41A11.86,11.86,0,0,0,95.88,63.89Z"/><path class="cls-11" d="M88.07,108.7c-.12,0-.29-.06-.4-.11.15.62-.17,1.09-.19,1.62a1.72,1.72,0,0,0-.38.11,1.13,1.13,0,0,0,.16.52l-.1,0a5.29,5.29,0,0,1,1.1.66c-.16-.18-.26-.4-.4-.59.17.1.39.16.54.27-.17-.22-.28-.6-.44-.87,0-.1.16-.08.22-.14a2.28,2.28,0,0,1-.18-.52l.36.13A3.71,3.71,0,0,0,88,109c.1,0,.35-.15.49-.16-.09-.21,0-.62-.12-.81.06,0,.23.06.3.08a.58.58,0,0,0-.28-.42A2.06,2.06,0,0,0,88.07,108.7Z"/><path class="cls-11" d="M89.08,101.94a.38.38,0,0,0,.38.09h0c-.16.17-.71.33-.7.61s.44.35.61.41a.89.89,0,0,0-.65.4.38.38,0,0,0,.4.16c-.1.14-.53.53-.05.49,0,.21-.38.59-.07.72l-.11.12c.14,0,.31-.16.37-.2l-.14,0a2.61,2.61,0,0,1,.67-.21,1.92,1.92,0,0,0-.48-.29l.39-.1a.8.8,0,0,0-.27-.28.88.88,0,0,0,.33-.13c-.09-.17-.24-.28-.3-.46.1-.08.64-.43.64-.54s-.52-.24-.67-.38c.17-.27.67-.33.9-.56-.22-.09-.49,0-.67-.22A1.21,1.21,0,0,0,89.08,101.94Z"/><path class="cls-11" d="M89.47,102h0Z"/><path class="cls-11" d="M89.72,101.58h0S89.72,101.59,89.72,101.58Z"/><path class="cls-11" d="M89.65,101.6h0Z"/><path class="cls-11" d="M89.61,101.57l.09,0h0s0,0,0,0h.15A.67.67,0,0,0,89.61,101.57Z"/><path class="cls-11" d="M93.28,84.71a7.79,7.79,0,0,0-.71,1.19c.57.11.09.41.21.7l.1,0c-.11.28-.16.52-.29.78a1.9,1.9,0,0,0-.33.74.85.85,0,0,0,.35,0c-.2.25-1.09,1.32-.27,1.15-.12.39-.54.68-.66,1.08.12,0,.16.06.3,0a2.91,2.91,0,0,0-.64,1c.09,0,.18,0,.27-.1a11.42,11.42,0,0,0-1,1.76,5.34,5.34,0,0,1,.83-.41c-.25.32-.72.74-.63,1.22a1.84,1.84,0,0,1,.42-.09c-.07.23-.68,1.2,0,.78a1.49,1.49,0,0,0-.41.49c-.16.44.13.13.2.43s-.72.74-.23,1.16a3.85,3.85,0,0,0-.49.5.27.27,0,0,0,.3,0l0,0a6.23,6.23,0,0,0,.8-.2c-.7-.14.16-.35.27-.59-.13-.16-.34-.3-.42-.47A1.74,1.74,0,0,0,92,95a3.17,3.17,0,0,0-.62-.28c.12-.25.49-.21.59-.45l-.12-.11S92,94,92,94s-.26-.28-.27-.4.22-.12.18-.37-.34-.26-.36-.4.25-.38.3-.58c.09-.41-.19-.66,0-1.07s.56-.59.48-1c.22-.12.39-.68,0-.75.37-.13,1-.85.25-.89.19-.56,1.19-1,.39-1.49a5.94,5.94,0,0,0,.7-1.29c-.41-.07-.32-.39-.28-.71l.11,0c-.08-.06-.1-.15-.23-.19.21-.34,1.26-1.36.62-1.65a9.29,9.29,0,0,0-1.33,1.72C92.83,84.92,93,84.66,93.28,84.71Z"/><path class="cls-11" d="M94,77.58c.09,0,.24.06.33,0-.13.4-.3.81-.46,1.2.45-.22.21.49,0,.64.41.2-.45,1.17-.59,1.44.18,0,.36-.09.55,0a3.2,3.2,0,0,0-.38.79c.18-.08.32-.24.51-.2a1.21,1.21,0,0,1-.24.48,1.2,1.2,0,0,1,.21-.17c-.15.69-.75,1-1.11,1.56.32,0,.82-.29,1.13-.16h0l.15-.15c.27-.27.73-.58.86-1-.15,0-.39.18-.5.06s.16-.66.23-.79-.5,0-.52.09c.12-.38.8-1.1.64-1.47-.33,0-.48.34-.77.46.28-.54.85-1,1-1.64a1.36,1.36,0,0,0-.53.23,7.26,7.26,0,0,0,.44-.94c-.22.08-.37.33-.52.47.19-.63.7-1.13.87-1.73-.34,0-.51.44-.77.63a4.5,4.5,0,0,0,.42-1.12l-.21.13C94.52,76.82,94.06,77.15,94,77.58Z"/><path class="cls-11" d="M93.68,81.94l-.21.23Z"/><path class="cls-11" d="M95.73,65l.11-.07Z"/><path class="cls-11" d="M98.35,59.25a1.87,1.87,0,0,0-.63.85c-.25.52-.57,1.07-.78,1.59a1.49,1.49,0,0,1,.43-.23c-.21.83-1.25,1.6-1.25,2.46.2-.08.38-.25.58-.23a2.82,2.82,0,0,1-.86,1.22.38.38,0,0,1,.31,0c-.1.38-.43.66-.52,1.05.24.1.49,0,.52.3s-.3.48-.39.66c.8.22.52,1.09-.17,1.37.8,0,.36.41,0,.79.61.1-.44.74-.34,1.09.22.14.1.55,0,.77.08,0,.22,0,.27-.06a1.3,1.3,0,0,1-.4.6,1,1,0,0,0,.38-.07,2.08,2.08,0,0,1-.6,1.48.94.94,0,0,1,.49-.12c-.1.4-.69.81-.66,1.15.22-.15.47-.47.74-.53-.09.44-.59.66-.81,1a6.48,6.48,0,0,0-.66,1.17c.34-.23.62-.82,1.24-1.14.3-.22.93-.21,1.11-.56a3.11,3.11,0,0,1-.63-.21,4.65,4.65,0,0,1,.66-.82,1.33,1.33,0,0,0-.43-.13,3.33,3.33,0,0,0,.27-.61,1.59,1.59,0,0,1-.52.2c.13-.53.78-1,.83-1.48a3.79,3.79,0,0,0-.93.21c.24-.55.92-.79,1.14-1.26A1.72,1.72,0,0,0,96,70c.24-.22.44-.49.68-.71-.57.27,0-.7.07-.88-.37-.15-.2-.53,0-.72l-.14,0c.05-.07.05-.19.09-.27-.78,0,.1-1.4.18-1.64-.21,0-.39.16-.59.12,0-.56.64-.83.77-1.32a1.07,1.07,0,0,1-.37.21c.09-.49.61-.76.73-1.25-.09,0-.23,0-.33.06-.11-.3.39-.8.51-1.1a1.22,1.22,0,0,1-.41.37c-.31-.62.94-1.76,1-2.36a1,1,0,0,1-.3.08c.12-.38.47-.64.68-1S98.76,59,98.35,59.25Z"/><path class="cls-4" d="M92.21,127.84c0,.43.25,1.15.29,1.67.07.76-.77,2.44.51,3,.82.45,1.53-.56,2.62.34.51.43,1.79-.64,1.26-1.8A10.89,10.89,0,0,0,95.26,129c-.31-.34-.89-.36-1.21-.76-.51-.65.06-1.66-.92-1.87C92.53,127,92.21,127.24,92.21,127.84Z"/><path class="cls-5" d="M94.16,128.39c-1.25,4.91-2.9,12.11-3.42,15.69a2,2,0,0,0,1.19.35c.88-2.73,1.32-6.14,2-9.06.34-1.48,1.63-6,1.45-6.55A.84.84,0,0,0,94.16,128.39Z"/><path class="cls-6" d="M94.16,128.39l-.6,2.42c.84,2,0,4.65-.42,6.67-.51,2.19-.88,4.81-1.94,6.83a2.24,2.24,0,0,0,.73.12c.88-2.73,1.32-6.14,2-9.06.34-1.48,1.63-6,1.45-6.55A.84.84,0,0,0,94.16,128.39Z"/><path class="cls-7" d="M104,76.73a23.58,23.58,0,0,0-2.15,5.79c-.54,2.33-.24,4.63-1.18,6.94s-.45,4.57-1.24,6.83a23.41,23.41,0,0,0-1.33,3.88,13,13,0,0,0,.17,3c.07,1.83-1.52,3.91-2.15,5.72a6,6,0,0,0-.6,3.1,3.84,3.84,0,0,1-.11,3.09c-1,2.37-.85,4.61-1.57,7a14.45,14.45,0,0,0-.92,2.94c0,.46.08.93,0,1.38s-.9.44-.67,1.49c1.22.16.62.89,1,1.25.79.76,1.45.14,1.92.53.79.64.68,2.66,1.89,2.24a20,20,0,0,0,1.37-7.55,4.74,4.74,0,0,1,1.16-3.53,5.06,5.06,0,0,0,.66-3.43c-.06-2,1.23-3.69,1.17-5.62a12.47,12.47,0,0,1-.15-3.39c.31-1.28,1.54-2,1.9-3.22a19,19,0,0,0,.13-2.71c.16-1.13.32-2.35.57-3.5a12.89,12.89,0,0,0,.73-3.14,28.83,28.83,0,0,1-.21-3c.14-2.08,1.47-4.08,1.69-6.24.21-2,1-4.06,1.07-6,0-.84-.37-1.56-.39-2.36,0-1,.88-2,.8-3C107.32,72.81,104.5,75.8,104,76.73Z"/><path class="cls-8" d="M105.72,74.83c-.28,3.11-.92,6.24-1.28,9.25-.66,5.61-1.06,11.15-2.41,16.65-.62,2.52-1.32,5-2,7.51s-.63,5-1.32,7.37c-1.28,4.5-2.35,8.89-3.19,13.5a3.57,3.57,0,0,1-.19.68c.62.77.61,2.46,1.73,2.07a20,20,0,0,0,1.37-7.55,4.74,4.74,0,0,1,1.16-3.53,5.06,5.06,0,0,0,.66-3.43c-.06-2,1.23-3.69,1.17-5.62a12.47,12.47,0,0,1-.15-3.39c.31-1.28,1.54-2,1.9-3.22a19,19,0,0,0,.13-2.71c.16-1.13.32-2.35.57-3.5a12.89,12.89,0,0,0,.73-3.14,28.83,28.83,0,0,1-.21-3c.14-2.08,1.47-4.08,1.69-6.24.21-2,1-4.06,1.07-6,0-.84-.37-1.56-.39-2.36,0-1,.88-2,.8-3C107.41,73.92,106.57,74.17,105.72,74.83Z"/><path class="cls-9" d="M101.8,82.52c-.54,2.33-.24,4.63-1.18,6.94s-.45,4.57-1.24,6.83a23.41,23.41,0,0,0-1.33,3.88,13,13,0,0,0,.17,3c.07,1.83-1.52,3.91-2.15,5.72a6,6,0,0,0-.6,3.1,3.84,3.84,0,0,1-.11,3.09c-1,2.37-.85,4.61-1.57,7a14.45,14.45,0,0,0-.92,2.94,5.66,5.66,0,0,0,0,.58,3.22,3.22,0,0,1,.46-.21,5.37,5.37,0,0,1,.17-2.08,3.87,3.87,0,0,1,.86-1.53,6.29,6.29,0,0,1,.9-.82c0-.13.06-.27.09-.41a4.78,4.78,0,0,1,1-5,13.11,13.11,0,0,1,.36-1.47c-1.55-2.79,0-5.26,1.51-7.66,1.07-1.69,1-4.71.67-6.64-.32-2.17,1.44-4.13,1.69-6.2.21-1.66.33-3.32.64-5a29.56,29.56,0,0,0,1-4.44,9.73,9.73,0,0,1,.37-2.45,5.09,5.09,0,0,1,.42-1.85,8.09,8.09,0,0,1,1-1.62c0-.44,0-.89-.08-1.34A24.7,24.7,0,0,0,101.8,82.52Z"/><path class="cls-9" d="M105.6,79.34c-.09,2.27.26,4.44-.23,6.68-.44,2-1.51,3.86-1.53,5.94,0,4.11-.61,11.73-3.29,15-1.4,1.71.8,3.17-.24,5s-.77,1.22-.7,3.26c.12,3.56-2.81,6.16-2.75,9.5,0,2.21.22,4.81-.66,6.92a.66.66,0,0,0,.81.2,20,20,0,0,0,1.37-7.55,4.74,4.74,0,0,1,1.16-3.53,5.06,5.06,0,0,0,.66-3.43c-.06-2,1.23-3.69,1.17-5.62a12.47,12.47,0,0,1-.15-3.39c.31-1.28,1.54-2,1.9-3.22a19,19,0,0,0,.13-2.71c.16-1.13.32-2.35.57-3.5a12.89,12.89,0,0,0,.73-3.14,28.83,28.83,0,0,1-.21-3c.14-2.08,1.47-4.08,1.69-6.24.21-2,1-4.06,1.07-6,0-.84-.37-1.56-.39-2.36,0-1,.88-2,.8-3-.06-.8-.44-1-.93-.82C106.51,76.09,105.66,77.72,105.6,79.34Z"/><path class="cls-10" d="M95.86,118.35a5.48,5.48,0,0,0-.36.64s.12.9.17.68a9.74,9.74,0,0,1-.66,1.44l.22.24c-.85.63-1.24,1.12-.43,1.93-1.07.41-.61.73-.38,1.56-.18,0-.43.29-.62.34a7.81,7.81,0,0,0,.53,1.49,2.68,2.68,0,0,0-1.67.23c.15.23.27.15.38.18l-.08.2c.91-.08,2.07,1.18,2.8,1.69a9.18,9.18,0,0,0-1.46-1.74,1.67,1.67,0,0,0,1,.26c-.25-.22-.44-.49-.67-.72a2.67,2.67,0,0,0,1.16.16A4.34,4.34,0,0,1,94.62,125c.62-.73,1.18-.56.61-1.59.21,0,.51-.11.71-.09-.13-.15-.22-.46-.42-.63.71-.07.37-.82.16-1.3a7.34,7.34,0,0,0,1.11-1c-.41-.51-1-1-1-1.73a3.76,3.76,0,0,0,.77-.48c0-.07-.15-.17-.21-.25.16-.07.32-.28.48-.36-.19-.38-.59-.51-.92-.8a1.19,1.19,0,0,0,.75-1.62c.21-.19.42-.56.62-.75C96.42,114.23,95,118,95.86,118.35Z"/><path class="cls-10" d="M103.2,79.87c.2,0,.56.11.74.09-.47.85-1.27,1.14-1.22,2.26,1,.25.15,1-.24,1.42.26,0,.55.22.81.25-.22.32-.33.56-.58.56.65.53-.56,1.86-1.09,2.12.18.64.87.61,1.41.82a2.15,2.15,0,0,1-1.06,1c.34.47-.14,1-.68,1-.08.7.81,1.15.78,1.8,0,.46-.82,1.36-1,1.91,0,.14-.24.71-.35,1s0,.61-.08,1a4.25,4.25,0,0,1-.71,1.87c.8.47-.6,1.38-.71,2,.25,0,.51.3.76.35a13.08,13.08,0,0,0-.93,2.38c.88.55-.33,2.18-.39,3,.08.06.17.08.26.14a23.2,23.2,0,0,0-1.29,2.72c-.09.25-.37.07-.36.46s.49.24.55.45c.14.51.36,1.12-.43,1.11-.18.53.57,2.54-.68,1.93a18.9,18.9,0,0,0,.67,1.77l-.18.16a10,10,0,0,0,.56,1.14,3.42,3.42,0,0,0,.11-1.9c.11.06.28.07.39.12a7.45,7.45,0,0,1,.79-2.43c.4-.73,1-1.67-.39-1.95.21-.25.46-.57.67-.85l-.16-.11a11.81,11.81,0,0,0,1-2.82c0-.34-.2-.66-.07-1.21.09-.37.36-.76.47-1.19-.58-.62.31-1.45.41-2.15.05-.37-.32-.47-.13-1,.12-.36.67-.59.82-1,.44-1.06-.57-.58-.38-1.67.1-.58,1.3-1.27.35-2,.28-.8.83-1.53,1-2.33-.18,0-.38-.23-.56-.27a8,8,0,0,0,1-2.48,2.44,2.44,0,0,0-.39-.07l-.06-.16c.25-.07.55-.33.81-.43-.54-.83,1.06-2.18-.14-2.66.2-.75.77-1.28.83-2.09,0-.33-.2-.58-.22-.9s.18-.59.16-.9-.44-.39-.44-.73.34-.62.47-.85c.36-.63.89-1.13,1-1.82-.12,0-.56,0-.68,0,.56-1.11,1.06-2.34,1.7-3.39A11.78,11.78,0,0,0,103.2,79.87Z"/><path class="cls-11" d="M94.53,124.52c-.11,0-.28-.07-.39-.12.14.62-.19,1.08-.22,1.62-.18,0-.24.07-.38.1a1.13,1.13,0,0,0,.15.52l-.1,0a4.78,4.78,0,0,1,1.08.68c-.15-.19-.24-.41-.38-.6.17.1.38.17.53.28-.16-.22-.26-.61-.43-.88,0-.09.17-.08.23-.13a2.26,2.26,0,0,1-.17-.52l.36.13a4,4,0,0,0-.38-.74c.1,0,.35-.14.5-.15-.09-.21,0-.62-.11-.81.07,0,.23.07.3.08a.61.61,0,0,0-.27-.42A2.07,2.07,0,0,0,94.53,124.52Z"/><path class="cls-11" d="M95.67,117.78a.39.39,0,0,0,.39.09h0s0,0,0,0h0c-.17.17-.73.32-.71.6s.43.36.6.42a.9.9,0,0,0-.66.39.37.37,0,0,0,.4.16c-.11.15-.55.53-.06.5,0,.2-.39.58-.09.71l-.11.12c.14,0,.31-.15.37-.19l-.14,0a2.64,2.64,0,0,1,.68-.19,1.69,1.69,0,0,0-.48-.3l.39-.09a.66.66,0,0,0-.26-.29c.13,0,.23-.09.33-.12-.08-.18-.23-.29-.29-.47.1-.07.65-.41.66-.52,0-.26-.52-.26-.67-.4.17-.27.68-.31.91-.54-.22-.1-.49-.05-.67-.24A1.29,1.29,0,0,0,95.67,117.78Z"/><path class="cls-11" d="M96.06,117.87h0S96.08,117.87,96.06,117.87Z"/><path class="cls-11" d="M96.32,117.43h0S96.33,117.44,96.32,117.43Z"/><path class="cls-11" d="M96.26,117.44Z"/><path class="cls-11" d="M96.21,117.42l.09,0h0s0,0,0,0h.15A.66.66,0,0,0,96.21,117.42Z"/><path class="cls-11" d="M100.2,100.63a7.74,7.74,0,0,0-.72,1.18c.56.12.08.41.19.7l.1,0c-.12.28-.17.52-.3.77a1.94,1.94,0,0,0-.35.74.85.85,0,0,0,.35,0c-.2.26-1.11,1.31-.29,1.15-.12.39-.56.67-.68,1.07.12,0,.16.07.3,0a3.19,3.19,0,0,0-.66,1,.68.68,0,0,0,.28-.1,11.14,11.14,0,0,0-1.07,1.74,7.18,7.18,0,0,1,.84-.39c-.26.32-.74.72-.66,1.21a1.49,1.49,0,0,1,.42-.08c-.07.23-.7,1.19,0,.78a1.49,1.49,0,0,0-.42.48c-.16.43.13.14.19.43s-.73.73-.25,1.16a3.31,3.31,0,0,0-.5.49.27.27,0,0,0,.3,0l0,0a6.4,6.4,0,0,0,.81-.19c-.71-.16.16-.35.28-.59a2.63,2.63,0,0,1-.42-.47,1.74,1.74,0,0,0,.77-.7,3.14,3.14,0,0,0-.61-.3c.12-.25.49-.2.59-.44a1.14,1.14,0,0,1-.11-.11s.12-.11.18-.13-.26-.29-.27-.42.22-.11.19-.36-.33-.26-.35-.41.26-.37.31-.57c.1-.4-.18-.67,0-1.07s.56-.58.49-1c.22-.12.41-.67,0-.75.38-.12,1-.84.27-.89.2-.55,1.21-1,.42-1.48a5.69,5.69,0,0,0,.72-1.27c-.4-.09-.31-.4-.26-.72l.11,0c-.08,0-.09-.15-.23-.19.22-.34,1.29-1.34.66-1.64a9.65,9.65,0,0,0-1.37,1.69C99.75,100.83,100,100.58,100.2,100.63Z"/><path class="cls-11" d="M101,93.52c.09,0,.24,0,.33,0-.14.4-.31.8-.48,1.19.45-.21.2.5,0,.64.4.21-.48,1.17-.62,1.43.18,0,.36-.08.54,0a3.87,3.87,0,0,0-.39.79c.18-.07.33-.24.52-.19a1.23,1.23,0,0,1-.25.48.87.87,0,0,1,.21-.17c-.17.69-.77,1-1.14,1.54.32,0,.82-.27,1.13-.13h0L101,99c.28-.26.75-.57.89-.92-.16,0-.4.16-.51,0s.18-.66.24-.79-.49,0-.52.08c.13-.37.83-1.08.67-1.46-.33,0-.48.34-.77.45.29-.53.86-1,1-1.61a1.17,1.17,0,0,0-.54.21,6.17,6.17,0,0,0,.46-.93c-.22.08-.38.32-.53.46.2-.63.72-1.11.91-1.72-.34,0-.53.44-.79.62a4.39,4.39,0,0,0,.45-1.11l-.21.13C101.6,92.77,101.13,93.09,101,93.52Z"/><path class="cls-11" d="M100.66,97.87c-.08.07-.14.15-.22.22A1.52,1.52,0,0,0,100.66,97.87Z"/><path class="cls-11" d="M103,80.94a.67.67,0,0,0,.12-.06Z"/><path class="cls-11" d="M105.76,75.27a1.89,1.89,0,0,0-.65.84c-.26.51-.59,1-.81,1.57a1.19,1.19,0,0,1,.44-.21c-.23.81-1.28,1.57-1.3,2.43.2-.08.38-.25.58-.22a2.81,2.81,0,0,1-.87,1.2.35.35,0,0,1,.3,0c-.1.38-.44.65-.54,1,.24.1.49,0,.52.31s-.31.47-.41.65c.8.24.5,1.1-.19,1.36.8,0,.35.42,0,.79.61.12-.45.73-.35,1.09.21.15.08.55,0,.77.09-.05.23,0,.28-.05a1.22,1.22,0,0,1-.41.59,1.26,1.26,0,0,0,.38-.06,2.12,2.12,0,0,1-.62,1.46.87.87,0,0,1,.48-.11c-.1.4-.7.8-.68,1.14.23-.14.48-.46.75-.52-.1.44-.6.66-.83,1a7.54,7.54,0,0,0-.68,1.15c.35-.22.64-.8,1.26-1.11.31-.22.93-.19,1.12-.54a3.52,3.52,0,0,1-.62-.22,4,4,0,0,1,.68-.8,1.3,1.3,0,0,0-.43-.15,3.24,3.24,0,0,0,.27-.6,1.72,1.72,0,0,1-.52.19c.15-.53.8-1,.86-1.46a3.35,3.35,0,0,0-.93.19c.24-.55.93-.77,1.16-1.24a1.69,1.69,0,0,0-.8.2c.24-.21.45-.48.68-.69-.56.25,0-.71.09-.89-.36-.15-.19-.53,0-.71l-.14,0c.05-.07.05-.2.09-.27-.77,0,.14-1.4.22-1.64-.21,0-.39.16-.59.11,0-.56.65-.81.79-1.3a1.16,1.16,0,0,1-.38.2c.1-.49.63-.75.76-1.24-.09,0-.23,0-.33,0-.11-.29.4-.78.53-1.09a1.07,1.07,0,0,1-.42.37c-.3-.63,1-1.74,1-2.35-.1.07-.24.06-.3.09a5,5,0,0,1,.69-1C106.22,75.24,106.17,75,105.76,75.27Z"/></g></g></svg>