<svg xmlns="http://www.w3.org/2000/svg" viewBox="0 0 117.79 154.21"><defs><style>.cls-1{fill:#92aa04;}.cls-2{fill:#fff;}.cls-3{fill:#818e02;}.cls-4{fill:#ffe9e6;opacity:0.52;}.cls-5{fill:#0a9389;}.cls-10,.cls-6{fill:#036d63;}.cls-7{fill:#1cb5aa;}.cls-8{fill:#2cc6b3;}.cls-9{fill:#20a59e;}.cls-10{opacity:0.29;}.cls-11{fill:#6ce5d3;}.cls-12{fill:#ffe33e;}.cls-13{fill:#fc9f24;opacity:0.37;}.cls-14{fill:#fcf5d0;opacity:0.58;}.cls-15{fill:#7fa1e5;}.cls-16,.cls-17,.cls-18{fill:#4469bc;}.cls-16,.cls-24{opacity:0.35;}.cls-17{opacity:0.48;}.cls-18,.cls-23{opacity:0.64;}.cls-19{fill:#454e93;}.cls-20{fill:#abc5ef;}.cls-21{fill:#586ba8;opacity:0.69;}.cls-22{fill:#2f3e58;}.cls-23{fill:#173c72;}.cls-24{fill:#7aaadd;}</style></defs><title>Zasób 46</title><g id="Warstwa_2" data-name="Warstwa 2"><g id="Layer_1" data-name="Layer 1"><rect class="cls-1" width="117.79" height="154.21" rx="12.95"/><rect class="cls-2" x="5.37" y="5.63" width="107.05" height="142.95" rx="10.36"/><path class="cls-3" d="M12.73,126.64l5.16.07a42.83,42.83,0,0,0,5.87-.29,2.46,2.46,0,0,1,.27,1.17,1.58,1.58,0,0,1-.59,1.19,2,2,0,0,1-1.42.52L19.21,129c0,.11,0,.62-.12,1.51a63.86,63.86,0,0,0-.34,6.63,43.93,43.93,0,0,0,.51,6.66,5,5,0,0,1-1.69.29,2.31,2.31,0,0,1-1.51-.5,1.8,1.8,0,0,1-.64-1.52c0-.67.08-1.87.24-3.58s.25-3.38.25-5a37.77,37.77,0,0,0-.25-4.54,14.37,14.37,0,0,0-4.62.83,2.66,2.66,0,0,1-.29-1.26,1.82,1.82,0,0,1,.56-1.29A1.86,1.86,0,0,1,12.73,126.64Z"/><path class="cls-3" d="M29.46,143.79a4.79,4.79,0,0,1-1.66.29,2.27,2.27,0,0,1-1.53-.56,2,2,0,0,1-.65-1.54c0-.65.08-1.91.24-3.76s.25-3.33.25-4.44A35.54,35.54,0,0,0,25.6,127a4.79,4.79,0,0,1,1.66-.29,2.27,2.27,0,0,1,1.53.56,1.79,1.79,0,0,1,.65,1.39c0,.54,0,1.07-.07,1.57s-.09,1.09-.15,1.74-.12,1.22-.15,1.71c.65.07,1.78.1,3.38.1a26.64,26.64,0,0,0,3.69-.19,38.52,38.52,0,0,0-.51-6.73,4.57,4.57,0,0,1,1.66-.3,2.23,2.23,0,0,1,1.53.57,1.94,1.94,0,0,1,.65,1.55c0,.66-.08,1.83-.25,3.51s-.24,3-.24,4a46.6,46.6,0,0,0,.51,7.71,4.79,4.79,0,0,1-1.66.29,2.27,2.27,0,0,1-1.53-.56,1.91,1.91,0,0,1-.65-1.5c0-.62.07-1.63.2-3s.21-2.36.24-2.89q-2.4-.17-7.14-.17v.64A40,40,0,0,0,29.46,143.79Z"/><path class="cls-3" d="M50.18,135.76A15.08,15.08,0,0,0,53,139.82a8.31,8.31,0,0,0,3.35,2.26,2.22,2.22,0,0,1-.54,1.59,2,2,0,0,1-1.54.56,4.58,4.58,0,0,1-3-1.68,16.91,16.91,0,0,1-2.89-4,11.91,11.91,0,0,1-1.46-4,4.4,4.4,0,0,0,2.9-.94A3.27,3.27,0,0,0,51,130.94c0-1.46-.92-2.2-2.74-2.2a9.7,9.7,0,0,0-2.16.3c-.11,2.2-.17,4-.17,5.33a59.48,59.48,0,0,0,.52,9.42,4.89,4.89,0,0,1-1.67.29,2.29,2.29,0,0,1-1.53-.56,1.89,1.89,0,0,1-.65-1.49c0-.62.08-1.7.25-3.25s.25-2.77.25-3.7a42.13,42.13,0,0,0-.62-7.61,24,24,0,0,1,6.29-.91c3.64,0,5.45,1.3,5.45,3.89A5.12,5.12,0,0,1,53,133.67,6,6,0,0,1,50.18,135.76Z"/><path class="cls-3" d="M69.07,140.71a3.7,3.7,0,0,1,.29,1.49,2,2,0,0,1-.57,1.43,1.9,1.9,0,0,1-1.41.6q-2.59,0-8.12-.29a1.4,1.4,0,0,1-.78-.29.77.77,0,0,1-.35-.65c0-.86.07-2.32.21-4.37s.21-4,.21-5.77a43,43,0,0,0-.51-6.15c1.2.1,2.83.15,4.86.15a37.94,37.94,0,0,0,5.85-.44A2.58,2.58,0,0,1,69,127.7a1.81,1.81,0,0,1-.57,1.32,1.91,1.91,0,0,1-1.42.58,21.89,21.89,0,0,1-2.69-.25,23.48,23.48,0,0,0-2.73-.24c-.13,1.65-.2,3.2-.22,4.65,1,.1,2.13.14,3.32.14a8.13,8.13,0,0,0,3-.51,2.6,2.6,0,0,1,.3,1.28,1.92,1.92,0,0,1-.58,1.35,1.83,1.83,0,0,1-1.37.6,13,13,0,0,1-2.36-.31,13.68,13.68,0,0,0-2.37-.3c0,2.58,0,4.47.17,5.67.78.07,1.39.1,1.83.1A14.11,14.11,0,0,0,69.07,140.71Z"/><path class="cls-3" d="M82.6,140.71a3.54,3.54,0,0,1,.29,1.49,2,2,0,0,1-.57,1.43,1.88,1.88,0,0,1-1.41.6q-2.59,0-8.12-.29a1.46,1.46,0,0,1-.79-.29.79.79,0,0,1-.34-.65c0-.86.07-2.32.21-4.37s.21-4,.21-5.77a41.73,41.73,0,0,0-.52-6.15c1.21.1,2.84.15,4.87.15a37.94,37.94,0,0,0,5.85-.44,2.58,2.58,0,0,1,.29,1.28A1.81,1.81,0,0,1,82,129a1.91,1.91,0,0,1-1.42.58,21.89,21.89,0,0,1-2.69-.25,23.48,23.48,0,0,0-2.73-.24c-.13,1.65-.2,3.2-.22,4.65,1,.1,2.13.14,3.32.14a8.16,8.16,0,0,0,3-.51,2.6,2.6,0,0,1,.29,1.28A1.91,1.91,0,0,1,81,136a1.83,1.83,0,0,1-1.37.6,13,13,0,0,1-2.36-.31,13.68,13.68,0,0,0-2.37-.3c0,2.58,0,4.47.17,5.67.78.07,1.39.1,1.83.1A14.11,14.11,0,0,0,82.6,140.71Z"/><path class="cls-3" d="M16.14,18.88a4.62,4.62,0,0,1-1,.15,3.22,3.22,0,0,1-2.11-.7,2.3,2.3,0,0,1-.86-1.89,4.34,4.34,0,0,1,2.13-3.73A8.23,8.23,0,0,1,19,11.27a6.93,6.93,0,0,1,4.28,1.27A4.33,4.33,0,0,1,25,16.22a5.37,5.37,0,0,1-2.51,4.57A4.87,4.87,0,0,1,25,22.51a4.47,4.47,0,0,1,.89,2.78,6.12,6.12,0,0,1-2.59,5.12,9.88,9.88,0,0,1-6.1,1.95,8.46,8.46,0,0,1-4.17-1,3.15,3.15,0,0,1-1.75-2.91,2.56,2.56,0,0,1,.85-2,3.08,3.08,0,0,1,2.13-.75,4.58,4.58,0,0,1,1.22.15,3.55,3.55,0,0,0-.22,1.19,2,2,0,0,0,.84,1.74,3.83,3.83,0,0,0,2.3.61,3.19,3.19,0,0,0,3.33-3.35,3.13,3.13,0,0,0-.81-2.31,2.93,2.93,0,0,0-2.16-.82,2,2,0,0,1-1.23-.39,1.16,1.16,0,0,1-.52-1,3.51,3.51,0,0,1,.15-1,6.24,6.24,0,0,0,1.13.1,2.4,2.4,0,0,0,2.13-1,4.09,4.09,0,0,0,.69-2.38A3.36,3.36,0,0,0,20.43,15a2.32,2.32,0,0,0-1.88-.82,3.16,3.16,0,0,0-2,.62A4.4,4.4,0,0,0,16,17,7.85,7.85,0,0,0,16.14,18.88Z"/><path class="cls-4" d="M49.88,21.56Z"/><path class="cls-5" d="M96.68,40c0-2.6-10-4.71-22.31-4.71S52.06,37.38,52.06,40s10,4.71,22.31,4.71S96.68,42.58,96.68,40Z"/><path class="cls-6" d="M66,43.52c5,.69,10.19.27,15.23-.11a62.61,62.61,0,0,0,7.52-1c1.62-.33,3.39-1,5.09-1a7.1,7.1,0,0,1,1.52.19c.84-.5,1.3-1,1.3-1.59,0-2.6-10-4.71-22.31-4.71S52.06,37.38,52.06,40a1.07,1.07,0,0,0,.17.56l.34,0C55.72,41.1,58.52,42.49,66,43.52Z"/><path class="cls-7" d="M42.88,22.41c-.47,11.22,5.74,14.38,9.18,16.78,2.18,1.52,10,3.92,22.28,3.92h0c12.3,0,20.1-2.4,22.28-3.92,3.45-2.4,9.65-5.56,9.19-16.78a1.07,1.07,0,0,0-.55-.74c-.41,1.56-2.25,2.75-4.12,3.74-6.25,3.33-15,3.35-22.49,3.74a87.82,87.82,0,0,1-25.46-1.73c-3.51-.8-10.35-3.16-9.47-5.94C43.21,21.76,42.89,22.07,42.88,22.41Z"/><path class="cls-8" d="M78,36.19c6-.95,12.38-3.19,15.55-7.09.36-.43.71-.9,1-1.4-5.09,1.09-10.78,1.18-15.88,1.45a87.82,87.82,0,0,1-25.46-1.73,30.63,30.63,0,0,1-3.32-1c1.05,3.4,5.35,6.44,9.36,7.88A39,39,0,0,0,78,36.19Z"/><path class="cls-9" d="M42.88,22.41c-.47,11.22,5.74,14.38,9.18,16.78,2.18,1.52,10,3.92,22.28,3.92h0c12.3,0,20.1-2.4,22.28-3.92,3.45-2.4,9.65-5.56,9.19-16.78a1.07,1.07,0,0,0-.55-.74C105,23,103.61,24,102.09,24.9a16.94,16.94,0,0,1-3.55,6.29c-4.26,4.84-12,8.17-19.88,9.1-8.35,1-17.61.1-24.7-3.39-6.18-3-10.8-8.27-9.85-13.77a1.81,1.81,0,0,1-.35-1.65C43.21,21.76,42.89,22.07,42.88,22.41Z"/><path class="cls-5" d="M99.45,35.22c-5.06,5.15-13,6.87-21.53,6.88S60.17,42,53,38.52c-3.61-1.76-6.14-3.85-7.53-6.84-1.13-2.45-2.54-5.43-1.49-8a1.51,1.51,0,0,1,.11-.22c0-.12,0-.23,0-.34a1.81,1.81,0,0,1-.35-1.65c-.55.28-.87.59-.88.93-.47,11.22,5.74,14.38,9.18,16.78,2.18,1.52,10,3.92,22.28,3.92h0c12.3,0,20.1-2.4,22.28-3.92,3.45-2.4,9.65-5.56,9.19-16.78a1.07,1.07,0,0,0-.55-.74,3.7,3.7,0,0,1-1,1.58,5.1,5.1,0,0,1-.22,4.12C102.92,30,101.68,33,99.45,35.22Z"/><path class="cls-10" d="M95.37,39.87l0,0a8.8,8.8,0,0,0,1.31-.71c3.45-2.4,9.65-5.56,9.19-16.78a1.07,1.07,0,0,0-.55-.74c-.41,1.56-2.25,2.75-4.12,3.74-6.25,3.33-15,3.35-22.49,3.74a87.82,87.82,0,0,1-25.46-1.73c-3.51-.8-10.35-3.16-9.47-5.94-.55.28-.87.59-.88.93a22.16,22.16,0,0,0,.5,6,5.79,5.79,0,0,1,3.69-1c6.36.55,12.35,2.56,18.74,3,7.62.47,15.43-.44,23-.68a23.23,23.23,0,0,1,5.51.09c4.64.28,6.84,3.85,4.38,7A14.14,14.14,0,0,1,95.37,39.87Z"/><ellipse class="cls-11" cx="74.36" cy="21.48" rx="31.5" ry="10.56"/><path class="cls-7" d="M103.6,20.81c0-5-13.09-9.14-29.24-9.14s-29.24,4.09-29.24,9.14,13.09,9.13,29.24,9.13S103.6,25.85,103.6,20.81Z"/><path class="cls-9" d="M103.6,20.81a4.34,4.34,0,0,0-1.85-3.21c-2.08,1.38-5.23,1.21-8.26.38C86,15.92,78.17,13.69,70.28,14.27c-6.85.5-12.87,3-19.34,5-1.77.54-3.8,1.16-5.62.52a3.26,3.26,0,0,0-.2,1.06c0,5,13.09,9.13,29.24,9.13S103.6,25.85,103.6,20.81Z"/><path class="cls-5" d="M103.6,20.81a3.44,3.44,0,0,0-.78-2.1,8.19,8.19,0,0,1-6.31,1.5C89.62,19,83.45,15.9,76.26,16c-6.94.15-14.41.95-21,3.16-2.71.91-7.15,3.31-10.12,1.83.39,4.94,13.31,8.91,29.22,8.91C90.51,29.94,103.6,25.85,103.6,20.81Z"/><path class="cls-6" d="M72,16.67A54.81,54.81,0,0,0,55.26,19.2c-1.42.48-3.31,1.36-5.22,1.88l-1.49.69a3.18,3.18,0,0,1-3.36-.41c.93,4.79,13.62,8.58,29.17,8.58,16.15,0,29.24-4.09,29.24-9.13a3,3,0,0,0-.23-1.14c.32.81-2.1,1.93-2.64,2-1.36.18-2.92-1-4.15-1.43-2.61-.91-5.09-2.1-7.84-2.46-3.35-.44-6.66-.76-10-1C76.5,16.71,74.27,16.64,72,16.67Z"/><path class="cls-12" d="M101.79,24c-.19-.33-6.65-6.37-28.61-6.3-21.13.06-26.63,5.87-26.64,5.95,3.8,3.67,14.82,6.32,27.82,6.32C87,29.94,97.67,27.45,101.79,24Z"/><path class="cls-13" d="M94.6,25c.87-.24,2.45-.68,1.94-1.92S94.74,22.41,94,22c3.06,1.61-.55,3.19-2.43,3.38-1.14.12-2.28,0-3.41.06-1.35.08-2.75.32-4.1.27-1.6-.07-3.13-.74-4.74-.89a13.43,13.43,0,0,0-4.2.48,7.62,7.62,0,0,1-4.35-.46c-2.94-1-5.94.37-8.88-.06-1.06-.16-2.07-.56-3.13-.73-.7-.11-1.27-.1-1.68-.76-.55-.86-.08-1.6.8-1.93,2.21-.84,4.37-.73,6.68-1a23.58,23.58,0,0,0,4-.46,12.11,12.11,0,0,1,5.09-.59c1.67.26,3.33.75,5,1a25.7,25.7,0,0,0,5.75-.08,12.69,12.69,0,0,1,3,.44c.94.16,2.51.8,3.34.12A20.71,20.71,0,0,0,84,19.47c-1.5,0-3,0-4.52-.06-2.34-.11-4.62-.7-6.93-.8a12.41,12.41,0,0,0-3.55.16c-.81.21-1.56.59-2.39.72a22,22,0,0,1-3.72.24c-2.49,0-5.2-.28-7.51.85-3,1.47-.56,2.93,1.48,3.5a40.11,40.11,0,0,1,4.19,1.35c2,.81,4,.52,6.15.43a24.61,24.61,0,0,1,6.24.74,14.87,14.87,0,0,0,5-.21,48,48,0,0,1,4.8,0,62.43,62.43,0,0,0,10.21-1l.88-.19A.4.4,0,0,1,94.6,25Z"/><path class="cls-13" d="M95.84,20.74A4.44,4.44,0,0,0,97,21.85c.74.39,1.86.83,1.86,1.83,0,1.18-1.88,1.7-3.17,2a23.69,23.69,0,0,1-5.86,1.09c-4,.56-8,.53-12.08,1.3s-8.41.09-12.46-.3a38.9,38.9,0,0,1-6-.84c-1.83-.48-3.48-1.66-5.28-2.08-1.12-.26-5.74-.44-5.07-2.73l.1-.24a8.91,8.91,0,0,0-2.53,1.73c3.8,3.67,14.82,6.32,27.82,6.32,12.59,0,23.31-2.49,27.43-6C101.69,23.8,100.08,22.26,95.84,20.74Z"/><path class="cls-11" d="M43.35,19.77h-.06a3.81,3.81,0,0,0-.43,1.72C42.86,27.31,57,32,74.36,32s31.5-4.72,31.5-10.55a3.85,3.85,0,0,0-.43-1.73,7.52,7.52,0,0,0-1.91.4,3,3,0,0,1,.08.66c0,5-13.09,9.13-29.24,9.13s-29.24-4.09-29.24-9.13c0,0,0,0,0-.06A6,6,0,0,0,43.35,19.77Z"/><path class="cls-13" d="M60.79,23.46c1.22.54,3.59.26,4.91.14a26.79,26.79,0,0,1,6.45.16,15.4,15.4,0,0,0,2.35.41c.79,0,1.52-.32,2.3-.4a12.85,12.85,0,0,1,2.46.32c1.79.18,3.65.08,5.46.08.8,0,2.92.5,3.59-.05s-.36-1.53-.92-1.87c-.85-.52-2.33-1.18-3.29-.84a3.33,3.33,0,0,1,.88.16c1.14.24,3.36,1.36,1.12,1.95A13.51,13.51,0,0,1,81,23.46a18.59,18.59,0,0,0-2.19-.58,9.53,9.53,0,0,0-2.08.16,12.21,12.21,0,0,1-3.86.13,19.45,19.45,0,0,0-3.23-.54,22.2,22.2,0,0,0-2.84.26c-.67.1-2.55.52-3.12,0-1-.89,2.08-1.05,2.58-1.05,1.59,0,4,0,5.39-.87a41.62,41.62,0,0,0-5.49.31,29.12,29.12,0,0,0-3.85,0C61.58,21.43,59,22.66,60.79,23.46Z"/><path class="cls-14" d="M51.06,22.8c-.11.94,1,1.07,1.86,1.19,2.1.28,4.35.46,6.18,1.62A7.74,7.74,0,0,0,61.46,27a8.85,8.85,0,0,0,4.27.24,17.15,17.15,0,0,1,4.58.07c1.19.06,2.4.07,3.6.08a17.83,17.83,0,0,0-4.27-1c-1.27-.06-2.61.12-3.92.12-1.48,0-3.13.2-4.42-.5a15.22,15.22,0,0,0-3.39-1.61c-1.3-.34-2.77-.47-4-.89-.45-.15-1.21-.57-1.21-1.11s.93-1,1.32-1.44C52.94,20.86,51.21,21.62,51.06,22.8Z"/><path class="cls-14" d="M88.68,25c1.49,0,3.51.36,4.84-.38,1.7-.95,1-2.29-.57-2.52a26.71,26.71,0,0,0-4-.4H87.66c1,.18,4.19.62,4.63,1.79s-2.52.84-3.29.95a35.5,35.5,0,0,1-7.06.17C83.89,26.06,86.46,25,88.68,25Z"/><path class="cls-15" d="M58.43,22a8.8,8.8,0,0,0,2.37-.29,2.81,2.81,0,0,0-1.3-2.26,3.51,3.51,0,0,0-4.11.84,2.72,2.72,0,0,0-.67,1.14A29.73,29.73,0,0,0,58.43,22Z"/><path class="cls-16" d="M56.23,21.67a1.76,1.76,0,0,1,1-1.91c1-.72,3.31.58,2.17,1.88a1.66,1.66,0,0,1-.34.3,8.94,8.94,0,0,0,1.72-.27,2.81,2.81,0,0,0-1.3-2.26,3.51,3.51,0,0,0-4.11.84,2.72,2.72,0,0,0-.67,1.14C55.23,21.47,55.73,21.57,56.23,21.67Z"/><path class="cls-17" d="M55.64,21.55c.21-.76.72-1.87,1.52-2a1,1,0,0,1,.48-.08,2.12,2.12,0,0,1,2.34.92,1.58,1.58,0,0,1-.08,1.46,7.17,7.17,0,0,0,.9-.18,2.81,2.81,0,0,0-1.3-2.26,3.51,3.51,0,0,0-4.11.84,2.72,2.72,0,0,0-.67,1.14Z"/><path class="cls-18" d="M55.11,21.45a4.87,4.87,0,0,1,.3-.71,2.81,2.81,0,0,1,4.78-.33,1.51,1.51,0,0,1,.23,1.35l.38-.09a2.81,2.81,0,0,0-1.3-2.26,3.51,3.51,0,0,0-4.11.84,2.72,2.72,0,0,0-.67,1.14Z"/><path class="cls-19" d="M59.38,21.92a10.8,10.8,0,0,0,2.32-.51c-.15-.18-1-.08-1,.11,0-.33-.42-.58-.62-.77a2.49,2.49,0,0,0-.4-.34.81.81,0,0,0-.2.39,2.09,2.09,0,0,0,0,.66A.61.61,0,0,1,59.38,21.92Z"/><path class="cls-20" d="M60.47,21.75a.57.57,0,0,0-1,.11l0,.05C59.81,21.87,60.14,21.82,60.47,21.75Z"/><path class="cls-21" d="M60.47,21.75a.57.57,0,0,0-1,.11l0,.05C59.81,21.87,60.14,21.82,60.47,21.75Z"/><path class="cls-22" d="M60.14,21.82l.33-.07a.57.57,0,0,0-.93.05A.7.7,0,0,1,60.14,21.82Z"/><path class="cls-20" d="M57.85,20.78c.32-.31.18-.89-.34-.65S57.22,21.4,57.85,20.78Z"/><path class="cls-15" d="M91.46,23.41a8.42,8.42,0,0,0,2.37-.28,2.83,2.83,0,0,0-1.3-2.26,3.52,3.52,0,0,0-4.11.83,2.82,2.82,0,0,0-.67,1.15A27.7,27.7,0,0,0,91.46,23.41Z"/><path class="cls-16" d="M89.26,23.13a1.76,1.76,0,0,1,1-1.91c1-.73,3.31.58,2.16,1.88a1.38,1.38,0,0,1-.33.3,8.94,8.94,0,0,0,1.72-.27,2.83,2.83,0,0,0-1.3-2.26,3.52,3.52,0,0,0-4.11.83,2.82,2.82,0,0,0-.67,1.15C88.26,22.93,88.76,23,89.26,23.13Z"/><path class="cls-17" d="M88.67,23c.2-.76.72-1.88,1.52-2a1,1,0,0,1,.48-.07,2.12,2.12,0,0,1,2.34.92,1.55,1.55,0,0,1-.09,1.46,9.15,9.15,0,0,0,.91-.18,2.83,2.83,0,0,0-1.3-2.26,3.52,3.52,0,0,0-4.11.83,2.82,2.82,0,0,0-.67,1.15Z"/><path class="cls-18" d="M88.14,22.91a4,4,0,0,1,.3-.71,2.81,2.81,0,0,1,4.78-.33,1.5,1.5,0,0,1,.23,1.35l.38-.09a2.83,2.83,0,0,0-1.3-2.26,3.52,3.52,0,0,0-4.11.83,2.82,2.82,0,0,0-.67,1.15Z"/><path class="cls-19" d="M92.41,23.38a10.58,10.58,0,0,0,2.31-.51c-.14-.18-1-.08-1,.11,0-.33-.42-.59-.62-.77a2.49,2.49,0,0,0-.4-.34.81.81,0,0,0-.2.39,1.83,1.83,0,0,0,0,.66A.61.61,0,0,1,92.41,23.38Z"/><path class="cls-20" d="M93.5,23.2a.58.58,0,0,0-1,.12l0,.05A8.35,8.35,0,0,0,93.5,23.2Z"/><path class="cls-21" d="M93.5,23.2a.58.58,0,0,0-1,.12l0,.05A8.35,8.35,0,0,0,93.5,23.2Z"/><path class="cls-22" d="M93.17,23.27l.33-.07a.59.59,0,0,0-.94.06A.76.76,0,0,1,93.17,23.27Z"/><path class="cls-20" d="M90.88,22.24c.32-.31.18-.89-.35-.65S90.25,22.86,90.88,22.24Z"/><path class="cls-15" d="M81.64,27.51a14.87,14.87,0,0,0,3.08-.8,2.26,2.26,0,0,0-1-2.07c-1.17-.75-3-1.11-4,0a2.57,2.57,0,0,0-.52,2.26C79.94,27.13,80.79,27.35,81.64,27.51Z"/><path class="cls-16" d="M79.86,27.1a1.13,1.13,0,0,1-.21-.51c-.43-1,1-2.64,1.92-1.48.42.55.7,1.84.1,2.4a16,16,0,0,0,3-.8,2.26,2.26,0,0,0-1-2.07c-1.17-.75-3-1.11-4,0a2.57,2.57,0,0,0-.52,2.26Z"/><path class="cls-17" d="M79.54,27a.87.87,0,0,1-.08-.38.81.81,0,0,1,0-.41,1.81,1.81,0,0,1,1.15-1.8c1.09-.29,2.09,1.1,2.19,2.06a2.31,2.31,0,0,1-.08.82,18.81,18.81,0,0,0,2-.6,2.26,2.26,0,0,0-1-2.07c-1.17-.75-3-1.11-4,0a2.57,2.57,0,0,0-.52,2.26Z"/><path class="cls-18" d="M79.33,27a2.4,2.4,0,0,1,1.34-2.7,1.42,1.42,0,0,1,1.7.46c.29.34.53.73.8,1.09a2.66,2.66,0,0,1,.43.75,1.41,1.41,0,0,1,.07.5l1-.35a2.26,2.26,0,0,0-1-2.07c-1.17-.75-3-1.11-4,0a2.57,2.57,0,0,0-.52,2.26Z"/><path class="cls-23" d="M83.88,27l.84-.28a2.26,2.26,0,0,0-1-2.07,5.25,5.25,0,0,0-.53-.29v0a1.34,1.34,0,0,1-.24.79A2.58,2.58,0,0,1,83.88,27Z"/><path class="cls-19" d="M80.88,24.94a1.61,1.61,0,0,0,.54.09c.34,0,.43.21.58.48s.43.81.74.83.25-.62.64-.61l.6,0c.26,0,.36,0,.27-.29a2.3,2.3,0,0,1-.24-.85c0-.2.08-.49-.14-.63s-.63,0-.88-.06-.4-.39-.64-.55a1.48,1.48,0,0,0-.59-.2c-.19.06-.25.83-.1.87-.26-.08-.55.26-.73.39a2.53,2.53,0,0,0-.35.28A.68.68,0,0,0,80.88,24.94Z"/><path class="cls-16" d="M83,23.92a.56.56,0,0,1-.19-.09.79.79,0,0,0-.65,1,4.61,4.61,0,0,0,.43.86,1.09,1.09,0,0,1,.17.66c.4,0,.25-.62.63-.61l.6,0c.26,0,.36,0,.27-.29a2.3,2.3,0,0,1-.24-.85c0-.2.08-.49-.14-.63S83.24,24,83,23.92Z"/><path class="cls-24" d="M83.29,24.28a2.13,2.13,0,0,0-.25,0c.21.14.25.41.43.57a.77.77,0,0,0,.25.14.92.92,0,0,1,.22.18,1.12,1.12,0,0,1,.19.24s.16.21.14.25a.32.32,0,0,0,0-.23,2.3,2.3,0,0,1-.24-.85,1.66,1.66,0,0,0,0-.24A1.84,1.84,0,0,0,83.29,24.28Z"/><path class="cls-15" d="M84,24.62c-.07.27.09.42.14.66s0,.43-.31.39a.94.94,0,0,0-.62,0c-.18.13-.14.38-.29.53a.36.36,0,0,1-.2.12h0c.41,0,.25-.62.64-.61l.6,0c.26,0,.36,0,.27-.29a2.3,2.3,0,0,1-.24-.85,1.94,1.94,0,0,0,0-.35A1.56,1.56,0,0,1,84,24.62Z"/><path class="cls-20" d="M83.74,25.2a1.59,1.59,0,0,0-.7-.93,1.47,1.47,0,0,0-1.11-.09.51.51,0,0,0-.18.89C82,25.31,83.73,25.87,83.74,25.2Z"/><path class="cls-21" d="M83,24.27a1.47,1.47,0,0,0-1.11-.09.51.51,0,0,0-.18.89l.07.05a.36.36,0,0,1,.2-.34c.4-.26.85,0,1.14.34a1.69,1.69,0,0,1,.28.38.31.31,0,0,0,.3-.3A1.59,1.59,0,0,0,83,24.27Z"/><path class="cls-22" d="M83,24.27a1.47,1.47,0,0,0-1.11-.09.51.51,0,0,0-.22.85.61.61,0,0,1,.19-.57.81.81,0,0,1,.93,0,1.93,1.93,0,0,1,.84.9.25.25,0,0,0,.07-.18A1.59,1.59,0,0,0,83,24.27Z"/><path class="cls-22" d="M82.46,25.17c-.06,0-.11.06-.18,0s0-.07,0-.1-.15-.09-.2-.12.16,0,.21,0,.09-.15.13-.21,0,.14.08.2.18,0,.26,0-.15.08-.24.07.08.13.09.2S82.52,25.19,82.46,25.17Z"/><path class="cls-20" d="M81,26.45c-.37,0-.28-.62,0-.76C81.42,25.43,81.48,26.46,81,26.45Z"/><path class="cls-15" d="M74.6,21.72a2.22,2.22,0,0,0-.11-1,2.89,2.89,0,0,0-2.78-2.07c-1.5.14-2.28,1.8-2.36,3.16a2,2,0,0,0,0,.42C71.07,22.31,73.07,22.44,74.6,21.72Z"/><path class="cls-16" d="M74.6,21.72a2.22,2.22,0,0,0-.11-1,2.89,2.89,0,0,0-2.78-2.07c-1.5.14-2.28,1.8-2.36,3.16a2,2,0,0,0,0,.42C71.07,22.31,73.07,22.44,74.6,21.72Zm-1.33-2a1.4,1.4,0,0,1-.2,2c-.85.46-1.88-.66-2.09-1.39C70.59,18.94,72.76,18.77,73.27,19.67Z"/><path class="cls-17" d="M71.59,22.29a2.23,2.23,0,0,1-.24-.19c-.69-.63-1.22-2.23-.35-2.92a1.77,1.77,0,0,1,2.08.14.83.83,0,0,1,.33.22c.62.43.54,1.67.39,2.28a1.43,1.43,0,0,1-.08.22,5.12,5.12,0,0,0,.88-.32,2.22,2.22,0,0,0-.11-1,2.89,2.89,0,0,0-2.78-2.07c-1.5.14-2.28,1.8-2.36,3.16a2,2,0,0,0,0,.42C70.08,22.24,70.84,22.3,71.59,22.29Z"/><path class="cls-18" d="M70.7,22.27c0-.09-.07-.19-.1-.28-.12-.42-.29-.83-.39-1.26a1.39,1.39,0,0,1,.63-1.61,2.33,2.33,0,0,1,3.46,1.93,2.81,2.81,0,0,1-.06.82c.12-.05.24-.09.36-.15a2.22,2.22,0,0,0-.11-1,2.89,2.89,0,0,0-2.78-2.07c-1.5.14-2.28,1.8-2.36,3.16a2,2,0,0,0,0,.42C69.8,22.23,70.25,22.26,70.7,22.27Z"/><path class="cls-23" d="M70.4,22.26a3,3,0,0,1-.2-.8,1.23,1.23,0,0,1-.76-.26s0,0,0,0a4.11,4.11,0,0,0-.08.6,2,2,0,0,0,0,.42Z"/><path class="cls-19" d="M68.76,21.48c0,.26.24.38.42.48a.91.91,0,0,1,.24.24l.91.06a1.3,1.3,0,0,1,.1-.15c.21-.31.62.19.84-.15s-.11-.82-.22-1.06-.23-.46,0-.74a1.54,1.54,0,0,0,.24-.48.77.77,0,0,0,0-.37,2.26,2.26,0,0,0-.43.11c-.21.07-.65.1-.73.36,0-.15-.59-.55-.75-.43a1.52,1.52,0,0,0-.18.58c0,.28.18.55.06.83S68.77,21.23,68.76,21.48Z"/><path class="cls-16" d="M69.18,22a.91.91,0,0,1,.24.24l.91.06a1.3,1.3,0,0,1,.1-.15c.21-.31.61.18.84-.14a1,1,0,0,1-.42-.52,4.35,4.35,0,0,0-.43-.83.78.78,0,0,0-1.16-.07.52.52,0,0,1,0,.21c-.09.23-.45.47-.46.72S69,21.86,69.18,22Z"/><path class="cls-24" d="M69.42,22.2l.25,0a1.07,1.07,0,0,1,0-.25.86.86,0,0,0,0-.28c0-.24-.21-.42-.2-.67a1,1,0,0,0-.17.19,1.65,1.65,0,0,0-.36.63l.21.12A.91.91,0,0,1,69.42,22.2Z"/><path class="cls-15" d="M70.33,22.26a1.3,1.3,0,0,1,.1-.15c.21-.31.62.19.84-.15l0,0a.37.37,0,0,1-.21.08c-.21,0-.37-.15-.59-.07s-.21.18-.28.31Z"/><path class="cls-20" d="M69.8,22.09A1.58,1.58,0,0,1,69.46,21a1.41,1.41,0,0,1,.58-.92.5.5,0,0,1,.81.37C70.88,20.81,70.33,22.47,69.8,22.09Z"/><path class="cls-21" d="M69.46,21a1.41,1.41,0,0,1,.58-.92.5.5,0,0,1,.81.37v.07a.38.38,0,0,0-.39,0c-.44.17-.47.69-.39,1.09a1.39,1.39,0,0,0,.14.45.3.3,0,0,1-.41.06A1.58,1.58,0,0,1,69.46,21Z"/><path class="cls-22" d="M69.46,21a1.41,1.41,0,0,1,.58-.92.5.5,0,0,1,.8.31.57.57,0,0,0-.56-.18.78.78,0,0,0-.52.74A1.85,1.85,0,0,0,70,22.14a.25.25,0,0,1-.18-.05A1.58,1.58,0,0,1,69.46,21Z"/><path class="cls-22" d="M70.51,21.07c0-.07.12-.06.14-.13s-.08,0-.1,0,0-.18,0-.23-.07.15-.11.17-.18,0-.24,0,.1.07.1.17-.07.16-.11.23.15-.07.19-.14.06.13.11.18S70.49,21.12,70.51,21.07Z"/><path class="cls-20" d="M72.38,20.64c.2-.31-.32-.58-.58-.46C71.32,20.39,72.1,21,72.38,20.64Z"/><path class="cls-15" d="M66.51,25.33a2.46,2.46,0,0,0-.46-1.39,2.78,2.78,0,0,0-3.15-1.06,2.64,2.64,0,0,0-1.33,2.67A17.79,17.79,0,0,0,66.51,25.33Z"/><path class="cls-16" d="M66.51,25.33a2.46,2.46,0,0,0-.46-1.39,2.78,2.78,0,0,0-3.15-1.06,2.64,2.64,0,0,0-1.33,2.67A17.79,17.79,0,0,0,66.51,25.33Zm-1.88-1.95a1.34,1.34,0,0,1,.43,1.92c-.64.67-1.91-.06-2.31-.65C62,23.51,63.9,22.71,64.63,23.38Z"/><path class="cls-17" d="M62.9,25.63a1.71,1.71,0,0,1-.47-2,1.69,1.69,0,0,1,1.93-.49.8.8,0,0,1,.37.11c.69.2,1,1.36,1,2a1.29,1.29,0,0,1,0,.28l.77-.12a2.46,2.46,0,0,0-.46-1.39,2.78,2.78,0,0,0-3.15-1.06,2.64,2.64,0,0,0-1.33,2.67C62,25.6,62.46,25.62,62.9,25.63Z"/><path class="cls-18" d="M62.42,25.61a3,3,0,0,1-.25-.37,1.31,1.31,0,0,1,.09-1.64,2.23,2.23,0,0,1,3.73.73,3.14,3.14,0,0,1,.19,1.05l.33-.05a2.46,2.46,0,0,0-.46-1.39,2.78,2.78,0,0,0-3.15-1.06,2.64,2.64,0,0,0-1.33,2.67C61.85,25.58,62.13,25.6,62.42,25.61Z"/><path class="cls-19" d="M61.27,25.5a13.46,13.46,0,0,0,2.1.13,4.65,4.65,0,0,0-.39-.48c-.19-.21-.35-.35-.26-.65A1.35,1.35,0,0,0,62.8,24a.72.72,0,0,0-.11-.33,1.92,1.92,0,0,0-.35.23c-.18.13-.56.28-.57.54,0-.15-.7-.32-.8-.17a1.42,1.42,0,0,0,0,.58C61,25.07,61.25,25.25,61.27,25.5Z"/><path class="cls-20" d="M64.11,24.52c.1-.34-.46-.43-.66-.25C63.08,24.61,64,25,64.11,24.52Z"/><path class="cls-4" d="M17.94,58.67h0S18,58.64,17.94,58.67Z"/><path class="cls-5" d="M64.75,77.1c0-2.6-10-4.71-22.31-4.71S20.13,74.5,20.13,77.1s10,4.71,22.31,4.71S64.75,79.7,64.75,77.1Z"/><path class="cls-6" d="M34.08,80.64c5,.69,10.19.27,15.23-.11a62.34,62.34,0,0,0,7.52-1c1.62-.33,3.39-1,5.09-1a6.51,6.51,0,0,1,1.52.19c.84-.5,1.31-1,1.31-1.59,0-2.6-10-4.71-22.31-4.71S20.13,74.5,20.13,77.1a1.06,1.06,0,0,0,.16.56,1.94,1.94,0,0,1,.34,0C23.79,78.22,26.59,79.61,34.08,80.64Z"/><path class="cls-7" d="M10.94,59.53c-.46,11.22,5.74,14.38,9.19,16.78,2.17,1.52,10,3.92,22.27,3.92h0c12.31,0,20.11-2.4,22.28-3.92,3.45-2.4,9.65-5.56,9.19-16.78a1,1,0,0,0-.55-.74c-.4,1.56-2.25,2.75-4.12,3.74-6.25,3.33-15,3.35-22.48,3.74A87.81,87.81,0,0,1,21.3,64.54c-3.52-.8-10.36-3.16-9.47-6C11.27,58.88,11,59.19,10.94,59.53Z"/><path class="cls-8" d="M46,73.31c5.95-1,12.38-3.19,15.56-7.09.35-.43.7-.9,1-1.4C57.54,65.91,51.85,66,46.76,66.27A87.81,87.81,0,0,1,21.3,64.54a34,34,0,0,1-3.33-1C19,67,23.33,70,27.33,71.45A38.88,38.88,0,0,0,46,73.31Z"/><path class="cls-9" d="M10.94,59.53c-.46,11.22,5.74,14.38,9.19,16.78,2.17,1.52,10,3.92,22.27,3.92h0c12.31,0,20.11-2.4,22.28-3.92,3.45-2.4,9.65-5.56,9.19-16.78a1,1,0,0,0-.55-.74C73,60.1,71.68,61.14,70.16,62a17.23,17.23,0,0,1-3.55,6.29c-4.26,4.84-12,8.17-19.89,9.1-8.34,1-17.6.1-24.7-3.39-6.18-3-10.8-8.27-9.85-13.77a1.79,1.79,0,0,1-.34-1.66C11.27,58.88,11,59.19,10.94,59.53Z"/><path class="cls-5" d="M67.51,72.34c-5.06,5.15-13,6.86-21.53,6.88S28.24,79.15,21,75.64c-3.61-1.76-6.14-3.85-7.53-6.84-1.13-2.45-2.54-5.43-1.49-8a2.4,2.4,0,0,1,.11-.23c0-.11,0-.22,0-.33a1.79,1.79,0,0,1-.34-1.66c-.56.29-.88.6-.89.94-.46,11.22,5.74,14.38,9.19,16.78,2.17,1.52,10,3.92,22.27,3.92h0c12.31,0,20.11-2.4,22.28-3.92,3.45-2.4,9.65-5.56,9.19-16.78a1,1,0,0,0-.55-.74,3.68,3.68,0,0,1-1,1.57,5.21,5.21,0,0,1-.22,4.13C71,67.1,69.75,70.07,67.51,72.34Z"/><path class="cls-10" d="M63.43,77s0,0,0,0a8.32,8.32,0,0,0,1.31-.71c3.45-2.4,9.65-5.56,9.19-16.78a1,1,0,0,0-.55-.74c-.4,1.56-2.25,2.75-4.12,3.74-6.25,3.33-15,3.35-22.48,3.74A87.81,87.81,0,0,1,21.3,64.54c-3.52-.8-10.36-3.16-9.47-6-.56.29-.88.6-.89.94a22.16,22.16,0,0,0,.5,6,5.81,5.81,0,0,1,3.69-1c6.36.55,12.36,2.56,18.74,3,7.62.47,15.43-.44,23.05-.68a23.22,23.22,0,0,1,5.51.09c4.64.28,6.84,3.85,4.38,7A14.14,14.14,0,0,1,63.43,77Z"/><ellipse class="cls-11" cx="42.42" cy="58.6" rx="31.5" ry="10.56"/><path class="cls-7" d="M71.66,57.93c0-5-13.09-9.14-29.24-9.14s-29.23,4.09-29.23,9.14,13.09,9.13,29.23,9.13S71.66,63,71.66,57.93Z"/><path class="cls-9" d="M71.66,57.93a4.34,4.34,0,0,0-1.85-3.21c-2.07,1.38-5.23,1.21-8.26.38C54,53,46.23,50.81,38.35,51.39c-6.86.5-12.88,3-19.34,5-1.78.54-3.81,1.16-5.62.52a3,3,0,0,0-.2,1.06c0,5,13.09,9.13,29.23,9.13S71.66,63,71.66,57.93Z"/><path class="cls-5" d="M71.66,57.93a3.44,3.44,0,0,0-.78-2.1,8.19,8.19,0,0,1-6.31,1.5c-6.89-1.2-13-4.32-20.25-4.17-6.94.15-14.41,1-21,3.16-2.71.91-7.15,3.31-10.12,1.83.39,4.94,13.32,8.91,29.22,8.91C58.57,67.06,71.66,63,71.66,57.93Z"/><path class="cls-6" d="M40.1,53.79a54.87,54.87,0,0,0-16.78,2.53c-1.42.48-3.31,1.36-5.21,1.88-.5.23-1,.45-1.49.69a3.17,3.17,0,0,1-3.36-.41c.92,4.79,13.62,8.58,29.16,8.58,16.15,0,29.24-4.09,29.24-9.13a3,3,0,0,0-.23-1.14c.32.81-2.1,1.93-2.64,2-1.36.18-2.91-1-4.15-1.43-2.61-.91-5.09-2.1-7.84-2.46-3.35-.44-6.66-.76-10-.95C44.57,53.83,42.33,53.76,40.1,53.79Z"/><path class="cls-12" d="M69.85,61.08c-.19-.32-6.64-6.36-28.61-6.29-21.13.06-26.63,5.87-26.63,6,3.8,3.67,14.81,6.32,27.81,6.32C55,67.06,65.73,64.57,69.85,61.08Z"/><path class="cls-13" d="M62.66,62.14c.87-.24,2.45-.68,1.94-1.92s-1.8-.7-2.59-1.11c3.07,1.61-.55,3.19-2.43,3.38-1.13.12-2.28,0-3.41.06-1.35.08-2.74.32-4.1.27-1.59-.07-3.13-.74-4.73-.89a13.46,13.46,0,0,0-4.21.48A7.62,7.62,0,0,1,38.78,62c-2.94-1-5.93.37-8.88-.06-1.06-.16-2.07-.56-3.13-.73-.7-.11-1.27-.1-1.68-.76-.54-.86-.08-1.6.8-1.93,2.21-.85,4.37-.73,6.68-1a23.58,23.58,0,0,0,4-.46,12.16,12.16,0,0,1,5.1-.59c1.66.26,3.32.75,5,1a25.6,25.6,0,0,0,5.74-.08,12.69,12.69,0,0,1,3.05.44c.94.16,2.51.79,3.34.12a20.71,20.71,0,0,0-6.81-1.33c-1.5,0-3,0-4.52-.06-2.34-.11-4.61-.7-6.92-.8a12.46,12.46,0,0,0-3.56.16,24.38,24.38,0,0,1-2.39.72,22,22,0,0,1-3.72.24c-2.49,0-5.2-.28-7.51.85-3,1.47-.55,2.93,1.49,3.5a39.19,39.19,0,0,1,4.18,1.35c2,.81,4,.52,6.15.43a24.61,24.61,0,0,1,6.24.74,14.94,14.94,0,0,0,5-.21,47.8,47.8,0,0,1,4.79,0,62.55,62.55,0,0,0,10.22-1l.87-.19A.4.4,0,0,1,62.66,62.14Z"/><path class="cls-13" d="M63.9,57.86A4.48,4.48,0,0,0,65.09,59c.73.39,1.85.83,1.85,1.83,0,1.18-1.87,1.7-3.17,2a23.52,23.52,0,0,1-5.86,1.09c-4,.56-8,.53-12.08,1.3s-8.4.09-12.46-.3a39.08,39.08,0,0,1-6-.84c-1.83-.48-3.47-1.66-5.28-2.08-1.12-.26-5.73-.44-5.06-2.73a2.34,2.34,0,0,1,.09-.24,8.53,8.53,0,0,0-2.52,1.73c3.8,3.67,14.81,6.32,27.81,6.32,12.59,0,23.31-2.49,27.43-6C69.76,60.92,68.14,59.38,63.9,57.86Z"/><path class="cls-11" d="M11.41,56.89h-.06a3.8,3.8,0,0,0-.42,1.72c0,5.83,14.1,10.55,31.49,10.55s31.5-4.72,31.5-10.55a3.85,3.85,0,0,0-.43-1.73,7.52,7.52,0,0,0-1.91.4,2.91,2.91,0,0,1,.08.66c0,5-13.09,9.13-29.24,9.13S13.19,63,13.19,57.93v-.06A5.85,5.85,0,0,0,11.41,56.89Z"/><path class="cls-13" d="M28.85,60.58c1.22.54,3.6.26,4.91.14a26.78,26.78,0,0,1,6.45.16,14.36,14.36,0,0,0,2.36.4,22.35,22.35,0,0,0,2.29-.39,12.85,12.85,0,0,1,2.46.32c1.8.17,3.65.07,5.46.07.81,0,2.93.51,3.59,0s-.36-1.53-.92-1.87c-.84-.52-2.33-1.18-3.29-.84a3.33,3.33,0,0,1,.88.16c1.14.24,3.36,1.36,1.13,2a13.57,13.57,0,0,1-5.08-.06A18.09,18.09,0,0,0,46.9,60a9.53,9.53,0,0,0-2.08.16,12.21,12.21,0,0,1-3.86.13,19.45,19.45,0,0,0-3.23-.54,22.37,22.37,0,0,0-2.84.26c-.67.1-2.55.52-3.12,0-.95-.89,2.09-1,2.58-1,1.6,0,4,0,5.39-.87a43.4,43.4,0,0,0-5.49.3,30.78,30.78,0,0,0-3.84,0C29.64,58.55,27,59.78,28.85,60.58Z"/><path class="cls-14" d="M19.13,59.92c-.12.94,1,1.07,1.85,1.19,2.1.28,4.35.46,6.18,1.62a7.74,7.74,0,0,0,2.36,1.39,8.85,8.85,0,0,0,4.27.24,17.23,17.23,0,0,1,4.59.07c1.19.06,2.39.07,3.6.08a18.06,18.06,0,0,0-4.27-1c-1.28-.06-2.62.12-3.92.12-1.49,0-3.13.2-4.43-.5A15.22,15.22,0,0,0,26,61.51c-1.29-.34-2.77-.47-4-.89-.45-.15-1.21-.57-1.2-1.11s.92-1,1.31-1.44C21,58,19.27,58.74,19.13,59.92Z"/><path class="cls-14" d="M56.74,62.09c1.49,0,3.51.36,4.84-.38,1.71-1,1-2.29-.57-2.52a26.71,26.71,0,0,0-4-.4H55.72c1,.18,4.2.62,4.63,1.79s-2.52.84-3.28,1A35.6,35.6,0,0,1,50,61.7C52,63.18,54.52,62.09,56.74,62.09Z"/><path class="cls-15" d="M26.49,59.08a8.92,8.92,0,0,0,2.38-.29,2.84,2.84,0,0,0-1.31-2.26,3.51,3.51,0,0,0-4.11.84,2.81,2.81,0,0,0-.66,1.14A29.29,29.29,0,0,0,26.49,59.08Z"/><path class="cls-16" d="M24.3,58.79a1.76,1.76,0,0,1,1-1.91c1-.73,3.31.58,2.17,1.88a1.66,1.66,0,0,1-.34.3,8.92,8.92,0,0,0,1.73-.27,2.84,2.84,0,0,0-1.31-2.26,3.51,3.51,0,0,0-4.11.84,2.81,2.81,0,0,0-.66,1.14C23.29,58.59,23.79,58.69,24.3,58.79Z"/><path class="cls-17" d="M23.7,58.67c.21-.76.72-1.87,1.52-2a1,1,0,0,1,.48-.08,2.14,2.14,0,0,1,2.35.92A1.61,1.61,0,0,1,28,59a7.32,7.32,0,0,0,.91-.18,2.84,2.84,0,0,0-1.31-2.26,3.51,3.51,0,0,0-4.11.84,2.81,2.81,0,0,0-.66,1.14Z"/><path class="cls-18" d="M23.17,58.57a4.87,4.87,0,0,1,.3-.71,2.81,2.81,0,0,1,4.78-.33,1.48,1.48,0,0,1,.23,1.35l.39-.09a2.84,2.84,0,0,0-1.31-2.26,3.51,3.51,0,0,0-4.11.84,2.81,2.81,0,0,0-.66,1.14Z"/><path class="cls-19" d="M27.44,59a10.8,10.8,0,0,0,2.32-.51c-.15-.18-1-.08-1,.11,0-.33-.41-.58-.62-.77a2.12,2.12,0,0,0-.4-.34.81.81,0,0,0-.2.39,2.09,2.09,0,0,0,0,.66A.54.54,0,0,1,27.44,59Z"/><path class="cls-20" d="M28.54,58.87a.58.58,0,0,0-1,.11l0,.05C27.87,59,28.21,58.94,28.54,58.87Z"/><path class="cls-21" d="M28.54,58.87a.58.58,0,0,0-1,.11l0,.05C27.87,59,28.21,58.94,28.54,58.87Z"/><path class="cls-22" d="M28.2,58.94l.34-.07a.58.58,0,0,0-.94.05A.7.7,0,0,1,28.2,58.94Z"/><path class="cls-20" d="M25.91,57.9c.32-.31.19-.89-.34-.65S25.29,58.52,25.91,57.9Z"/><path class="cls-15" d="M59.52,60.53a8.53,8.53,0,0,0,2.38-.28A2.84,2.84,0,0,0,60.59,58a3.52,3.52,0,0,0-4.11.83A2.8,2.8,0,0,0,55.82,60,27.56,27.56,0,0,0,59.52,60.53Z"/><path class="cls-16" d="M57.33,60.25a1.74,1.74,0,0,1,1-1.91c1-.73,3.31.58,2.17,1.88a2,2,0,0,1-.34.3,9.16,9.16,0,0,0,1.73-.27A2.84,2.84,0,0,0,60.59,58a3.52,3.52,0,0,0-4.11.83A2.8,2.8,0,0,0,55.82,60C56.32,60.05,56.82,60.15,57.33,60.25Z"/><path class="cls-17" d="M56.73,60.13c.21-.76.72-1.88,1.52-2a1.1,1.1,0,0,1,.48-.08,2.14,2.14,0,0,1,2.34.93A1.58,1.58,0,0,1,61,60.43c.3,0,.61-.1.91-.18A2.84,2.84,0,0,0,60.59,58a3.52,3.52,0,0,0-4.11.83A2.8,2.8,0,0,0,55.82,60Z"/><path class="cls-18" d="M56.2,60a4.87,4.87,0,0,1,.3-.71A2.81,2.81,0,0,1,61.28,59a1.47,1.47,0,0,1,.23,1.35l.39-.09A2.84,2.84,0,0,0,60.59,58a3.52,3.52,0,0,0-4.11.83A2.8,2.8,0,0,0,55.82,60Z"/><path class="cls-19" d="M60.47,60.5A11.44,11.44,0,0,0,62.79,60c-.15-.18-1-.08-1,.11,0-.33-.41-.59-.62-.77a2.12,2.12,0,0,0-.4-.34.81.81,0,0,0-.2.39,2.1,2.1,0,0,0,0,.66A.57.57,0,0,1,60.47,60.5Z"/><path class="cls-20" d="M61.57,60.32a.59.59,0,0,0-1,.11l0,.06A8.51,8.51,0,0,0,61.57,60.32Z"/><path class="cls-21" d="M61.57,60.32a.59.59,0,0,0-1,.11l0,.06A8.51,8.51,0,0,0,61.57,60.32Z"/><path class="cls-22" d="M61.23,60.39l.34-.07a.59.59,0,0,0-.94.06A.74.74,0,0,1,61.23,60.39Z"/><path class="cls-20" d="M58.94,59.36c.32-.31.19-.89-.34-.65S58.31,60,58.94,59.36Z"/><path class="cls-15" d="M49.7,64.63a14.87,14.87,0,0,0,3.08-.8,2.28,2.28,0,0,0-1-2.07c-1.18-.75-3-1.11-4,0A2.55,2.55,0,0,0,47.28,64C48,64.25,48.86,64.47,49.7,64.63Z"/><path class="cls-16" d="M47.92,64.22a1.13,1.13,0,0,1-.21-.51c-.43-1,1-2.65,1.92-1.48.42.55.7,1.84.1,2.4a16,16,0,0,0,3.05-.8,2.28,2.28,0,0,0-1-2.07c-1.18-.75-3-1.11-4,0A2.55,2.55,0,0,0,47.28,64Z"/><path class="cls-17" d="M47.6,64.14a1,1,0,0,1-.08-.38.94.94,0,0,1,0-.41,1.81,1.81,0,0,1,1.15-1.8c1.1-.29,2.09,1.1,2.19,2.06a2.1,2.1,0,0,1-.08.82,18.13,18.13,0,0,0,2-.6,2.28,2.28,0,0,0-1-2.07c-1.18-.75-3-1.11-4,0A2.55,2.55,0,0,0,47.28,64Z"/><path class="cls-18" d="M47.4,64.08a2.38,2.38,0,0,1,1.33-2.7,1.41,1.41,0,0,1,1.7.46c.29.34.53.73.8,1.09a2.44,2.44,0,0,1,.43.75,1.21,1.21,0,0,1,.07.5l1.05-.35a2.28,2.28,0,0,0-1-2.07c-1.18-.75-3-1.11-4,0A2.55,2.55,0,0,0,47.28,64Z"/><path class="cls-23" d="M51.94,64.11l.84-.28a2.28,2.28,0,0,0-1-2.07c-.17-.1-.35-.2-.54-.29v0a1.21,1.21,0,0,1-.24.79A2.58,2.58,0,0,1,51.94,64.11Z"/><path class="cls-19" d="M48.94,62.06a1.67,1.67,0,0,0,.55.09c.33,0,.42.21.57.48s.43.81.74.83.26-.62.64-.61l.6,0c.27,0,.37,0,.28-.29a2.32,2.32,0,0,1-.25-.85c0-.2.08-.49-.14-.63s-.62,0-.88-.06-.4-.39-.64-.55a1.48,1.48,0,0,0-.59-.2c-.18.06-.25.83-.09.87-.27-.08-.55.26-.74.39a2.53,2.53,0,0,0-.35.28A.81.81,0,0,0,48.94,62.06Z"/><path class="cls-16" d="M51.05,61a.66.66,0,0,1-.19-.09.8.8,0,0,0-.65,1,4.61,4.61,0,0,0,.43.86,1,1,0,0,1,.17.66c.4,0,.25-.62.63-.61l.6,0c.27,0,.37,0,.28-.29a2.32,2.32,0,0,1-.25-.85c0-.2.08-.49-.14-.63S51.31,61.11,51.05,61Z"/><path class="cls-24" d="M51.36,61.4l-.26,0c.21.14.25.41.43.57a1,1,0,0,0,.25.14.65.65,0,0,1,.22.18,1.59,1.59,0,0,1,.2.24s.16.21.14.25,0-.11,0-.23a2.32,2.32,0,0,1-.25-.85,1.66,1.66,0,0,0,0-.24A1.81,1.81,0,0,0,51.36,61.4Z"/><path class="cls-15" d="M52,61.74c-.07.27.09.42.15.66s0,.43-.32.39-.45-.1-.61,0-.15.38-.3.53a.36.36,0,0,1-.2.12h0c.42,0,.26-.62.64-.61l.6,0c.27,0,.37,0,.28-.29a2.32,2.32,0,0,1-.25-.85,1.94,1.94,0,0,0,0-.35A1.56,1.56,0,0,1,52,61.74Z"/><path class="cls-20" d="M51.8,62.32a1.59,1.59,0,0,0-.7-.93A1.4,1.4,0,0,0,50,61.3a.51.51,0,0,0-.18.89C50.09,62.43,51.79,63,51.8,62.32Z"/><path class="cls-21" d="M51.1,61.39A1.4,1.4,0,0,0,50,61.3a.51.51,0,0,0-.18.89s0,0,.06.05a.36.36,0,0,1,.2-.34c.41-.26.86,0,1.14.34a1.43,1.43,0,0,1,.28.38c.18,0,.3-.12.3-.3A1.59,1.59,0,0,0,51.1,61.39Z"/><path class="cls-22" d="M51.1,61.39A1.4,1.4,0,0,0,50,61.3a.51.51,0,0,0-.23.85.61.61,0,0,1,.19-.57.81.81,0,0,1,.93,0,2,2,0,0,1,.85.9.24.24,0,0,0,.06-.18A1.59,1.59,0,0,0,51.1,61.39Z"/><path class="cls-22" d="M50.53,62.29c-.07,0-.12.06-.19,0s0-.07,0-.1-.16-.09-.2-.12a.64.64,0,0,0,.2,0c.06,0,.1-.15.14-.21s0,.14.07.2.18,0,.26,0-.15.08-.23.07.07.13.08.2S50.58,62.31,50.53,62.29Z"/><path class="cls-20" d="M49.05,63.57c-.38,0-.29-.62,0-.76C49.48,62.55,49.54,63.58,49.05,63.57Z"/><path class="cls-15" d="M42.66,58.84a2.22,2.22,0,0,0-.11-1,2.89,2.89,0,0,0-2.78-2.07c-1.5.14-2.27,1.8-2.36,3.16a2,2,0,0,0,0,.42C39.14,59.43,41.13,59.56,42.66,58.84Z"/><path class="cls-16" d="M42.66,58.84a2.22,2.22,0,0,0-.11-1,2.89,2.89,0,0,0-2.78-2.07c-1.5.14-2.27,1.8-2.36,3.16a2,2,0,0,0,0,.42C39.14,59.43,41.13,59.56,42.66,58.84Zm-1.33-2.05a1.39,1.39,0,0,1-.19,2c-.86.46-1.89-.66-2.09-1.39C38.65,56.06,40.82,55.89,41.33,56.79Z"/><path class="cls-17" d="M39.66,59.41l-.25-.19c-.69-.63-1.22-2.23-.35-2.92a1.77,1.77,0,0,1,2.09.14.91.91,0,0,1,.33.22c.62.43.53,1.67.38,2.28a1.43,1.43,0,0,1-.08.22,5.12,5.12,0,0,0,.88-.32,2.22,2.22,0,0,0-.11-1,2.89,2.89,0,0,0-2.78-2.07c-1.5.14-2.27,1.8-2.36,3.16a2,2,0,0,0,0,.42C38.14,59.36,38.9,59.41,39.66,59.41Z"/><path class="cls-18" d="M38.76,59.39l-.09-.28c-.13-.42-.3-.83-.39-1.26a1.37,1.37,0,0,1,.62-1.61,2.34,2.34,0,0,1,3.47,1.93,3.73,3.73,0,0,1-.06.82l.35-.15a2.22,2.22,0,0,0-.11-1,2.89,2.89,0,0,0-2.78-2.07c-1.5.14-2.27,1.8-2.36,3.16a2,2,0,0,0,0,.42Z"/><path class="cls-23" d="M38.46,59.38a2.67,2.67,0,0,1-.19-.8,1.19,1.19,0,0,1-.77-.27h0a4.11,4.11,0,0,0-.08.6,2,2,0,0,0,0,.42Z"/><path class="cls-19" d="M36.82,58.6c0,.26.25.38.42.48a.78.78,0,0,1,.24.24l.91.06.1-.15c.21-.31.62.19.84-.15s-.11-.82-.22-1.06-.23-.46,0-.74a1.54,1.54,0,0,0,.24-.48.66.66,0,0,0,0-.37,2,2,0,0,0-.42.11c-.22.07-.65.1-.74.36.05-.15-.59-.55-.74-.43a1.37,1.37,0,0,0-.19.58c0,.28.18.55.07.83S36.83,58.35,36.82,58.6Z"/><path class="cls-16" d="M37.24,59.08a.78.78,0,0,1,.24.24l.91.06.1-.15c.21-.31.61.18.84-.14a1.07,1.07,0,0,1-.42-.52,4.35,4.35,0,0,0-.43-.83.78.78,0,0,0-1.16-.07.76.76,0,0,1,0,.21c-.1.23-.46.47-.47.72S37.07,59,37.24,59.08Z"/><path class="cls-24" d="M37.48,59.32l.25,0a.7.7,0,0,1,0-.25,1.27,1.27,0,0,0,0-.28c0-.24-.21-.42-.2-.67-.06,0-.11.12-.17.18A1.74,1.74,0,0,0,37,59l.2.12A.78.78,0,0,1,37.48,59.32Z"/><path class="cls-15" d="M38.39,59.38l.1-.15c.21-.31.62.19.84-.15a.05.05,0,0,0,0,0,.29.29,0,0,1-.21.09c-.2,0-.37-.15-.59-.07a.61.61,0,0,0-.28.31Z"/><path class="cls-20" d="M37.86,59.21a1.57,1.57,0,0,1-.33-1.09,1.44,1.44,0,0,1,.57-.93.5.5,0,0,1,.81.38C38.94,57.93,38.39,59.59,37.86,59.21Z"/><path class="cls-21" d="M37.53,58.12a1.44,1.44,0,0,1,.57-.93.5.5,0,0,1,.81.38v.07a.38.38,0,0,0-.39,0c-.43.17-.47.69-.39,1.09a1.69,1.69,0,0,0,.14.45.3.3,0,0,1-.41.06A1.57,1.57,0,0,1,37.53,58.12Z"/><path class="cls-22" d="M37.53,58.12a1.44,1.44,0,0,1,.57-.93.5.5,0,0,1,.8.32.56.56,0,0,0-.56-.18.78.78,0,0,0-.52.74A1.92,1.92,0,0,0,38,59.26a.25.25,0,0,1-.18,0A1.57,1.57,0,0,1,37.53,58.12Z"/><path class="cls-22" d="M38.58,58.19c0-.07.11-.06.14-.13s-.09,0-.11,0,0-.18,0-.23-.06.15-.11.17-.18,0-.24,0,.1.08.11.18-.08.16-.12.23.15-.07.19-.14.06.13.11.17S38.56,58.24,38.58,58.19Z"/><path class="cls-20" d="M40.44,57.76c.21-.31-.32-.58-.58-.46C39.39,57.51,40.17,58.16,40.44,57.76Z"/><path class="cls-15" d="M34.57,62.45a2.39,2.39,0,0,0-.46-1.39A2.78,2.78,0,0,0,31,60a2.65,2.65,0,0,0-1.34,2.67A17.79,17.79,0,0,0,34.57,62.45Z"/><path class="cls-16" d="M34.57,62.45a2.39,2.39,0,0,0-.46-1.39A2.78,2.78,0,0,0,31,60a2.65,2.65,0,0,0-1.34,2.67A17.79,17.79,0,0,0,34.57,62.45Zm-1.87-2a1.34,1.34,0,0,1,.43,1.92c-.64.67-1.91-.06-2.32-.66C30,60.63,32,59.83,32.7,60.5Z"/><path class="cls-17" d="M31,62.75a1.71,1.71,0,0,1-.47-2,1.69,1.69,0,0,1,1.93-.49.76.76,0,0,1,.37.11c.69.2,1,1.36,1,1.95a1.29,1.29,0,0,1,0,.28l.77-.12a2.39,2.39,0,0,0-.46-1.39A2.78,2.78,0,0,0,31,60a2.65,2.65,0,0,0-1.34,2.67C30.07,62.72,30.52,62.74,31,62.75Z"/><path class="cls-18" d="M30.48,62.73c-.08-.12-.17-.24-.25-.37a1.31,1.31,0,0,1,.09-1.64,2.23,2.23,0,0,1,3.73.73,2.92,2.92,0,0,1,.2,1l.32,0a2.39,2.39,0,0,0-.46-1.39A2.78,2.78,0,0,0,31,60a2.65,2.65,0,0,0-1.34,2.67C29.91,62.7,30.2,62.72,30.48,62.73Z"/><path class="cls-19" d="M29.33,62.62a13.46,13.46,0,0,0,2.1.13,3.63,3.63,0,0,0-.39-.48c-.19-.21-.34-.35-.25-.65a1.55,1.55,0,0,0,.07-.52.62.62,0,0,0-.11-.33,1.92,1.92,0,0,0-.35.23c-.18.13-.56.28-.56.54,0-.15-.71-.32-.81-.17A1.27,1.27,0,0,0,29,62C29.1,62.19,29.31,62.37,29.33,62.62Z"/><path class="cls-20" d="M32.17,61.64c.1-.34-.46-.43-.66-.25C31.14,61.73,32,62.09,32.17,61.64Z"/><path class="cls-4" d="M51.83,96.19h0Z"/><path class="cls-5" d="M98.63,114.62c0-2.61-10-4.71-22.31-4.71S54,112,54,114.62s10,4.71,22.31,4.71S98.63,117.22,98.63,114.62Z"/><path class="cls-6" d="M68,118.15c5,.69,10.19.27,15.22-.11a60.56,60.56,0,0,0,7.53-1c1.61-.32,3.38-1,5.08-1a6.55,6.55,0,0,1,1.53.18c.84-.49,1.3-1,1.3-1.58,0-2.61-10-4.71-22.31-4.71S54,112,54,114.62a1.16,1.16,0,0,0,.16.55l.35,0C57.67,115.73,60.47,117.12,68,118.15Z"/><path class="cls-7" d="M44.82,97c-.46,11.23,5.74,14.39,9.19,16.79,2.18,1.51,10,3.91,22.28,3.92h0c12.3,0,20.1-2.41,22.28-3.92,3.44-2.4,9.65-5.56,9.18-16.79a1,1,0,0,0-.54-.73c-.41,1.56-2.26,2.74-4.12,3.73-6.25,3.33-15,3.35-22.49,3.75a88.31,88.31,0,0,1-25.46-1.74c-3.52-.8-10.36-3.16-9.47-5.94C45.15,96.4,44.84,96.71,44.82,97Z"/><path class="cls-8" d="M79.91,110.82c6-.95,12.39-3.18,15.56-7.08a17.13,17.13,0,0,0,1-1.41c-5.09,1.09-10.78,1.19-15.87,1.46a88.31,88.31,0,0,1-25.46-1.74,32.8,32.8,0,0,1-3.32-1c1,3.39,5.35,6.43,9.36,7.87A38.84,38.84,0,0,0,79.91,110.82Z"/><path class="cls-9" d="M44.82,97c-.46,11.23,5.74,14.39,9.19,16.79,2.18,1.51,10,3.91,22.28,3.92h0c12.3,0,20.1-2.41,22.28-3.92,3.44-2.4,9.65-5.56,9.18-16.79a1,1,0,0,0-.54-.73c-.34,1.3-1.69,2.34-3.21,3.23a16.9,16.9,0,0,1-3.55,6.28c-4.26,4.84-12,8.17-19.88,9.1-8.35,1-17.61.1-24.7-3.38-6.18-3-10.8-8.28-9.85-13.77a1.83,1.83,0,0,1-.35-1.66C45.15,96.4,44.84,96.71,44.82,97Z"/><path class="cls-5" d="M101.4,109.86c-5.06,5.14-13,6.86-21.54,6.87s-17.74-.06-24.94-3.58c-3.61-1.76-6.14-3.84-7.52-6.84-1.14-2.45-2.54-5.42-1.49-8A1.63,1.63,0,0,1,46,98.1c0-.11,0-.22,0-.33a1.83,1.83,0,0,1-.35-1.66c-.56.29-.87.6-.89.93-.46,11.23,5.74,14.39,9.19,16.79,2.18,1.51,10,3.91,22.28,3.92h0c12.3,0,20.1-2.41,22.28-3.92,3.44-2.4,9.65-5.56,9.18-16.79a1,1,0,0,0-.54-.73,3.61,3.61,0,0,1-1,1.57,5.1,5.1,0,0,1-.22,4.12C104.87,104.61,103.63,107.58,101.4,109.86Z"/><path class="cls-10" d="M97.32,114.5l0,0a10,10,0,0,0,1.31-.7c3.44-2.4,9.65-5.56,9.18-16.79a1,1,0,0,0-.54-.73c-.41,1.56-2.26,2.74-4.12,3.73-6.25,3.33-15,3.35-22.49,3.75a88.31,88.31,0,0,1-25.46-1.74c-3.52-.8-10.36-3.16-9.47-5.94-.56.29-.87.6-.89.93a22.53,22.53,0,0,0,.5,6,5.77,5.77,0,0,1,3.7-1c6.36.54,12.35,2.55,18.74,3,7.62.47,15.43-.43,23-.68a23.77,23.77,0,0,1,5.51.09c4.64.28,6.83,3.86,4.38,7A13.73,13.73,0,0,1,97.32,114.5Z"/><ellipse class="cls-11" cx="76.31" cy="96.11" rx="31.5" ry="10.56"/><path class="cls-7" d="M105.55,95.44c0-5-13.09-9.14-29.24-9.14s-29.24,4.09-29.24,9.14,13.09,9.13,29.24,9.13S105.55,100.48,105.55,95.44Z"/><path class="cls-9" d="M105.55,95.44a4.29,4.29,0,0,0-1.86-3.2c-2.07,1.38-5.23,1.21-8.25.38-7.53-2.06-15.32-4.3-23.21-3.72-6.85.5-12.87,3-19.34,5-1.78.55-3.81,1.16-5.62.52a3,3,0,0,0-.2,1.06c0,5,13.09,9.13,29.24,9.13S105.55,100.48,105.55,95.44Z"/><path class="cls-5" d="M105.55,95.44a3.48,3.48,0,0,0-.79-2.1,8.15,8.15,0,0,1-6.3,1.5c-6.89-1.2-13.06-4.31-20.25-4.16-6.94.14-14.42.95-21,3.16-2.71.9-7.15,3.31-10.12,1.82.38,4.94,13.31,8.91,29.22,8.91C92.46,104.57,105.55,100.48,105.55,95.44Z"/><path class="cls-6" d="M74,91.3a54.82,54.82,0,0,0-16.77,2.54c-1.42.47-3.31,1.35-5.22,1.87-.5.23-1,.45-1.49.7A3.18,3.18,0,0,1,47.14,96c.93,4.78,13.62,8.57,29.17,8.57,16.15,0,29.24-4.09,29.24-9.13a3.07,3.07,0,0,0-.24-1.14c.33.81-2.09,1.93-2.63,2-1.36.18-2.92-1-4.15-1.43-2.61-.91-5.09-2.09-7.84-2.46-3.35-.44-6.66-.76-10-1C78.45,91.34,76.22,91.27,74,91.3Z"/><path class="cls-12" d="M103.73,98.6c-.18-.33-6.64-6.37-28.6-6.3-21.13.07-26.63,5.87-26.64,6,3.8,3.67,14.82,6.32,27.82,6.32C88.9,104.57,99.62,102.09,103.73,98.6Z"/><path class="cls-13" d="M96.55,99.65c.87-.23,2.45-.67,1.94-1.92s-1.8-.69-2.6-1.11c3.07,1.61-.55,3.19-2.42,3.39-1.14.11-2.28,0-3.41,0-1.36.08-2.75.32-4.1.27-1.6-.07-3.13-.74-4.74-.88a13.21,13.21,0,0,0-4.21.48,7.68,7.68,0,0,1-4.34-.47c-3-1-5.94.37-8.88-.06-1.07-.16-2.07-.56-3.13-.73-.71-.11-1.27-.1-1.69-.75-.54-.87-.07-1.6.81-1.94,2.21-.84,4.36-.72,6.68-1a24.76,24.76,0,0,0,4-.47A12,12,0,0,1,75.58,94c1.67.25,3.33.74,5,1a25.7,25.7,0,0,0,5.75-.08,13.13,13.13,0,0,1,3,.44c1,.17,2.51.8,3.35.12A21.29,21.29,0,0,0,86,94.1c-1.51,0-3,0-4.52,0-2.34-.11-4.62-.71-6.93-.81A12.39,12.39,0,0,0,71,93.4c-.81.21-1.57.59-2.39.73a24.3,24.3,0,0,1-3.72.24c-2.49,0-5.2-.28-7.51.85-3,1.46-.56,2.92,1.48,3.5A42.57,42.57,0,0,1,63,100.06c2,.81,4,.52,6.14.43a24.56,24.56,0,0,1,6.24.74,14.92,14.92,0,0,0,5-.21,45,45,0,0,1,4.79,0,63.57,63.57,0,0,0,10.22-1l.88-.18A.38.38,0,0,1,96.55,99.65Z"/><path class="cls-13" d="M97.78,95.37A4.46,4.46,0,0,0,99,96.48c.74.39,1.86.83,1.86,1.84,0,1.17-1.88,1.7-3.17,2a23.24,23.24,0,0,1-5.86,1.09c-4,.57-8,.53-12.09,1.3s-8.4.1-12.45-.3a38.73,38.73,0,0,1-6-.84c-1.83-.48-3.48-1.66-5.28-2.08-1.12-.26-5.74-.44-5.07-2.73l.1-.24a9,9,0,0,0-2.53,1.73c3.8,3.67,14.82,6.32,27.82,6.32,12.59,0,23.31-2.48,27.42-6C103.64,98.44,102,96.89,97.78,95.37Z"/><path class="cls-11" d="M45.3,94.4h-.07a3.93,3.93,0,0,0-.42,1.72c0,5.83,14.1,10.55,31.5,10.55s31.49-4.72,31.49-10.55a4,4,0,0,0-.42-1.73,7.19,7.19,0,0,0-1.92.41,2.83,2.83,0,0,1,.09.65c0,5-13.09,9.13-29.24,9.13s-29.24-4.09-29.24-9.13a.43.43,0,0,1,0,0A5.9,5.9,0,0,0,45.3,94.4Z"/><path class="cls-13" d="M62.73,98.09c1.23.54,3.6.26,4.92.14a27.31,27.31,0,0,1,6.45.16,13.13,13.13,0,0,0,2.35.41c.79,0,1.52-.32,2.3-.39a12,12,0,0,1,2.45.31c1.8.18,3.65.08,5.47.08.8,0,2.92.51,3.59,0s-.37-1.53-.92-1.87C88.49,96.37,87,95.7,86,96a3.61,3.61,0,0,1,.88.16c1.15.24,3.36,1.36,1.13,2A13.73,13.73,0,0,1,83,98.09a18.24,18.24,0,0,0-2.2-.58,9.44,9.44,0,0,0-2.07.16,12.21,12.21,0,0,1-3.86.13,19.6,19.6,0,0,0-3.23-.53,19.1,19.1,0,0,0-2.84.26c-.67.09-2.56.51-3.13,0-1-.89,2.09-1.05,2.58-1.05,1.6,0,4,0,5.4-.87a41.77,41.77,0,0,0-5.5.31,29,29,0,0,0-3.84,0C63.53,96.06,60.91,97.29,62.73,98.09Z"/><path class="cls-14" d="M53,97.43c-.12.94,1,1.07,1.85,1.19,2.11.29,4.36.47,6.19,1.63a8,8,0,0,0,2.35,1.39,9,9,0,0,0,4.28.24,17.15,17.15,0,0,1,4.58.06c1.19.06,2.39.07,3.6.08a17.45,17.45,0,0,0-4.27-1c-1.28-.07-2.62.11-3.92.11-1.48,0-3.13.2-4.43-.5A15.15,15.15,0,0,0,59.86,99c-1.3-.33-2.77-.46-4-.89-.45-.15-1.21-.57-1.21-1.1s.92-1,1.32-1.45C54.89,95.49,53.16,96.26,53,97.43Z"/><path class="cls-14" d="M90.63,99.6c1.48,0,3.5.36,4.84-.38,1.7-1,1-2.28-.57-2.52a26.84,26.84,0,0,0-4-.4H89.61c1,.18,4.19.62,4.63,1.79s-2.52.85-3.29,1a35.5,35.5,0,0,1-7.06.17C85.83,100.69,88.41,99.6,90.63,99.6Z"/><path class="cls-15" d="M60.38,96.59a8.42,8.42,0,0,0,2.37-.29,2.83,2.83,0,0,0-1.3-2.25,3.49,3.49,0,0,0-4.11.83A2.78,2.78,0,0,0,56.67,96,26,26,0,0,0,60.38,96.59Z"/><path class="cls-16" d="M58.18,96.3a1.77,1.77,0,0,1,1-1.91c1-.72,3.31.58,2.16,1.89a2.46,2.46,0,0,1-.33.3,9,9,0,0,0,1.72-.28,2.83,2.83,0,0,0-1.3-2.25,3.49,3.49,0,0,0-4.11.83A2.78,2.78,0,0,0,56.67,96Z"/><path class="cls-17" d="M57.58,96.19c.21-.77.73-1.88,1.52-2a1,1,0,0,1,.48-.08,2.13,2.13,0,0,1,2.35.92,1.57,1.57,0,0,1-.09,1.47,9.18,9.18,0,0,0,.91-.19,2.83,2.83,0,0,0-1.3-2.25,3.49,3.49,0,0,0-4.11.83A2.78,2.78,0,0,0,56.67,96Z"/><path class="cls-18" d="M57.06,96.09a3.23,3.23,0,0,1,.3-.72A2.82,2.82,0,0,1,62.14,95a1.51,1.51,0,0,1,.23,1.35l.38-.09a2.83,2.83,0,0,0-1.3-2.25,3.49,3.49,0,0,0-4.11.83A2.78,2.78,0,0,0,56.67,96Z"/><path class="cls-19" d="M61.33,96.55A10.15,10.15,0,0,0,63.64,96c-.14-.18-1-.08-1,.11,0-.32-.42-.58-.62-.77a2.49,2.49,0,0,0-.4-.34.84.84,0,0,0-.2.4,1.84,1.84,0,0,0,0,.66A.59.59,0,0,1,61.33,96.55Z"/><path class="cls-20" d="M62.42,96.38a.59.59,0,0,0-1,.11.17.17,0,0,1,0,.05A8.33,8.33,0,0,0,62.42,96.38Z"/><path class="cls-21" d="M62.42,96.38a.59.59,0,0,0-1,.11.17.17,0,0,1,0,.05A8.33,8.33,0,0,0,62.42,96.38Z"/><path class="cls-22" d="M62.08,96.45l.34-.07a.58.58,0,0,0-.94.05A.74.74,0,0,1,62.08,96.45Z"/><path class="cls-20" d="M59.8,95.42c.32-.32.18-.9-.35-.66S59.17,96,59.8,95.42Z"/><path class="cls-15" d="M93.4,98.05a8.44,8.44,0,0,0,2.38-.29,2.82,2.82,0,0,0-1.31-2.26,3.49,3.49,0,0,0-4.1.84,2.72,2.72,0,0,0-.67,1.14A27.59,27.59,0,0,0,93.4,98.05Z"/><path class="cls-16" d="M91.21,97.76a1.76,1.76,0,0,1,1-1.91c1-.72,3.31.58,2.16,1.89a2.46,2.46,0,0,1-.33.3,9.8,9.8,0,0,0,1.72-.28,2.82,2.82,0,0,0-1.31-2.26,3.49,3.49,0,0,0-4.1.84,2.72,2.72,0,0,0-.67,1.14C90.2,97.56,90.71,97.67,91.21,97.76Z"/><path class="cls-17" d="M90.61,97.65c.21-.77.73-1.88,1.52-2a1,1,0,0,1,.48-.08,2.13,2.13,0,0,1,2.35.92A1.6,1.6,0,0,1,94.87,98a9.18,9.18,0,0,0,.91-.19,2.82,2.82,0,0,0-1.31-2.26,3.49,3.49,0,0,0-4.1.84,2.72,2.72,0,0,0-.67,1.14Z"/><path class="cls-18" d="M90.09,97.55a3.23,3.23,0,0,1,.3-.72,2.81,2.81,0,0,1,4.78-.33,1.51,1.51,0,0,1,.23,1.35l.38-.09a2.82,2.82,0,0,0-1.31-2.26,3.49,3.49,0,0,0-4.1.84,2.72,2.72,0,0,0-.67,1.14Z"/><path class="cls-19" d="M94.36,98a10.15,10.15,0,0,0,2.31-.51c-.14-.18-1-.08-1,.11,0-.33-.42-.58-.62-.77a2.18,2.18,0,0,0-.41-.34.92.92,0,0,0-.19.4,1.78,1.78,0,0,0,0,.65A.6.6,0,0,1,94.36,98Z"/><path class="cls-20" d="M95.45,97.84a.59.59,0,0,0-1,.11s0,0,0,0A8.33,8.33,0,0,0,95.45,97.84Z"/><path class="cls-21" d="M95.45,97.84a.59.59,0,0,0-1,.11s0,0,0,0A8.33,8.33,0,0,0,95.45,97.84Z"/><path class="cls-22" d="M95.11,97.91l.34-.07a.58.58,0,0,0-.94,0A.74.74,0,0,1,95.11,97.91Z"/><path class="cls-20" d="M92.83,96.87c.32-.31.18-.89-.35-.65S92.2,97.49,92.83,96.87Z"/><path class="cls-15" d="M83.59,102.14a14.87,14.87,0,0,0,3.08-.8,2.26,2.26,0,0,0-1-2.06c-1.17-.76-3-1.12-4,0a2.54,2.54,0,0,0-.52,2.25C81.89,101.76,82.74,102,83.59,102.14Z"/><path class="cls-16" d="M81.8,101.73a1.08,1.08,0,0,1-.2-.5c-.44-1,1-2.65,1.91-1.49.43.55.71,1.84.1,2.4a14.86,14.86,0,0,0,3.06-.8,2.26,2.26,0,0,0-1-2.06c-1.17-.76-3-1.12-4,0a2.54,2.54,0,0,0-.52,2.25Z"/><path class="cls-17" d="M81.49,101.65a1,1,0,0,1-.09-.38,1,1,0,0,1,0-.41,1.8,1.8,0,0,1,1.14-1.79c1.1-.3,2.09,1.09,2.2,2.05a2.32,2.32,0,0,1-.09.82,16.87,16.87,0,0,0,2-.6,2.26,2.26,0,0,0-1-2.06c-1.17-.76-3-1.12-4,0a2.54,2.54,0,0,0-.52,2.25Z"/><path class="cls-18" d="M81.28,101.59a2.39,2.39,0,0,1,1.34-2.69,1.39,1.39,0,0,1,1.69.45c.3.35.53.73.81,1.09a2.81,2.81,0,0,1,.43.75,1.73,1.73,0,0,1,.07.5c.35-.11.7-.22,1-.35a2.26,2.26,0,0,0-1-2.06c-1.17-.76-3-1.12-4,0a2.54,2.54,0,0,0-.52,2.25Z"/><path class="cls-23" d="M85.83,101.62c.28-.08.56-.18.84-.28a2.26,2.26,0,0,0-1-2.06,4.68,4.68,0,0,0-.54-.3v0a1.32,1.32,0,0,1-.24.79A2.62,2.62,0,0,1,85.83,101.62Z"/><path class="cls-19" d="M82.82,99.57a1.45,1.45,0,0,0,.55.09c.34,0,.43.22.58.48s.42.81.74.83.25-.62.63-.61c.2,0,.4,0,.6,0s.37,0,.28-.29a2.25,2.25,0,0,1-.24-.84c0-.21.07-.49-.15-.64s-.62,0-.87,0-.41-.4-.64-.55a1.56,1.56,0,0,0-.59-.21c-.19.06-.25.83-.1.88-.26-.09-.55.25-.74.39a1.54,1.54,0,0,0-.34.28A.68.68,0,0,0,82.82,99.57Z"/><path class="cls-16" d="M84.94,98.56a.49.49,0,0,1-.19-.1.8.8,0,0,0-.65,1,4,4,0,0,0,.43.85,1.09,1.09,0,0,1,.17.66c.4,0,.24-.62.62-.61.2,0,.4,0,.6,0s.37,0,.28-.29a2.25,2.25,0,0,1-.24-.84c0-.21.07-.49-.15-.64S85.19,98.62,84.94,98.56Z"/><path class="cls-24" d="M85.24,98.92a1.06,1.06,0,0,0-.25,0c.2.15.25.41.43.58a1,1,0,0,0,.25.13.92.92,0,0,1,.22.18,1.55,1.55,0,0,1,.19.24s.16.22.14.26a.35.35,0,0,0,0-.24,2.25,2.25,0,0,1-.24-.84A1.94,1.94,0,0,1,86,99,1.58,1.58,0,0,0,85.24,98.92Z"/><path class="cls-15" d="M85.93,99.25c-.07.27.09.42.14.66s0,.43-.31.39-.45-.1-.62,0-.15.37-.29.52a.33.33,0,0,1-.2.12h0c.41,0,.25-.62.63-.61.2,0,.4,0,.6,0s.37,0,.28-.29a2.25,2.25,0,0,1-.24-.84,1.43,1.43,0,0,0,0-.36A1.14,1.14,0,0,1,85.93,99.25Z"/><path class="cls-20" d="M85.68,99.84c0-.31-.45-.8-.69-.94a1.47,1.47,0,0,0-1.11-.08.51.51,0,0,0-.18.89C84,100,85.68,100.5,85.68,99.84Z"/><path class="cls-21" d="M85,98.9a1.47,1.47,0,0,0-1.11-.08.51.51,0,0,0-.18.89l.06,0a.4.4,0,0,1,.2-.34c.41-.25.86,0,1.15.34a2,2,0,0,1,.28.38c.18,0,.29-.12.29-.29S85.23,99,85,98.9Z"/><path class="cls-22" d="M85,98.9a1.47,1.47,0,0,0-1.11-.08.51.51,0,0,0-.22.85.6.6,0,0,1,.19-.58.81.81,0,0,1,.93,0,1.91,1.91,0,0,1,.84.91.28.28,0,0,0,.06-.18C85.69,99.53,85.23,99,85,98.9Z"/><path class="cls-22" d="M84.41,99.8c-.07,0-.12.07-.18,0s0-.08,0-.11-.15-.09-.2-.12.16,0,.21,0,.09-.15.13-.2,0,.13.08.19a.45.45,0,0,0,.26,0c0,.1-.16.09-.24.08s.07.13.08.2S84.47,99.82,84.41,99.8Z"/><path class="cls-20" d="M82.93,101.08c-.37,0-.28-.61,0-.76C83.37,100.07,83.43,101.1,82.93,101.08Z"/><path class="cls-15" d="M76.55,96.35a2.38,2.38,0,0,0-.11-1,2.91,2.91,0,0,0-2.78-2.07c-1.5.15-2.28,1.8-2.36,3.16a2,2,0,0,0,0,.42C73,97,75,97.08,76.55,96.35Z"/><path class="cls-16" d="M76.55,96.35a2.38,2.38,0,0,0-.11-1,2.91,2.91,0,0,0-2.78-2.07c-1.5.15-2.28,1.8-2.36,3.16a2,2,0,0,0,0,.42C73,97,75,97.08,76.55,96.35Zm-1.33-2a1.41,1.41,0,0,1-.2,2c-.85.46-1.88-.67-2.09-1.4C72.54,93.57,74.71,93.4,75.22,94.3Z"/><path class="cls-17" d="M73.54,96.92a2.23,2.23,0,0,1-.24-.19c-.7-.63-1.22-2.22-.35-2.92A1.77,1.77,0,0,1,75,94a.76.76,0,0,1,.33.23c.62.42.54,1.67.38,2.27a1.42,1.42,0,0,1-.07.22,4.63,4.63,0,0,0,.88-.32,2.38,2.38,0,0,0-.11-1,2.91,2.91,0,0,0-2.78-2.07c-1.5.15-2.28,1.8-2.36,3.16a2,2,0,0,0,0,.42C72,96.88,72.79,96.93,73.54,96.92Z"/><path class="cls-18" d="M72.65,96.91c0-.1-.07-.19-.1-.29-.12-.42-.29-.83-.39-1.26a1.39,1.39,0,0,1,.63-1.61,2.33,2.33,0,0,1,3.46,1.94,3.13,3.13,0,0,1-.06.81,2.75,2.75,0,0,0,.36-.15,2.38,2.38,0,0,0-.11-1,2.91,2.91,0,0,0-2.78-2.07c-1.5.15-2.28,1.8-2.36,3.16a2,2,0,0,0,0,.42Z"/><path class="cls-23" d="M72.35,96.89a2.36,2.36,0,0,1-.2-.79,1.28,1.28,0,0,1-.76-.27v0a4.51,4.51,0,0,0-.08.6,2,2,0,0,0,0,.42C71.65,96.85,72,96.88,72.35,96.89Z"/><path class="cls-19" d="M70.7,96.11c0,.26.25.38.43.48a1.09,1.09,0,0,1,.24.24l.91.06.09-.15c.21-.3.63.19.85-.15s-.12-.82-.22-1.06-.23-.46,0-.73a1.34,1.34,0,0,0,.25-.49.63.63,0,0,0,0-.36,1.74,1.74,0,0,0-.42.11c-.22.07-.65.1-.73.36,0-.16-.6-.55-.75-.44a1.41,1.41,0,0,0-.18.58c0,.28.17.55.06.83S70.71,95.87,70.7,96.11Z"/><path class="cls-16" d="M71.13,96.59a1.09,1.09,0,0,1,.24.24l.91.06.09-.15c.21-.3.62.18.84-.14a1.1,1.1,0,0,1-.42-.51,4.12,4.12,0,0,0-.42-.84.78.78,0,0,0-1.16-.07.52.52,0,0,1,0,.21c-.1.24-.46.48-.47.72S71,96.49,71.13,96.59Z"/><path class="cls-24" d="M71.37,96.83l.25,0a1,1,0,0,1,0-.25.84.84,0,0,0,0-.27c0-.24-.21-.43-.21-.68-.06.06-.11.13-.16.19a1.53,1.53,0,0,0-.36.63,1.13,1.13,0,0,0,.21.12A1.09,1.09,0,0,1,71.37,96.83Z"/><path class="cls-15" d="M72.28,96.89l.09-.15c.21-.3.63.19.85-.15l0,0a.46.46,0,0,1-.21.09c-.21,0-.38-.15-.59-.08a.63.63,0,0,0-.29.31Z"/><path class="cls-20" d="M71.75,96.72a1.57,1.57,0,0,1-.34-1.09,1.41,1.41,0,0,1,.58-.92.5.5,0,0,1,.81.37C72.83,95.44,72.27,97.1,71.75,96.72Z"/><path class="cls-21" d="M71.41,95.63a1.41,1.41,0,0,1,.58-.92.5.5,0,0,1,.81.37.25.25,0,0,1,0,.08.36.36,0,0,0-.38,0c-.44.17-.47.69-.4,1.1a1.89,1.89,0,0,0,.14.44.29.29,0,0,1-.4.06A1.57,1.57,0,0,1,71.41,95.63Z"/><path class="cls-22" d="M71.41,95.63a1.41,1.41,0,0,1,.58-.92.5.5,0,0,1,.8.32.61.61,0,0,0-.57-.19.8.8,0,0,0-.52.75,1.94,1.94,0,0,0,.22,1.19.32.32,0,0,1-.17-.06A1.57,1.57,0,0,1,71.41,95.63Z"/><path class="cls-22" d="M72.46,95.7c0-.07.12-.06.14-.12s-.09,0-.11,0,0-.17,0-.23-.06.15-.11.17-.17,0-.24,0,.11.08.11.17a.49.49,0,0,1-.11.23c.09,0,.15-.07.19-.14s.06.13.11.18S72.44,95.75,72.46,95.7Z"/><path class="cls-20" d="M74.33,95.27c.2-.3-.32-.58-.59-.46C73.27,95,74.05,95.67,74.33,95.27Z"/><path class="cls-15" d="M68.45,100A2.33,2.33,0,0,0,68,98.58a2.77,2.77,0,0,0-3.15-1.06,2.63,2.63,0,0,0-1.34,2.66A17.77,17.77,0,0,0,68.45,100Z"/><path class="cls-16" d="M68.45,100A2.33,2.33,0,0,0,68,98.58a2.77,2.77,0,0,0-3.15-1.06,2.63,2.63,0,0,0-1.34,2.66A17.77,17.77,0,0,0,68.45,100ZM66.58,98A1.34,1.34,0,0,1,67,99.93c-.64.67-1.91-.05-2.32-.65C63.93,98.14,65.85,97.34,66.58,98Z"/><path class="cls-17" d="M64.85,100.26a1.46,1.46,0,0,1,1.46-2.52.94.94,0,0,1,.37.11c.69.21,1,1.36,1,2a1.2,1.2,0,0,1,0,.27l.76-.12A2.33,2.33,0,0,0,68,98.58a2.77,2.77,0,0,0-3.15-1.06,2.63,2.63,0,0,0-1.34,2.66C64,100.23,64.41,100.25,64.85,100.26Z"/><path class="cls-18" d="M64.37,100.25a4,4,0,0,1-.25-.37,1.32,1.32,0,0,1,.09-1.65,2.23,2.23,0,0,1,3.72.73,3,3,0,0,1,.2,1.05l.32-.05A2.33,2.33,0,0,0,68,98.58a2.77,2.77,0,0,0-3.15-1.06,2.63,2.63,0,0,0-1.34,2.66Z"/><path class="cls-19" d="M63.21,100.13a13.66,13.66,0,0,0,2.11.13,4.65,4.65,0,0,0-.39-.48c-.2-.21-.35-.35-.26-.65a1.53,1.53,0,0,0,.08-.52.72.72,0,0,0-.11-.33,2.41,2.41,0,0,0-.36.23c-.17.13-.56.28-.56.54,0-.15-.7-.32-.81-.17a1.42,1.42,0,0,0,0,.58C63,99.7,63.2,99.88,63.21,100.13Z"/><path class="cls-20" d="M66.06,99.15c.1-.33-.46-.43-.67-.24C65,99.24,65.93,99.6,66.06,99.15Z"/></g></g></svg>