<svg xmlns="http://www.w3.org/2000/svg" viewBox="0 0 117.79 154.21"><defs><style>.cls-1{fill:#0580cc;}.cls-2{fill:#fff;}.cls-3{fill:#045fa3;}.cls-4{fill:#f4eed0;opacity:0.6;}.cls-5{fill:#f2e9c7;}.cls-6{fill:#efdeaf;}.cls-7{fill:#ffb000;}.cls-8{fill:#f9d980;}.cls-9{fill:#f79406;}.cls-10{fill:#80ad1c;}.cls-11{fill:#9ad841;}.cls-12{fill:#b7ed58;}.cls-13{fill:#487507;}.cls-14{fill:#5f8c11;}.cls-15{fill:#a1d150;}</style></defs><title>Zasób 49</title><g id="Warstwa_2" data-name="Warstwa 2"><g id="Layer_1" data-name="Layer 1"><rect class="cls-1" width="117.79" height="154.21" rx="12.95"/><rect class="cls-2" x="5.37" y="5.63" width="107.05" height="142.95" rx="10.36"/><path class="cls-3" d="M56.45,125.3l5.16.07a42.83,42.83,0,0,0,5.87-.29,2.46,2.46,0,0,1,.27,1.17,1.55,1.55,0,0,1-.59,1.19,2,2,0,0,1-1.42.52l-2.81-.31c0,.11,0,.62-.12,1.51a63.72,63.72,0,0,0-.34,6.63,43.93,43.93,0,0,0,.51,6.66,5,5,0,0,1-1.69.29,2.37,2.37,0,0,1-1.51-.5,1.81,1.81,0,0,1-.64-1.52c0-.67.08-1.87.24-3.58s.25-3.38.25-5a37.77,37.77,0,0,0-.25-4.54,14.11,14.11,0,0,0-4.62.83,2.66,2.66,0,0,1-.29-1.26,1.82,1.82,0,0,1,.56-1.29A1.88,1.88,0,0,1,56.45,125.3Z"/><path class="cls-3" d="M84.88,142.74a4.46,4.46,0,0,1-1.64.29,2.5,2.5,0,0,1-1.37-.31,2.35,2.35,0,0,1-.81-1,17.86,17.86,0,0,1-1-3.17,39.23,39.23,0,0,1-.93-4.9,62.77,62.77,0,0,0-2.35,8.9,7.28,7.28,0,0,1-1.93.3,2.28,2.28,0,0,1-2.06-1,7,7,0,0,1-.95-2.65s-.13-.72-.37-2.06-.42-2.26-.54-2.79a46.53,46.53,0,0,0-1.16-4.79A4.48,4.48,0,0,0,68,126.94a2.44,2.44,0,0,1,.91-1.15,2.34,2.34,0,0,1,1.37-.42c1.12,0,1.93.85,2.42,2.54A61.75,61.75,0,0,1,73.89,134q.7,4.28,1,6.1,2.78-7.73,2.77-10.22a1.45,1.45,0,0,0-.12-.71,1.82,1.82,0,0,1,1.45-.59,2,2,0,0,1,1.47.51,3.73,3.73,0,0,1,.84,1.66q.32,1.13.9,4.44c.38,2.2.68,3.84.89,4.91.65-2,1.17-3.71,1.55-5s.79-2.84,1.2-4.75a22.48,22.48,0,0,0,.62-4.62,2.91,2.91,0,0,0,0-.47,8.52,8.52,0,0,1,1.08,0,2,2,0,0,1,1.33.48,1.89,1.89,0,0,1,.57,1.53,13.51,13.51,0,0,1-.77,3.52q-.77,2.48-2,6C85.92,139.12,85.3,141.11,84.88,142.74Z"/><path class="cls-3" d="M97.62,143a6.48,6.48,0,0,1-5.43-2.36,9.69,9.69,0,0,1-1.86-6.19,10.08,10.08,0,0,1,2.3-6.61,7.26,7.26,0,0,1,5.86-2.79,6.5,6.5,0,0,1,5.43,2.39,10.92,10.92,0,0,1-.43,12.82A7.31,7.31,0,0,1,97.62,143Zm4.94-9.19a8.39,8.39,0,0,0-1.18-4.71,4.13,4.13,0,0,0-3.71-1.8,4,4,0,0,0-2.69,1,8.34,8.34,0,0,0-1,2.76,15.7,15.7,0,0,0-.38,3.3A8.08,8.08,0,0,0,94.74,139a4.15,4.15,0,0,0,3.71,1.73,3.05,3.05,0,0,0,2.38-1.12A8.66,8.66,0,0,0,102.56,133.84Z"/><path class="cls-3" d="M24.84,28.83a2.54,2.54,0,0,1-.73,1.83,2.72,2.72,0,0,1-2.05.76c-.88,0-2.41-.06-4.6-.18s-3.88-.19-5.07-.19a3.94,3.94,0,0,1-.72-2.24,4.18,4.18,0,0,1,1-2.47A14.54,14.54,0,0,1,15,23.9c.91-.76,1.83-1.53,2.73-2.3A13.43,13.43,0,0,0,20.06,19a4.83,4.83,0,0,0,1-2.68,3.1,3.1,0,0,0-.68-2.08,2.34,2.34,0,0,0-1.88-.81,3,3,0,0,0-2,.65,3.77,3.77,0,0,0-.63,2.15,7.36,7.36,0,0,0,.19,1.86,4.62,4.62,0,0,1-1,.15,3.2,3.2,0,0,1-2.11-.7,2.3,2.3,0,0,1-.86-1.89A4.36,4.36,0,0,1,14.17,12a8.33,8.33,0,0,1,4.73-1.43,6.48,6.48,0,0,1,4.28,1.39,4.68,4.68,0,0,1,1.69,3.83,5.55,5.55,0,0,1-.9,2.91,14.46,14.46,0,0,1-2.19,2.71c-.86.82-1.72,1.63-2.6,2.42q-3.11,2.79-3.1,4.69a21.8,21.8,0,0,0,8.39-1.56A4.65,4.65,0,0,1,24.84,28.83Z"/><path class="cls-2" d="M102.35,62.5c8.18-7.94,7.76-19.12-.56-30.67C92.35,18.71,85.44,20.72,76.87,18.08c-4.93-1.51-7.05-6.75-12.07-7.38-7.85-1-18.86,1.37-22.41,8.45-5.87,11.71-.06,12.91.84,21,.76,6.75-2.4,13.57,6.61,20.24,14.42,10.67,20.64,5.5,29.93,5.19C87.8,65.32,94.05,70.57,102.35,62.5Z"/><path class="cls-4" d="M101.79,31.83C92.35,18.71,85.44,20.72,76.87,18.08c-4.93-1.51-7.05-6.75-12.07-7.38-7.85-1-18.86,1.37-22.41,8.45-5.87,11.71-.06,12.91.84,21,.76,6.75-2.4,13.57,6.61,20.24,14.42,10.67,20.64,5.5,29.93,5.19,8-.27,14.28,5,22.58-3.09S110.11,43.38,101.79,31.83ZM86.67,58A25.88,25.88,0,0,1,79,56.64c-1.33-.28-1.34-.34,0-.17,1.93.2,1.32.11-1.76-.27l-.57-.07.57.07c.59.06.12,0-.77-.11-11.29-1-24.31-2.37-27.64-15.47-1.17-4.6-2.45-10.44-1.27-15.07,3.05-12,18-12.09,25.9-5.42,2,1.67,4.56,2.38,7.06,3.05a50.72,50.72,0,0,1,10.17,4.18c5.51,3.78,10.42,9.78,10.37,16.79A14.08,14.08,0,0,1,86.67,58Z"/><path class="cls-5" d="M101.79,31.83C92.35,18.71,85.44,20.72,76.87,18.08c-4.93-1.51-7.05-6.75-12.07-7.38-7.85-1-18.86,1.37-22.41,8.45C39,26,39.53,29.27,40.77,32.41c.61-7.1,3.54-13.89,10.21-17.57,5.89-3.25,13.09-2.07,18.76,1,2.63,1.44,5,3.37,7.66,4.73,3.06,1.54,6.4,1.7,9.62,2.73,17.17,5.48,24.51,27.58,10.69,40.6a29.72,29.72,0,0,1-3.75,3c2.65-.32,5.39-1.49,8.39-4.41C110.53,54.56,110.11,43.38,101.79,31.83Z"/><path class="cls-6" d="M108.26,49.45a28.48,28.48,0,0,1-2.23,5c-2.22,3.92-5.19,8.06-9.74,9.37-4.82,1.39-9.7-.26-14.59.22-5.88.57-11.55,1.94-17.38.19-4.91-1.48-10.92-3.28-14.69-7-3.46-3.39-4.17-7.52-4.07-12.19.06-2.76.21-5.69-.85-8.31s-2.31-4.9-2.79-7.62A27.92,27.92,0,0,1,42,19.93c-5.19,10.94.35,12.29,1.24,20.19.75,6.75-2.41,13.57,6.61,20.24C64.27,71,70.49,65.86,79.78,65.55c8-.27,14.27,5,22.58-3.09A18.42,18.42,0,0,0,108.26,49.45Z"/><path class="cls-7" d="M89.37,46.28a12.81,12.81,0,1,0-15.5,9.37A12.81,12.81,0,0,0,89.37,46.28Z"/><path class="cls-8" d="M82.47,35.11c.64-.91-1.19-2.08-2.81-2.66a10.52,10.52,0,0,0-2.81-.61,2.34,2.34,0,0,1-.55.13c-2.83.42-4.69,1.94-1.88,3.23C76.1,36,81.61,36.35,82.47,35.11Z"/><path class="cls-9" d="M71.59,49.3C64.24,45,66.5,37,66.81,35.37a13,13,0,0,0-2.32,4.8,12.81,12.81,0,0,0,24.88,6.12,12.66,12.66,0,0,0,0-6.27,10.54,10.54,0,0,1-3.89,8.19A12.29,12.29,0,0,1,71.59,49.3Z"/><path class="cls-10" d="M79.25,25.65c.83,0,1.07-2.72,0-2.56C79.23,23.09,78.41,25.65,79.25,25.65Z"/><path class="cls-11" d="M79.32,25.63l3.51-.33a2.63,2.63,0,0,0,0-2.62l-3.56.41s.53.13.57,1.25C79.82,24.69,79.74,25.51,79.32,25.63Z"/><path class="cls-10" d="M62.13,35c.83-.08.8-2.82-.27-2.55C61.86,32.47,61.29,35.1,62.13,35Z"/><path class="cls-11" d="M65.66,34.31a2.64,2.64,0,0,0-.29-2.6l-3.51.76s.54.07.69,1.18c.05.36.05,1.18-.35,1.34Z"/><path class="cls-10" d="M65.11,27.4s-2.52,1-2,1.61S65.92,28.15,65.11,27.4Z"/><path class="cls-11" d="M63.18,29.06l2.46,2.53a2.63,2.63,0,0,0,2-1.67L65.11,27.4s.23.49-.62,1.22C64.23,28.86,63.54,29.31,63.18,29.06Z"/><path class="cls-12" d="M56.09,25a2.47,2.47,0,0,0,2.23-.12,1.16,1.16,0,0,0,.58-1,.93.93,0,0,0-.41-.74,1.6,1.6,0,0,0-1.45,0,1.37,1.37,0,0,1-.44,0,1.3,1.3,0,0,0-1,.26.79.79,0,0,0-.19.6A1.12,1.12,0,0,0,56.09,25ZM56,23.75c.09-.1.37-.1.59-.09a2,2,0,0,0,.63-.08,1.23,1.23,0,0,1,1-.09.4.4,0,0,1,.16.32.62.62,0,0,1-.33.57,1.9,1.9,0,0,1-1.69.09A.58.58,0,0,1,56,24,.3.3,0,0,1,56,23.75Z"/><path class="cls-13" d="M80.44,38.86c-3-.08-8.19-.67-11.57-3.56a13.23,13.23,0,0,0,6,3.36,29.44,29.44,0,0,0,5,.66Z"/><path class="cls-13" d="M71.27,37.79A13.24,13.24,0,0,0,76.83,41l.45-.4A14.47,14.47,0,0,1,71.27,37.79Z"/><path class="cls-13" d="M76.28,40.29c-1.94,1.47-5.69.58-5.69.58a7.26,7.26,0,0,0,6.06-.09Z"/><path class="cls-13" d="M75.19,35.68a30.4,30.4,0,0,1,3.08,4l.39-.32A18.82,18.82,0,0,0,75.19,35.68Z"/><path class="cls-13" d="M71,23.75a10.44,10.44,0,0,0-4.76-.39L63,23.88l.89.44.07-.15A13.94,13.94,0,0,1,71,23.75Z"/><path class="cls-13" d="M66.6,27.3a18.76,18.76,0,0,1-3.08-3.25s-.9-.81.29.91A6.63,6.63,0,0,0,66.6,27.3Z"/><path class="cls-13" d="M62.82,23.85l-.16-.2c-.06.08-.12.14-.18.21a4.87,4.87,0,0,1-1,2.48A2.33,2.33,0,0,0,62.82,23.85Z"/><path class="cls-13" d="M62.84,23.43c-.08.11-.17.21-.25.31a18.1,18.1,0,0,0,7.69,2.72A20.37,20.37,0,0,1,62.84,23.43Z"/><path class="cls-13" d="M76.25,60.44A29.19,29.19,0,0,0,78,66.27l.51.06c-.58-1.23-3.09-7-1.6-11.58A11,11,0,0,0,76.25,60.44Z"/><path class="cls-13" d="M76.69,66.1a21.35,21.35,0,0,0-1.46-3.24,11.07,11.07,0,0,0-4.09-4c2.61,1.71,4.22,4.84,5.11,7.19Z"/><path class="cls-13" d="M78.34,58.65a32.21,32.21,0,0,0,1.43,6.94l.31-.59s-2.69-7-.47-11.94A11,11,0,0,0,78.34,58.65Z"/><path class="cls-13" d="M76.53,59.42c-1.73-1.05-2.21-4.24-2.21-4.24a6.09,6.09,0,0,0,2,4.68Z"/><path class="cls-13" d="M76.71,61.68l.34.53a13,13,0,0,0,2.72-5.07S77.93,61,76.71,61.68Z"/><path class="cls-13" d="M77.36,64.55,77.17,64S71.65,62.62,71,59.4a3.67,3.67,0,0,0,2,3.18A17.5,17.5,0,0,0,77.36,64.55Z"/><path class="cls-13" d="M72.81,62.46a2.52,2.52,0,0,0-2.62.73,4.59,4.59,0,0,1,3.42-.26Z"/><path class="cls-13" d="M80.86,61.08c-.11,2.56-.13,3.28-.13,3.28l.6-.78-.12-.1a13.88,13.88,0,0,1,1-7A10.56,10.56,0,0,0,80.86,61.08Z"/><path class="cls-13" d="M83.6,59.91l-1.28,3,.84-.52-.08-.13a13.68,13.68,0,0,1,3.39-6.18A10.62,10.62,0,0,0,83.6,59.91Z"/><path class="cls-13" d="M81,66.66l.35,0a6.66,6.66,0,0,1,2.62-3A6.25,6.25,0,0,0,81,66.66Z"/><path class="cls-13" d="M83.64,61.89a9.44,9.44,0,0,1,4.84-1.14c-4.32-1-8.1,3.62-8.36,3.93s-.75.88-1.32,1.69l.47.06a19.1,19.1,0,0,1,1.24-1.58A22.4,22.4,0,0,1,83.64,61.89Z"/><path class="cls-13" d="M85.17,60.87A6.76,6.76,0,0,0,87.43,58a19,19,0,0,1-3.15,3.17S83.48,62.09,85.17,60.87Z"/><path class="cls-13" d="M82.9,62.44l-.49.43c1.26-.46,3,.86,3,.86A2.37,2.37,0,0,0,82.9,62.44Z"/><path class="cls-13" d="M81.52,58.47a3.14,3.14,0,0,0-.94-2.3s.94,2.3.57,3.25Z"/><path class="cls-13" d="M84.1,58.18s-2,1.72-3,1.69v.5A6.87,6.87,0,0,0,84.1,58.18Z"/><path class="cls-13" d="M80.88,61.72c-.8-.59-1.33-3-1.33-3A6.11,6.11,0,0,0,81,62.48Z"/><path class="cls-14" d="M90.35,52.51a29.41,29.41,0,0,0,1.57-5.88l-.41-.32c-.15,1.35-1,7.56-4.73,10.69A11,11,0,0,0,90.35,52.51Z"/><path class="cls-14" d="M93.29,47.75,93,47.47A21.11,21.11,0,0,0,92.49,51a11.07,11.07,0,0,0,1.36,5.57C92.53,53.73,92.81,50.23,93.29,47.75Z"/><path class="cls-14" d="M87.63,52.93a32.17,32.17,0,0,0,2.43-6.65l-.56.34S88.11,54,83.61,57A11.09,11.09,0,0,0,87.63,52.93Z"/><path class="cls-14" d="M90,53l-.46.24C90.49,55,89.22,58,89.22,58A6.09,6.09,0,0,0,90,53Z"/><path class="cls-14" d="M90.6,50.59a12.92,12.92,0,0,0-5,2.88s3.6-2.31,5-2.25Z"/><path class="cls-14" d="M94.25,52.42a17.23,17.23,0,0,0-2.68-4l-.13.58s4,4.06,2.82,7.15A3.68,3.68,0,0,0,94.25,52.42Z"/><path class="cls-14" d="M97,53.37a4.57,4.57,0,0,1-3-1.58l.44.82A2.52,2.52,0,0,0,97,53.37Z"/><path class="cls-14" d="M86.77,49.55l1.84-2.73-.93.35,0,.15a13.86,13.86,0,0,1-4.52,5.42A10.74,10.74,0,0,0,86.77,49.55Z"/><path class="cls-14" d="M79.37,50.82a10.56,10.56,0,0,0,4.45-1.73L86.5,47.2h-1v.16A13.75,13.75,0,0,1,79.37,50.82Z"/><path class="cls-14" d="M89.35,44.52a6.66,6.66,0,0,1-3.83,1.2,6.14,6.14,0,0,0,4.09-1Z"/><path class="cls-14" d="M91.3,46.13l-.37-.3a18.24,18.24,0,0,1-1.89.69,21,21,0,0,1-4.22.87,9.4,9.4,0,0,1-4.71-1.58c3.13,3.15,8.8,1.18,9.17,1.06S90.39,46.52,91.3,46.13Z"/><path class="cls-14" d="M83,47.45a6.75,6.75,0,0,0-3.43,1.24,19,19,0,0,1,4.35-1S85.06,47.3,83,47.45Z"/><path class="cls-14" d="M86.39,47.2c-1.31-.27-2.12-2.32-2.12-2.32a2.35,2.35,0,0,0,1.47,2.43Z"/><path class="cls-14" d="M84.83,51.41a3.14,3.14,0,0,0-.41,2.45s.41-2.45,1.22-3.06Z"/><path class="cls-14" d="M86.23,50a6.91,6.91,0,0,0-3.74.26s2.64-.39,3.47.17Z"/><path class="cls-14" d="M87.41,48.3l-.33.68c.38.92-.45,3.28-.45,3.28A6.14,6.14,0,0,0,87.41,48.3Z"/><path class="cls-15" d="M60.61,37a29.2,29.2,0,0,0-5.4-2.82,11,11,0,0,0-5.71-.4c4.8-.61,10,2.93,11.08,3.73Z"/><path class="cls-15" d="M60.69,35.7l0-.44c-2.15-1.33-4.92-3.49-6.12-6.37a11.11,11.11,0,0,0,3.18,4.77A22.67,22.67,0,0,0,60.69,35.7Z"/><path class="cls-15" d="M59.62,38.63a32.21,32.21,0,0,0-6.55-2.7,11.08,11.08,0,0,0-5.73.21C52.64,34.89,59,38.82,59,38.82Z"/><path class="cls-15" d="M54.64,34.13a6.08,6.08,0,0,0-4.23-2.8s3,1.07,3.75,3Z"/><path class="cls-15" d="M56.35,34.89c-.9,1.07-5,2.17-5,2.17a13,13,0,0,0,5.49-1.74Z"/><path class="cls-15" d="M59,36.06a17.11,17.11,0,0,0-1.12-4.66,3.69,3.69,0,0,0-2.75-2.55c3,1.25,3.36,6.92,3.36,6.92Z"/><path class="cls-15" d="M57.84,31.21l.32.87a4.53,4.53,0,0,1,.89-3.31A2.52,2.52,0,0,0,57.84,31.21Z"/><path class="cls-15" d="M57.35,39.79l.88-.46L55,38.86a10.53,10.53,0,0,0-4.76.46,13.87,13.87,0,0,1,7,.32Z"/><path class="cls-15" d="M55.86,41.37l.68-.74-3.22.7A10.66,10.66,0,0,0,49,43.44a13.83,13.83,0,0,1,6.71-2.18Z"/><path class="cls-15" d="M60.45,40A6.25,6.25,0,0,0,57,42.36a6.62,6.62,0,0,1,3.47-2C60.44,40.24,60.44,40.12,60.45,40Z"/><path class="cls-15" d="M58.75,39.22a19.86,19.86,0,0,1,1.79-.93c0-.15,0-.31,0-.47a19.33,19.33,0,0,0-1.9,1c-.35.19-5.63,3-5.42,7.47a9.44,9.44,0,0,1,2-4.54A22.31,22.31,0,0,1,58.75,39.22Z"/><path class="cls-15" d="M54.45,42.23a18.83,18.83,0,0,1-3.7,2.51A6.67,6.67,0,0,0,54,43.05C55.49,41.63,54.45,42.23,54.45,42.23Z"/><path class="cls-15" d="M55.94,41.12a2.35,2.35,0,0,0,.8,2.73s-1-2-.28-3.13Z"/><path class="cls-15" d="M53.3,38.84c-1,.18-3.09-1.17-3.09-1.17A3.16,3.16,0,0,0,52.3,39Z"/><path class="cls-15" d="M51.54,41.5a6.8,6.8,0,0,0,2.71-2.58l-.5-.09C53.61,39.82,51.54,41.5,51.54,41.5Z"/><path class="cls-15" d="M52.9,37.13s2.28,1,2.71,1.88l.73.21A6.17,6.17,0,0,0,52.9,37.13Z"/><path class="cls-13" d="M68.84,54.08l-.52-.23s-6.16,4.21-11.51,3.21a17.29,17.29,0,0,0,3.33.33,11.52,11.52,0,0,0,3.76-.86A33.74,33.74,0,0,0,68.84,54.08Z"/><path class="cls-13" d="M59.22,55.77a10.58,10.58,0,0,0,4.68-1l3-1.42-1-.17,0,.16A13.83,13.83,0,0,1,59.22,55.77Z"/><path class="cls-13" d="M65.74,52.61a6.66,6.66,0,0,0-3.34-1.46,18.64,18.64,0,0,1,3.87,2.24S67.36,53.93,65.74,52.61Z"/><path class="cls-13" d="M67,53.39l.54.38c-.76-1.11,0-3.15,0-3.15A2.33,2.33,0,0,0,67,53.39Z"/><path class="cls-13" d="M70.84,55.22l-.14-.56a13.8,13.8,0,0,1,0-7A10.62,10.62,0,0,0,70,52.34c.24,2.55.26,2.62.26,2.62Z"/><path class="cls-13" d="M69.1,47.52s1.23,2.15,1,3.14l.22-1A3.12,3.12,0,0,0,69.1,47.52Z"/><path class="cls-13" d="M72.85,49s-1.79,2-2.78,2.07l.06.5A6.81,6.81,0,0,0,72.85,49Z"/><path class="cls-13" d="M70.15,53c-.88-.48-1.74-2.82-1.74-2.82a6.14,6.14,0,0,0,1.92,3.55Z"/><path class="cls-13" d="M72.05,55.82C66.17,51.43,59.11,53,59.11,53s6.72-.91,12.24,2.84Z"/><path class="cls-2" d="M73.56,114C81.74,106,81.31,94.83,73,83.28,63.56,70.17,56.65,72.17,48.08,69.54,43.15,68,41,62.78,36,62.15c-7.85-1-18.86,1.37-22.42,8.45-5.86,11.71-.05,12.92.85,21,.75,6.76-2.4,13.57,6.61,20.24C35.47,122.52,41.69,117.35,51,117,59,116.77,65.26,122,73.56,114Z"/><path class="cls-4" d="M73,83.28C63.56,70.17,56.65,72.17,48.08,69.54,43.15,68,41,62.78,36,62.15c-7.85-1-18.86,1.37-22.42,8.45-5.86,11.71-.05,12.92.85,21,.75,6.76-2.4,13.57,6.61,20.24C35.47,122.52,41.69,117.35,51,117c8-.27,14.28,5,22.58-3.09S81.31,94.83,73,83.28ZM57.88,109.44a25.63,25.63,0,0,1-7.68-1.35c-1.32-.28-1.33-.34,0-.16,1.93.2,1.32.1-1.76-.28l-.57-.07.57.07c.59.06.12,0-.77-.11-11.29-1-24.31-2.37-27.64-15.47C18.82,87.48,17.54,81.63,18.72,77c3-12,18-12.1,25.9-5.43,2,1.67,4.56,2.38,7.06,3a50.72,50.72,0,0,1,10.17,4.18c5.51,3.78,10.42,9.78,10.37,16.79A14.08,14.08,0,0,1,57.88,109.44Z"/><path class="cls-5" d="M73,83.28C63.56,70.17,56.65,72.17,48.08,69.54,43.15,68,41,62.78,36,62.15c-7.85-1-18.86,1.37-22.42,8.45C10.16,77.46,10.74,80.72,12,83.87c.61-7.11,3.54-13.9,10.2-17.58,5.9-3.25,13.09-2.06,18.77,1,2.63,1.44,5,3.37,7.66,4.72,3.06,1.54,6.4,1.71,9.62,2.73,17.17,5.48,24.51,27.58,10.69,40.6a29.8,29.8,0,0,1-3.75,3c2.65-.33,5.39-1.5,8.39-4.42C81.74,106,81.31,94.83,73,83.28Z"/><path class="cls-6" d="M79.47,100.91a28.07,28.07,0,0,1-2.23,5c-2.22,3.92-5.19,8.06-9.75,9.38-4.81,1.38-9.69-.26-14.58.21-5.88.57-11.55,1.94-17.38.19-4.91-1.48-10.92-3.27-14.69-7-3.46-3.39-4.17-7.52-4.07-12.19.06-2.76.21-5.69-.85-8.31s-2.31-4.9-2.79-7.62a27.92,27.92,0,0,1,.08-9.26c-5.19,11,.35,12.3,1.24,20.2.75,6.74-2.41,13.56,6.61,20.23C35.47,122.48,41.69,117.32,51,117c8-.27,14.27,5,22.58-3.09A18.42,18.42,0,0,0,79.47,100.91Z"/><path class="cls-7" d="M60.58,97.73a12.81,12.81,0,1,0-15.5,9.38A12.81,12.81,0,0,0,60.58,97.73Z"/><path class="cls-8" d="M53.68,86.57c.64-.92-1.19-2.09-2.81-2.67a10.52,10.52,0,0,0-2.81-.61,3.13,3.13,0,0,1-.55.14c-2.83.41-4.69,1.93-1.88,3.23C47.31,87.43,52.82,87.8,53.68,86.57Z"/><path class="cls-9" d="M42.8,100.75C35.45,96.48,37.71,88.48,38,86.82a13,13,0,0,0-2.32,4.8,12.81,12.81,0,0,0,24.88,6.12,12.66,12.66,0,0,0,0-6.27,10.53,10.53,0,0,1-3.89,8.19A12.27,12.27,0,0,1,42.8,100.75Z"/><path class="cls-10" d="M50.46,77.11c.83,0,1.07-2.73,0-2.57C50.44,74.54,49.62,77.11,50.46,77.11Z"/><path class="cls-11" d="M50.53,77.09,54,76.75a2.63,2.63,0,0,0,0-2.62l-3.56.41s.53.13.57,1.25C51,76.14,51,77,50.53,77.09Z"/><path class="cls-10" d="M33.34,86.47c.83-.08.8-2.82-.27-2.55C33.07,83.92,32.5,86.55,33.34,86.47Z"/><path class="cls-11" d="M36.87,85.76a2.63,2.63,0,0,0-.29-2.59l-3.51.75s.54.07.69,1.18c.05.36.05,1.18-.35,1.35Z"/><path class="cls-10" d="M36.32,78.85s-2.52,1-2,1.62S37.12,79.6,36.32,78.85Z"/><path class="cls-11" d="M34.39,80.51,36.85,83a2.61,2.61,0,0,0,2-1.66l-2.54-2.53s.23.49-.62,1.22C35.44,80.31,34.75,80.76,34.39,80.51Z"/><path class="cls-12" d="M27.3,76.4a2.44,2.44,0,0,0,2.23-.12,1.14,1.14,0,0,0,.58-1,.93.93,0,0,0-.41-.75,1.64,1.64,0,0,0-1.45,0,1.37,1.37,0,0,1-.44,0,1.3,1.3,0,0,0-1,.26.8.8,0,0,0-.19.61A1.12,1.12,0,0,0,27.3,76.4Zm-.08-1.2c.09-.09.37-.09.59-.09a1.58,1.58,0,0,0,.63-.08c.45-.17.79-.2,1-.08a.38.38,0,0,1,.16.32.62.62,0,0,1-.33.56,1.93,1.93,0,0,1-1.69.1.64.64,0,0,1-.38-.52A.3.3,0,0,1,27.22,75.2Z"/><path class="cls-13" d="M51.65,90.31c-3-.08-8.19-.67-11.57-3.55a13.26,13.26,0,0,0,6,3.35,29.44,29.44,0,0,0,5,.66Z"/><path class="cls-13" d="M42.48,89.24A13.24,13.24,0,0,0,48,92.4l.45-.4A14.34,14.34,0,0,1,42.48,89.24Z"/><path class="cls-13" d="M47.49,91.75c-1.94,1.46-5.69.58-5.69.58a7.28,7.28,0,0,0,6.06-.1Z"/><path class="cls-13" d="M46.4,87.14a30,30,0,0,1,3.08,4l.38-.32A18.43,18.43,0,0,0,46.4,87.14Z"/><path class="cls-13" d="M42.16,75.2a10.63,10.63,0,0,0-4.76-.39l-3.24.52.89.44.07-.14A13.87,13.87,0,0,1,42.16,75.2Z"/><path class="cls-13" d="M37.81,78.75a18.45,18.45,0,0,1-3.08-3.24s-.9-.82.28.9A6.69,6.69,0,0,0,37.81,78.75Z"/><path class="cls-13" d="M34,75.3l-.16-.19-.18.21a4.87,4.87,0,0,1-1,2.47A2.33,2.33,0,0,0,34,75.3Z"/><path class="cls-13" d="M34.05,74.88c-.08.11-.17.21-.25.31a17.94,17.94,0,0,0,7.69,2.72A20.37,20.37,0,0,1,34.05,74.88Z"/><path class="cls-13" d="M47.46,111.89a29.19,29.19,0,0,0,1.76,5.83l.51.06c-.58-1.23-3.09-7-1.6-11.57A10.91,10.91,0,0,0,47.46,111.89Z"/><path class="cls-13" d="M47.9,117.55a21.26,21.26,0,0,0-1.46-3.23,11.05,11.05,0,0,0-4.09-4c2.61,1.71,4.22,4.84,5.11,7.19Z"/><path class="cls-13" d="M49.55,110.11A32.22,32.22,0,0,0,51,117l.31-.58s-2.69-7-.47-11.95A11,11,0,0,0,49.55,110.11Z"/><path class="cls-13" d="M47.74,110.87c-1.73-1.05-2.21-4.23-2.21-4.23a6.08,6.08,0,0,0,1.95,4.67Z"/><path class="cls-13" d="M47.92,113.14l.34.52A13,13,0,0,0,51,108.59S49.14,112.45,47.92,113.14Z"/><path class="cls-13" d="M48.57,116l-.2-.56s-5.51-1.36-6.17-4.59a3.69,3.69,0,0,0,2,3.18A17.33,17.33,0,0,0,48.57,116Z"/><path class="cls-13" d="M44,113.91a2.52,2.52,0,0,0-2.62.74,4.56,4.56,0,0,1,3.42-.27Z"/><path class="cls-13" d="M52.07,112.53c-.11,2.56-.13,3.28-.13,3.28l.6-.78-.12-.1a13.93,13.93,0,0,1,1-7A10.62,10.62,0,0,0,52.07,112.53Z"/><path class="cls-13" d="M54.81,111.36c-1,2.37-1.28,3-1.28,3l.84-.52-.08-.13a13.73,13.73,0,0,1,3.39-6.18A10.5,10.5,0,0,0,54.81,111.36Z"/><path class="cls-13" d="M52.17,118.11l.35,0a6.66,6.66,0,0,1,2.62-3A6.25,6.25,0,0,0,52.17,118.11Z"/><path class="cls-13" d="M54.85,113.34a9.44,9.44,0,0,1,4.84-1.14c-4.32-1-8.1,3.63-8.36,3.93s-.75.88-1.32,1.69l.47.06a19.1,19.1,0,0,1,1.24-1.58A21.83,21.83,0,0,1,54.85,113.34Z"/><path class="cls-13" d="M56.38,112.32a6.76,6.76,0,0,0,2.26-2.86,18.9,18.9,0,0,1-3.16,3.17S54.69,113.54,56.38,112.32Z"/><path class="cls-13" d="M54.11,113.89l-.49.44c1.26-.47,3,.86,3,.86A2.36,2.36,0,0,0,54.11,113.89Z"/><path class="cls-13" d="M52.73,109.92a3.14,3.14,0,0,0-.94-2.3s.94,2.3.57,3.26Z"/><path class="cls-13" d="M55.31,109.64s-2,1.71-3,1.68v.5A6.89,6.89,0,0,0,55.31,109.64Z"/><path class="cls-13" d="M52.09,113.18c-.8-.59-1.34-3-1.34-3a6.15,6.15,0,0,0,1.42,3.77Z"/><path class="cls-14" d="M61.56,104a30.18,30.18,0,0,0,1.57-5.89l-.41-.32c-.15,1.36-1,7.56-4.73,10.69A11,11,0,0,0,61.56,104Z"/><path class="cls-14" d="M64.5,99.2l-.34-.28a21.37,21.37,0,0,0-.46,3.53A11.05,11.05,0,0,0,65.06,108C63.74,105.19,64,101.68,64.5,99.2Z"/><path class="cls-14" d="M58.84,104.38a32.17,32.17,0,0,0,2.43-6.65l-.57.34s-1.38,7.33-5.89,10.4A11.16,11.16,0,0,0,58.84,104.38Z"/><path class="cls-14" d="M61.23,104.45l-.46.24c.93,1.8-.34,4.77-.34,4.77A6.09,6.09,0,0,0,61.23,104.45Z"/><path class="cls-14" d="M61.81,102.05a12.8,12.8,0,0,0-5,2.87s3.6-2.31,5-2.25Z"/><path class="cls-14" d="M65.46,103.87a17.6,17.6,0,0,0-2.68-4l-.13.58s4,4.06,2.82,7.15A3.68,3.68,0,0,0,65.46,103.87Z"/><path class="cls-14" d="M68.16,104.82a4.57,4.57,0,0,1-3-1.58l.43.82A2.54,2.54,0,0,0,68.16,104.82Z"/><path class="cls-14" d="M58,101l1.85-2.73-.93.35,0,.16a13.8,13.8,0,0,1-4.52,5.41A10.52,10.52,0,0,0,58,101Z"/><path class="cls-14" d="M50.58,102.28A10.66,10.66,0,0,0,55,100.54l2.68-1.89h-1v.16A13.9,13.9,0,0,1,50.58,102.28Z"/><path class="cls-14" d="M60.56,96a6.66,6.66,0,0,1-3.83,1.2,6.14,6.14,0,0,0,4.09-1Z"/><path class="cls-14" d="M62.51,97.59l-.37-.31a15.91,15.91,0,0,1-1.89.69,21.75,21.75,0,0,1-4.22.88,9.48,9.48,0,0,1-4.71-1.59c3.13,3.16,8.8,1.19,9.17,1.06S61.59,98,62.51,97.59Z"/><path class="cls-14" d="M54.2,98.91a6.65,6.65,0,0,0-3.43,1.24,18.65,18.65,0,0,1,4.35-1S56.27,98.75,54.2,98.91Z"/><path class="cls-14" d="M57.6,98.65c-1.31-.27-2.12-2.32-2.12-2.32A2.35,2.35,0,0,0,57,98.76Z"/><path class="cls-14" d="M56,102.86a3.17,3.17,0,0,0-.42,2.45s.42-2.45,1.23-3.06Z"/><path class="cls-14" d="M57.44,101.5a6.83,6.83,0,0,0-3.74.25s2.64-.39,3.46.17Z"/><path class="cls-14" d="M58.62,99.75l-.33.68c.38.93-.45,3.28-.45,3.28A6.14,6.14,0,0,0,58.62,99.75Z"/><path class="cls-15" d="M31.82,88.48a29.2,29.2,0,0,0-5.4-2.82,11,11,0,0,0-5.71-.4c4.8-.6,10,2.93,11.08,3.73Z"/><path class="cls-15" d="M31.9,87.15l0-.44c-2.15-1.32-4.92-3.48-6.12-6.36A11.05,11.05,0,0,0,29,85.11,20.84,20.84,0,0,0,31.9,87.15Z"/><path class="cls-15" d="M30.82,90.09a31.4,31.4,0,0,0-6.54-2.7,11,11,0,0,0-5.73.2c5.3-1.25,11.65,2.68,11.65,2.68Z"/><path class="cls-15" d="M25.85,85.58a6.08,6.08,0,0,0-4.23-2.8s3,1.07,3.75,3Z"/><path class="cls-15" d="M27.56,86.34c-.9,1.08-5,2.17-5,2.17A12.83,12.83,0,0,0,28,86.77Z"/><path class="cls-15" d="M30.25,87.51a17.11,17.11,0,0,0-1.12-4.66,3.67,3.67,0,0,0-2.75-2.54c3.05,1.24,3.36,6.91,3.36,6.91Z"/><path class="cls-15" d="M29.05,82.66l.31.88a4.59,4.59,0,0,1,.9-3.32A2.53,2.53,0,0,0,29.05,82.66Z"/><path class="cls-15" d="M28.56,91.24l.88-.45-3.24-.48a10.5,10.5,0,0,0-4.76.46,13.8,13.8,0,0,1,7,.33Z"/><path class="cls-15" d="M27.07,92.82l.68-.73s-.71.14-3.22.7a10.52,10.52,0,0,0-4.28,2.11A13.83,13.83,0,0,1,27,92.72Z"/><path class="cls-15" d="M31.66,91.45a6.25,6.25,0,0,0-3.49,2.36,6.69,6.69,0,0,1,3.47-2C31.65,91.69,31.65,91.57,31.66,91.45Z"/><path class="cls-15" d="M30,90.67a19.86,19.86,0,0,1,1.79-.93c0-.15,0-.31,0-.47-.9.41-1.66.85-1.9,1s-5.63,3-5.42,7.47a9.44,9.44,0,0,1,2-4.54A21.85,21.85,0,0,1,30,90.67Z"/><path class="cls-15" d="M25.65,93.69a18.59,18.59,0,0,1-3.7,2.5,6.71,6.71,0,0,0,3.23-1.68C26.7,93.08,25.65,93.69,25.65,93.69Z"/><path class="cls-15" d="M27.15,92.57A2.35,2.35,0,0,0,28,95.3s-1-2-.28-3.13Z"/><path class="cls-15" d="M24.51,90.29c-1,.19-3.09-1.17-3.09-1.17a3.19,3.19,0,0,0,2.09,1.36Z"/><path class="cls-15" d="M22.75,93a6.8,6.8,0,0,0,2.71-2.58l-.5-.09C24.82,91.27,22.75,93,22.75,93Z"/><path class="cls-15" d="M24.11,88.58s2.28,1,2.71,1.88l.73.21A6.17,6.17,0,0,0,24.11,88.58Z"/><path class="cls-13" d="M40.05,105.53l-.52-.23s-6.16,4.21-11.51,3.21a16.43,16.43,0,0,0,3.33.33,11.78,11.78,0,0,0,3.76-.85A34.39,34.39,0,0,0,40.05,105.53Z"/><path class="cls-13" d="M30.43,107.23a10.67,10.67,0,0,0,4.68-1l3-1.42-1-.17,0,.16A13.77,13.77,0,0,1,30.43,107.23Z"/><path class="cls-13" d="M37,104.06a6.66,6.66,0,0,0-3.34-1.46,18.55,18.55,0,0,1,3.87,2.25S38.57,105.38,37,104.06Z"/><path class="cls-13" d="M38.21,104.85l.54.37c-.76-1.11,0-3.14,0-3.14A2.33,2.33,0,0,0,38.21,104.85Z"/><path class="cls-13" d="M42.05,106.67l-.14-.55a13.81,13.81,0,0,1,0-7.05,10.59,10.59,0,0,0-.71,4.72c.24,2.56.26,2.62.26,2.62Z"/><path class="cls-13" d="M40.31,99s1.23,2.15,1,3.14l.23-1A3.12,3.12,0,0,0,40.31,99Z"/><path class="cls-13" d="M44.06,100.49s-1.79,2-2.78,2.07l.06.51A6.9,6.9,0,0,0,44.06,100.49Z"/><path class="cls-13" d="M41.36,104.43c-.88-.48-1.74-2.81-1.74-2.81a6.13,6.13,0,0,0,1.92,3.54Z"/><path class="cls-13" d="M43.26,107.27c-5.88-4.39-12.94-2.83-12.94-2.83s6.72-.91,12.24,2.85Z"/></g></g></svg>