<svg xmlns="http://www.w3.org/2000/svg" viewBox="0 0 117.78 154.21"><defs><style>.cls-1{fill:#ff3bc3;}.cls-2{fill:#fff;}.cls-3{fill:#d10f90;}.cls-4{fill:#d37a20;}.cls-5{fill:#b76720;opacity:0.41;}.cls-6{fill:#f99e53;opacity:0.6;}.cls-7{fill:#995014;opacity:0.63;}.cls-8{fill:#a05518;opacity:0.46;}.cls-9{fill:#592807;}</style></defs><title>Zasób 52</title><g id="Warstwa_2" data-name="Warstwa 2"><g id="Layer_1" data-name="Layer 1"><rect class="cls-1" width="117.78" height="154.21" rx="12.95"/><rect class="cls-2" x="5.37" y="5.63" width="107.05" height="142.95" rx="10.36"/><path class="cls-3" d="M44.22,131a5.58,5.58,0,0,0,.09-1A2.07,2.07,0,0,0,42,127.57a3.47,3.47,0,0,0-1.79.44,2.93,2.93,0,0,0-.68,1.93,1.58,1.58,0,0,0,.63,1.26,4.47,4.47,0,0,0,1.58.82c.63.2,1.31.44,2.05.74a21.51,21.51,0,0,1,2,.94,4.32,4.32,0,0,1,1.58,1.49,4.27,4.27,0,0,1,.63,2.34,5.13,5.13,0,0,1-2,4.18,7.2,7.2,0,0,1-4.73,1.62,6.29,6.29,0,0,1-3.78-1.12A3.6,3.6,0,0,1,36,139.09a2.48,2.48,0,0,1,.62-1.72,1.92,1.92,0,0,1,1.49-.7,3,3,0,0,1,1.29.22,5.24,5.24,0,0,0-.2,1.33,2.89,2.89,0,0,0,.75,2.09,2.73,2.73,0,0,0,2.06.77,3.14,3.14,0,0,0,2.13-.69,2.26,2.26,0,0,0,.81-1.82,2.33,2.33,0,0,0-.89-1.87,7.15,7.15,0,0,0-2.17-1.18c-.85-.29-1.69-.6-2.54-.93a5.68,5.68,0,0,1-2.17-1.45,3.49,3.49,0,0,1-.89-2.44,4.6,4.6,0,0,1,2-3.81,7.29,7.29,0,0,1,4.52-1.52,6.51,6.51,0,0,1,3.21.75,2.41,2.41,0,0,1,1.36,2.26,2.63,2.63,0,0,1-.71,1.87,2.33,2.33,0,0,1-1.78.77A3.23,3.23,0,0,1,44.22,131Z"/><path class="cls-3" d="M61.27,139.66a3.74,3.74,0,0,1,.29,1.49,2,2,0,0,1-.57,1.43,1.9,1.9,0,0,1-1.41.6q-2.59,0-8.12-.29a1.39,1.39,0,0,1-.78-.28.8.8,0,0,1-.35-.65q0-1.31.21-4.38t.21-5.76a41.74,41.74,0,0,0-.52-6.16c1.21.1,2.83.15,4.87.15a37.94,37.94,0,0,0,5.85-.44,2.6,2.6,0,0,1,.29,1.28,1.85,1.85,0,0,1-.57,1.33,1.94,1.94,0,0,1-1.42.57,23.5,23.5,0,0,1-2.69-.24,21.89,21.89,0,0,0-2.73-.25c-.13,1.65-.2,3.2-.22,4.65,1,.1,2.13.15,3.32.15a8,8,0,0,0,3-.52,2.62,2.62,0,0,1,.3,1.29,1.9,1.9,0,0,1-.58,1.34,1.83,1.83,0,0,1-1.37.6,13.7,13.7,0,0,1-2.36-.3,13.06,13.06,0,0,0-2.37-.31c0,2.58,0,4.47.17,5.68q1.17.09,1.83.09A14.11,14.11,0,0,0,61.27,139.66Z"/><path class="cls-3" d="M72,142.84a6.13,6.13,0,0,1-1.86.34,2.27,2.27,0,0,1-1.94-.92,7.44,7.44,0,0,1-1.14-2.6c-.06-.25-.29-1.14-.68-2.69q-1.15-4.56-1.86-6.6a6.49,6.49,0,0,0-2.08-3.09,2.52,2.52,0,0,1,1-1.18,2.86,2.86,0,0,1,1.58-.44,1.9,1.9,0,0,1,1.5.7,5.55,5.55,0,0,1,.94,1.7c.23.67.44,1.31.62,1.93s.37,1.39.58,2.3.36,1.65.48,2.22.32,1.52.59,2.89.47,2.35.6,3q4.11-10.73,4.11-14.31c0-.22,0-.37,0-.47a3.67,3.67,0,0,1,.75-.07,2.63,2.63,0,0,1,1.61.47,1.62,1.62,0,0,1,.62,1.36q0,1.23-2.41,7.23A74.84,74.84,0,0,0,72,142.84Z"/><path class="cls-3" d="M90,139.66a3.74,3.74,0,0,1,.29,1.49,2,2,0,0,1-.58,1.43,1.86,1.86,0,0,1-1.4.6q-2.59,0-8.13-.29a1.45,1.45,0,0,1-.78-.28A.79.79,0,0,1,79,142q0-1.31.21-4.38c.14-2.06.2-4,.2-5.76a41.61,41.61,0,0,0-.51-6.16c1.21.1,2.83.15,4.87.15a37.94,37.94,0,0,0,5.85-.44,2.72,2.72,0,0,1,.29,1.28,1.85,1.85,0,0,1-.57,1.33,2,2,0,0,1-1.42.57,23.32,23.32,0,0,1-2.69-.24,22.21,22.21,0,0,0-2.73-.25c-.13,1.65-.21,3.2-.22,4.65,1,.1,2.13.15,3.31.15a8,8,0,0,0,3-.52,2.73,2.73,0,0,1,.29,1.29,1.89,1.89,0,0,1-.57,1.34,1.84,1.84,0,0,1-1.37.6,13.7,13.7,0,0,1-2.36-.3,13.14,13.14,0,0,0-2.38-.31c0,2.58.06,4.47.17,5.68.79.06,1.4.09,1.84.09A14.17,14.17,0,0,0,90,139.66Z"/><path class="cls-3" d="M102.59,125.91a3.64,3.64,0,0,1,1.65-.39,2,2,0,0,1,1.42.54,1.72,1.72,0,0,1,.55,1.29c0,.51-.07,1.62-.22,3.34s-.22,3.09-.22,4.1a62.46,62.46,0,0,0,.44,8.1,5.1,5.1,0,0,1-1.75.29,3,3,0,0,1-1.5-.32q-1.58-.9-7.32-11.45c-.07.64-.1,2.13-.1,4.47a43.1,43.1,0,0,0,.54,6.86,4.42,4.42,0,0,1-1.64.29,1.89,1.89,0,0,1-1.43-.56,1.83,1.83,0,0,1-.55-1.34c0-.53.08-1.62.23-3.28s.24-2.92.24-3.77a57.61,57.61,0,0,0-.47-8.07,4.62,4.62,0,0,1,2-.35,1.89,1.89,0,0,1,1.85,1,125,125,0,0,0,6.93,12.48c0-3.13-.07-4.78-.07-5A54.06,54.06,0,0,0,102.59,125.91Z"/><path class="cls-3" d="M12.78,10.78a27.27,27.27,0,0,0,5.6.47,26.82,26.82,0,0,0,2.86-.2c1.24-.13,2.18-.2,2.8-.2a2.07,2.07,0,0,1,1.44.44,2.06,2.06,0,0,1,.5,1.59,6.4,6.4,0,0,1-.81,2.77q-.81,1.6-2.79,4.71a28.49,28.49,0,0,0-2.83,5.53,15.91,15.91,0,0,0-.86,5.29,5.22,5.22,0,0,1-2,.41,2.87,2.87,0,0,1-1.74-.5,1.86,1.86,0,0,1-.67-1.61,8.08,8.08,0,0,1,1.16-3.32A33.92,33.92,0,0,1,18,21.92c2.64-3.73,4.18-6.41,4.59-8-.83.06-2.12.25-3.88.55a25.52,25.52,0,0,1-3.78.45,2.72,2.72,0,0,1-1.88-.65,2,2,0,0,1-.72-1.55A5.09,5.09,0,0,1,12.78,10.78Z"/><path class="cls-4" d="M79,25.36C78.3,30.79,67.08,33.78,54,32s-23.17-7.54-22.45-13,11.93-8.41,25.05-6.68S79.73,19.94,79,25.36Z"/><path class="cls-5" d="M79,25.38C78.3,30.8,67.08,33.79,54,32.05s-23.17-7.53-22.45-13c.22-1.67,1.43-3.11,3.39-4.24,0,0-2.2,5.59,4.33,4.58C44,18.7,50,31.58,53.12,27.4c4-5.3,19.27,1.05,18.19-4.42-.87-4.44,5.4-2.72,5.4-2.72C78.39,21.91,79.24,23.66,79,25.38Z"/><path class="cls-6" d="M56.36,13.93c-3.52-.49-4.6,2.4-7.24,2.48s-4.52-.43-6.38,0c-1.45.34-2.59,2.61-5,1.44-4.23-2-6.19,1.24-6.19,1.24a5.22,5.22,0,0,1,1.94-3.24c3.87-3.28,12.92-4.79,23.11-3.44,8.16,1.08,15.13,3.73,19.06,6.89a11,11,0,0,1-6.09-.17c-.89-.32-3.1-2.48-4.26-2.82-1.71-.5-3.78.93-6.09.46C57.29,16.37,58.22,14.19,56.36,13.93Z"/><path class="cls-7" d="M79,25.36C78.3,30.79,67.08,33.78,54,32c-10.29-1.36-18.7-5.22-21.49-9.45,0,0,3.13,3.05,6.8,3,4.49,0,3.53,2.47,7.07,3.2,2.26.47,4.14-.22,7.16.09,1.36.14,3.33.53,4.55.6s.85-1.46,6.19-2.22c4.29-.6,3.78,1.21,5.92.78,2.43-.47,3.24-1.73,4.61-2.38C77.42,24.43,79,25.36,79,25.36Z"/><path class="cls-8" d="M79,25.36C78.3,30.79,67.08,33.78,54,32c-10.29-1.36-18.7-5.22-21.49-9.45a7.14,7.14,0,0,0,6,1.21c4.9-1.13,1.81,4,7.49,5.93,2.18.76,4.3-3.23,7.33-3.3,4.24-.11,3.23,4.63,7.19,4.76,6.22.21-2.81-5.28,2.53-6,4.29-.6-.91-1.89,1.25-2.31,2.42-.48,7.11-1.8,7.9-.51,1.48,2.41,5.36-1.22,6-.41A5.12,5.12,0,0,1,79,25.36Z"/><path class="cls-9" d="M51.3,18.2s-2.15-1.5-2.3-.63-.16,1.66,1,2S52.17,19.34,51.3,18.2Z"/><path class="cls-9" d="M51,26.87s-2.43.95-1.8,1.57,1.3,1,2.2.27S52.48,26.78,51,26.87Z"/><path class="cls-9" d="M69.24,19s-2.43,1-1.8,1.56,1.3,1.06,2.2.27S70.68,18.9,69.24,19Z"/><path class="cls-9" d="M59.49,26.56s-3.29-2.31-3.53-1-.25,2.56,1.52,3S60.83,28.33,59.49,26.56Z"/><path class="cls-9" d="M66,27.42S69.87,26.2,69,25.19s-1.88-1.75-3.35-.63S63.81,27.42,66,27.42Z"/><path class="cls-9" d="M46.2,25.54s4-.56,3.24-1.7-1.56-2-3.19-1.18S44,25.17,46.2,25.54Z"/><path class="cls-9" d="M38.43,23.8s2.29.39,2.5-1.18c.13-1.07-.07-2-1.52-2.24S37.19,22.55,38.43,23.8Z"/><path class="cls-9" d="M72.53,24.26s2.83,1.48,2.88.4-.07-2-1.52-2.23S71.29,23,72.53,24.26Z"/><path class="cls-6" d="M48.1,14.17s-5.23,2.36-7.17,2-5.59-1.36-3.44.65,4.94,4.36,7.58,2.64,5.6-3.85,8.08-2.39,4.9,2.72,6.51.61,2.74.69,3.92.12.23-2.61-1.93-2.54-7.9-.37-9.36-1.24S50,13.38,48.1,14.17Z"/><path class="cls-9" d="M43.64,12.93s-3.76,1.44-2.79,2.39,2,1.64,3.38.44S45.85,12.82,43.64,12.93Z"/><path class="cls-9" d="M56.55,14.63s-2.44.95-1.8,1.56,1.29,1,2.2.27S58,14.54,56.55,14.63Z"/><path class="cls-9" d="M59.61,19.82s3.57,1.86,3.64.5-.09-2.57-1.92-2.82S58.05,18.24,59.61,19.82Z"/><path class="cls-4" d="M106.05,35.68c1.58,5.25-7.41,12.58-20.09,16.4s-24.22,2.65-25.8-2.59,7.43-12.58,20.1-16.39S104.48,30.45,106.05,35.68Z"/><path class="cls-5" d="M106.06,35.7c1.58,5.24-7.42,12.57-20.09,16.38s-24.22,2.67-25.8-2.58c-.49-1.61,0-3.42,1.35-5.26,0,0,.29,6,5.83,2.4,4-2.63,14.79,6.66,15.94,1.55,1.47-6.48,18-7,14.76-11.51C95.43,33,101.86,32,101.86,32,104.07,32.79,105.56,34,106.06,35.7Z"/><path class="cls-6" d="M80.7,34.58c-3.41,1-3.21,4.08-5.58,5.24s-4.3,1.46-5.82,2.61c-1.18.91-1.29,3.44-4,3.38-4.69-.11-5.14,3.68-5.14,3.68a5.25,5.25,0,0,1,.45-3.75c2.17-4.58,9.8-9.68,19.65-12.64,7.87-2.37,15.32-2.82,20.2-1.56a10.92,10.92,0,0,1-5.62,2.35c-1,.08-3.84-1-5-.81-1.77.24-3.06,2.4-5.36,2.92C82.55,36.42,82.5,34.05,80.7,34.58Z"/><path class="cls-7" d="M106.05,35.68c1.58,5.25-7.41,12.58-20.09,16.4-9.94,3-19.19,2.92-23.48.21,0,0,4.11,1.5,7.46,0,4.08-1.85,4.23.8,7.76,0,2.25-.51,3.68-1.9,6.56-2.86,1.29-.44,3.25-.88,4.39-1.33s.18-1.68,4.73-4.56c3.66-2.32,3.94-.45,5.72-1.73,2-1.42,2.24-2.91,3.22-4.06C104.22,35.49,106.05,35.68,106.05,35.68Z"/><path class="cls-8" d="M106.05,35.68c1.58,5.25-7.41,12.58-20.09,16.4-9.94,3-19.19,2.92-23.48.21A7.14,7.14,0,0,0,68.42,51c4-3.05,3.28,2.88,9.26,2.33,2.3-.21,2.6-4.72,5.33-6,3.81-1.84,4.84,2.89,8.51,1.38,5.75-2.37-4.74-3.65-.18-6.54,3.66-2.32-1.6-1.35.19-2.62,2-1.44,5.75-4.57,7-3.72,2.35,1.59,4.39-3.31,5.28-2.83A5.11,5.11,0,0,1,106.05,35.68Z"/><path class="cls-9" d="M77.84,40.55s-2.57-.48-2.35.37.53,1.58,1.72,1.39S79.11,41.24,77.84,40.55Z"/><path class="cls-9" d="M81.17,48.56s-1.82,1.87-1,2.17,1.62.42,2.11-.66S82.45,47.89,81.17,48.56Z"/><path class="cls-9" d="M94.52,33.89s-1.82,1.87-1,2.17,1.61.43,2.11-.66S95.8,33.22,94.52,33.89Z"/><path class="cls-9" d="M88.75,44.8s-4-.75-3.62.57.83,2.44,2.64,2.15S90.7,45.87,88.75,44.8Z"/><path class="cls-9" d="M95.06,42.89s3-2.69,1.75-3.22-2.43-.82-3.31.8S93,43.81,95.06,42.89Z"/><path class="cls-9" d="M76.21,49.34s3.4-2.15,2.26-2.89-2.26-1.21-3.39.24S74.06,49.9,76.21,49.34Z"/><path class="cls-9" d="M68.42,51s2.24-.59,1.79-2.1c-.32-1-.91-1.83-2.31-1.42S66.77,50.31,68.42,51Z"/><path class="cls-9" d="M99.69,37.35s3.19.18,2.79-.82-.9-1.83-2.3-1.42S98.05,36.72,99.69,37.35Z"/><path class="cls-6" d="M73.27,38.19S69.47,42.5,67.56,43,61.9,44,64.69,45s6.29,1.94,8-.71,3.52-5.81,6.37-5.5,5.59.46,6.19-2.12,2.78-.5,3.62-1.5-.86-2.48-2.8-1.53-7.35,2.91-9,2.72S74.7,36.68,73.27,38.19Z"/><path class="cls-9" d="M68.69,38.9s-2.83,2.85-1.56,3.32,2.48.68,3.27-1S70.67,37.89,68.69,38.9Z"/><path class="cls-9" d="M81.16,35.14s-1.83,1.87-1,2.16,1.61.43,2.12-.65S82.43,34.46,81.16,35.14Z"/><path class="cls-9" d="M86.09,38.61s4,.23,3.52-1-1.14-2.3-2.91-1.78S84,37.81,86.09,38.61Z"/><path class="cls-4" d="M105.83,77.71c-.72,5.43-11.94,8.42-25.06,6.69s-23.17-7.54-22.45-13S70.25,63,83.37,64.76,106.54,72.3,105.83,77.71Z"/><path class="cls-5" d="M105.83,77.73c-.72,5.42-11.94,8.41-25.06,6.68s-23.17-7.53-22.45-13c.22-1.66,1.43-3.1,3.39-4.24,0,0-2.2,5.59,4.33,4.58,4.77-.73,10.75,12.16,13.89,8,4-5.31,19.27,1,18.19-4.43-.87-4.44,5.4-2.71,5.4-2.71C105.2,74.26,106.05,76,105.83,77.73Z"/><path class="cls-6" d="M83.17,66.28c-3.52-.49-4.6,2.41-7.24,2.49s-4.52-.44-6.38,0c-1.45.33-2.59,2.6-5,1.43-4.23-2-6.19,1.24-6.19,1.24a5.25,5.25,0,0,1,1.94-3.24c3.87-3.28,12.92-4.79,23.11-3.43,8.16,1.07,15.13,3.72,19.06,6.88a10.9,10.9,0,0,1-6.09-.17c-.89-.32-3.1-2.48-4.26-2.81-1.71-.51-3.78.92-6.09.45C84.1,68.73,85,66.54,83.17,66.28Z"/><path class="cls-7" d="M105.83,77.71c-.72,5.43-11.94,8.42-25.06,6.69C70.48,83,62.07,79.17,59.28,74.94c0,0,3.13,3.06,6.8,3,4.49,0,3.53,2.48,7.07,3.2,2.26.47,4.14-.21,7.16.09,1.36.14,3.33.54,4.55.6s.85-1.46,6.19-2.22c4.29-.6,3.78,1.22,5.92.79,2.43-.47,3.24-1.74,4.61-2.39C104.23,76.79,105.83,77.71,105.83,77.71Z"/><path class="cls-8" d="M105.83,77.71c-.72,5.43-11.94,8.42-25.06,6.69C70.48,83,62.07,79.17,59.28,74.94a7.1,7.1,0,0,0,6,1.21c4.9-1.13,1.81,4,7.49,5.94,2.18.75,4.3-3.23,7.33-3.31,4.24-.11,3.23,4.63,7.19,4.76,6.22.21-2.81-5.28,2.53-6,4.29-.6-.91-1.89,1.25-2.31,2.42-.48,7.11-1.8,7.9-.51,1.48,2.41,5.36-1.22,6-.41A5.13,5.13,0,0,1,105.83,77.71Z"/><path class="cls-9" d="M78.11,70.55s-2.15-1.5-2.3-.63-.16,1.66,1,2S79,71.7,78.11,70.55Z"/><path class="cls-9" d="M77.85,79.22s-2.43,1-1.8,1.58,1.3,1,2.2.26S79.29,79.13,77.85,79.22Z"/><path class="cls-9" d="M96.05,71.34s-2.43,1-1.8,1.57,1.3,1,2.2.26S97.49,71.25,96.05,71.34Z"/><path class="cls-9" d="M86.3,78.92s-3.29-2.31-3.53-1-.25,2.57,1.52,3S87.64,80.69,86.3,78.92Z"/><path class="cls-9" d="M92.84,79.77s3.84-1.22,2.92-2.23-1.88-1.74-3.35-.62S90.62,79.77,92.84,79.77Z"/><path class="cls-9" d="M73,77.89s4-.56,3.24-1.7-1.56-2-3.19-1.18S70.82,77.52,73,77.89Z"/><path class="cls-9" d="M65.24,76.15s2.29.39,2.49-1.17c.14-1.08-.07-2-1.51-2.24S64,74.9,65.24,76.15Z"/><path class="cls-9" d="M99.34,76.62s2.83,1.48,2.88.39-.07-2-1.52-2.23S98.1,75.37,99.34,76.62Z"/><path class="cls-6" d="M74.91,66.52s-5.23,2.37-7.17,2-5.59-1.37-3.44.64,4.94,4.36,7.58,2.64S77.48,68,80,69.42s4.9,2.72,6.51.61,2.74.69,3.92.12.23-2.61-1.93-2.54-7.9-.37-9.36-1.24S76.83,65.73,74.91,66.52Z"/><path class="cls-9" d="M70.45,65.28s-3.76,1.44-2.79,2.39,2,1.64,3.38.45S72.66,65.17,70.45,65.28Z"/><path class="cls-9" d="M83.36,67s-2.44,1-1.8,1.56,1.29,1.06,2.2.28S84.79,66.89,83.36,67Z"/><path class="cls-9" d="M86.42,72.18s3.57,1.85,3.64.5-.09-2.57-1.92-2.83S84.86,70.6,86.42,72.18Z"/><path class="cls-4" d="M56.54,103.61c2,5.1-6.38,13.14-18.71,18s-23.93,4.59-25.92-.51,6.39-13.13,18.71-17.94S54.56,98.52,56.54,103.61Z"/><path class="cls-5" d="M56.55,103.63c2,5.09-6.39,13.13-18.71,17.94s-23.93,4.59-25.93-.51c-.61-1.56-.24-3.41.92-5.35,0,0,.78,6,6,1.92,3.82-2.95,15.28,5.45,16,.27.94-6.58,17.37-8.38,13.78-12.66-2.9-3.46,3.42-5,3.42-5C54.33,100.89,55.92,102,56.55,103.63Z"/><path class="cls-6" d="M31.19,104.54c-3.33,1.27-2.87,4.33-5.15,5.67s-4.17,1.81-5.59,3.07c-1.1,1-1,3.53-3.72,3.69-4.68.27-4.82,4.08-4.82,4.08a5.23,5.23,0,0,1,.14-3.78c1.8-4.74,9-10.42,18.57-14.16,7.66-3,15.05-4,20-3.18a10.89,10.89,0,0,1-5.42,2.79c-.93.15-3.91-.67-5.08-.41-1.75.39-2.87,2.64-5.12,3.35C33.18,106.23,32.94,103.87,31.19,104.54Z"/><path class="cls-7" d="M56.54,103.61c2,5.1-6.38,13.14-18.71,18-9.67,3.78-18.9,4.45-23.39,2.1,0,0,4.22,1.16,7.43-.62,3.92-2.18,4.28.46,7.74-.61,2.2-.69,3.52-2.19,6.31-3.38,1.26-.54,3.17-1.14,4.27-1.67s0-1.69,4.35-4.93c3.46-2.6,3.9-.77,5.57-2.18,1.9-1.58,2-3.08,2.88-4.31C54.7,103.57,56.54,103.61,56.54,103.61Z"/><path class="cls-8" d="M56.54,103.61c2,5.1-6.38,13.14-18.71,18-9.67,3.78-18.9,4.45-23.39,2.1a7.15,7.15,0,0,0,5.81-1.82c3.74-3.35,3.51,2.61,9.42,1.58,2.27-.39,2.21-4.91,4.83-6.44,3.65-2.14,5.06,2.5,8.59.7,5.55-2.82-5-3.26-.7-6.51,3.47-2.59-1.71-1.21,0-2.62,1.89-1.59,5.36-5,6.67-4.27,2.47,1.4,4.11-3.65,5-3.24A5.08,5.08,0,0,1,56.54,103.61Z"/><path class="cls-9" d="M28.81,110.72s-2.6-.27-2.31.56.66,1.53,1.82,1.25S30.13,111.31,28.81,110.72Z"/><path class="cls-9" d="M32.77,118.44s-1.67,2-.81,2.25,1.64.29,2-.83S34,117.67,32.77,118.44Z"/><path class="cls-9" d="M44.9,102.75s-1.66,2-.81,2.24,1.65.3,2-.83S46.12,102,44.9,102.75Z"/><path class="cls-9" d="M40,114.09s-4-.43-3.57.86,1,2.36,2.8,1.93S42.05,115,40,114.09Z"/><path class="cls-9" d="M46.17,111.68s2.77-2.92,1.48-3.36-2.49-.62-3.24,1.07S44.22,112.75,46.17,111.68Z"/><path class="cls-9" d="M27.89,119.62s3.22-2.42,2-3.06-2.35-1-3.36.5S25.79,120.34,27.89,119.62Z"/><path class="cls-9" d="M20.25,121.84s2.19-.76,1.62-2.23c-.4-1-1.05-1.76-2.41-1.23S18.56,121.34,20.25,121.84Z"/><path class="cls-9" d="M50.33,105.78s3.2-.07,2.72-1-1-1.75-2.41-1.22S48.65,105.29,50.33,105.78Z"/><path class="cls-6" d="M24.07,108.74s-3.44,4.59-5.31,5.21-5.56,1.51-2.7,2.23,6.43,1.43,7.91-1.35,3-6.07,5.92-6,5.6,0,6-2.61,2.73-.72,3.48-1.79-1.06-2.4-2.91-1.29-7.1,3.49-8.8,3.43S25.37,107.12,24.07,108.74Z"/><path class="cls-9" d="M19.56,109.81s-2.6,3.07-1.29,3.44,2.53.48,3.18-1.24S21.45,108.64,19.56,109.81Z"/><path class="cls-9" d="M31.68,105.06s-1.67,2-.81,2.24,1.64.3,2.05-.82S32.9,104.29,31.68,105.06Z"/><path class="cls-9" d="M36.88,108.13s4-.1,3.43-1.32-1.32-2.2-3.05-1.54S34.75,107.5,36.88,108.13Z"/><path class="cls-4" d="M102.94,111.19c-2.18,5-13.79,4.81-25.92-.46S56.81,97.1,59,92.08s13.79-4.8,25.93.48S105.12,106.18,102.94,111.19Z"/><path class="cls-5" d="M102.94,111.21c-2.19,5-13.79,4.8-25.93-.47S56.81,97.12,59,92.1c.67-1.54,2.24-2.59,4.43-3.15,0,0-3.65,4.77,2.9,5.6,4.79.6,7,14.64,11.17,11.49,5.3-4,18.23,6.3,18.7.74.38-4.51,5.94-1.12,5.94-1.12C103.29,107.7,103.62,109.62,102.94,111.21Z"/><path class="cls-6" d="M84.3,94c-3.25-1.44-5.08,1-7.64.4s-4.23-1.66-6.14-1.77c-1.48-.07-3.2,1.79-5.23,0-3.51-3.12-6.3-.52-6.3-.52a5.21,5.21,0,0,1,2.76-2.57c4.62-2.09,13.74-1.05,23.17,3,7.54,3.28,13.52,7.74,16.43,11.86a11,11,0,0,1-5.81-1.84c-.77-.55-2.3-3.23-3.32-3.88-1.51-1-3.89-.14-6-1.23C84.52,96.58,86,94.73,84.3,94Z"/><path class="cls-7" d="M102.94,111.19c-2.18,5-13.79,4.81-25.92-.46-9.53-4.14-16.55-10.17-18.07-15,0,0,2.17,3.8,5.71,4.8,4.31,1.22,2.71,3.35,5.91,5,2.05,1.07,4,.93,6.86,2.06,1.27.5,3,1.43,4.21,1.83s1.22-1.18,6.56-.44c4.29.6,3.3,2.21,5.48,2.39,2.46.21,3.59-.78,5.09-1C101.67,109.86,102.94,111.19,102.94,111.19Z"/><path class="cls-8" d="M102.94,111.19c-2.18,5-13.79,4.81-25.92-.46-9.53-4.14-16.55-10.17-18.07-15a7.12,7.12,0,0,0,5.4,2.81c5,.26.65,4.32,5.57,7.77,1.88,1.32,5-1.93,8-1.17,4.1,1.06,1.82,5.34,5.6,6.55,5.92,1.92-1.25-5.84,4.09-5.1,4.29.6-.35-2.07,1.84-1.88,2.46.2,7.33.23,7.74,1.68.76,2.73,5.49.31,5.85,1.25A5.08,5.08,0,0,1,102.94,111.19Z"/><path class="cls-9" d="M78.26,96.68s-1.65-2-2-1.23-.61,1.54.41,2.17S78.79,98,78.26,96.68Z"/><path class="cls-9" d="M75.63,105s-2.6.25-2.16,1,1,1.36,2,.86S77,105.26,75.63,105Z"/><path class="cls-9" d="M95.29,102.38s-2.6.25-2.15,1,1,1.37,2,.86S96.71,102.68,95.29,102.38Z"/><path class="cls-9" d="M83.84,107s-2.53-3.13-3.13-1.91-.95,2.4.62,3.34S84.64,109.05,83.84,107Z"/><path class="cls-9" d="M89.89,109.6s4-.12,3.42-1.34-1.33-2.19-3-1.52S87.76,109,89.89,109.6Z"/><path class="cls-9" d="M71.34,102.34s4,.56,3.59-.74-.94-2.39-2.75-2S69.34,101.38,71.34,102.34Z"/><path class="cls-9" d="M64.35,98.53s2.09,1,2.72-.45c.43-1,.5-2-.84-2.57S63.51,97,64.35,98.53Z"/><path class="cls-9" d="M97,108.35s2.32,2.21,2.67,1.18.49-2-.85-2.57S96.16,106.81,97,108.35Z"/><path class="cls-6" d="M76.3,91.93s-5.68.83-7.45,0-5-2.85-3.48-.33,3.55,5.55,6.56,4.62,6.44-2.16,8.42-.08,4,4,6.1,2.38,2.44,1.42,3.73,1.2.94-2.45-1.15-3-7.5-2.53-8.67-3.76S78.36,91.7,76.3,91.93Z"/><path class="cls-9" d="M72.35,89.51s-4,.35-3.34,1.53,1.45,2.12,3.12,1.36S74.51,90,72.35,89.51Z"/><path class="cls-9" d="M84.29,94.69s-2.61.25-2.16,1,1,1.37,2,.87S85.7,95,84.29,94.69Z"/><path class="cls-9" d="M85.8,100.53s2.93,2.77,3.37,1.48.62-2.49-1.07-3.24S84.74,98.58,85.8,100.53Z"/><path class="cls-4" d="M57.94,85c-.72,5.43-11.94,8.42-25.06,6.68s-23.17-7.54-22.45-13,11.93-8.41,25-6.68S58.65,79.58,57.94,85Z"/><path class="cls-5" d="M57.94,85c-.72,5.42-11.94,8.41-25.06,6.67s-23.17-7.53-22.45-13c.22-1.66,1.43-3.11,3.39-4.24,0,0-2.2,5.59,4.33,4.58,4.77-.73,10.75,12.16,13.89,8,4-5.31,19.27,1,18.19-4.43-.87-4.44,5.4-2.72,5.4-2.72C57.31,81.55,58.16,83.3,57.94,85Z"/><path class="cls-6" d="M35.28,73.57c-3.52-.49-4.6,2.4-7.24,2.48s-4.52-.43-6.38,0c-1.45.34-2.59,2.61-5,1.44-4.23-2-6.19,1.24-6.19,1.24a5.22,5.22,0,0,1,1.94-3.24C16.24,72.2,25.29,70.69,35.48,72c8.16,1.08,15.13,3.73,19.06,6.89a11,11,0,0,1-6.09-.17c-.89-.32-3.1-2.48-4.26-2.82-1.71-.5-3.78.93-6.09.46C36.21,76,37.14,73.83,35.28,73.57Z"/><path class="cls-7" d="M57.94,85c-.72,5.43-11.94,8.42-25.06,6.68-10.29-1.36-18.7-5.22-21.49-9.45,0,0,3.13,3,6.8,3,4.49,0,3.53,2.47,7.07,3.2,2.26.47,4.14-.22,7.16.09,1.36.14,3.33.54,4.55.6s.85-1.46,6.19-2.22c4.29-.6,3.78,1.21,5.92.78,2.43-.47,3.24-1.73,4.61-2.38C56.34,84.07,57.94,85,57.94,85Z"/><path class="cls-8" d="M57.94,85c-.72,5.43-11.94,8.42-25.06,6.68-10.29-1.36-18.7-5.22-21.49-9.45a7.14,7.14,0,0,0,6,1.21c4.9-1.13,1.81,4,7.49,5.93,2.18.76,4.3-3.23,7.33-3.3,4.24-.11,3.23,4.63,7.19,4.76,6.22.21-2.81-5.28,2.53-6,4.29-.6-.91-1.89,1.25-2.31,2.42-.48,7.11-1.8,7.9-.51,1.48,2.41,5.36-1.22,6-.41A5.13,5.13,0,0,1,57.94,85Z"/><path class="cls-9" d="M30.22,77.84s-2.15-1.5-2.3-.63-.16,1.66,1,2S31.09,79,30.22,77.84Z"/><path class="cls-9" d="M30,86.51s-2.43.95-1.8,1.57,1.3,1,2.2.27S31.4,86.42,30,86.51Z"/><path class="cls-9" d="M48.16,78.63s-2.43,1-1.8,1.56,1.3,1.06,2.2.27S49.6,78.54,48.16,78.63Z"/><path class="cls-9" d="M38.41,86.2s-3.29-2.31-3.53-1-.25,2.56,1.52,3S39.75,88,38.41,86.2Z"/><path class="cls-9" d="M45,87.06s3.84-1.22,2.92-2.23S46,83.09,44.52,84.2,42.73,87.06,45,87.06Z"/><path class="cls-9" d="M25.12,85.18s4-.56,3.24-1.7-1.56-2-3.19-1.18S22.93,84.81,25.12,85.18Z"/><path class="cls-9" d="M17.35,83.44s2.29.39,2.49-1.18c.14-1.07-.07-2-1.51-2.24S16.11,82.19,17.35,83.44Z"/><path class="cls-9" d="M51.45,83.9s2.83,1.48,2.88.4-.07-2-1.52-2.23S50.21,82.66,51.45,83.9Z"/><path class="cls-6" d="M27,73.81s-5.23,2.36-7.17,2-5.59-1.36-3.44.65S21.35,80.82,24,79.1s5.6-3.85,8.08-2.39,4.9,2.72,6.51.61,2.74.69,3.92.12.23-2.61-1.93-2.54-7.9-.37-9.36-1.24S28.94,73,27,73.81Z"/><path class="cls-9" d="M22.56,72.57S18.8,74,19.77,75s2,1.64,3.38.44S24.77,72.46,22.56,72.57Z"/><path class="cls-9" d="M35.47,74.27s-2.44,1-1.8,1.56,1.29,1.06,2.19.27S36.9,74.18,35.47,74.27Z"/><path class="cls-9" d="M38.53,79.46s3.57,1.86,3.64.5-.09-2.57-1.92-2.82S37,77.88,38.53,79.46Z"/><path class="cls-4" d="M57.63,62.7c-1.87,5.16-13.47,5.67-25.9,1.15s-21-12.34-19.15-17.48S26,40.72,38.48,45.23,59.49,57.57,57.63,62.7Z"/><path class="cls-5" d="M57.63,62.72c-1.87,5.15-13.47,5.66-25.91,1.14s-21-12.33-19.14-17.48c.57-1.58,2.07-2.72,4.22-3.42,0,0-3.35,5,3.24,5.41,4.82.31,7.89,14.18,11.86,10.77,5.05-4.32,18.59,5.16,18.72-.42.1-4.52,5.85-1.49,5.85-1.49C57.76,59.2,58.21,61.1,57.63,62.72Z"/><path class="cls-6" d="M38,46.68c-3.34-1.24-5,1.36-7.61.87s-4.32-1.4-6.23-1.38c-1.48,0-3.08,2-5.22.32-3.7-2.89-6.32-.12-6.32-.12a5.25,5.25,0,0,1,2.59-2.75c4.48-2.37,13.64-1.9,23.31,1.61,7.73,2.8,14,6.89,17.14,10.81a10.86,10.86,0,0,1-5.91-1.47c-.81-.5-2.5-3.08-3.56-3.66-1.56-.86-3.89.09-6-.86C38.34,49.26,39.71,47.33,38,46.68Z"/><path class="cls-7" d="M57.63,62.7c-1.87,5.16-13.47,5.67-25.9,1.15C22,60.31,14.58,54.73,12.76,50c0,0,2.4,3.66,6,4.44,4.38,1,2.91,3.17,6.21,4.64,2.11.94,4.09.67,7,1.62,1.3.43,3.14,1.24,4.32,1.57s1.14-1.25,6.52-.84c4.32.33,3.43,2,5.62,2,2.47.07,3.54-1,5-1.34C56.28,61.46,57.63,62.7,57.63,62.7Z"/><path class="cls-8" d="M57.63,62.7c-1.87,5.16-13.47,5.67-25.9,1.15C22,60.31,14.58,54.73,12.76,50a7.16,7.16,0,0,0,5.57,2.47c5,0,.91,4.27,6,7.4,2,1.2,4.9-2.23,7.88-1.65,4.16.8,2.15,5.21,6,6.19,6,1.54-1.62-5.76,3.76-5.35,4.32.33-.48-2.05,1.72-2,2.47.06,7.34-.22,7.83,1.2.93,2.68,5.5,0,5.92.89A5.06,5.06,0,0,1,57.63,62.7Z"/><path class="cls-9" d="M32.1,49.76S30.32,47.84,30,48.65s-.51,1.58.54,2.14S32.7,51.07,32.1,49.76Z"/><path class="cls-9" d="M30,58.17s-2.58.41-2.09,1.15,1,1.31,2.09.73S31.41,58.4,30,58.17Z"/><path class="cls-9" d="M49.45,54.38s-2.58.41-2.09,1.14,1,1.32,2.09.74S50.88,54.6,49.45,54.38Z"/><path class="cls-9" d="M38.31,59.69s-2.73-3-3.25-1.71-.79,2.45.83,3.3S39.23,61.7,38.31,59.69Z"/><path class="cls-9" d="M44.51,61.92s4-.36,3.33-1.54-1.47-2.11-3.14-1.33S42.34,61.45,44.51,61.92Z"/><path class="cls-9" d="M25.54,55.83s4,.31,3.53-1S28,52.54,26.21,53,23.48,55,25.54,55.83Z"/><path class="cls-9" d="M18.33,52.47s2.14.87,2.69-.62c.36-1,.36-2-1-2.51S17.39,51,18.33,52.47Z"/><path class="cls-9" d="M51.53,60.24s2.45,2.06,2.73,1,.37-2-1-2.51S50.59,58.76,51.53,60.24Z"/><path class="cls-6" d="M29.84,45.14s-5.62,1.18-7.43.42-5.17-2.54-3.5-.11,3.89,5.31,6.84,4.21,6.29-2.56,8.4-.61,4.2,3.71,6.23,2,2.52,1.26,3.8,1,.78-2.51-1.34-2.9S35.21,47.05,34,45.89,31.88,44.78,29.84,45.14Z"/><path class="cls-9" d="M25.75,43s-4,.6-3.24,1.73,1.58,2,3.2,1.16S27.93,43.34,25.75,43Z"/><path class="cls-9" d="M38,47.4s-2.59.41-2.09,1.14,1,1.31,2.08.74S39.41,47.62,38,47.4Z"/><path class="cls-9" d="M39.86,53.13s3.1,2.58,3.45,1.27.47-2.53-1.26-3.17S38.68,51.25,39.86,53.13Z"/></g></g></svg>